<?xml version="1.0" encoding="UTF-8" standalone="no"?>
<!-- Created with Inkscape (http://www.inkscape.org/) -->

<svg
   xmlns:dc="http://purl.org/dc/elements/1.1/"
   xmlns:cc="http://creativecommons.org/ns#"
   xmlns:rdf="http://www.w3.org/1999/02/22-rdf-syntax-ns#"
   xmlns:svg="http://www.w3.org/2000/svg"
   xmlns="http://www.w3.org/2000/svg"
   xmlns:sodipodi="http://sodipodi.sourceforge.net/DTD/sodipodi-0.dtd"
   xmlns:inkscape="http://www.inkscape.org/namespaces/inkscape"
   id="svg2999"
   version="1.1"
   inkscape:version="0.48.1 "
   width="900"
   height="900"
   sodipodi:docname="gmalign.svg"
   style="display:inline">
  <metadata
     id="metadata3005">
    <rdf:RDF>
      <cc:Work
         rdf:about="">
        <dc:format>image/svg+xml</dc:format>
        <dc:type
           rdf:resource="http://purl.org/dc/dcmitype/StillImage" />
        <dc:title />
      </cc:Work>
    </rdf:RDF>
  </metadata>
  <defs
     id="defs3003">
    <marker
       inkscape:stockid="Arrow1Lend"
       orient="auto"
       refY="0"
       refX="0"
       id="Arrow1Lend"
       style="overflow:visible">
      <path
         id="path3945"
         d="M 0,0 5,-5 -12.5,0 5,5 0,0 z"
         style="fill-rule:evenodd;stroke:#000000;stroke-width:1pt;marker-start:none"
         transform="matrix(-0.8,0,0,-0.8,-10,0)"
         inkscape:connector-curvature="0" />
    </marker>
    <marker
       inkscape:stockid="Arrow1Lstart"
       orient="auto"
       refY="0"
       refX="0"
       id="Arrow1Lstart"
       style="overflow:visible">
      <path
         id="path3942"
         d="M 0,0 5,-5 -12.5,0 5,5 0,0 z"
         style="fill-rule:evenodd;stroke:#000000;stroke-width:1pt;marker-start:none"
         transform="matrix(0.8,0,0,0.8,10,0)"
         inkscape:connector-curvature="0" />
    </marker>
    <filter
       color-interpolation-filters="sRGB"
       inkscape:menu-tooltip="Glow of object's own color at the edges"
       inkscape:menu="Shadows and Glows"
       inkscape:label="Glow"
       id="filter2993">
      <feGaussianBlur
         result="result91"
         stdDeviation="5"
         id="feGaussianBlur2995" />
      <feComposite
         operator="over"
         in="SourceGraphic"
         in2="result91"
         id="feComposite2997" />
    </filter>
    <marker
       inkscape:stockid="Arrow1Lend"
       orient="auto"
       refY="0"
       refX="0"
       id="Arrow1Lend-5"
       style="overflow:visible">
      <path
         id="path3945-0"
         d="M 0,0 5,-5 -12.5,0 5,5 0,0 z"
         style="fill-rule:evenodd;stroke:#000000;stroke-width:1pt;marker-start:none"
         transform="matrix(-0.8,0,0,-0.8,-10,0)"
         inkscape:connector-curvature="0" />
    </marker>
    <marker
       inkscape:stockid="Arrow1Lstart"
       orient="auto"
       refY="0"
       refX="0"
       id="Arrow1Lstart-7"
       style="overflow:visible">
      <path
         id="path3942-6"
         d="M 0,0 5,-5 -12.5,0 5,5 0,0 z"
         style="fill-rule:evenodd;stroke:#000000;stroke-width:1pt;marker-start:none"
         transform="matrix(0.8,0,0,0.8,10,0)"
         inkscape:connector-curvature="0" />
    </marker>
    <filter
       color-interpolation-filters="sRGB"
       inkscape:menu-tooltip="Glow of object's own color at the edges"
       inkscape:menu="Shadows and Glows"
       inkscape:label="Glow"
       id="filter2993-8">
      <feGaussianBlur
         result="result91"
         stdDeviation="5"
         id="feGaussianBlur2995-2" />
      <feComposite
         operator="over"
         in="SourceGraphic"
         in2="result91"
         id="feComposite2997-5" />
    </filter>
    <filter
       id="filter4412"
       inkscape:label="Glow"
       inkscape:menu="Shadows and Glows"
       inkscape:menu-tooltip="Glow of object's own color at the edges"
       color-interpolation-filters="sRGB">
      <feGaussianBlur
         id="feGaussianBlur4414"
         stdDeviation="5"
         result="result91" />
      <feComposite
         id="feComposite4416"
         in2="result91"
         in="SourceGraphic"
         operator="over" />
    </filter>
    <filter
       id="filter4412-8"
       inkscape:label="Glow"
       inkscape:menu="Shadows and Glows"
       inkscape:menu-tooltip="Glow of object's own color at the edges"
       color-interpolation-filters="sRGB">
      <feGaussianBlur
         id="feGaussianBlur4414-5"
         stdDeviation="5"
         result="result91" />
      <feComposite
         id="feComposite4416-7"
         in2="result91"
         in="SourceGraphic"
         operator="over" />
    </filter>
    <filter
       id="filter4412-8-9"
       inkscape:label="Glow"
       inkscape:menu="Shadows and Glows"
       inkscape:menu-tooltip="Glow of object's own color at the edges"
       color-interpolation-filters="sRGB">
      <feGaussianBlur
         id="feGaussianBlur4414-5-8"
         stdDeviation="5"
         result="result91" />
      <feComposite
         id="feComposite4416-7-9"
         in2="result91"
         in="SourceGraphic"
         operator="over" />
    </filter>
    <filter
       id="filter4412-8-4"
       inkscape:label="Glow"
       inkscape:menu="Shadows and Glows"
       inkscape:menu-tooltip="Glow of object's own color at the edges"
       color-interpolation-filters="sRGB">
      <feGaussianBlur
         id="feGaussianBlur4414-5-9"
         stdDeviation="5"
         result="result91" />
      <feComposite
         id="feComposite4416-7-0"
         in2="result91"
         in="SourceGraphic"
         operator="over" />
    </filter>
    <filter
       id="filter5296"
       inkscape:label="Glow"
       inkscape:menu="Shadows and Glows"
       inkscape:menu-tooltip="Glow of object's own color at the edges"
       color-interpolation-filters="sRGB">
      <feGaussianBlur
         id="feGaussianBlur5298"
         stdDeviation="5"
         result="result91" />
      <feComposite
         id="feComposite5300"
         in2="result91"
         in="SourceGraphic"
         operator="over" />
    </filter>
  </defs>
  <sodipodi:namedview
     pagecolor="#ffffff"
     bordercolor="#666666"
     borderopacity="1"
     objecttolerance="10"
     gridtolerance="10"
     guidetolerance="10"
     inkscape:pageopacity="0"
     inkscape:pageshadow="2"
     inkscape:window-width="1280"
     inkscape:window-height="738"
     id="namedview3001"
     showgrid="false"
     inkscape:zoom="0.57666667"
     inkscape:cx="413.73055"
     inkscape:cy="295.56303"
     inkscape:window-x="-8"
     inkscape:window-y="-8"
     inkscape:window-maximized="1"
     inkscape:current-layer="layer3" />
  <g
     inkscape:groupmode="layer"
     id="layer3"
     inkscape:label="format"
     style="display:inline">
    <g
       id="g5154"
       transform="translate(-168.00578,20.606939)">
      <rect
         transform="matrix(0,1,-1,0,0,0)"
         rx="17.440981"
         y="-254.68839"
         x="790.54443"
         height="85.365204"
         width="87.531227"
         id="rect3881"
         style="opacity:0.5;fill:#ffffff;fill-opacity:1;stroke:#00ff00;stroke-width:2.63480067;stroke-miterlimit:4;stroke-opacity:1;stroke-dasharray:none" />
      <path
         transform="matrix(0,0.37905347,-0.37905347,0,395.92985,749.29377)"
         d="m 305.71429,485.21933 c 0,44.97176 -36.45681,81.42857 -81.42857,81.42857 -44.97176,0 -81.42857,-36.45681 -81.42857,-81.42857 0,-44.97176 36.45681,-81.42857 81.42857,-81.42857 44.97176,0 81.42857,36.45681 81.42857,81.42857 z"
         sodipodi:ry="81.428574"
         sodipodi:rx="81.428574"
         sodipodi:cy="485.21933"
         sodipodi:cx="224.28572"
         id="path2987"
         style="fill:#ffffff;fill-opacity:1;stroke:#999999;stroke-width:5;stroke-miterlimit:4;stroke-opacity:1;stroke-dasharray:none;marker-start:none"
         sodipodi:type="arc" />
      <path
         inkscape:connector-curvature="0"
         id="path4755"
         d="m 188.72107,812.10834 46.56942,44.40341"
         style="fill:none;stroke:#000000;stroke-width:0.37905347px;stroke-linecap:butt;stroke-linejoin:miter;stroke-opacity:1" />
      <path
         inkscape:connector-curvature="0"
         id="path4757"
         d="m 232.04147,809.94232 -43.3204,46.56943"
         style="fill:none;stroke:#000000;stroke-width:0.37905347px;stroke-linecap:butt;stroke-linejoin:miter;stroke-opacity:1" />
      <path
         sodipodi:nodetypes="ccc"
         inkscape:connector-curvature="0"
         id="path4759"
         d="m 225.54341,826.18747 9.74709,6.49806 -9.74709,7.58107"
         style="fill:none;stroke:#000000;stroke-width:3.03242779;stroke-linecap:butt;stroke-linejoin:miter;stroke-miterlimit:4;stroke-opacity:1;stroke-dasharray:none" />
      <path
         sodipodi:nodetypes="ccc"
         inkscape:connector-curvature="0"
         id="path4759-7"
         d="m 196.69425,840.90922 -9.60802,-6.70198 9.90465,-7.37403"
         style="fill:none;stroke:#000000;stroke-width:3.03242779;stroke-linecap:butt;stroke-linejoin:miter;stroke-miterlimit:4;stroke-opacity:1;stroke-dasharray:none" />
      <path
         inkscape:transform-center-y="245.71429"
         inkscape:transform-center-x="-174.28571"
         sodipodi:nodetypes="ccc"
         inkscape:connector-curvature="0"
         id="path4759-72"
         d="m 219.95685,850.05557 -7.26271,9.1915 -6.7706,-10.32655"
         style="fill:none;stroke:#000000;stroke-width:3;stroke-linecap:butt;stroke-linejoin:miter;stroke-miterlimit:4;stroke-opacity:1;stroke-dasharray:none" />
      <path
         sodipodi:nodetypes="ccc"
         inkscape:connector-curvature="0"
         id="path4759-4"
         d="m 203.54638,818.34802 6.09503,-10.00407 7.97237,9.42971"
         style="fill:none;stroke:#000000;stroke-width:3;stroke-linecap:butt;stroke-linejoin:miter;stroke-miterlimit:4;stroke-opacity:1;stroke-dasharray:none" />
    </g>
    <g
       id="g5024"
       transform="translate(-300.00004,-1.7238608e-7)">
      <path
         inkscape:connector-curvature="0"
         id="path3906"
         d="m 1192.4578,822.30836 c -0.5752,-0.68643 -1.1949,-1.33396 -1.8546,-1.93815 -3.6173,-3.31304 -8.4457,-5.33006 -13.7569,-5.33006 l -43.981,0 0,0 c -11.2779,0 -20.352,9.09987 -20.352,20.39266 l 0,41.50523 c 0,6.58898 3.0891,12.42669 7.9027,16.14673 z"
         style="opacity:0.5;fill:#ff0000;stroke:#ff0000;stroke-width:3.07739472;stroke-miterlimit:4;stroke-opacity:1;stroke-dasharray:none" />
      <path
         inkscape:connector-curvature="0"
         id="rect3896"
         d="m 1121.6801,894.32603 c 3.4364,2.60429 7.7517,4.15023 12.4494,4.15023 l 43.9808,0 c 11.278,0 20.366,-8.91025 20.366,-19.98455 l 0,-40.70224 c 0,-4.90782 -1.7859,-9.39706 -4.7543,-12.87054 z"
         style="opacity:0.5;fill:#00ff00;stroke:#00ff00;stroke-width:3.04748034;stroke-miterlimit:4;stroke-opacity:1;stroke-dasharray:none" />
      <path
         transform="matrix(0.22234329,0,0,0.19459697,1084.6267,824.01698)"
         d="m 388.57143,298.07648 c 0,36.293 -26.22332,65.71428 -58.57143,65.71428 -32.34811,0 -58.57143,-29.42128 -58.57143,-65.71428 0,-36.293 26.22332,-65.71429 58.57143,-65.71429 32.34811,0 58.57143,29.42129 58.57143,65.71429 z"
         sodipodi:ry="65.714287"
         sodipodi:rx="58.57143"
         sodipodi:cy="298.07648"
         sodipodi:cx="330"
         id="path2985"
         style="fill:#ffffff;fill-opacity:1;stroke:#000000;stroke-width:5;stroke-miterlimit:4;stroke-opacity:1;stroke-dasharray:none"
         sodipodi:type="arc" />
      <path
         transform="matrix(0.22234329,0,0,0.19459697,1055.9829,797.41077)"
         d="m 388.57143,298.07648 c 0,36.293 -26.22332,65.71428 -58.57143,65.71428 -32.34811,0 -58.57143,-29.42128 -58.57143,-65.71428 0,-36.293 26.22332,-65.71429 58.57143,-65.71429 32.34811,0 58.57143,29.42129 58.57143,65.71429 z"
         sodipodi:ry="65.714287"
         sodipodi:rx="58.57143"
         sodipodi:cy="298.07648"
         sodipodi:cx="330"
         id="path2985-7"
         style="fill:#ffffff;fill-opacity:1;stroke:#000000;stroke-width:5;stroke-miterlimit:4;stroke-opacity:1;stroke-dasharray:none"
         sodipodi:type="arc" />
      <path
         transform="matrix(0.22234329,0,0,0.19459697,1084.6267,770.04439)"
         d="m 388.57143,298.07648 c 0,36.293 -26.22332,65.71428 -58.57143,65.71428 -32.34811,0 -58.57143,-29.42128 -58.57143,-65.71428 0,-36.293 26.22332,-65.71429 58.57143,-65.71429 32.34811,0 58.57143,29.42129 58.57143,65.71429 z"
         sodipodi:ry="65.714287"
         sodipodi:rx="58.57143"
         sodipodi:cy="298.07648"
         sodipodi:cx="330"
         id="path2985-4"
         style="fill:#ffffff;fill-opacity:1;stroke:#000000;stroke-width:5;stroke-miterlimit:4;stroke-opacity:1;stroke-dasharray:none"
         sodipodi:type="arc" />
      <path
         transform="matrix(0.22234329,0,0,0.19459697,1110.7804,797.41077)"
         d="m 388.57143,298.07648 c 0,36.293 -26.22332,65.71428 -58.57143,65.71428 -32.34811,0 -58.57143,-29.42128 -58.57143,-65.71428 0,-36.293 26.22332,-65.71429 58.57143,-65.71429 32.34811,0 58.57143,29.42129 58.57143,65.71429 z"
         sodipodi:ry="65.714287"
         sodipodi:rx="58.57143"
         sodipodi:cy="298.07648"
         sodipodi:cx="330"
         id="path2985-6"
         style="fill:#ffffff;fill-opacity:1;stroke:#000000;stroke-width:5;stroke-miterlimit:4;stroke-opacity:1;stroke-dasharray:none"
         sodipodi:type="arc" />
      <rect
         height="11.777383"
         y="849.52686"
         x="1123.3593"
         width="11.993964"
         id="rect3033"
         style="fill:#ffffff;fill-opacity:1;stroke:#000000;stroke-width:1.53968728;stroke-miterlimit:4;stroke-opacity:1;stroke-dasharray:none" />
      <path
         transform="matrix(0.27095488,0,0,0.26606209,1054.6501,714.91442)"
         d="m 405.71427,425.21933 c 0,13.41263 -10.87308,24.28571 -24.28571,24.28571 -13.41263,0 -24.28572,-10.87308 -24.28572,-24.28571 0,-13.41263 10.87309,-24.28572 24.28572,-24.28572 13.41263,0 24.28571,10.87309 24.28571,24.28572 z"
         sodipodi:ry="24.285715"
         sodipodi:rx="24.285715"
         sodipodi:cy="425.21933"
         sodipodi:cx="381.42856"
         id="path3805"
         style="fill:#ffffff;fill-opacity:1;stroke:#000000;stroke-width:5.2329998;stroke-miterlimit:4;stroke-opacity:1;stroke-dasharray:none"
         sodipodi:type="arc" />
      <path
         inkscape:connector-curvature="0"
         id="path3807"
         d="m 1176.9104,855.63048 5.2484,5.58814 8.4769,-11.60614 0.7613,0.13783"
         style="fill:none;stroke:#000000;stroke-width:2.06742954;stroke-linecap:butt;stroke-linejoin:miter;stroke-miterlimit:4;stroke-opacity:1;stroke-dasharray:none" />
      <g
         id="flowRoot3809"
         style="font-size:40px;font-style:normal;font-weight:normal;line-height:125%;letter-spacing:0px;word-spacing:0px;fill:#000000;fill-opacity:1;stroke:none;font-family:Sans;-inkscape-font-specification:Sans"
         transform="matrix(0.63878651,0,0,0.47845547,1136.7279,666.00795)">
        <path
           id="path5022"
           d="M 20.175781,465.79794 31.25,450.87606 l -9.765625,-13.71093 4.511719,0 5.195312,7.34375 c 1.080717,1.52345 1.848946,2.69533 2.304688,3.51562 0.638006,-1.04165 1.393214,-2.12888 2.265625,-3.26172 l 5.761718,-7.59765 4.121094,0 -10.058594,13.49609 10.839844,15.13672 -4.6875,0 -7.207031,-10.21484 c -0.40366,-0.58593 -0.820326,-1.22395 -1.25,-1.91407 -0.638033,1.04168 -1.093762,1.75783 -1.367188,2.14844 l -7.1875,9.98047 z"
           inkscape:connector-curvature="0" />
      </g>
    </g>
    <g
       transform="translate(-54.613144,3.4682081)"
       style="font-size:80px;font-style:normal;font-weight:normal;line-height:125%;letter-spacing:0px;word-spacing:0px;fill:#ffffff;fill-opacity:1;stroke:none;display:inline;font-family:Sans"
       id="flowRoot4177">
      <path
         inkscape:connector-curvature="0"
         d="m 415.71875,85.759941 0,-6.71875 24.25781,-0.03906 0,21.249999 c -3.72401,2.96875 -7.56515,5.20182 -11.52344,6.69922 -3.95837,1.49739 -8.02087,2.24609 -12.1875,2.24609 -5.62502,0 -10.73569,-1.20443 -15.33203,-3.61328 -4.59636,-2.40885 -8.06641,-5.891916 -10.41015,-10.449216 -2.34376,-4.557274 -3.51563,-9.648415 -3.51563,-15.273438 0,-5.572883 1.16536,-10.7747 3.4961,-15.605469 2.33072,-4.83068 5.68358,-8.417916 10.05859,-10.761718 4.37498,-2.343693 9.41404,-3.515567 15.11719,-3.515625 4.14059,5.8e-5 7.88407,0.67063 11.23047,2.011718 3.3463,1.341201 5.97,3.209689 7.87109,5.605469 1.90099,2.395882 3.3463,5.520879 4.33594,9.375 l -6.83594,1.875 c -0.85942,-2.916624 -1.92713,-5.208289 -3.20313,-6.875 -1.27608,-1.666619 -3.099,-3.001253 -5.46875,-4.003906 -2.36983,-1.002553 -5.00003,-1.503855 -7.89062,-1.503906 -3.46357,5.1e-5 -6.45836,0.527395 -8.98438,1.582031 -2.52606,1.054737 -4.56382,2.441454 -6.11328,4.160156 -1.54949,1.718794 -2.75392,3.606813 -3.61328,5.664063 -1.45834,3.541703 -2.18751,7.382845 -2.1875,11.523437 -1e-5,5.104191 0.8789,9.37502 2.63672,12.8125 1.7578,3.437513 4.31639,5.989593 7.67578,7.65625 3.35935,1.666674 6.92706,2.500004 10.70313,2.499994 3.28121,10e-6 6.48433,-0.6315 9.60937,-1.89453 3.12496,-1.263007 5.49475,-2.610662 7.10938,-4.042964 l 0,-10.664062 z"
         id="path4423" />
      <path
         inkscape:connector-curvature="0"
         d="m 450.13281,108.22088 0,-41.484377 6.32813,0 0,6.289063 c 1.61457,-2.942671 3.10545,-4.882773 4.47265,-5.820313 1.36717,-0.937458 2.87108,-1.406207 4.51172,-1.40625 2.36977,4.3e-5 4.77862,0.75525 7.22656,2.265625 L 470.25,74.588066 c -1.71877,-1.015591 -3.43752,-1.523403 -5.15625,-1.523438 -1.53648,3.5e-5 -2.91668,0.462274 -4.14063,1.386719 -1.22397,0.924512 -2.09636,2.207063 -2.61718,3.847656 -0.78127,2.500028 -1.17189,5.2344 -1.17188,8.203125 l 0,21.718752 z"
         id="path4425" />
      <path
         inkscape:connector-curvature="0"
         d="m 504,103.10369 c -2.6042,2.21355 -5.1107,3.77604 -7.51953,4.6875 -2.40888,0.91146 -4.99351,1.36719 -7.75391,1.36719 -4.5573,0 -8.0599,-1.11328 -10.50781,-3.33985 -2.44792,-2.22655 -3.67188,-5.0716 -3.67188,-8.535152 0,-2.031237 0.46224,-3.886704 1.38672,-5.566406 0.92448,-1.679669 2.13541,-3.027324 3.63282,-4.042969 1.49738,-1.015603 3.18358,-1.783832 5.05859,-2.304687 1.38019,-0.36456 3.46353,-0.716123 6.25,-1.054688 5.67706,-0.677059 9.85674,-1.484349 12.53906,-2.421875 0.026,-0.963514 0.039,-1.575493 0.0391,-1.835937 -3e-5,-2.864553 -0.66409,-4.88278 -1.99218,-6.054688 -1.79691,-1.588506 -4.46617,-2.382776 -8.00782,-2.382812 -3.30731,3.6e-5 -5.74871,0.579463 -7.32421,1.738281 -1.57554,1.158888 -2.7409,3.209667 -3.4961,6.152344 l -6.875,-0.9375 c 0.625,-2.942676 1.65364,-5.318976 3.08594,-7.128907 1.43228,-1.809857 3.50259,-3.203085 6.21094,-4.179687 2.70831,-0.976521 5.84633,-1.464801 9.41406,-1.464844 3.54164,4.3e-5 6.41924,0.416709 8.63281,1.25 2.21351,0.833374 3.84111,1.88155 4.88281,3.144531 1.04163,1.263058 1.7708,2.858108 2.1875,4.785157 0.23434,1.197948 0.35153,3.359405 0.35157,6.484375 l 0,9.375 c -4e-5,6.536469 0.1497,10.670584 0.44922,12.402344 0.29944,1.73177 0.89188,3.39193 1.77734,4.98047 l -7.34375,0 c -0.7292,-1.45833 -1.19795,-3.16406 -1.40625,-5.11719 z m -0.58594,-15.703124 c -2.55211,1.041686 -6.38023,1.927102 -11.48437,2.65625 -2.89064,0.416684 -4.93491,0.885434 -6.13282,1.40625 -1.19792,0.520849 -2.1224,1.282567 -2.77343,2.285156 -0.65105,1.002618 -0.97658,2.115898 -0.97657,3.339844 -1e-5,1.875009 0.70963,3.437504 2.12891,4.687504 1.41926,1.25 3.49608,1.875 6.23047,1.875 2.70831,0 5.11716,-0.59245 7.22656,-1.77735 2.10935,-1.18489 3.65883,-2.805979 4.64844,-4.863279 0.75518,-1.588529 1.13278,-3.932277 1.13281,-7.03125 z"
         id="path4427" />
      <path
         inkscape:connector-curvature="0"
         d="m 548.375,108.22088 0,-5.23438 c -2.63024,4.11459 -6.49742,6.17188 -11.60156,6.17188 -3.30731,0 -6.34767,-0.91146 -9.1211,-2.73438 -2.77344,-1.82291 -4.92188,-4.36848 -6.44531,-7.636716 -1.52344,-3.268216 -2.28516,-7.024723 -2.28516,-11.269531 0,-4.1406 0.69011,-7.897107 2.07032,-11.269531 1.3802,-3.372361 3.45051,-5.956993 6.21093,-7.753906 2.76041,-1.796834 5.84634,-2.69527 9.25782,-2.695313 2.49997,4.3e-5 4.72653,0.527386 6.67968,1.582031 1.9531,1.054728 3.54164,2.428424 4.76563,4.121094 l 0,-20.546875 6.99219,0 0,57.265627 z M 526.14844,87.517753 c -1e-5,5.312516 1.11978,9.283866 3.35937,11.914063 2.23957,2.630214 4.8828,3.945314 7.92969,3.945314 3.07289,0 5.68357,-1.25651 7.83203,-3.769533 2.14841,-2.51301 3.22263,-6.347641 3.22266,-11.503906 -3e-5,-5.677058 -1.09378,-9.84372 -3.28125,-12.5 -2.18753,-2.656215 -4.88284,-3.984339 -8.08594,-3.984375 -3.12502,3.6e-5 -5.73569,1.276077 -7.83203,3.828125 -2.09637,2.552113 -3.14454,6.575547 -3.14453,12.070312 z"
         id="path4429" />
      <path
         inkscape:connector-curvature="0"
         d="m 594.39062,94.861503 7.26563,0.898438 c -1.14587,4.244799 -3.26827,7.539069 -6.36719,9.882809 -3.09899,2.34375 -7.05732,3.51563 -11.875,3.51563 -6.06772,0 -10.87892,-1.86849 -14.43359,-5.60547 -3.55469,-3.736971 -5.33204,-8.977852 -5.33203,-15.722657 -1e-5,-6.979139 1.79687,-12.3958 5.39062,-16.25 3.59374,-3.854126 8.25519,-5.781207 13.98438,-5.78125 5.54684,4.3e-5 10.07809,1.888062 13.59375,5.664063 3.51558,3.776074 5.27339,9.088569 5.27343,15.9375 -4e-5,0.416687 -0.0131,1.041686 -0.0391,1.875 l -30.9375,0 c 0.26041,4.557306 1.54947,8.046886 3.86719,10.46875 2.31769,2.421884 5.20831,3.632814 8.67187,3.632814 2.5781,0 4.77862,-0.67708 6.60157,-2.03125 1.82288,-1.35416 3.26819,-3.515616 4.33593,-6.484377 z m -23.08593,-11.367187 23.16406,0 c -0.31253,-3.489555 -1.19795,-6.10674 -2.65625,-7.851563 -2.23961,-2.708298 -5.14326,-4.062463 -8.71094,-4.0625 -3.22918,3.7e-5 -5.94402,1.080765 -8.14453,3.242188 -2.20053,2.161489 -3.41798,5.052111 -3.65234,8.671875 z"
         id="path4431" />
      <path
         inkscape:connector-curvature="0"
         d="m 612.47656,74.744316 0,-8.007813 8.00781,0 0,8.007813 z m 0,33.476564 0,-8.00781 8.00781,0 0,8.00781 z"
         id="path4433" />
    </g>
  </g>
</svg>
