<?xml version="1.0" encoding="UTF-8" standalone="no"?>
<!-- Created with Inkscape (http://www.inkscape.org/) -->

<svg
   xmlns:dc="http://purl.org/dc/elements/1.1/"
   xmlns:cc="http://creativecommons.org/ns#"
   xmlns:rdf="http://www.w3.org/1999/02/22-rdf-syntax-ns#"
   xmlns:svg="http://www.w3.org/2000/svg"
   xmlns="http://www.w3.org/2000/svg"
   xmlns:sodipodi="http://sodipodi.sourceforge.net/DTD/sodipodi-0.dtd"
   xmlns:inkscape="http://www.inkscape.org/namespaces/inkscape"
   id="svg2987"
   version="1.1"
   inkscape:version="0.48.1 "
   width="900"
   height="900"
   sodipodi:docname="lmalign.svg">
  <metadata
     id="metadata2993">
    <rdf:RDF>
      <cc:Work
         rdf:about="">
        <dc:format>image/svg+xml</dc:format>
        <dc:type
           rdf:resource="http://purl.org/dc/dcmitype/StillImage" />
        <dc:title />
      </cc:Work>
    </rdf:RDF>
  </metadata>
  <defs
     id="defs2991">
    <marker
       inkscape:stockid="Arrow1Lend"
       orient="auto"
       refY="0"
       refX="0"
       id="Arrow1Lend"
       style="overflow:visible">
      <path
         id="path3945"
         d="M 0,0 5,-5 -12.5,0 5,5 0,0 z"
         style="fill-rule:evenodd;stroke:#000000;stroke-width:1pt;marker-start:none"
         transform="matrix(-0.8,0,0,-0.8,-10,0)"
         inkscape:connector-curvature="0" />
    </marker>
    <marker
       inkscape:stockid="Arrow1Lstart"
       orient="auto"
       refY="0"
       refX="0"
       id="Arrow1Lstart"
       style="overflow:visible">
      <path
         id="path3942"
         d="M 0,0 5,-5 -12.5,0 5,5 0,0 z"
         style="fill-rule:evenodd;stroke:#000000;stroke-width:1pt;marker-start:none"
         transform="matrix(0.8,0,0,0.8,10,0)"
         inkscape:connector-curvature="0" />
    </marker>
    <filter
       color-interpolation-filters="sRGB"
       inkscape:menu-tooltip="Glow of object's own color at the edges"
       inkscape:menu="Shadows and Glows"
       inkscape:label="Glow"
       id="filter2993">
      <feGaussianBlur
         result="result91"
         stdDeviation="5"
         id="feGaussianBlur2995" />
      <feComposite
         operator="over"
         in="SourceGraphic"
         in2="result91"
         id="feComposite2997" />
    </filter>
    <marker
       inkscape:stockid="Arrow1Lend"
       orient="auto"
       refY="0"
       refX="0"
       id="Arrow1Lend-1"
       style="overflow:visible">
      <path
         id="path3945-9"
         d="M 0,0 5,-5 -12.5,0 5,5 0,0 z"
         style="fill-rule:evenodd;stroke:#000000;stroke-width:1pt;marker-start:none"
         transform="matrix(-0.8,0,0,-0.8,-10,0)"
         inkscape:connector-curvature="0" />
    </marker>
    <marker
       inkscape:stockid="Arrow1Lstart"
       orient="auto"
       refY="0"
       refX="0"
       id="Arrow1Lstart-1"
       style="overflow:visible">
      <path
         id="path3942-7"
         d="M 0,0 5,-5 -12.5,0 5,5 0,0 z"
         style="fill-rule:evenodd;stroke:#000000;stroke-width:1pt;marker-start:none"
         transform="matrix(0.8,0,0,0.8,10,0)"
         inkscape:connector-curvature="0" />
    </marker>
    <filter
       color-interpolation-filters="sRGB"
       inkscape:menu-tooltip="Glow of object's own color at the edges"
       inkscape:menu="Shadows and Glows"
       inkscape:label="Glow"
       id="filter2993-8">
      <feGaussianBlur
         result="result91"
         stdDeviation="5"
         id="feGaussianBlur2995-3" />
      <feComposite
         operator="over"
         in="SourceGraphic"
         in2="result91"
         id="feComposite2997-8" />
    </filter>
  </defs>
  <sodipodi:namedview
     pagecolor="#ffffff"
     bordercolor="#666666"
     borderopacity="1"
     objecttolerance="10"
     gridtolerance="10"
     guidetolerance="10"
     inkscape:pageopacity="0"
     inkscape:pageshadow="2"
     inkscape:window-width="1280"
     inkscape:window-height="738"
     id="namedview2989"
     showgrid="false"
     inkscape:zoom="0.81552983"
     inkscape:cx="489.78117"
     inkscape:cy="188.29657"
     inkscape:window-x="-8"
     inkscape:window-y="-8"
     inkscape:window-maximized="1"
     inkscape:current-layer="layer2"
     fit-margin-top="0"
     fit-margin-left="0"
     fit-margin-right="0"
     fit-margin-bottom="0" />
  <g
     inkscape:groupmode="layer"
     id="layer1"
     inkscape:label="Layer"
     style="display:inline"
     transform="translate(-150,0)" />
  <g
     inkscape:groupmode="layer"
     id="layer2"
     inkscape:label="Layer#1"
     transform="translate(-150,0)">
    <g
       transform="translate(108.21875,-2.4803114)"
       style="font-size:80px;font-style:normal;font-weight:normal;line-height:125%;letter-spacing:0px;word-spacing:0px;fill:#ffffff;fill-opacity:1;stroke:none;font-family:Sans"
       id="flowRoot3005">
      <path
         d="m 371.39062,115.12713 0,-57.265627 7.57813,0 0,50.507817 28.20312,0 0,6.75781 z"
         style=""
         id="path6148" />
      <path
         d="M 443.73437,101.76775 451,102.66619 c -1.14587,4.2448 -3.26827,7.53907 -6.36719,9.88281 -3.09899,2.34375 -7.05732,3.51563 -11.875,3.51563 -6.06772,0 -10.87892,-1.86849 -14.43359,-5.60547 -3.55469,-3.73697 -5.33204,-8.97785 -5.33203,-15.722657 -10e-6,-6.979139 1.79687,-12.3958 5.39062,-16.25 3.59374,-3.854126 8.25519,-5.781207 13.98438,-5.78125 5.54684,4.3e-5 10.07809,1.888062 13.59375,5.664063 3.51558,3.776074 5.27339,9.088569 5.27343,15.9375 -4e-5,0.416687 -0.0131,1.041686 -0.0391,1.875 l -30.9375,0 c 0.26041,4.557304 1.54947,8.046884 3.86719,10.468754 2.31769,2.42188 5.20831,3.63281 8.67187,3.63281 2.5781,0 4.77862,-0.67708 6.60157,-2.03125 1.82288,-1.35416 3.26819,-3.51562 4.33593,-6.48438 z m -23.08593,-11.367184 23.16406,0 c -0.31253,-3.489555 -1.19795,-6.10674 -2.65625,-7.851563 -2.23961,-2.708298 -5.14326,-4.062463 -8.71094,-4.0625 -3.22918,3.7e-5 -5.94402,1.080765 -8.14453,3.242188 -2.20053,2.161489 -3.41798,5.052111 -3.65234,8.671875 z"
         style=""
         id="path6150" />
      <path
         d="m 471.39062,115.12713 -15.78125,-41.484377 7.42188,0 8.90625,24.84375 c 0.96352,2.682307 1.84894,5.468757 2.65625,8.359377 0.62498,-2.18749 1.49737,-4.8177 2.61719,-7.890627 l 9.21875,-25.3125 7.22656,0 -15.70313,41.484377 z"
         style=""
         id="path6152" />
      <path
         d="m 528.26562,101.76775 7.26563,0.89844 c -1.14587,4.2448 -3.26827,7.53907 -6.36719,9.88281 -3.09899,2.34375 -7.05732,3.51563 -11.875,3.51563 -6.06772,0 -10.87892,-1.86849 -14.43359,-5.60547 -3.55469,-3.73697 -5.33204,-8.97785 -5.33203,-15.722657 -10e-6,-6.979139 1.79687,-12.3958 5.39062,-16.25 3.59374,-3.854126 8.25519,-5.781207 13.98438,-5.78125 5.54684,4.3e-5 10.07809,1.888062 13.59375,5.664063 3.51558,3.776074 5.27339,9.088569 5.27343,15.9375 -4e-5,0.416687 -0.0131,1.041686 -0.0391,1.875 l -30.9375,0 c 0.26041,4.557304 1.54947,8.046884 3.86719,10.468754 2.31769,2.42188 5.20831,3.63281 8.67187,3.63281 2.5781,0 4.77862,-0.67708 6.60157,-2.03125 1.82288,-1.35416 3.26819,-3.51562 4.33593,-6.48438 z m -23.08593,-11.367184 23.16406,0 c -0.31253,-3.489555 -1.19795,-6.10674 -2.65625,-7.851563 -2.23961,-2.708298 -5.14326,-4.062463 -8.71094,-4.0625 -3.22918,3.7e-5 -5.94402,1.080765 -8.14453,3.242188 -2.20053,2.161489 -3.41798,5.052111 -3.65234,8.671875 z"
         style=""
         id="path6154" />
      <path
         d="m 544.24219,115.12713 0,-57.265627 7.03125,0 0,57.265627 z"
         style=""
         id="path6156" />
      <path
         d="m 559.39844,102.74432 6.95312,-1.09375 c 0.39062,2.78646 1.47786,4.92188 3.26172,6.40625 1.78384,1.48438 4.27733,2.22656 7.48047,2.22656 3.22914,0 5.62497,-0.65755 7.1875,-1.97266 1.56247,-1.31509 2.34372,-2.85806 2.34375,-4.6289 -3e-5,-1.58853 -0.69013,-2.83853 -2.07031,-3.750004 -0.96357,-0.624985 -3.3594,-1.419255 -7.1875,-2.382813 -5.15627,-1.302064 -8.73048,-2.428365 -10.72266,-3.378906 -1.99219,-0.950499 -3.50261,-2.265602 -4.53125,-3.945313 -1.02865,-1.679661 -1.54297,-3.535127 -1.54297,-5.566406 0,-1.848926 0.42318,-3.561164 1.26953,-5.136719 0.84635,-1.575483 1.99869,-2.884076 3.45703,-3.925781 1.09375,-0.807251 2.58463,-1.490844 4.47266,-2.050781 1.88801,-0.559854 3.91274,-0.839801 6.07422,-0.839844 3.25519,4.3e-5 6.11326,0.468792 8.57422,1.40625 2.46091,0.93754 4.27731,2.20707 5.44922,3.808594 1.17184,1.601598 1.97913,3.743523 2.42187,6.425781 l -6.875,0.9375 c -0.31253,-2.135385 -1.21747,-3.80205 -2.71484,-5 -1.49742,-1.19788 -3.6133,-1.796838 -6.34766,-1.796875 -3.22918,3.7e-5 -5.53387,0.53389 -6.91406,1.601563 -1.38022,1.067742 -2.07032,2.317741 -2.07031,3.75 -1e-5,0.911488 0.28645,1.7318 0.85937,2.460937 0.57291,0.755237 1.47134,1.380236 2.69531,1.875 0.70312,0.260443 2.77343,0.859401 6.21094,1.796875 4.97394,1.328149 8.44398,2.415387 10.41016,3.261719 1.96611,0.846375 3.50908,2.076843 4.6289,3.691406 1.11976,1.6146 1.67966,3.619807 1.67969,6.015627 -3e-5,2.34376 -0.68363,4.55079 -2.05078,6.62109 -1.36722,2.07032 -3.33987,3.67188 -5.91797,4.80469 -2.57815,1.13281 -5.49481,1.69922 -8.75,1.69922 -5.39064,0 -9.49871,-1.11979 -12.32422,-3.35938 -2.82552,-2.23958 -4.62891,-5.55988 -5.41015,-9.96093 z"
         style=""
         id="path6158" />
      <path
         d="m 604.16406,81.650566 0,-8.007813 8.00781,0 0,8.007813 z m 0,33.476564 0,-8.00781 8.00781,0 0,8.00781 z"
         style=""
         id="path6160" />
    </g>
    <g
       transform="translate(-19.042719,-132.97198)"
       id="layer1-4"
       inkscape:label="Layer 1">
      <g
         transform="matrix(0.442346,0,0,0.44212997,546.79534,576.2639)"
         id="g3141">
        <path
           style="opacity:0.5;fill:#ff0000;stroke:#ff0000;stroke-width:7.0192318;stroke-miterlimit:4;stroke-opacity:1;stroke-dasharray:none"
           d="m 1163.5534,854.17452 c -1.3002,-1.58001 -2.7008,-3.07047 -4.1918,-4.46119 -8.176,-7.62588 -19.0891,-12.26861 -31.0937,-12.26861 l -99.4063,0 0,0 c -25.4906,0 -45.99999,20.94588 -45.99999,46.93938 l 0,95.53582 c 0,15.16637 6.98211,28.60348 17.86189,37.16618 z"
           id="path3906"
           inkscape:connector-curvature="0" />
        <path
           style="opacity:0.5;fill:#00ff00;stroke:#00ff00;stroke-width:6.95100021;stroke-miterlimit:4;stroke-opacity:1;stroke-dasharray:none"
           d="m 1003.5807,1019.9432 c 7.767,5.9945 17.5204,9.5529 28.1381,9.5529 l 99.4062,0 c 25.4906,0 46.0313,-20.5094 46.0313,-45.99999 l 0,-93.6875 c 0,-11.29672 -4.0365,-21.62994 -10.7457,-29.62512 z"
           id="rect3896"
           inkscape:connector-curvature="0" />
        <path
           sodipodi:type="arc"
           style="fill:#ffffff;fill-opacity:1;stroke:#000000;stroke-width:5;stroke-miterlimit:4;stroke-opacity:1;stroke-dasharray:none"
           id="path2985"
           sodipodi:cx="330"
           sodipodi:cy="298.07648"
           sodipodi:rx="58.57143"
           sodipodi:ry="65.714287"
           d="m 388.57143,298.07648 c 0,36.293 -26.22332,65.71428 -58.57143,65.71428 -32.34811,0 -58.57143,-29.42128 -58.57143,-65.71428 0,-36.293 26.22332,-65.71429 58.57143,-65.71429 32.34811,0 58.57143,29.42129 58.57143,65.71429 z"
           transform="matrix(0.50254323,0,0,0.44791897,919.83196,858.10739)" />
        <path
           sodipodi:type="arc"
           style="fill:#ffffff;fill-opacity:1;stroke:#000000;stroke-width:5;stroke-miterlimit:4;stroke-opacity:1;stroke-dasharray:none"
           id="path2985-7"
           sodipodi:cx="330"
           sodipodi:cy="298.07648"
           sodipodi:rx="58.57143"
           sodipodi:ry="65.714287"
           d="m 388.57143,298.07648 c 0,36.293 -26.22332,65.71428 -58.57143,65.71428 -32.34811,0 -58.57143,-29.42128 -58.57143,-65.71428 0,-36.293 26.22332,-65.71429 58.57143,-65.71429 32.34811,0 58.57143,29.42129 58.57143,65.71429 z"
           transform="matrix(0.50254323,0,0,0.44791897,855.09086,796.86581)" />
        <path
           sodipodi:type="arc"
           style="fill:#ffffff;fill-opacity:1;stroke:#000000;stroke-width:5;stroke-miterlimit:4;stroke-opacity:1;stroke-dasharray:none"
           id="path2985-4"
           sodipodi:cx="330"
           sodipodi:cy="298.07648"
           sodipodi:rx="58.57143"
           sodipodi:ry="65.714287"
           d="m 388.57143,298.07648 c 0,36.293 -26.22332,65.71428 -58.57143,65.71428 -32.34811,0 -58.57143,-29.42128 -58.57143,-65.71428 0,-36.293 26.22332,-65.71429 58.57143,-65.71429 32.34811,0 58.57143,29.42129 58.57143,65.71429 z"
           transform="matrix(0.50254323,0,0,0.44791897,919.83196,733.87447)" />
        <path
           sodipodi:type="arc"
           style="fill:#ffffff;fill-opacity:1;stroke:#000000;stroke-width:5;stroke-miterlimit:4;stroke-opacity:1;stroke-dasharray:none"
           id="path2985-6"
           sodipodi:cx="330"
           sodipodi:cy="298.07648"
           sodipodi:rx="58.57143"
           sodipodi:ry="65.714287"
           d="m 388.57143,298.07648 c 0,36.293 -26.22332,65.71428 -58.57143,65.71428 -32.34811,0 -58.57143,-29.42128 -58.57143,-65.71428 0,-36.293 26.22332,-65.71429 58.57143,-65.71429 32.34811,0 58.57143,29.42129 58.57143,65.71429 z"
           transform="matrix(0.50254323,0,0,0.44791897,978.94489,796.86581)" />
        <rect
           style="fill:#ffffff;fill-opacity:1;stroke:#000000;stroke-width:3.51187372;stroke-miterlimit:4;stroke-opacity:1;stroke-dasharray:none"
           id="rect3033"
           width="27.108917"
           x="1007.3757"
           y="916.82544"
           height="27.108917" />
        <path
           sodipodi:type="arc"
           style="fill:#ffffff;fill-opacity:1;stroke:#000000;stroke-width:5.2329998;stroke-miterlimit:4;stroke-opacity:1;stroke-dasharray:none"
           id="path3805"
           sodipodi:cx="381.42856"
           sodipodi:cy="425.21933"
           sodipodi:rx="24.285715"
           sodipodi:ry="24.285715"
           d="m 405.71427,425.21933 c 0,13.41263 -10.87308,24.28571 -24.28571,24.28571 -13.41263,0 -24.28572,-10.87308 -24.28572,-24.28571 0,-13.41263 10.87309,-24.28572 24.28572,-24.28572 13.41263,0 24.28571,10.87309 24.28571,24.28572 z"
           transform="matrix(0.61241579,0,0,0.61241579,852.07836,606.97755)" />
        <path
           style="fill:none;stroke:#000000;stroke-width:4.71560144;stroke-linecap:butt;stroke-linejoin:miter;stroke-miterlimit:4;stroke-opacity:1;stroke-dasharray:none"
           d="m 1128.4128,930.87465 11.8625,12.86264 19.1595,-26.71475 1.7207,0.31726"
           id="path3807"
           inkscape:connector-curvature="0" />
        <g
           transform="matrix(1.4437937,0,0,1.1012981,1037.5918,494.40573)"
           style="font-size:40px;font-style:normal;font-weight:normal;line-height:125%;letter-spacing:0px;word-spacing:0px;fill:#000000;fill-opacity:1;stroke:none;font-family:Sans;-inkscape-font-specification:Sans"
           id="flowRoot3809">
          <path
             inkscape:connector-curvature="0"
             d="M 20.175781,465.79794 31.25,450.87606 l -9.765625,-13.71093 4.511719,0 5.195312,7.34375 c 1.080717,1.52345 1.848946,2.69533 2.304688,3.51562 0.638006,-1.04165 1.393214,-2.12888 2.265625,-3.26172 l 5.761718,-7.59765 4.121094,0 -10.058594,13.49609 10.839844,15.13672 -4.6875,0 -7.207031,-10.21484 c -0.40366,-0.58593 -0.820326,-1.22395 -1.25,-1.91407 -0.638033,1.04168 -1.093762,1.75783 -1.367188,2.14844 l -7.1875,9.98047 z"
             id="path3139" />
        </g>
      </g>
    </g>
    <g
       id="g4323"
       transform="matrix(0.37905347,0,0,0.37905347,145.12685,560.86416)">
      <rect
         rx="46.011929"
         y="666.00958"
         x="16.331604"
         height="225.20622"
         width="230.92053"
         id="rect3881"
         style="opacity:0.5;fill:#ffffff;fill-opacity:1;stroke:#00ff00;stroke-width:6.95100021;stroke-miterlimit:4;stroke-opacity:1;stroke-dasharray:none" />
      <path
         transform="translate(-92.493814,293.39339)"
         d="m 305.71429,485.21933 c 0,44.97176 -36.45681,81.42857 -81.42857,81.42857 -44.97176,0 -81.42857,-36.45681 -81.42857,-81.42857 0,-44.97176 36.45681,-81.42857 81.42857,-81.42857 44.97176,0 81.42857,36.45681 81.42857,81.42857 z"
         sodipodi:ry="81.428574"
         sodipodi:rx="81.428574"
         sodipodi:cy="485.21933"
         sodipodi:cx="224.28572"
         id="path2987"
         style="fill:#ffffff;fill-opacity:1;stroke:#999999;stroke-width:5;stroke-miterlimit:4;stroke-opacity:1;stroke-dasharray:none;marker-start:none"
         sodipodi:type="arc" />
      <path
         inkscape:connector-curvature="0"
         id="path4755"
         d="M 73.220476,840.04129 190.36334,717.18415"
         style="fill:none;stroke:#000000;stroke-width:1px;stroke-linecap:butt;stroke-linejoin:miter;stroke-opacity:1" />
      <path
         inkscape:connector-curvature="0"
         id="path4757"
         d="M 67.506186,725.75557 190.36334,840.04129"
         style="fill:none;stroke:#000000;stroke-width:1px;stroke-linecap:butt;stroke-linejoin:miter;stroke-opacity:1" />
      <path
         sodipodi:nodetypes="ccc"
         inkscape:connector-curvature="0"
         id="path4759"
         d="m 110.36333,742.89843 17.14286,-25.71429 20,25.71429"
         style="fill:none;stroke:#000000;stroke-width:8;stroke-linecap:butt;stroke-linejoin:miter;stroke-miterlimit:4;stroke-opacity:1;stroke-dasharray:none" />
      <path
         sodipodi:nodetypes="ccc"
         inkscape:connector-curvature="0"
         id="path4759-7"
         d="M 149.20152,819.00683 131.5207,844.35424 112.0669,818.22429"
         style="fill:none;stroke:#000000;stroke-width:8;stroke-linecap:butt;stroke-linejoin:miter;stroke-miterlimit:4;stroke-opacity:1;stroke-dasharray:none" />
      <path
         inkscape:transform-center-y="245.71429"
         inkscape:transform-center-x="-174.28571"
         sodipodi:nodetypes="ccc"
         inkscape:connector-curvature="0"
         id="path4759-72"
         d="m 173.33096,757.63662 24.24856,19.16012 -27.24298,17.86184"
         style="fill:none;stroke:#000000;stroke-width:8;stroke-linecap:butt;stroke-linejoin:miter;stroke-miterlimit:4;stroke-opacity:1;stroke-dasharray:none" />
      <path
         sodipodi:nodetypes="ccc"
         inkscape:connector-curvature="0"
         id="path4759-4"
         d="m 89.681676,800.92988 -26.39223,-16.0796 24.877,-21.0323"
         style="fill:none;stroke:#000000;stroke-width:8;stroke-linecap:butt;stroke-linejoin:miter;stroke-miterlimit:4;stroke-opacity:1;stroke-dasharray:none" />
    </g>
  </g>
</svg>
