<?xml version="1.0" encoding="UTF-8" standalone="no"?>
<!-- Created with Inkscape (http://www.inkscape.org/) -->

<svg
   xmlns:dc="http://purl.org/dc/elements/1.1/"
   xmlns:cc="http://creativecommons.org/ns#"
   xmlns:rdf="http://www.w3.org/1999/02/22-rdf-syntax-ns#"
   xmlns:svg="http://www.w3.org/2000/svg"
   xmlns="http://www.w3.org/2000/svg"
   xmlns:sodipodi="http://sodipodi.sourceforge.net/DTD/sodipodi-0.dtd"
   xmlns:inkscape="http://www.inkscape.org/namespaces/inkscape"
   width="900"
   height="900"
   id="svg2"
   version="1.1"
   inkscape:version="0.48.1 "
   sodipodi:docname="main.svg">
  <defs
     id="defs4">
    <filter
       id="filter3001"
       inkscape:label="Glow"
       inkscape:menu="Shadows and Glows"
       inkscape:menu-tooltip="Glow of object's own color at the edges"
       color-interpolation-filters="sRGB">
      <feGaussianBlur
         id="feGaussianBlur3003"
         stdDeviation="5"
         result="result91" />
      <feComposite
         id="feComposite3005"
         in2="result91"
         in="SourceGraphic"
         operator="over" />
    </filter>
    <filter
       id="filter3001-1"
       inkscape:label="Glow"
       inkscape:menu="Shadows and Glows"
       inkscape:menu-tooltip="Glow of object's own color at the edges"
       color-interpolation-filters="sRGB">
      <feGaussianBlur
         id="feGaussianBlur3003-5"
         stdDeviation="5"
         result="result91" />
      <feComposite
         id="feComposite3005-5"
         in2="result91"
         in="SourceGraphic"
         operator="over" />
    </filter>
    <filter
       id="filter3179"
       inkscape:label="Glow"
       inkscape:menu="Shadows and Glows"
       inkscape:menu-tooltip="Glow of object's own color at the edges"
       color-interpolation-filters="sRGB">
      <feGaussianBlur
         id="feGaussianBlur3181"
         stdDeviation="5"
         result="result91" />
      <feComposite
         id="feComposite3183"
         in2="result91"
         in="SourceGraphic"
         operator="over" />
    </filter>
    <filter
       id="filter3179-5"
       inkscape:label="Glow"
       inkscape:menu="Shadows and Glows"
       inkscape:menu-tooltip="Glow of object's own color at the edges"
       color-interpolation-filters="sRGB">
      <feGaussianBlur
         id="feGaussianBlur3181-2"
         stdDeviation="5"
         result="result91" />
      <feComposite
         id="feComposite3183-2"
         in2="result91"
         in="SourceGraphic"
         operator="over" />
    </filter>
    <filter
       id="filter3179-1"
       inkscape:label="Glow"
       inkscape:menu="Shadows and Glows"
       inkscape:menu-tooltip="Glow of object's own color at the edges"
       color-interpolation-filters="sRGB">
      <feGaussianBlur
         id="feGaussianBlur3181-5"
         stdDeviation="5"
         result="result91" />
      <feComposite
         id="feComposite3183-6"
         in2="result91"
         in="SourceGraphic"
         operator="over" />
    </filter>
    <filter
       id="filter3179-9"
       inkscape:label="Glow"
       inkscape:menu="Shadows and Glows"
       inkscape:menu-tooltip="Glow of object's own color at the edges"
       color-interpolation-filters="sRGB">
      <feGaussianBlur
         id="feGaussianBlur3181-1"
         stdDeviation="5"
         result="result91" />
      <feComposite
         id="feComposite3183-5"
         in2="result91"
         in="SourceGraphic"
         operator="over" />
    </filter>
    <filter
       id="filter3179-5-9"
       inkscape:label="Glow"
       inkscape:menu="Shadows and Glows"
       inkscape:menu-tooltip="Glow of object's own color at the edges"
       color-interpolation-filters="sRGB">
      <feGaussianBlur
         id="feGaussianBlur3181-2-5"
         stdDeviation="5"
         result="result91" />
      <feComposite
         id="feComposite3183-2-0"
         in2="result91"
         in="SourceGraphic"
         operator="over" />
    </filter>
    <filter
       color-interpolation-filters="sRGB"
       inkscape:menu-tooltip="Glow of object's own color at the edges"
       inkscape:menu="Shadows and Glows"
       inkscape:label="Glow"
       id="filter2993">
      <feGaussianBlur
         result="result91"
         stdDeviation="5"
         id="feGaussianBlur2995" />
      <feComposite
         operator="over"
         in="SourceGraphic"
         in2="result91"
         id="feComposite2997" />
    </filter>
    <marker
       inkscape:stockid="Arrow1Lend"
       orient="auto"
       refY="0.0"
       refX="0.0"
       id="Arrow1Lend"
       style="overflow:visible;">
      <path
         id="path3945"
         d="M 0.0,0.0 L 5.0,-5.0 L -12.5,0.0 L 5.0,5.0 L 0.0,0.0 z "
         style="fill-rule:evenodd;stroke:#000000;stroke-width:1.0pt;marker-start:none;"
         transform="scale(0.8) rotate(180) translate(12.5,0)" />
    </marker>
    <marker
       inkscape:stockid="Arrow1Lstart"
       orient="auto"
       refY="0.0"
       refX="0.0"
       id="Arrow1Lstart"
       style="overflow:visible">
      <path
         id="path3942"
         d="M 0.0,0.0 L 5.0,-5.0 L -12.5,0.0 L 5.0,5.0 L 0.0,0.0 z "
         style="fill-rule:evenodd;stroke:#000000;stroke-width:1.0pt;marker-start:none"
         transform="scale(0.8) translate(12.5,0)" />
    </marker>
    <filter
       color-interpolation-filters="sRGB"
       inkscape:menu-tooltip="Glow of object's own color at the edges"
       inkscape:menu="Shadows and Glows"
       inkscape:label="Glow"
       id="filter2993-4">
      <feGaussianBlur
         result="result91"
         stdDeviation="5"
         id="feGaussianBlur2995-9" />
      <feComposite
         operator="over"
         in="SourceGraphic"
         in2="result91"
         id="feComposite2997-4" />
    </filter>
    <marker
       inkscape:stockid="Arrow1Lend"
       orient="auto"
       refY="0.0"
       refX="0.0"
       id="Arrow1Lend-3"
       style="overflow:visible;">
      <path
         id="path3945-8"
         d="M 0.0,0.0 L 5.0,-5.0 L -12.5,0.0 L 5.0,5.0 L 0.0,0.0 z "
         style="fill-rule:evenodd;stroke:#000000;stroke-width:1.0pt;marker-start:none;"
         transform="scale(0.8) rotate(180) translate(12.5,0)" />
    </marker>
    <marker
       inkscape:stockid="Arrow1Lstart"
       orient="auto"
       refY="0.0"
       refX="0.0"
       id="Arrow1Lstart-3"
       style="overflow:visible">
      <path
         id="path3942-1"
         d="M 0.0,0.0 L 5.0,-5.0 L -12.5,0.0 L 5.0,5.0 L 0.0,0.0 z "
         style="fill-rule:evenodd;stroke:#000000;stroke-width:1.0pt;marker-start:none"
         transform="scale(0.8) translate(12.5,0)" />
    </marker>
    <filter
       color-interpolation-filters="sRGB"
       inkscape:menu-tooltip="Glow of object's own color at the edges"
       inkscape:menu="Shadows and Glows"
       inkscape:label="Glow"
       id="filter2993-8">
      <feGaussianBlur
         result="result91"
         stdDeviation="5"
         id="feGaussianBlur2995-7" />
      <feComposite
         operator="over"
         in="SourceGraphic"
         in2="result91"
         id="feComposite2997-49" />
    </filter>
  </defs>
  <sodipodi:namedview
     id="base"
     pagecolor="#ffffff"
     bordercolor="#666666"
     borderopacity="1.0"
     inkscape:pageopacity="0.0"
     inkscape:pageshadow="2"
     inkscape:zoom="0.40776491"
     inkscape:cx="156.93898"
     inkscape:cy="224.26593"
     inkscape:document-units="px"
     inkscape:current-layer="layer3"
     showgrid="false"
     inkscape:window-width="1280"
     inkscape:window-height="738"
     inkscape:window-x="-8"
     inkscape:window-y="-8"
     inkscape:window-maximized="1"
     fit-margin-top="0"
     fit-margin-left="0"
     fit-margin-right="0"
     fit-margin-bottom="0"
     showguides="true"
     inkscape:guide-bbox="true" />
  <metadata
     id="metadata7">
    <rdf:RDF>
      <cc:Work
         rdf:about="">
        <dc:format>image/svg+xml</dc:format>
        <dc:type
           rdf:resource="http://purl.org/dc/dcmitype/StillImage" />
        <dc:title />
      </cc:Work>
    </rdf:RDF>
  </metadata>
  <g
     inkscape:groupmode="layer"
     id="layer3"
     inkscape:label="Layer"
     transform="translate(265.43396,-46.779835)"
     style="display:inline">
    <path
       transform="matrix(2.3326837,0,0,4.0020644,-527.70891,123.33377)"
       style="font-size:40px;font-style:normal;font-weight:normal;line-height:125%;letter-spacing:0px;word-spacing:0px;fill:#ff0000;fill-opacity:1;stroke:none;display:inline;filter:url(#filter2993);font-family:Sans"
       inkscape:connector-curvature="0"
       id="path3062"
       d="m 197.21094,17.204189 0,-28.632812 3.78906,0 0,25.253906 14.10156,0 0,3.378906 z" />
    <path
       transform="matrix(2.3326837,0,0,4.0020644,-527.70891,123.33377)"
       style="font-size:40px;font-style:normal;font-weight:normal;line-height:125%;letter-spacing:0px;word-spacing:0px;fill:#ff0000;fill-opacity:1;stroke:none;display:inline;filter:url(#filter2993);font-family:Sans"
       inkscape:connector-curvature="0"
       id="path3064"
       d="m 232.71875,14.645595 c -1.3021,1.106773 -2.55535,1.888022 -3.75977,2.34375 -1.20443,0.455729 -2.49675,0.683594 -3.87695,0.683594 -2.27865,0 -4.02995,-0.55664 -5.25391,-1.669922 -1.22396,-1.113279 -1.83593,-2.535803 -1.83593,-4.267578 0,-1.015618 0.23112,-1.9433519 0.69336,-2.7832031 0.46223,-0.8398346 1.0677,-1.5136621 1.8164,-2.0214843 0.7487,-0.5078018 1.59179,-0.8919159 2.5293,-1.1523438 0.6901,-0.18228 1.73176,-0.3580611 3.125,-0.5273437 2.83853,-0.3385294 4.92837,-0.7421748 6.26953,-1.2109375 0.013,-0.4817572 0.0195,-0.7877465 0.0195,-0.9179688 -1e-5,-1.4322761 -0.33204,-2.44138971 -0.99609,-3.02734373 -0.89845,-0.79425293 -2.23309,-1.19138797 -4.00391,-1.19140627 -1.65365,1.83e-5 -2.87435,0.28973157 -3.66211,0.86914064 -0.78776,0.57944394 -1.37045,1.60483356 -1.74804,3.07617186 l -3.4375,-0.46875 c 0.31249,-1.47133785 0.82682,-2.65948771 1.54296,-3.5644531 0.71615,-0.9049286 1.7513,-1.6015425 3.10547,-2.0898438 1.35416,-0.4882602 2.92317,-0.7324006 4.70703,-0.7324218 1.77083,2.12e-5 3.20963,0.2083543 4.31641,0.625 1.10676,0.4166868 1.92056,0.9407748 2.44141,1.5722656 0.52081,0.6315288 0.8854,1.42905404 1.09375,2.39257812 0.11717,0.59897438 0.17576,1.67970248 0.17578,3.24218748 l 0,4.6875 c -2e-5,3.2682342 0.0748,5.3352902 0.22461,6.2011722 0.14972,0.865887 0.44594,1.695964 0.88867,2.490234 l -3.67188,0 c -0.36459,-0.729166 -0.59897,-1.58203 -0.70312,-2.558594 z m -0.29297,-7.8515622 c -1.27606,0.5208432 -3.19012,0.9635511 -5.74219,1.328125 -1.44532,0.2083422 -2.46745,0.442717 -3.0664,0.703125 -0.59897,0.2604248 -1.06121,0.6412838 -1.38672,1.1425781 -0.32553,0.5013091 -0.48829,1.0579491 -0.48828,1.6699221 -1e-5,0.937504 0.35481,1.718754 1.06445,2.34375 0.70963,0.625002 1.74804,0.937502 3.11523,0.9375 1.35416,2e-6 2.55859,-0.296222 3.61329,-0.888672 1.05467,-0.592444 1.82941,-1.40299 2.32421,-2.431641 0.37759,-0.794264 0.5664,-1.9661379 0.56641,-3.5156247 z" />
    <path
       transform="matrix(2.3326837,0,0,4.0020644,-527.70891,123.33377)"
       style="font-size:40px;font-style:normal;font-weight:normal;line-height:125%;letter-spacing:0px;word-spacing:0px;fill:#ff0000;fill-opacity:1;stroke:none;display:inline;filter:url(#filter2993);font-family:Sans"
       inkscape:connector-curvature="0"
       id="path3066"
       d="m 240.04297,11.012783 3.47656,-0.546875 c 0.19531,1.393234 0.73893,2.460942 1.63086,3.203125 0.89192,0.74219 2.13866,1.113283 3.74023,1.113281 1.61458,2e-6 2.81249,-0.328773 3.59375,-0.986328 0.78124,-0.657548 1.17187,-1.429032 1.17188,-2.314453 -1e-5,-0.794264 -0.34507,-1.419264 -1.03516,-1.8750002 -0.48178,-0.3124921 -1.6797,-0.7096271 -3.59375,-1.1914062 -2.57813,-0.6510323 -4.36524,-1.2141827 -5.36132,-1.6894532 -0.9961,-0.4752494 -1.75131,-1.1328008 -2.26563,-1.9726562 -0.51432,-0.8398305 -0.77149,-1.7675639 -0.77148,-2.7832031 -1e-5,-0.924463 0.21158,-1.78058198 0.63476,-2.56835941 0.42318,-0.78774179 0.99935,-1.44203809 1.72852,-1.96289059 0.54687,-0.4036257 1.29231,-0.7454222 2.23633,-1.0253907 0.944,-0.2799268 1.95637,-0.4199006 3.0371,-0.4199218 1.6276,2.12e-5 3.05663,0.2343959 4.28711,0.703125 1.23046,0.46877 2.13866,1.103535 2.72461,1.9042968 0.58592,0.8007991 0.98957,1.87176157 1.21094,3.2128907 l -3.4375,0.46875 c -0.15626,-1.0676924 -0.60874,-1.90102488 -1.35742,-2.50000003 -0.74871,-0.59894031 -1.80665,-0.89841917 -3.17383,-0.89843747 -1.61459,1.83e-5 -2.76693,0.2669451 -3.45703,0.80078122 -0.69011,0.53387115 -1.03516,1.15887053 -1.03516,1.87499998 0,0.4557444 0.14323,0.8659002 0.42969,1.2304688 0.28645,0.3776182 0.73567,0.6901179 1.34766,0.9375 0.35155,0.1302216 1.38671,0.4297005 3.10547,0.8984375 2.48696,0.6640744 4.22199,1.2076936 5.20507,1.6308593 0.98306,0.4231877 1.75454,1.0384214 2.31446,1.8457032 0.55988,0.8072999 0.83982,1.8099031 0.83984,3.0078124 -2e-5,1.17188 -0.34181,2.275395 -1.02539,3.310547 -0.68361,1.035158 -1.66994,1.835938 -2.95898,2.402344 -1.28908,0.566406 -2.74741,0.849609 -4.375,0.849609 -2.69532,0 -4.74936,-0.559896 -6.16211,-1.679687 -1.41277,-1.11979 -2.31446,-2.779944 -2.70508,-4.980469 z" />
    <path
       transform="matrix(2.3326837,0,0,4.0020644,-527.70891,123.33377)"
       style="font-size:40px;font-style:normal;font-weight:normal;line-height:125%;letter-spacing:0px;word-spacing:0px;fill:#ff0000;fill-opacity:1;stroke:none;display:inline;filter:url(#filter2993);font-family:Sans"
       inkscape:connector-curvature="0"
       id="path3068"
       d="m 275.64844,10.524502 3.63281,0.449218 c -0.57294,2.1224 -1.63413,3.769534 -3.18359,4.941407 -1.5495,1.171875 -3.52866,1.757812 -5.9375,1.757812 -3.03387,0 -5.43946,-0.934244 -7.2168,-2.802734 -1.77735,-1.868486 -2.66602,-4.488926 -2.66602,-7.8613284 0,-3.4895697 0.89844,-6.19790031 2.69532,-8.125 1.79687,-1.9270631 4.12759,-2.8906038 6.99218,-2.890625 2.77343,2.12e-5 5.03905,0.9440307 6.79688,2.8320312 1.75779,1.88803734 2.6367,4.5442847 2.63672,7.96875 -2e-5,0.2083436 -0.007,0.5208432 -0.0195,0.9375 l -15.46875,0 c 0.1302,2.2786532 0.77473,4.0234432 1.93359,5.2343752 1.15885,1.21094 2.60416,1.816408 4.33594,1.816406 1.28905,2e-6 2.38931,-0.338539 3.30078,-1.015625 0.91144,-0.677079 1.6341,-1.757807 2.16797,-3.242187 z m -11.54297,-5.6835942 11.58203,0 c -0.15627,-1.7447775 -0.59897,-3.05337 -1.32813,-3.92578123 -1.1198,-1.35414903 -2.57162,-2.03123167 -4.35546,-2.03124997 -1.6146,1.83e-5 -2.97202,0.54038233 -4.07227,1.62109372 -1.10027,1.08074478 -1.70899,2.52605588 -1.82617,4.33593748 z" />
    <path
       transform="matrix(2.3326837,0,0,4.0020644,-527.70891,123.33377)"
       style="font-size:40px;font-style:normal;font-weight:normal;line-height:125%;letter-spacing:0px;word-spacing:0px;fill:#ff0000;fill-opacity:1;stroke:none;display:inline;filter:url(#filter2993);font-family:Sans"
       inkscape:connector-curvature="0"
       id="path3070"
       d="m 283.67578,17.204189 0,-20.7421874 3.16406,0 0,3.14453122 c 0.80729,-1.47133512 1.55273,-2.44138622 2.23633,-2.91015622 0.68359,-0.4687291 1.43554,-0.7031038 2.25586,-0.703125 1.18489,2.12e-5 2.38931,0.377625 3.61328,1.1328125 l -1.21094,3.26171872 c -0.85938,-0.50779518 -1.71876,-0.76170117 -2.57812,-0.76171875 -0.76824,1.758e-5 -1.45834,0.23113714 -2.07031,0.69335937 -0.61199,0.46225601 -1.04819,1.10353136 -1.3086,1.92382816 -0.39063,1.2500137 -0.58594,2.6171998 -0.58593,4.1015625 l 0,10.8593749 z" />
    <path
       transform="matrix(2.3326837,0,0,4.0020644,-527.70891,123.33377)"
       style="font-size:40px;font-style:normal;font-weight:normal;line-height:125%;letter-spacing:0px;word-spacing:0px;fill:#ff0000;fill-opacity:1;stroke:none;display:inline;filter:url(#filter2993);font-family:Sans"
       inkscape:connector-curvature="0"
       id="path3072"
       d="m 308.5,17.204189 0,-28.632812 5.70312,0 6.77735,20.2734371 c 0.62498,1.8880269 1.08071,3.3007859 1.36719,4.2382809 0.3255,-1.041661 0.83331,-2.571608 1.52343,-4.5898434 l 6.85547,-19.9218746 5.09766,0 0,28.632812 -3.65235,0 0,-23.9648437 -8.32031,23.9648437 -3.41797,0 -8.28125,-24.3749999 0,24.3749999 z" />
    <path
       transform="matrix(2.3326837,0,0,4.0020644,-527.70891,123.33377)"
       style="font-size:40px;font-style:normal;font-weight:normal;line-height:125%;letter-spacing:0px;word-spacing:0px;fill:#ff0000;fill-opacity:1;stroke:none;display:inline;filter:url(#filter2993);font-family:Sans"
       inkscape:connector-curvature="0"
       id="path3074"
       d="m 355.0625,14.645595 c -1.3021,1.106773 -2.55535,1.888022 -3.75977,2.34375 -1.20443,0.455729 -2.49675,0.683594 -3.87695,0.683594 -2.27865,0 -4.02995,-0.55664 -5.25391,-1.669922 -1.22396,-1.113279 -1.83593,-2.535803 -1.83593,-4.267578 0,-1.015618 0.23112,-1.9433519 0.69336,-2.7832031 0.46223,-0.8398346 1.0677,-1.5136621 1.8164,-2.0214843 0.7487,-0.5078018 1.59179,-0.8919159 2.5293,-1.1523438 0.6901,-0.18228 1.73176,-0.3580611 3.125,-0.5273437 2.83853,-0.3385294 4.92837,-0.7421748 6.26953,-1.2109375 0.013,-0.4817572 0.0195,-0.7877465 0.0195,-0.9179688 -1e-5,-1.4322761 -0.33204,-2.44138971 -0.99609,-3.02734373 -0.89845,-0.79425293 -2.23309,-1.19138797 -4.00391,-1.19140627 -1.65365,1.83e-5 -2.87435,0.28973157 -3.66211,0.86914064 -0.78776,0.57944394 -1.37045,1.60483356 -1.74804,3.07617186 l -3.4375,-0.46875 c 0.31249,-1.47133785 0.82682,-2.65948771 1.54296,-3.5644531 0.71615,-0.9049286 1.7513,-1.6015425 3.10547,-2.0898438 1.35416,-0.4882602 2.92317,-0.7324006 4.70703,-0.7324218 1.77083,2.12e-5 3.20963,0.2083543 4.31641,0.625 1.10676,0.4166868 1.92056,0.9407748 2.44141,1.5722656 0.52081,0.6315288 0.8854,1.42905404 1.09375,2.39257812 0.11717,0.59897438 0.17576,1.67970248 0.17578,3.24218748 l 0,4.6875 c -2e-5,3.2682342 0.0748,5.3352902 0.22461,6.2011722 0.14972,0.865887 0.44594,1.695964 0.88867,2.490234 l -3.67188,0 c -0.36459,-0.729166 -0.59897,-1.58203 -0.70312,-2.558594 z m -0.29297,-7.8515622 c -1.27606,0.5208432 -3.19012,0.9635511 -5.74219,1.328125 -1.44532,0.2083422 -2.46745,0.442717 -3.0664,0.703125 -0.59897,0.2604248 -1.06121,0.6412838 -1.38672,1.1425781 -0.32553,0.5013091 -0.48829,1.0579491 -0.48828,1.6699221 -10e-6,0.937504 0.35481,1.718754 1.06445,2.34375 0.70963,0.625002 1.74804,0.937502 3.11523,0.9375 1.35416,2e-6 2.55859,-0.296222 3.61329,-0.888672 1.05467,-0.592444 1.82941,-1.40299 2.32421,-2.431641 0.37759,-0.794264 0.5664,-1.9661379 0.56641,-3.5156247 z" />
    <path
       transform="matrix(2.3326837,0,0,4.0020644,-527.70891,123.33377)"
       style="font-size:40px;font-style:normal;font-weight:normal;line-height:125%;letter-spacing:0px;word-spacing:0px;fill:#ff0000;fill-opacity:1;stroke:none;display:inline;filter:url(#filter2993);font-family:Sans"
       inkscape:connector-curvature="0"
       id="path3076"
       d="m 371.46875,14.059658 0.50781,3.105469 c -0.98959,0.208333 -1.87501,0.312499 -2.65625,0.3125 -1.27605,-10e-7 -2.26563,-0.201823 -2.96875,-0.605469 -0.70313,-0.403645 -1.19792,-0.934244 -1.48437,-1.591797 -0.28646,-0.65755 -0.42969,-2.041012 -0.42969,-4.150391 l 0,-11.93359343 -2.57813,0 0,-2.73437497 2.57813,0 0,-5.1367188 3.49609,-2.1093748 0,7.2460936 3.53516,0 0,2.73437497 -3.53516,0 0,12.12890643 c 0,1.002609 0.0618,1.647139 0.18555,1.933594 0.12369,0.286462 0.32551,0.514326 0.60547,0.683593 0.27994,0.169274 0.68033,0.25391 1.20117,0.253907 0.39062,3e-6 0.90494,-0.04557 1.54297,-0.136719 z" />
    <path
       transform="matrix(2.3326837,0,0,4.0020644,-527.70891,123.33377)"
       style="font-size:40px;font-style:normal;font-weight:normal;line-height:125%;letter-spacing:0px;word-spacing:0px;fill:#ff0000;fill-opacity:1;stroke:none;display:inline;filter:url(#filter2993);font-family:Sans"
       inkscape:connector-curvature="0"
       id="path3078"
       d="m 374.88672,17.204189 0,-28.632812 3.51562,0 0,10.2734371 c 1.64062,-1.9010214 3.71093,-2.8515413 6.21094,-2.8515625 1.53645,2.12e-5 2.87108,0.3027553 4.00391,0.9082031 1.13279,0.6054884 1.94334,1.4420761 2.43164,2.50976562 0.48826,1.06772506 0.7324,2.61720268 0.73242,4.64843748 l 0,13.1445312 -3.51563,0 0,-13.1445312 c -1e-5,-1.7577976 -0.38087,-3.0370932 -1.14257,-3.83789061 -0.76174,-0.80076346 -1.83921,-1.20115369 -3.23243,-1.20117187 -1.04167,1.818e-5 -2.02149,0.2702002 -2.93945,0.81054687 -0.91797,0.54038142 -1.57227,1.27280261 -1.96289,2.19726561 -0.39063,0.9244934 -0.58594,2.2005338 -0.58594,3.828125 l 0,11.3476562 z" />
    <g
       id="g3953"
       transform="translate(5.2002508,5.0000058)">
      <path
         inkscape:connector-curvature="0"
         id="path3906"
         d="m 622.55251,870.45036 c -0.5187,-0.63033 -1.07746,-1.22494 -1.67228,-1.77975 -3.26174,-3.04228 -7.61542,-4.89445 -12.40455,-4.89445 l -39.65724,0 0,0 c -10.16924,0 -18.35127,8.35617 -18.35127,18.72604 l 0,38.11314 c 0,6.05049 2.78544,11.4111 7.12583,14.82711 z"
         style="opacity:0.5;fill:#ff0000;stroke:#ff0000;stroke-width:2.80025864;stroke-miterlimit:4;stroke-opacity:1;stroke-dasharray:none" />
      <path
         inkscape:connector-curvature="0"
         id="rect3896"
         d="m 558.73286,936.58227 c 3.09857,2.39145 6.9896,3.81104 11.22544,3.81104 l 39.6572,0 c 10.16924,0 18.36377,-8.18204 18.36377,-18.35128 l 0,-37.37577 c 0,-4.50673 -1.61033,-8.62907 -4.2869,-11.81868 z"
         style="opacity:0.5;fill:#00ff00;stroke:#00ff00;stroke-width:2.77303839;stroke-miterlimit:4;stroke-opacity:1;stroke-dasharray:none" />
      <path
         transform="matrix(0.20048505,0,0,0.1786932,525.32205,872.01934)"
         d="m 388.57143,298.07648 c 0,36.293 -26.22332,65.71428 -58.57143,65.71428 -32.34811,0 -58.57143,-29.42128 -58.57143,-65.71428 0,-36.293 26.22332,-65.71429 58.57143,-65.71429 32.34811,0 58.57143,29.42129 58.57143,65.71429 z"
         sodipodi:ry="65.714287"
         sodipodi:rx="58.57143"
         sodipodi:cy="298.07648"
         sodipodi:cx="330"
         id="path2985"
         style="fill:#ffffff;fill-opacity:1;stroke:#000000;stroke-width:5;stroke-miterlimit:4;stroke-opacity:1;stroke-dasharray:none"
         sodipodi:type="arc" />
      <path
         transform="matrix(0.20048505,0,0,0.1786932,499.49418,847.58757)"
         d="m 388.57143,298.07648 c 0,36.293 -26.22332,65.71428 -58.57143,65.71428 -32.34811,0 -58.57143,-29.42128 -58.57143,-65.71428 0,-36.293 26.22332,-65.71429 58.57143,-65.71429 32.34811,0 58.57143,29.42129 58.57143,65.71429 z"
         sodipodi:ry="65.714287"
         sodipodi:rx="58.57143"
         sodipodi:cy="298.07648"
         sodipodi:cx="330"
         id="path2985-7"
         style="fill:#ffffff;fill-opacity:1;stroke:#000000;stroke-width:5;stroke-miterlimit:4;stroke-opacity:1;stroke-dasharray:none"
         sodipodi:type="arc" />
      <path
         transform="matrix(0.20048505,0,0,0.1786932,525.32205,822.45775)"
         d="m 388.57143,298.07648 c 0,36.293 -26.22332,65.71428 -58.57143,65.71428 -32.34811,0 -58.57143,-29.42128 -58.57143,-65.71428 0,-36.293 26.22332,-65.71429 58.57143,-65.71429 32.34811,0 58.57143,29.42129 58.57143,65.71429 z"
         sodipodi:ry="65.714287"
         sodipodi:rx="58.57143"
         sodipodi:cy="298.07648"
         sodipodi:cx="330"
         id="path2985-4"
         style="fill:#ffffff;fill-opacity:1;stroke:#000000;stroke-width:5;stroke-miterlimit:4;stroke-opacity:1;stroke-dasharray:none"
         sodipodi:type="arc" />
      <path
         transform="matrix(0.20048505,0,0,0.1786932,548.90462,847.58757)"
         d="m 388.57143,298.07648 c 0,36.293 -26.22332,65.71428 -58.57143,65.71428 -32.34811,0 -58.57143,-29.42128 -58.57143,-65.71428 0,-36.293 26.22332,-65.71429 58.57143,-65.71429 32.34811,0 58.57143,29.42129 58.57143,65.71429 z"
         sodipodi:ry="65.714287"
         sodipodi:rx="58.57143"
         sodipodi:cy="298.07648"
         sodipodi:cx="330"
         id="path2985-6"
         style="fill:#ffffff;fill-opacity:1;stroke:#000000;stroke-width:5;stroke-miterlimit:4;stroke-opacity:1;stroke-dasharray:none"
         sodipodi:type="arc" />
      <rect
         height="10.814856"
         y="895.4444"
         x="560.24683"
         width="10.814856"
         id="rect3033"
         style="fill:#ffffff;fill-opacity:1;stroke:#000000;stroke-width:1.40103006;stroke-miterlimit:4;stroke-opacity:1;stroke-dasharray:none" />
      <path
         transform="matrix(0.24431771,0,0,0.24431771,498.29237,771.83338)"
         d="m 405.71427,425.21933 c 0,13.41263 -10.87308,24.28571 -24.28571,24.28571 -13.41263,0 -24.28572,-10.87308 -24.28572,-24.28571 0,-13.41263 10.87309,-24.28572 24.28572,-24.28572 13.41263,0 24.28571,10.87309 24.28571,24.28572 z"
         sodipodi:ry="24.285715"
         sodipodi:rx="24.285715"
         sodipodi:cy="425.21933"
         sodipodi:cx="381.42856"
         id="path3805"
         style="fill:#ffffff;fill-opacity:1;stroke:#000000;stroke-width:5.2329998;stroke-miterlimit:4;stroke-opacity:1;stroke-dasharray:none"
         sodipodi:type="arc" />
      <path
         inkscape:connector-curvature="0"
         id="path3807"
         d="m 608.53348,901.04918 4.73242,5.13143 7.64352,-10.6576 0.68648,0.12656"
         style="fill:none;stroke:#000000;stroke-width:1.88124633;stroke-linecap:butt;stroke-linejoin:miter;stroke-miterlimit:4;stroke-opacity:1;stroke-dasharray:none" />
      <g
         id="flowRoot3809"
         style="font-size:40px;font-style:normal;font-weight:normal;line-height:125%;letter-spacing:0px;word-spacing:0px;fill:#000000;fill-opacity:1;stroke:none;font-family:Sans;-inkscape-font-specification:Sans"
         transform="matrix(0.57598836,0,0,0.43935287,572.30126,726.92387)">
        <path
           inkscape:connector-curvature="0"
           id="path3514"
           d="M 20.175781,465.79794 31.25,450.87606 l -9.765625,-13.71093 4.511719,0 5.195312,7.34375 c 1.080717,1.52345 1.848946,2.69533 2.304688,3.51562 0.638006,-1.04165 1.393214,-2.12888 2.265625,-3.26172 l 5.761718,-7.59765 4.121094,0 -10.058594,13.49609 10.839844,15.13672 -4.6875,0 -7.207031,-10.21484 c -0.40366,-0.58593 -0.820326,-1.22395 -1.25,-1.91407 -0.638033,1.04168 -1.093762,1.75783 -1.367188,2.14844 l -7.1875,9.98047 z" />
      </g>
    </g>
    <g
       id="g3966"
       transform="translate(-5.0000029,4.9999764)">
      <rect
         rx="15.504646"
         y="864.72095"
         x="-259.26282"
         height="75.887772"
         width="77.813324"
         id="rect3881"
         style="opacity:0.5;fill:#ffffff;fill-opacity:1;stroke:#00ff00;stroke-width:2.34227943;stroke-miterlimit:4;stroke-opacity:1;stroke-dasharray:none" />
      <path
         transform="matrix(0.33697014,0,0,0.33697014,-295.93375,739.16038)"
         d="m 305.71429,485.21933 c 0,44.97176 -36.45681,81.42857 -81.42857,81.42857 -44.97176,0 -81.42857,-36.45681 -81.42857,-81.42857 0,-44.97176 36.45681,-81.42857 81.42857,-81.42857 44.97176,0 81.42857,36.45681 81.42857,81.42857 z"
         sodipodi:ry="81.428574"
         sodipodi:rx="81.428574"
         sodipodi:cy="485.21933"
         sodipodi:cx="224.28572"
         id="path2987"
         style="fill:#ffffff;fill-opacity:1;stroke:#999999;stroke-width:5;stroke-miterlimit:4;stroke-opacity:1;stroke-dasharray:none;marker-start:none"
         sodipodi:type="arc" />
      <path
         inkscape:connector-curvature="0"
         id="path4755"
         d="m -240.09299,923.3644 39.47365,-41.39918"
         style="fill:none;stroke:#000000;stroke-width:0.33697015px;stroke-linecap:butt;stroke-linejoin:miter;stroke-opacity:1" />
      <path
         inkscape:connector-curvature="0"
         id="path4757"
         d="m -242.01853,884.85353 41.39919,38.51087"
         style="fill:none;stroke:#000000;stroke-width:0.33697015px;stroke-linecap:butt;stroke-linejoin:miter;stroke-opacity:1" />
      <path
         sodipodi:nodetypes="ccc"
         inkscape:connector-curvature="0"
         id="path4759"
         d="m -227.57695,890.63016 5.77663,-8.66495 6.7394,8.66495"
         style="fill:none;stroke:#000000;stroke-width:2.6957612;stroke-linecap:butt;stroke-linejoin:miter;stroke-miterlimit:4;stroke-opacity:1;stroke-dasharray:none" />
      <path
         sodipodi:nodetypes="ccc"
         inkscape:connector-curvature="0"
         id="path4759-7"
         d="m -214.48964,916.27642 -5.95791,8.54132 -6.55535,-8.80501"
         style="fill:none;stroke:#000000;stroke-width:2.6957612;stroke-linecap:butt;stroke-linejoin:miter;stroke-miterlimit:4;stroke-opacity:1;stroke-dasharray:none" />
      <path
         inkscape:transform-center-y="245.71429"
         inkscape:transform-center-x="-174.28571"
         sodipodi:nodetypes="ccc"
         inkscape:connector-curvature="0"
         id="path4759-72"
         d="m -206.35874,895.59649 8.17104,6.45639 -9.18007,6.0189"
         style="fill:none;stroke:#000000;stroke-width:0.33697015px;stroke-linecap:butt;stroke-linejoin:miter;stroke-opacity:1" />
      <path
         sodipodi:nodetypes="ccc"
         inkscape:connector-curvature="0"
         id="path4759-4"
         d="m -234.54605,910.18503 -8.8934,-5.41835 8.38281,-7.08726"
         style="fill:none;stroke:#000000;stroke-width:0.33697015px;stroke-linecap:butt;stroke-linejoin:miter;stroke-opacity:1" />
    </g>
  </g>
</svg>
