<?xml version="1.0" encoding="UTF-8" standalone="no"?>
<!-- Created with Inkscape (http://www.inkscape.org/) -->

<svg
   xmlns:dc="http://purl.org/dc/elements/1.1/"
   xmlns:cc="http://creativecommons.org/ns#"
   xmlns:rdf="http://www.w3.org/1999/02/22-rdf-syntax-ns#"
   xmlns:svg="http://www.w3.org/2000/svg"
   xmlns="http://www.w3.org/2000/svg"
   xmlns:sodipodi="http://sodipodi.sourceforge.net/DTD/sodipodi-0.dtd"
   xmlns:inkscape="http://www.inkscape.org/namespaces/inkscape"
   width="900"
   height="900"
   id="svg2"
   version="1.1"
   inkscape:version="0.48.1 "
   sodipodi:docname="stagemenu.svg">
  <defs
     id="defs4">
    <inkscape:path-effect
       is_visible="true"
       id="path-effect4889"
       effect="spiro" />
    <inkscape:path-effect
       is_visible="true"
       id="path-effect4901"
       effect="spiro" />
    <inkscape:path-effect
       is_visible="true"
       id="path-effect5035"
       effect="spiro" />
    <inkscape:path-effect
       is_visible="true"
       id="path-effect4889-3"
       effect="spiro" />
    <inkscape:path-effect
       is_visible="true"
       id="path-effect4901-9"
       effect="spiro" />
    <inkscape:path-effect
       is_visible="true"
       id="path-effect5035-1"
       effect="spiro" />
    <marker
       inkscape:stockid="Arrow1Lend"
       orient="auto"
       refY="0"
       refX="0"
       id="Arrow1Lend"
       style="overflow:visible">
      <path
         id="path3945"
         d="M 0,0 5,-5 -12.5,0 5,5 0,0 z"
         style="fill-rule:evenodd;stroke:#000000;stroke-width:1pt;marker-start:none"
         transform="matrix(-0.8,0,0,-0.8,-10,0)"
         inkscape:connector-curvature="0" />
    </marker>
    <marker
       inkscape:stockid="Arrow1Lstart"
       orient="auto"
       refY="0"
       refX="0"
       id="Arrow1Lstart"
       style="overflow:visible">
      <path
         id="path3942"
         d="M 0,0 5,-5 -12.5,0 5,5 0,0 z"
         style="fill-rule:evenodd;stroke:#000000;stroke-width:1pt;marker-start:none"
         transform="matrix(0.8,0,0,0.8,10,0)"
         inkscape:connector-curvature="0" />
    </marker>
    <filter
       color-interpolation-filters="sRGB"
       inkscape:menu-tooltip="Glow of object's own color at the edges"
       inkscape:menu="Shadows and Glows"
       inkscape:label="Glow"
       id="filter2993">
      <feGaussianBlur
         result="result91"
         stdDeviation="5"
         id="feGaussianBlur2995" />
      <feComposite
         operator="over"
         in="SourceGraphic"
         in2="result91"
         id="feComposite2997" />
    </filter>
    <marker
       inkscape:stockid="Arrow1Lend"
       orient="auto"
       refY="0"
       refX="0"
       id="Arrow1Lend-7"
       style="overflow:visible">
      <path
         id="path3945-1"
         d="M 0,0 5,-5 -12.5,0 5,5 0,0 z"
         style="fill-rule:evenodd;stroke:#000000;stroke-width:1pt;marker-start:none"
         transform="matrix(-0.8,0,0,-0.8,-10,0)"
         inkscape:connector-curvature="0" />
    </marker>
    <marker
       inkscape:stockid="Arrow1Lstart"
       orient="auto"
       refY="0"
       refX="0"
       id="Arrow1Lstart-6"
       style="overflow:visible">
      <path
         id="path3942-2"
         d="M 0,0 5,-5 -12.5,0 5,5 0,0 z"
         style="fill-rule:evenodd;stroke:#000000;stroke-width:1pt;marker-start:none"
         transform="matrix(0.8,0,0,0.8,10,0)"
         inkscape:connector-curvature="0" />
    </marker>
    <filter
       color-interpolation-filters="sRGB"
       inkscape:menu-tooltip="Glow of object's own color at the edges"
       inkscape:menu="Shadows and Glows"
       inkscape:label="Glow"
       id="filter2993-2">
      <feGaussianBlur
         result="result91"
         stdDeviation="5"
         id="feGaussianBlur2995-1" />
      <feComposite
         operator="over"
         in="SourceGraphic"
         in2="result91"
         id="feComposite2997-4" />
    </filter>
    <filter
       height="1.3210435"
       y="-0.16052175"
       width="1.2349099"
       x="-0.11745493"
       id="filter3797"
       inkscape:collect="always"
       color-interpolation-filters="sRGB">
      <feGaussianBlur
         id="feGaussianBlur3799"
         stdDeviation="17.198757"
         inkscape:collect="always" />
    </filter>
    <filter
       id="filter4412-8"
       inkscape:label="Glow"
       inkscape:menu="Shadows and Glows"
       inkscape:menu-tooltip="Glow of object's own color at the edges"
       color-interpolation-filters="sRGB">
      <feGaussianBlur
         id="feGaussianBlur4414-5"
         stdDeviation="5"
         result="result91" />
      <feComposite
         id="feComposite4416-7"
         in2="result91"
         in="SourceGraphic"
         operator="over" />
    </filter>
    <filter
       id="filter4412-8-7"
       inkscape:label="Glow"
       inkscape:menu="Shadows and Glows"
       inkscape:menu-tooltip="Glow of object's own color at the edges"
       color-interpolation-filters="sRGB">
      <feGaussianBlur
         id="feGaussianBlur4414-5-0"
         stdDeviation="5"
         result="result91" />
      <feComposite
         id="feComposite4416-7-8"
         in2="result91"
         in="SourceGraphic"
         operator="over" />
    </filter>
    <filter
       id="filter4412-8-6"
       inkscape:label="Glow"
       inkscape:menu="Shadows and Glows"
       inkscape:menu-tooltip="Glow of object's own color at the edges"
       color-interpolation-filters="sRGB">
      <feGaussianBlur
         id="feGaussianBlur4414-5-8"
         stdDeviation="5"
         result="result91" />
      <feComposite
         id="feComposite4416-7-9"
         in2="result91"
         in="SourceGraphic"
         operator="over" />
    </filter>
    <filter
       id="filter4412-8-9"
       inkscape:label="Glow"
       inkscape:menu="Shadows and Glows"
       inkscape:menu-tooltip="Glow of object's own color at the edges"
       color-interpolation-filters="sRGB">
      <feGaussianBlur
         id="feGaussianBlur4414-5-89"
         stdDeviation="5"
         result="result91" />
      <feComposite
         id="feComposite4416-7-2"
         in2="result91"
         in="SourceGraphic"
         operator="over" />
    </filter>
  </defs>
  <sodipodi:namedview
     id="base"
     pagecolor="#ffffff"
     bordercolor="#666666"
     borderopacity="1.0"
     inkscape:pageopacity="0.0"
     inkscape:pageshadow="2"
     inkscape:zoom="0.57666667"
     inkscape:cx="167.59741"
     inkscape:cy="388.80799"
     inkscape:document-units="px"
     inkscape:current-layer="layer1"
     showgrid="false"
     inkscape:window-width="1280"
     inkscape:window-height="738"
     inkscape:window-x="-8"
     inkscape:window-y="-8"
     inkscape:window-maximized="1"
     fit-margin-top="0"
     fit-margin-left="0"
     fit-margin-right="0"
     fit-margin-bottom="0" />
  <metadata
     id="metadata7">
    <rdf:RDF>
      <cc:Work
         rdf:about="">
        <dc:format>image/svg+xml</dc:format>
        <dc:type
           rdf:resource="http://purl.org/dc/dcmitype/StillImage" />
        <dc:title></dc:title>
      </cc:Work>
    </rdf:RDF>
  </metadata>
  <g
     inkscape:label="Layer 1"
     inkscape:groupmode="layer"
     id="layer1"
     transform="translate(172.85712,-96.64788)" />
  <g
     inkscape:groupmode="layer"
     id="layer2"
     inkscape:label="Layer"
     transform="translate(-150,7.9226379e-6)">
    <g
       style="font-size:80px;font-style:normal;font-weight:normal;line-height:125%;letter-spacing:0px;word-spacing:0px;fill:#ffffff;fill-opacity:1;stroke:none;font-family:Sans"
       id="flowRoot13848"
       transform="translate(112.22657,0)">
      <path
         d="m 357.34375,90.072441 7.14844,-0.625 c 0.33853,2.864599 1.12629,5.214857 2.36328,7.050781 1.23696,1.835948 3.15753,3.320321 5.76172,4.453128 2.60414,1.13282 5.53383,1.69922 8.78906,1.69922 2.89059,0 5.44268,-0.42969 7.65625,-1.28907 2.2135,-0.85936 3.86064,-2.037748 4.94141,-3.535153 1.08068,-1.497384 1.62105,-3.131497 1.62109,-4.902344 -4e-5,-1.796858 -0.52087,-3.365866 -1.5625,-4.707031 -1.04171,-1.341124 -2.76045,-2.467425 -5.15625,-3.378906 -1.53649,-0.598934 -4.93493,-1.529923 -10.19531,-2.792969 -5.26044,-1.262993 -8.94533,-2.454398 -11.05469,-3.574219 -2.73439,-1.43226 -4.77214,-3.209602 -6.11328,-5.332031 -1.34115,-2.122358 -2.01173,-4.498658 -2.01172,-7.128906 -10e-6,-2.89058 0.82031,-5.5924 2.46094,-8.105469 1.64061,-2.512968 4.03644,-4.420518 7.1875,-5.722656 3.15102,-1.302026 6.65362,-1.953067 10.50781,-1.953125 4.24476,5.8e-5 7.98825,0.683651 11.23047,2.050781 3.24215,1.367242 5.73563,3.378959 7.48047,6.035156 1.74474,2.656298 2.68224,5.664107 2.8125,9.023438 l -7.26563,0.546875 c -0.39066,-3.619748 -1.71228,-6.35412 -3.96484,-8.203125 -2.25264,-1.848908 -5.57946,-2.773386 -9.98047,-2.773438 -4.58335,5.2e-5 -7.9232,0.839895 -10.01953,2.519531 -2.09637,1.679735 -3.14455,3.704473 -3.14453,6.074219 -2e-5,2.057333 0.74217,3.750039 2.22656,5.078125 1.45832,1.328162 5.26691,2.688837 11.42578,4.082031 6.15882,1.393262 10.38408,2.610709 12.67578,3.652344 3.33329,1.536487 5.79423,3.4831 7.38281,5.839844 1.5885,2.356793 2.38277,5.071634 2.38282,8.144531 -5e-5,3.046888 -0.87245,5.917979 -2.61719,8.613277 -1.74484,2.69532 -4.25134,4.79167 -7.51953,6.28907 -3.26827,1.49739 -6.94665,2.24609 -11.03516,2.24609 -5.18231,0 -9.52476,-0.75521 -13.02734,-2.26562 -3.50262,-1.51042 -6.25001,-3.78255 -8.24219,-6.81641 -1.99219,-3.033844 -3.04037,-6.46483 -3.14453,-10.292969 z"
         id="path13857"
         inkscape:connector-curvature="0" />
      <path
         d="m 427.8125,102.18182 1.01562,6.21093 c -1.97918,0.41667 -3.75001,0.625 -5.3125,0.625 -2.55209,0 -4.53126,-0.40364 -5.9375,-1.21093 -1.40625,-0.80729 -2.39584,-1.86849 -2.96875,-3.1836 -0.57292,-1.3151 -0.85938,-4.08202 -0.85937,-8.300779 l 0,-23.867188 -5.15625,0 0,-5.46875 5.15625,0 0,-10.273437 6.99219,-4.21875 0,14.492187 7.07031,0 0,5.46875 -7.07031,0 0,24.257813 c -2e-5,2.005218 0.12368,3.294274 0.37109,3.867184 0.24738,0.57293 0.65103,1.02866 1.21094,1.36719 0.55988,0.33855 1.36066,0.50782 2.40234,0.50781 0.78123,10e-6 1.80988,-0.0911 3.08594,-0.27343 z"
         id="path13859"
         inkscape:connector-curvature="0" />
      <path
         d="m 461.71875,103.35369 c -2.6042,2.21355 -5.1107,3.77604 -7.51953,4.6875 -2.40888,0.91146 -4.99351,1.36719 -7.75391,1.36719 -4.5573,0 -8.0599,-1.11328 -10.50781,-3.33985 -2.44792,-2.22655 -3.67188,-5.0716 -3.67188,-8.535152 0,-2.031237 0.46224,-3.886704 1.38672,-5.566406 0.92448,-1.679669 2.13541,-3.027324 3.63282,-4.042969 1.49738,-1.015603 3.18358,-1.783832 5.05859,-2.304687 1.38019,-0.36456 3.46353,-0.716123 6.25,-1.054688 5.67706,-0.677059 9.85674,-1.484349 12.53906,-2.421875 0.026,-0.963514 0.039,-1.575493 0.0391,-1.835937 -3e-5,-2.864553 -0.66409,-4.88278 -1.99218,-6.054688 -1.79691,-1.588506 -4.46617,-2.382776 -8.00782,-2.382812 -3.30731,3.6e-5 -5.74871,0.579463 -7.32421,1.738281 -1.57554,1.158888 -2.7409,3.209667 -3.4961,6.152344 l -6.875,-0.9375 c 0.625,-2.942676 1.65364,-5.318976 3.08594,-7.128907 1.43228,-1.809857 3.50259,-3.203085 6.21094,-4.179687 2.70831,-0.976521 5.84633,-1.464801 9.41406,-1.464844 3.54164,4.3e-5 6.41924,0.416709 8.63281,1.25 2.21351,0.833374 3.84111,1.88155 4.88281,3.144531 1.04163,1.263058 1.7708,2.858108 2.1875,4.785157 0.23434,1.197948 0.35153,3.359405 0.35157,6.484375 l 0,9.375 c -4e-5,6.536469 0.1497,10.670584 0.44922,12.402344 0.29944,1.73177 0.89188,3.39193 1.77734,4.98047 l -7.34375,0 c -0.7292,-1.45833 -1.19795,-3.16406 -1.40625,-5.11719 z m -0.58594,-15.703124 c -2.55211,1.041686 -6.38023,1.927102 -11.48437,2.65625 -2.89064,0.416684 -4.93491,0.885434 -6.13282,1.40625 -1.19792,0.520849 -2.1224,1.282567 -2.77343,2.285156 -0.65105,1.002618 -0.97658,2.115898 -0.97657,3.339844 -1e-5,1.875009 0.70963,3.437504 2.12891,4.687504 1.41926,1.25 3.49608,1.875 6.23047,1.875 2.70831,0 5.11716,-0.59245 7.22656,-1.77735 2.10935,-1.18489 3.65883,-2.805979 4.64844,-4.863279 0.75518,-1.588529 1.13278,-3.932277 1.13281,-7.03125 z"
         id="path13861"
         inkscape:connector-curvature="0" />
      <path
         d="m 477.89062,111.90838 6.83594,1.01562 c 0.28645,2.10937 1.08072,3.64583 2.38281,4.60938 1.74478,1.30207 4.12759,1.95311 7.14844,1.95312 3.25519,-1e-5 5.76821,-0.65105 7.53906,-1.95312 1.77081,-1.30209 2.96872,-3.12501 3.59375,-5.46875 0.36456,-1.4323 0.53383,-4.44011 0.50782,-9.02344 -3.07295,3.61979 -6.90107,5.42969 -11.48438,5.42969 -5.70314,0 -10.1172,-2.05729 -13.24219,-6.17188 -3.125,-4.11457 -4.6875,-9.049461 -4.6875,-14.804684 0,-3.958309 0.71615,-7.610649 2.14844,-10.957032 1.43229,-3.346319 3.50911,-5.930951 6.23047,-7.753906 2.72134,-1.822875 5.91795,-2.734332 9.58984,-2.734375 4.89581,4.3e-5 8.93227,1.979207 12.10938,5.9375 l 0,-5 6.48437,0 0,35.859377 c -3e-5,6.45833 -0.65759,11.03515 -1.97265,13.73047 -1.31514,2.6953 -3.39847,4.8242 -6.25,6.38672 -2.85159,1.56248 -6.3607,2.34373 -10.52735,2.34375 -4.94793,-2e-5 -8.94532,-1.1133 -11.99218,-3.33985 -3.04688,-2.22657 -4.51824,-5.57943 -4.41407,-10.05859 z m 5.82032,-24.921877 c -10e-6,5.442725 1.08072,9.414075 3.24218,11.914063 2.16145,2.500004 4.86978,3.750004 8.125,3.750004 3.22915,0 5.93748,-1.24349 8.125,-3.730473 2.18747,-2.486967 3.28122,-6.386703 3.28125,-11.699219 -3e-5,-5.078099 -1.12633,-8.90622 -3.3789,-11.484375 -2.25263,-2.57809 -4.96747,-3.867151 -8.14453,-3.867187 -3.12502,3.6e-5 -5.78127,1.269566 -7.96875,3.808593 -2.18751,2.539093 -3.28126,6.308621 -3.28125,11.308594 z"
         id="path13863"
         inkscape:connector-curvature="0" />
      <path
         d="m 552.10937,95.111503 7.26563,0.898438 c -1.14587,4.244799 -3.26827,7.539069 -6.36719,9.882809 -3.09899,2.34375 -7.05732,3.51563 -11.875,3.51563 -6.06772,0 -10.87892,-1.86849 -14.43359,-5.60547 -3.55469,-3.73697 -5.33204,-8.977852 -5.33203,-15.722657 -1e-5,-6.979139 1.79687,-12.3958 5.39062,-16.25 3.59374,-3.854126 8.25519,-5.781207 13.98438,-5.78125 5.54684,4.3e-5 10.07809,1.888062 13.59375,5.664063 3.51558,3.776074 5.27339,9.088569 5.27343,15.9375 -4e-5,0.416687 -0.0131,1.041686 -0.0391,1.875 l -30.9375,0 c 0.26041,4.557306 1.54947,8.046886 3.86719,10.46875 2.31769,2.421884 5.20831,3.632814 8.67187,3.632814 2.5781,0 4.77862,-0.67708 6.60157,-2.03125 1.82288,-1.35416 3.26819,-3.515616 4.33593,-6.484377 z m -23.08593,-11.367187 23.16406,0 c -0.31253,-3.489555 -1.19795,-6.10674 -2.65625,-7.851563 -2.23961,-2.708298 -5.14326,-4.062463 -8.71094,-4.0625 -3.22918,3.7e-5 -5.94402,1.080765 -8.14453,3.242188 -2.20053,2.161489 -3.41798,5.052111 -3.65234,8.671875 z"
         id="path13865"
         inkscape:connector-curvature="0" />
      <path
         d="m 565.42969,96.088066 6.95312,-1.09375 c 0.39062,2.786469 1.47786,4.921883 3.26172,6.406254 1.78384,1.48438 4.27733,2.22656 7.48047,2.22656 3.22914,0 5.62497,-0.65755 7.1875,-1.97266 1.56247,-1.31509 2.34372,-2.858061 2.34375,-4.628904 -3e-5,-1.588529 -0.69013,-2.838528 -2.07031,-3.75 -0.96357,-0.624985 -3.3594,-1.419255 -7.1875,-2.382813 -5.15627,-1.302064 -8.73048,-2.428365 -10.72266,-3.378906 -1.99219,-0.950499 -3.50261,-2.265602 -4.53125,-3.945313 -1.02865,-1.679661 -1.54297,-3.535127 -1.54297,-5.566406 0,-1.848926 0.42318,-3.561164 1.26953,-5.136719 0.84635,-1.575483 1.99869,-2.884076 3.45703,-3.925781 1.09375,-0.807251 2.58463,-1.490844 4.47266,-2.050781 1.88801,-0.559854 3.91274,-0.839801 6.07422,-0.839844 3.25519,4.3e-5 6.11326,0.468792 8.57422,1.40625 2.46091,0.93754 4.27731,2.20707 5.44922,3.808594 1.17184,1.601598 1.97913,3.743523 2.42187,6.425781 l -6.875,0.9375 c -0.31253,-2.135385 -1.21747,-3.80205 -2.71484,-5 -1.49742,-1.19788 -3.6133,-1.796838 -6.34766,-1.796875 -3.22918,3.7e-5 -5.53387,0.53389 -6.91406,1.601563 -1.38022,1.067742 -2.07032,2.317741 -2.07031,3.75 -1e-5,0.911488 0.28645,1.7318 0.85937,2.460937 0.57291,0.755237 1.47134,1.380236 2.69531,1.875 0.70312,0.260443 2.77343,0.859401 6.21094,1.796875 4.97394,1.328149 8.44398,2.415387 10.41016,3.261719 1.96611,0.846375 3.50908,2.076843 4.6289,3.691406 1.11976,1.6146 1.67966,3.619806 1.67969,6.015625 -3e-5,2.34376 -0.68363,4.550792 -2.05078,6.621092 -1.36722,2.07032 -3.33987,3.67188 -5.91797,4.80469 -2.57815,1.13281 -5.49481,1.69922 -8.75,1.69922 -5.39064,0 -9.49871,-1.11979 -12.32422,-3.35938 -2.82552,-2.23958 -4.62891,-5.55988 -5.41015,-9.960934 z"
         id="path13867"
         inkscape:connector-curvature="0" />
      <path
         d="m 610.19531,74.994316 0,-8.007813 8.00781,0 0,8.007813 z m 0,33.476564 0,-8.00781 8.00781,0 0,8.00781 z"
         id="path13869"
         inkscape:connector-curvature="0" />
    </g>
    <g
       transform="translate(-19.042719,-132.97199)"
       id="layer1-8"
       inkscape:label="Layer 1">
      <g
         transform="matrix(0.442346,0,0,0.44212997,546.79534,576.2639)"
         id="g3141">
        <path
           style="opacity:0.5;fill:#ff0000;stroke:#ff0000;stroke-width:7.0192318;stroke-miterlimit:4;stroke-opacity:1;stroke-dasharray:none"
           d="m 1163.5534,854.17452 c -1.3002,-1.58001 -2.7008,-3.07047 -4.1918,-4.46119 -8.176,-7.62588 -19.0891,-12.26861 -31.0937,-12.26861 l -99.4063,0 0,0 c -25.4906,0 -45.99999,20.94588 -45.99999,46.93938 l 0,95.53582 c 0,15.16637 6.98211,28.60348 17.86189,37.16618 z"
           id="path3906"
           inkscape:connector-curvature="0" />
        <path
           style="opacity:0.5;fill:#00ff00;stroke:#00ff00;stroke-width:6.95100021;stroke-miterlimit:4;stroke-opacity:1;stroke-dasharray:none"
           d="m 1003.5807,1019.9432 c 7.767,5.9945 17.5204,9.5529 28.1381,9.5529 l 99.4062,0 c 25.4906,0 46.0313,-20.5094 46.0313,-45.99999 l 0,-93.6875 c 0,-11.29672 -4.0365,-21.62994 -10.7457,-29.62512 z"
           id="rect3896"
           inkscape:connector-curvature="0" />
        <path
           sodipodi:type="arc"
           style="fill:#ffffff;fill-opacity:1;stroke:#000000;stroke-width:5;stroke-miterlimit:4;stroke-opacity:1;stroke-dasharray:none"
           id="path2985-62"
           sodipodi:cx="330"
           sodipodi:cy="298.07648"
           sodipodi:rx="58.57143"
           sodipodi:ry="65.714287"
           d="m 388.57143,298.07648 c 0,36.293 -26.22332,65.71428 -58.57143,65.71428 -32.34811,0 -58.57143,-29.42128 -58.57143,-65.71428 0,-36.293 26.22332,-65.71429 58.57143,-65.71429 32.34811,0 58.57143,29.42129 58.57143,65.71429 z"
           transform="matrix(0.50254323,0,0,0.44791897,919.83196,858.10739)" />
        <path
           sodipodi:type="arc"
           style="fill:#ffffff;fill-opacity:1;stroke:#000000;stroke-width:5;stroke-miterlimit:4;stroke-opacity:1;stroke-dasharray:none"
           id="path2985-7"
           sodipodi:cx="330"
           sodipodi:cy="298.07648"
           sodipodi:rx="58.57143"
           sodipodi:ry="65.714287"
           d="m 388.57143,298.07648 c 0,36.293 -26.22332,65.71428 -58.57143,65.71428 -32.34811,0 -58.57143,-29.42128 -58.57143,-65.71428 0,-36.293 26.22332,-65.71429 58.57143,-65.71429 32.34811,0 58.57143,29.42129 58.57143,65.71429 z"
           transform="matrix(0.50254323,0,0,0.44791897,855.09086,796.86581)" />
        <path
           sodipodi:type="arc"
           style="fill:#ffffff;fill-opacity:1;stroke:#000000;stroke-width:5;stroke-miterlimit:4;stroke-opacity:1;stroke-dasharray:none"
           id="path2985-4"
           sodipodi:cx="330"
           sodipodi:cy="298.07648"
           sodipodi:rx="58.57143"
           sodipodi:ry="65.714287"
           d="m 388.57143,298.07648 c 0,36.293 -26.22332,65.71428 -58.57143,65.71428 -32.34811,0 -58.57143,-29.42128 -58.57143,-65.71428 0,-36.293 26.22332,-65.71429 58.57143,-65.71429 32.34811,0 58.57143,29.42129 58.57143,65.71429 z"
           transform="matrix(0.50254323,0,0,0.44791897,919.83196,733.87447)" />
        <path
           sodipodi:type="arc"
           style="fill:#ffffff;fill-opacity:1;stroke:#000000;stroke-width:5;stroke-miterlimit:4;stroke-opacity:1;stroke-dasharray:none"
           id="path2985-6"
           sodipodi:cx="330"
           sodipodi:cy="298.07648"
           sodipodi:rx="58.57143"
           sodipodi:ry="65.714287"
           d="m 388.57143,298.07648 c 0,36.293 -26.22332,65.71428 -58.57143,65.71428 -32.34811,0 -58.57143,-29.42128 -58.57143,-65.71428 0,-36.293 26.22332,-65.71429 58.57143,-65.71429 32.34811,0 58.57143,29.42129 58.57143,65.71429 z"
           transform="matrix(0.50254323,0,0,0.44791897,978.94489,796.86581)" />
        <rect
           style="fill:#ffffff;fill-opacity:1;stroke:#000000;stroke-width:3.51187372;stroke-miterlimit:4;stroke-opacity:1;stroke-dasharray:none"
           id="rect3033"
           width="27.108917"
           x="1007.3757"
           y="916.82544"
           height="27.108917" />
        <path
           sodipodi:type="arc"
           style="fill:#ffffff;fill-opacity:1;stroke:#000000;stroke-width:5.2329998;stroke-miterlimit:4;stroke-opacity:1;stroke-dasharray:none"
           id="path3805"
           sodipodi:cx="381.42856"
           sodipodi:cy="425.21933"
           sodipodi:rx="24.285715"
           sodipodi:ry="24.285715"
           d="m 405.71427,425.21933 c 0,13.41263 -10.87308,24.28571 -24.28571,24.28571 -13.41263,0 -24.28572,-10.87308 -24.28572,-24.28571 0,-13.41263 10.87309,-24.28572 24.28572,-24.28572 13.41263,0 24.28571,10.87309 24.28571,24.28572 z"
           transform="matrix(0.61241579,0,0,0.61241579,852.07836,606.97755)" />
        <path
           style="fill:none;stroke:#000000;stroke-width:4.71560144;stroke-linecap:butt;stroke-linejoin:miter;stroke-miterlimit:4;stroke-opacity:1;stroke-dasharray:none"
           d="m 1128.4128,930.87465 11.8625,12.86264 19.1595,-26.71475 1.7207,0.31726"
           id="path3807"
           inkscape:connector-curvature="0" />
        <g
           transform="matrix(1.4437937,0,0,1.1012981,1037.5918,494.40573)"
           style="font-size:40px;font-style:normal;font-weight:normal;line-height:125%;letter-spacing:0px;word-spacing:0px;fill:#000000;fill-opacity:1;stroke:none;font-family:Sans;-inkscape-font-specification:Sans"
           id="flowRoot3809">
          <path
             inkscape:connector-curvature="0"
             d="M 20.175781,465.79794 31.25,450.87606 l -9.765625,-13.71093 4.511719,0 5.195312,7.34375 c 1.080717,1.52345 1.848946,2.69533 2.304688,3.51562 0.638006,-1.04165 1.393214,-2.12888 2.265625,-3.26172 l 5.761718,-7.59765 4.121094,0 -10.058594,13.49609 10.839844,15.13672 -4.6875,0 -7.207031,-10.21484 c -0.40366,-0.58593 -0.820326,-1.22395 -1.25,-1.91407 -0.638033,1.04168 -1.093762,1.75783 -1.367188,2.14844 l -7.1875,9.98047 z"
             id="path3139" />
        </g>
      </g>
    </g>
    <g
       id="g14795"
       transform="matrix(0.37905347,0,0,0.37905347,131.32315,551.66169)">
      <rect
         rx="46.011929"
         y="690.28705"
         x="52.747826"
         height="225.20622"
         width="230.92053"
         id="rect3881"
         style="opacity:0.5;fill:#ffffff;fill-opacity:1;stroke:#00ff00;stroke-width:6.95100021;stroke-miterlimit:4;stroke-opacity:1;stroke-dasharray:none" />
      <path
         transform="translate(-56.077628,317.67084)"
         d="m 305.71429,485.21933 c 0,44.97176 -36.45681,81.42857 -81.42857,81.42857 -44.97176,0 -81.42857,-36.45681 -81.42857,-81.42857 0,-44.97176 36.45681,-81.42857 81.42857,-81.42857 44.97176,0 81.42857,36.45681 81.42857,81.42857 z"
         sodipodi:ry="81.428574"
         sodipodi:rx="81.428574"
         sodipodi:cy="485.21933"
         sodipodi:cx="224.28572"
         id="path2987"
         style="fill:#ffffff;fill-opacity:1;stroke:#999999;stroke-width:5;stroke-miterlimit:4;stroke-opacity:1;stroke-dasharray:none;marker-start:none"
         sodipodi:type="arc" />
      <path
         inkscape:connector-curvature="0"
         id="path4755"
         d="M 109.63666,864.31874 226.77952,741.4616"
         style="fill:none;stroke:#000000;stroke-width:1px;stroke-linecap:butt;stroke-linejoin:miter;stroke-opacity:1" />
      <path
         inkscape:connector-curvature="0"
         id="path4757"
         d="M 103.92237,750.03302 226.77952,864.31874"
         style="fill:none;stroke:#000000;stroke-width:1px;stroke-linecap:butt;stroke-linejoin:miter;stroke-opacity:1" />
      <path
         sodipodi:nodetypes="ccc"
         inkscape:connector-curvature="0"
         id="path4759"
         d="m 146.77951,767.17588 17.14286,-25.71429 20,25.71429"
         style="fill:none;stroke:#000000;stroke-width:8;stroke-linecap:butt;stroke-linejoin:miter;stroke-miterlimit:4;stroke-opacity:1;stroke-dasharray:none" />
      <path
         sodipodi:nodetypes="ccc"
         inkscape:connector-curvature="0"
         id="path4759-7"
         d="m 185.6177,843.28428 -17.68082,25.34741 -19.4538,-26.12995"
         style="fill:none;stroke:#000000;stroke-width:8;stroke-linecap:butt;stroke-linejoin:miter;stroke-miterlimit:4;stroke-opacity:1;stroke-dasharray:none" />
      <path
         inkscape:transform-center-y="245.71429"
         inkscape:transform-center-x="-174.28571"
         sodipodi:nodetypes="ccc"
         inkscape:connector-curvature="0"
         id="path4759-72"
         d="m 209.74714,781.91407 24.24856,19.16012 -27.24298,17.86184"
         style="fill:none;stroke:#000000;stroke-width:8;stroke-linecap:butt;stroke-linejoin:miter;stroke-miterlimit:4;stroke-opacity:1;stroke-dasharray:none" />
      <path
         sodipodi:nodetypes="ccc"
         inkscape:connector-curvature="0"
         id="path4759-4"
         d="m 126.09786,825.20733 -26.392228,-16.0796 24.876998,-21.0323"
         style="fill:none;stroke:#000000;stroke-width:8;stroke-linecap:butt;stroke-linejoin:miter;stroke-miterlimit:4;stroke-opacity:1;stroke-dasharray:none" />
    </g>
  </g>
</svg>
