<?xml version="1.0" encoding="UTF-8" standalone="no"?>
<!-- Created with Inkscape (http://www.inkscape.org/) -->

<svg
   xmlns:dc="http://purl.org/dc/elements/1.1/"
   xmlns:cc="http://creativecommons.org/ns#"
   xmlns:rdf="http://www.w3.org/1999/02/22-rdf-syntax-ns#"
   xmlns:svg="http://www.w3.org/2000/svg"
   xmlns="http://www.w3.org/2000/svg"
   xmlns:sodipodi="http://sodipodi.sourceforge.net/DTD/sodipodi-0.dtd"
   xmlns:inkscape="http://www.inkscape.org/namespaces/inkscape"
   width="1200"
   height="900"
   id="svg2"
   version="1.1"
   inkscape:version="0.48.1 "
   sodipodi:docname="story4.svg"
   inkscape:export-filename="C:\Users\Kim\Dropbox\SummerPyGames\story4.png"
   inkscape:export-xdpi="90"
   inkscape:export-ydpi="90">
  <defs
     id="defs4">
    <marker
       inkscape:stockid="Arrow1Lend"
       orient="auto"
       refY="0.0"
       refX="0.0"
       id="Arrow1Lend"
       style="overflow:visible;">
      <path
         id="path3945"
         d="M 0.0,0.0 L 5.0,-5.0 L -12.5,0.0 L 5.0,5.0 L 0.0,0.0 z "
         style="fill-rule:evenodd;stroke:#000000;stroke-width:1.0pt;marker-start:none;"
         transform="scale(0.8) rotate(180) translate(12.5,0)" />
    </marker>
    <marker
       inkscape:stockid="Arrow1Lstart"
       orient="auto"
       refY="0.0"
       refX="0.0"
       id="Arrow1Lstart"
       style="overflow:visible">
      <path
         id="path3942"
         d="M 0.0,0.0 L 5.0,-5.0 L -12.5,0.0 L 5.0,5.0 L 0.0,0.0 z "
         style="fill-rule:evenodd;stroke:#000000;stroke-width:1.0pt;marker-start:none"
         transform="scale(0.8) translate(12.5,0)" />
    </marker>
    <filter
       color-interpolation-filters="sRGB"
       inkscape:menu-tooltip="Glow of object's own color at the edges"
       inkscape:menu="Shadows and Glows"
       inkscape:label="Glow"
       id="filter2993">
      <feGaussianBlur
         result="result91"
         stdDeviation="5"
         id="feGaussianBlur2995" />
      <feComposite
         operator="over"
         in="SourceGraphic"
         in2="result91"
         id="feComposite2997" />
    </filter>
    <marker
       inkscape:stockid="TriangleOutL"
       orient="auto"
       refY="0"
       refX="0"
       id="TriangleOutL-78"
       style="overflow:visible">
      <path
         inkscape:connector-curvature="0"
         id="path4368-73"
         d="m 5.77,0 -8.65,5 0,-10 8.65,5 z"
         style="fill-rule:evenodd;stroke:#000000;stroke-width:1pt;marker-start:none"
         transform="scale(0.8,0.8)" />
    </marker>
    <marker
       inkscape:stockid="TriangleOutL"
       orient="auto"
       refY="0"
       refX="0"
       id="TriangleOutL-2"
       style="overflow:visible">
      <path
         inkscape:connector-curvature="0"
         id="path4368-0"
         d="m 5.77,0 -8.65,5 0,-10 8.65,5 z"
         style="fill-rule:evenodd;stroke:#000000;stroke-width:1pt;marker-start:none"
         transform="scale(0.8,0.8)" />
    </marker>
    <marker
       inkscape:stockid="TriangleOutL"
       orient="auto"
       refY="0"
       refX="0"
       id="TriangleOutL-1"
       style="overflow:visible">
      <path
         inkscape:connector-curvature="0"
         id="path4368-4"
         d="m 5.77,0 -8.65,5 0,-10 8.65,5 z"
         style="fill-rule:evenodd;stroke:#000000;stroke-width:1pt;marker-start:none"
         transform="scale(0.8,0.8)" />
    </marker>
    <marker
       inkscape:stockid="TriangleOutL"
       orient="auto"
       refY="0"
       refX="0"
       id="TriangleOutL-7"
       style="overflow:visible">
      <path
         inkscape:connector-curvature="0"
         id="path4368-7"
         d="m 5.77,0 -8.65,5 0,-10 8.65,5 z"
         style="fill-rule:evenodd;stroke:#000000;stroke-width:1pt;marker-start:none"
         transform="scale(0.8,0.8)" />
    </marker>
    <marker
       inkscape:stockid="TriangleOutL"
       orient="auto"
       refY="0"
       refX="0"
       id="TriangleOutL-6"
       style="overflow:visible">
      <path
         inkscape:connector-curvature="0"
         id="path4368-6"
         d="m 5.77,0 -8.65,5 0,-10 8.65,5 z"
         style="fill-rule:evenodd;stroke:#000000;stroke-width:1pt;marker-start:none"
         transform="scale(0.8,0.8)" />
    </marker>
    <filter
       id="filter3179-5"
       inkscape:label="Glow"
       inkscape:menu="Shadows and Glows"
       inkscape:menu-tooltip="Glow of object's own color at the edges"
       color-interpolation-filters="sRGB">
      <feGaussianBlur
         id="feGaussianBlur3181-2"
         stdDeviation="5"
         result="result91" />
      <feComposite
         id="feComposite3183-2"
         in2="result91"
         in="SourceGraphic"
         operator="over" />
    </filter>
    <marker
       inkscape:stockid="Arrow2Send"
       orient="auto"
       refY="0.0"
       refX="0.0"
       id="Arrow2Send"
       style="overflow:visible;">
      <path
         id="path4258"
         style="font-size:12.0;fill-rule:evenodd;stroke-width:0.62500000;stroke-linejoin:round;"
         d="M 8.7185878,4.0337352 L -2.2072895,0.016013256 L 8.7185884,-4.0017078 C 6.9730900,-1.6296469 6.9831476,1.6157441 8.7185878,4.0337352 z "
         transform="scale(0.3) rotate(180) translate(-2.3,0)" />
    </marker>
    <marker
       inkscape:stockid="TriangleOutL"
       orient="auto"
       refY="0.0"
       refX="0.0"
       id="TriangleOutL"
       style="overflow:visible">
      <path
         id="path4368"
         d="M 5.77,0.0 L -2.88,5.0 L -2.88,-5.0 L 5.77,0.0 z "
         style="fill-rule:evenodd;stroke:#000000;stroke-width:1.0pt;marker-start:none"
         transform="scale(0.8)" />
    </marker>
  </defs>
  <sodipodi:namedview
     id="base"
     pagecolor="#ffffff"
     bordercolor="#666666"
     borderopacity="1.0"
     inkscape:pageopacity="0.0"
     inkscape:pageshadow="2"
     inkscape:zoom="0.35"
     inkscape:cx="250.56548"
     inkscape:cy="382.85715"
     inkscape:document-units="px"
     inkscape:current-layer="layer1"
     showgrid="false"
     fit-margin-top="0"
     fit-margin-left="0"
     fit-margin-right="0"
     fit-margin-bottom="0"
     inkscape:window-width="1280"
     inkscape:window-height="738"
     inkscape:window-x="-8"
     inkscape:window-y="-8"
     inkscape:window-maximized="1" />
  <metadata
     id="metadata7">
    <rdf:RDF>
      <cc:Work
         rdf:about="">
        <dc:format>image/svg+xml</dc:format>
        <dc:type
           rdf:resource="http://purl.org/dc/dcmitype/StillImage" />
        <dc:title></dc:title>
      </cc:Work>
    </rdf:RDF>
  </metadata>
  <g
     inkscape:label="Layer 1"
     inkscape:groupmode="layer"
     id="layer1"
     transform="translate(145.71429,-15.219335)">
    <rect
       style="fill:#000000;fill-opacity:1;stroke:none"
       id="rect2987"
       width="1200"
       height="900"
       x="-145.71429"
       y="15.219335"
       ry="11.988218" />
    <flowRoot
       xml:space="preserve"
       id="flowRoot3380"
       style="font-size:80px;font-style:normal;font-variant:normal;font-weight:normal;font-stretch:normal;text-align:start;line-height:125%;letter-spacing:0px;word-spacing:0px;writing-mode:lr-tb;text-anchor:start;fill:#ffffff;fill-opacity:1;stroke:none;font-family:Sans;-inkscape-font-specification:Sans"
       transform="matrix(0.96276533,0,0,0.9703738,-192.07438,31.951692)"><flowRegion
         id="flowRegion3382"><rect
           id="rect3384"
           width="1262.8571"
           height="785.71423"
           x="65.714287"
           y="57.142857"
           style="font-size:80px;font-style:normal;font-variant:normal;font-weight:normal;font-stretch:normal;text-align:start;line-height:125%;writing-mode:lr-tb;text-anchor:start;fill:#ffffff;font-family:Sans;-inkscape-font-specification:Sans" /></flowRegion><flowPara
         id="flowPara3749">You have confronted the alien leader and won. Our hero couldn't have done it with out you. You have saved the universe. Our hero now will go and continue explore the cosmos and save the universe when needed.Congrats!!</flowPara><flowPara
         id="flowPara3751"></flowPara></flowRoot>    <flowRoot
       style="font-size:40px;font-style:normal;font-weight:normal;line-height:125%;letter-spacing:0px;word-spacing:0px;fill:#000000;fill-opacity:1;stroke:none;font-family:Sans"
       id="flowRoot4933"
       xml:space="preserve"
       transform="translate(-974.94369,220.04061)"><flowRegion
         id="flowRegion4935"><rect
           y="308.20627"
           x="28.387419"
           height="164.2415"
           width="99.355965"
           id="rect4937" /></flowRegion><flowPara
         id="flowPara4939" /></flowRoot>    <g
       id="g3271"
       transform="translate(73.225493,0)">
      <g
         inkscape:label="Layer 1"
         id="layer1-9"
         transform="translate(-359.52544,-148.038)">
        <g
           id="g3141"
           transform="matrix(0.442346,0,0,0.44212997,546.79534,576.2639)">
          <path
             inkscape:connector-curvature="0"
             id="path3906"
             d="m 1163.5534,854.17452 c -1.3002,-1.58001 -2.7008,-3.07047 -4.1918,-4.46119 -8.176,-7.62588 -19.0891,-12.26861 -31.0937,-12.26861 l -99.4063,0 0,0 c -25.4906,0 -45.99999,20.94588 -45.99999,46.93938 l 0,95.53582 c 0,15.16637 6.98211,28.60348 17.86189,37.16618 z"
             style="opacity:0.5;fill:#ff0000;stroke:#ff0000;stroke-width:7.0192318;stroke-miterlimit:4;stroke-opacity:1;stroke-dasharray:none" />
          <path
             inkscape:connector-curvature="0"
             id="rect3896"
             d="m 1003.5807,1019.9432 c 7.767,5.9945 17.5204,9.5529 28.1381,9.5529 l 99.4062,0 c 25.4906,0 46.0313,-20.5094 46.0313,-45.99999 l 0,-93.6875 c 0,-11.29672 -4.0365,-21.62994 -10.7457,-29.62512 z"
             style="opacity:0.5;fill:#00ff00;stroke:#00ff00;stroke-width:6.95100021;stroke-miterlimit:4;stroke-opacity:1;stroke-dasharray:none" />
          <path
             transform="matrix(0.50254323,0,0,0.44791897,919.83196,858.10739)"
             d="m 388.57143,298.07648 c 0,36.293 -26.22332,65.71428 -58.57143,65.71428 -32.34811,0 -58.57143,-29.42128 -58.57143,-65.71428 0,-36.293 26.22332,-65.71429 58.57143,-65.71429 32.34811,0 58.57143,29.42129 58.57143,65.71429 z"
             sodipodi:ry="65.714287"
             sodipodi:rx="58.57143"
             sodipodi:cy="298.07648"
             sodipodi:cx="330"
             id="path2985"
             style="fill:#ffffff;fill-opacity:1;stroke:#000000;stroke-width:5;stroke-miterlimit:4;stroke-opacity:1;stroke-dasharray:none"
             sodipodi:type="arc" />
          <path
             transform="matrix(0.50254323,0,0,0.44791897,855.09086,796.86581)"
             d="m 388.57143,298.07648 c 0,36.293 -26.22332,65.71428 -58.57143,65.71428 -32.34811,0 -58.57143,-29.42128 -58.57143,-65.71428 0,-36.293 26.22332,-65.71429 58.57143,-65.71429 32.34811,0 58.57143,29.42129 58.57143,65.71429 z"
             sodipodi:ry="65.714287"
             sodipodi:rx="58.57143"
             sodipodi:cy="298.07648"
             sodipodi:cx="330"
             id="path2985-7"
             style="fill:#ffffff;fill-opacity:1;stroke:#000000;stroke-width:5;stroke-miterlimit:4;stroke-opacity:1;stroke-dasharray:none"
             sodipodi:type="arc" />
          <path
             transform="matrix(0.50254323,0,0,0.44791897,919.83196,733.87447)"
             d="m 388.57143,298.07648 c 0,36.293 -26.22332,65.71428 -58.57143,65.71428 -32.34811,0 -58.57143,-29.42128 -58.57143,-65.71428 0,-36.293 26.22332,-65.71429 58.57143,-65.71429 32.34811,0 58.57143,29.42129 58.57143,65.71429 z"
             sodipodi:ry="65.714287"
             sodipodi:rx="58.57143"
             sodipodi:cy="298.07648"
             sodipodi:cx="330"
             id="path2985-4"
             style="fill:#ffffff;fill-opacity:1;stroke:#000000;stroke-width:5;stroke-miterlimit:4;stroke-opacity:1;stroke-dasharray:none"
             sodipodi:type="arc" />
          <path
             transform="matrix(0.50254323,0,0,0.44791897,978.94489,796.86581)"
             d="m 388.57143,298.07648 c 0,36.293 -26.22332,65.71428 -58.57143,65.71428 -32.34811,0 -58.57143,-29.42128 -58.57143,-65.71428 0,-36.293 26.22332,-65.71429 58.57143,-65.71429 32.34811,0 58.57143,29.42129 58.57143,65.71429 z"
             sodipodi:ry="65.714287"
             sodipodi:rx="58.57143"
             sodipodi:cy="298.07648"
             sodipodi:cx="330"
             id="path2985-6"
             style="fill:#ffffff;fill-opacity:1;stroke:#000000;stroke-width:5;stroke-miterlimit:4;stroke-opacity:1;stroke-dasharray:none"
             sodipodi:type="arc" />
          <rect
             height="27.108917"
             y="916.82544"
             x="1007.3757"
             width="27.108917"
             id="rect3033"
             style="fill:#ffffff;fill-opacity:1;stroke:#000000;stroke-width:3.51187372;stroke-miterlimit:4;stroke-opacity:1;stroke-dasharray:none" />
          <path
             transform="matrix(0.61241579,0,0,0.61241579,852.07836,606.97755)"
             d="m 405.71427,425.21933 c 0,13.41263 -10.87308,24.28571 -24.28571,24.28571 -13.41263,0 -24.28572,-10.87308 -24.28572,-24.28571 0,-13.41263 10.87309,-24.28572 24.28572,-24.28572 13.41263,0 24.28571,10.87309 24.28571,24.28572 z"
             sodipodi:ry="24.285715"
             sodipodi:rx="24.285715"
             sodipodi:cy="425.21933"
             sodipodi:cx="381.42856"
             id="path3805"
             style="fill:#ffffff;fill-opacity:1;stroke:#000000;stroke-width:5.2329998;stroke-miterlimit:4;stroke-opacity:1;stroke-dasharray:none"
             sodipodi:type="arc" />
          <path
             inkscape:connector-curvature="0"
             id="path3807"
             d="m 1128.4128,930.87465 11.8625,12.86264 19.1595,-26.71475 1.7207,0.31726"
             style="fill:none;stroke:#000000;stroke-width:4.71560144;stroke-linecap:butt;stroke-linejoin:miter;stroke-miterlimit:4;stroke-opacity:1;stroke-dasharray:none" />
          <g
             id="flowRoot3809"
             style="font-size:40px;font-style:normal;font-weight:normal;line-height:125%;letter-spacing:0px;word-spacing:0px;fill:#000000;fill-opacity:1;stroke:none;font-family:Sans;-inkscape-font-specification:Sans"
             transform="matrix(1.4437937,0,0,1.1012981,1037.5918,494.40573)">
            <path
               id="path3139"
               d="M 20.175781,465.79794 31.25,450.87606 l -9.765625,-13.71093 4.511719,0 5.195312,7.34375 c 1.080717,1.52345 1.848946,2.69533 2.304688,3.51562 0.638006,-1.04165 1.393214,-2.12888 2.265625,-3.26172 l 5.761718,-7.59765 4.121094,0 -10.058594,13.49609 10.839844,15.13672 -4.6875,0 -7.207031,-10.21484 c -0.40366,-0.58593 -0.820326,-1.22395 -1.25,-1.91407 -0.638033,1.04168 -1.093762,1.75783 -1.367188,2.14844 l -7.1875,9.98047 z"
               inkscape:connector-curvature="0" />
          </g>
        </g>
      </g>
      <g
         transform="translate(-66.279536,738.7504)"
         id="g6237">
        <rect
           rx="11.693918"
           y="81.106926"
           x="119.63269"
           height="46.636475"
           width="407.56223"
           id="rect4984"
           style="fill:#00ff00;fill-opacity:1;stroke:#000000;stroke-width:1.5;stroke-miterlimit:4;stroke-opacity:1;stroke-dasharray:none" />
        <g
           id="g6146"
           transform="translate(-233.18237,-427.83896)">
          <g
             style="fill:#000000"
             inkscape:label="Gear8"
             transform="translate(372.04724,526.18109)"
             id="g5709">
            <path
               inkscape:connector-curvature="0"
               style="fill:#000000;stroke:#000000"
               d="m 5.898,-1.184 1.847,-0.371 0.122,-0.01 2.128,0.765 0,1.6 L 7.867,1.565 7.745,1.555 5.898,1.184 5.008,3.333 6.576,4.377 6.67,4.456 7.633,6.501 6.501,7.633 4.456,6.67 4.377,6.576 3.333,5.008 1.184,5.898 1.555,7.745 1.565,7.867 0.8,9.995 -0.8,9.995 -1.565,7.867 -1.555,7.745 -1.184,5.898 -3.333,5.008 -4.377,6.576 -4.456,6.67 -6.501,7.633 -7.633,6.501 -6.67,4.456 -6.576,4.377 -5.008,3.333 -5.898,1.184 -7.745,1.555 -7.867,1.565 -9.995,0.8 l 0,-1.6 2.128,-0.765 0.122,0.01 1.847,0.371 0.89,-2.149 -1.568,-1.044 -0.094,-0.079 -0.963,-2.045 1.132,-1.132 2.045,0.963 0.079,0.094 1.044,1.568 2.149,-0.89 -0.371,-1.847 -0.01,-0.122 0.765,-2.128 1.6,0 0.765,2.128 -0.01,0.122 -0.371,1.847 2.149,0.89 1.044,-1.568 0.079,-0.094 2.045,-0.963 1.132,1.132 -0.963,2.045 -0.094,0.079 -1.568,1.044 z"
               id="path5711" />
          </g>
          <path
             transform="matrix(1.9622236,0,0,1.9622236,-69.940062,-608.50848)"
             d="m 226.7648,578.26721 c 0,0.83761 -0.67901,1.51662 -1.51662,1.51662 -0.8376,0 -1.51661,-0.67901 -1.51661,-1.51662 0,-0.8376 0.67901,-1.51662 1.51661,-1.51662 0.83761,0 1.51662,0.67902 1.51662,1.51662 z"
             sodipodi:ry="1.5166185"
             sodipodi:rx="1.5166185"
             sodipodi:cy="578.26721"
             sodipodi:cx="225.24818"
             id="path6144"
             style="fill:#00ff00;fill-opacity:1;stroke:#000000;stroke-width:0.5;stroke-miterlimit:4;stroke-opacity:1;stroke-dasharray:none"
             sodipodi:type="arc" />
        </g>
      </g>
      <flowRoot
         transform="translate(1342.8571,243.79076)"
         style="font-size:60px;font-style:normal;font-weight:normal;line-height:125%;letter-spacing:0px;word-spacing:0px;fill:#ffffff;fill-opacity:1;stroke:none;font-family:Sans"
         id="flowRoot3263"
         xml:space="preserve"><flowRegion
           id="flowRegion3265"><rect
             style="font-size:60px;fill:#ffffff"
             y="557.14288"
             x="-831.42859"
             height="137.14285"
             width="277.14285"
             id="rect3267" /></flowRegion><flowPara
           id="flowPara3269">or</flowPara></flowRoot>    </g>
  </g>
</svg>
