<?xml version="1.0" encoding="UTF-8" standalone="no"?>
<!-- Created with Inkscape (http://www.inkscape.org/) -->

<svg
   xmlns:dc="http://purl.org/dc/elements/1.1/"
   xmlns:cc="http://creativecommons.org/ns#"
   xmlns:rdf="http://www.w3.org/1999/02/22-rdf-syntax-ns#"
   xmlns:svg="http://www.w3.org/2000/svg"
   xmlns="http://www.w3.org/2000/svg"
   xmlns:sodipodi="http://sodipodi.sourceforge.net/DTD/sodipodi-0.dtd"
   xmlns:inkscape="http://www.inkscape.org/namespaces/inkscape"
   width="1200"
   height="900"
   id="svg2"
   version="1.1"
   inkscape:version="0.48.1 "
   sodipodi:docname="story4.svg"
   inkscape:export-filename="C:\Users\Kim\Dropbox\SummerPyGames\story3.png"
   inkscape:export-xdpi="90"
   inkscape:export-ydpi="90">
  <defs
     id="defs4">
    <marker
       inkscape:stockid="Arrow1Lend"
       orient="auto"
       refY="0.0"
       refX="0.0"
       id="Arrow1Lend"
       style="overflow:visible;">
      <path
         id="path3945"
         d="M 0.0,0.0 L 5.0,-5.0 L -12.5,0.0 L 5.0,5.0 L 0.0,0.0 z "
         style="fill-rule:evenodd;stroke:#000000;stroke-width:1.0pt;marker-start:none;"
         transform="scale(0.8) rotate(180) translate(12.5,0)" />
    </marker>
    <marker
       inkscape:stockid="Arrow1Lstart"
       orient="auto"
       refY="0.0"
       refX="0.0"
       id="Arrow1Lstart"
       style="overflow:visible">
      <path
         id="path3942"
         d="M 0.0,0.0 L 5.0,-5.0 L -12.5,0.0 L 5.0,5.0 L 0.0,0.0 z "
         style="fill-rule:evenodd;stroke:#000000;stroke-width:1.0pt;marker-start:none"
         transform="scale(0.8) translate(12.5,0)" />
    </marker>
    <filter
       color-interpolation-filters="sRGB"
       inkscape:menu-tooltip="Glow of object's own color at the edges"
       inkscape:menu="Shadows and Glows"
       inkscape:label="Glow"
       id="filter2993">
      <feGaussianBlur
         result="result91"
         stdDeviation="5"
         id="feGaussianBlur2995" />
      <feComposite
         operator="over"
         in="SourceGraphic"
         in2="result91"
         id="feComposite2997" />
    </filter>
    <marker
       inkscape:stockid="TriangleOutL"
       orient="auto"
       refY="0"
       refX="0"
       id="TriangleOutL-78"
       style="overflow:visible">
      <path
         inkscape:connector-curvature="0"
         id="path4368-73"
         d="m 5.77,0 -8.65,5 0,-10 8.65,5 z"
         style="fill-rule:evenodd;stroke:#000000;stroke-width:1pt;marker-start:none"
         transform="scale(0.8,0.8)" />
    </marker>
    <marker
       inkscape:stockid="TriangleOutL"
       orient="auto"
       refY="0"
       refX="0"
       id="TriangleOutL-2"
       style="overflow:visible">
      <path
         inkscape:connector-curvature="0"
         id="path4368-0"
         d="m 5.77,0 -8.65,5 0,-10 8.65,5 z"
         style="fill-rule:evenodd;stroke:#000000;stroke-width:1pt;marker-start:none"
         transform="scale(0.8,0.8)" />
    </marker>
    <marker
       inkscape:stockid="TriangleOutL"
       orient="auto"
       refY="0"
       refX="0"
       id="TriangleOutL-1"
       style="overflow:visible">
      <path
         inkscape:connector-curvature="0"
         id="path4368-4"
         d="m 5.77,0 -8.65,5 0,-10 8.65,5 z"
         style="fill-rule:evenodd;stroke:#000000;stroke-width:1pt;marker-start:none"
         transform="scale(0.8,0.8)" />
    </marker>
    <marker
       inkscape:stockid="TriangleOutL"
       orient="auto"
       refY="0"
       refX="0"
       id="TriangleOutL-7"
       style="overflow:visible">
      <path
         inkscape:connector-curvature="0"
         id="path4368-7"
         d="m 5.77,0 -8.65,5 0,-10 8.65,5 z"
         style="fill-rule:evenodd;stroke:#000000;stroke-width:1pt;marker-start:none"
         transform="scale(0.8,0.8)" />
    </marker>
    <marker
       inkscape:stockid="TriangleOutL"
       orient="auto"
       refY="0"
       refX="0"
       id="TriangleOutL-6"
       style="overflow:visible">
      <path
         inkscape:connector-curvature="0"
         id="path4368-6"
         d="m 5.77,0 -8.65,5 0,-10 8.65,5 z"
         style="fill-rule:evenodd;stroke:#000000;stroke-width:1pt;marker-start:none"
         transform="scale(0.8,0.8)" />
    </marker>
    <filter
       id="filter3179-5"
       inkscape:label="Glow"
       inkscape:menu="Shadows and Glows"
       inkscape:menu-tooltip="Glow of object's own color at the edges"
       color-interpolation-filters="sRGB">
      <feGaussianBlur
         id="feGaussianBlur3181-2"
         stdDeviation="5"
         result="result91" />
      <feComposite
         id="feComposite3183-2"
         in2="result91"
         in="SourceGraphic"
         operator="over" />
    </filter>
    <marker
       inkscape:stockid="Arrow2Send"
       orient="auto"
       refY="0.0"
       refX="0.0"
       id="Arrow2Send"
       style="overflow:visible;">
      <path
         id="path4258"
         style="font-size:12.0;fill-rule:evenodd;stroke-width:0.62500000;stroke-linejoin:round;"
         d="M 8.7185878,4.0337352 L -2.2072895,0.016013256 L 8.7185884,-4.0017078 C 6.9730900,-1.6296469 6.9831476,1.6157441 8.7185878,4.0337352 z "
         transform="scale(0.3) rotate(180) translate(-2.3,0)" />
    </marker>
    <marker
       inkscape:stockid="TriangleOutL"
       orient="auto"
       refY="0.0"
       refX="0.0"
       id="TriangleOutL"
       style="overflow:visible">
      <path
         id="path4368"
         d="M 5.77,0.0 L -2.88,5.0 L -2.88,-5.0 L 5.77,0.0 z "
         style="fill-rule:evenodd;stroke:#000000;stroke-width:1.0pt;marker-start:none"
         transform="scale(0.8)" />
    </marker>
  </defs>
  <sodipodi:namedview
     id="base"
     pagecolor="#ffffff"
     bordercolor="#666666"
     borderopacity="1.0"
     inkscape:pageopacity="0.0"
     inkscape:pageshadow="2"
     inkscape:zoom="0.35"
     inkscape:cx="250.56548"
     inkscape:cy="382.85715"
     inkscape:document-units="px"
     inkscape:current-layer="layer1"
     showgrid="false"
     fit-margin-top="0"
     fit-margin-left="0"
     fit-margin-right="0"
     fit-margin-bottom="0"
     inkscape:window-width="1280"
     inkscape:window-height="738"
     inkscape:window-x="-8"
     inkscape:window-y="-8"
     inkscape:window-maximized="1" />
  <metadata
     id="metadata7">
    <rdf:RDF>
      <cc:Work
         rdf:about="">
        <dc:format>image/svg+xml</dc:format>
        <dc:type
           rdf:resource="http://purl.org/dc/dcmitype/StillImage" />
        <dc:title />
      </cc:Work>
    </rdf:RDF>
  </metadata>
  <g
     inkscape:label="Layer 1"
     inkscape:groupmode="layer"
     id="layer1"
     transform="translate(145.71429,-15.219335)">
    <rect
       style="fill:#000000;fill-opacity:1;stroke:none"
       id="rect2987"
       width="1200"
       height="900"
       x="-145.71429"
       y="15.219335"
       ry="11.988218" />
    <g
       transform="translate(-108.81585,195.71776)"
       style="font-size:80px;font-style:normal;font-variant:normal;font-weight:normal;font-stretch:normal;text-align:start;line-height:125%;letter-spacing:0px;word-spacing:0px;writing-mode:lr-tb;text-anchor:start;fill:#ffffff;fill-opacity:1;stroke:none;font-family:Sans;-inkscape-font-specification:Sans"
       id="flowRoot3380">
      <path
         d="m 72.28125,124.00213 0,-57.265627 38.63281,0 0,6.757813 -31.054685,0 0,17.734375 26.875005,0 0,6.757812 -26.875005,0 0,26.015627 z"
         style=""
         id="path3040" />
      <path
         d="m 119.9375,74.822441 0,-8.085938 7.03125,0 0,8.085938 z m 0,49.179689 0,-41.484377 7.03125,0 0,41.484377 z"
         style=""
         id="path3042" />
      <path
         d="m 137.71094,124.00213 0,-41.484377 6.32812,0 0,5.898438 c 3.04686,-4.557252 7.4479,-6.835895 13.20313,-6.835938 2.49997,4.3e-5 4.79814,0.449261 6.89453,1.347656 2.09632,0.898478 3.66533,2.076862 4.70703,3.535157 1.04163,1.458369 1.7708,3.190138 2.1875,5.195312 0.26038,1.302115 0.39059,3.580758 0.39062,6.835938 l 0,25.507814 -7.03125,0 0,-25.234377 c -3e-5,-2.864555 -0.27346,-5.00648 -0.82031,-6.425781 -0.5469,-1.419238 -1.51695,-2.552049 -2.91015,-3.398438 -1.39326,-0.846318 -3.02737,-1.269495 -4.90235,-1.269531 -2.99481,3.6e-5 -5.57944,0.950556 -7.7539,2.851563 -2.1745,1.901073 -3.26173,5.50784 -3.26172,10.820314 l 0,22.65625 z"
         style=""
         id="path3044" />
      <path
         d="m 209.3125,118.88494 c -2.6042,2.21355 -5.1107,3.77604 -7.51953,4.6875 -2.40888,0.91146 -4.99351,1.36719 -7.75391,1.36719 -4.5573,0 -8.0599,-1.11328 -10.50781,-3.33985 -2.44792,-2.22655 -3.67188,-5.0716 -3.67188,-8.53515 0,-2.03124 0.46224,-3.88671 1.38672,-5.56641 0.92448,-1.67967 2.13541,-3.02732 3.63282,-4.04297 1.49738,-1.0156 3.18358,-1.78383 5.05859,-2.30468 1.38019,-0.36456 3.46353,-0.71613 6.25,-1.05469 5.67706,-0.677061 9.85674,-1.484351 12.53906,-2.421877 0.026,-0.963514 0.039,-1.575493 0.0391,-1.835937 -3e-5,-2.864553 -0.66409,-4.88278 -1.99218,-6.054688 -1.79691,-1.588506 -4.46617,-2.382776 -8.00782,-2.382812 -3.30731,3.6e-5 -5.74871,0.579463 -7.32421,1.738281 -1.57554,1.158888 -2.7409,3.209667 -3.4961,6.152344 l -6.875,-0.9375 c 0.625,-2.942676 1.65364,-5.318976 3.08594,-7.128907 1.43228,-1.809857 3.50259,-3.203085 6.21094,-4.179687 2.70831,-0.976521 5.84633,-1.464801 9.41406,-1.464844 3.54164,4.3e-5 6.41924,0.416709 8.63281,1.25 2.21351,0.833374 3.84111,1.88155 4.88281,3.144531 1.04163,1.263058 1.7708,2.858108 2.1875,4.785157 0.23434,1.197948 0.35153,3.359405 0.35157,6.484375 l 0,9.375004 c -4e-5,6.53646 0.1497,10.67058 0.44922,12.40234 0.29944,1.73177 0.89188,3.39193 1.77734,4.98047 l -7.34375,0 c -0.7292,-1.45833 -1.19795,-3.16406 -1.40625,-5.11719 z m -0.58594,-15.70312 c -2.55211,1.04168 -6.38023,1.9271 -11.48437,2.65625 -2.89064,0.41668 -4.93491,0.88543 -6.13282,1.40625 -1.19792,0.52085 -2.1224,1.28256 -2.77343,2.28515 -0.65105,1.00262 -0.97658,2.1159 -0.97657,3.33985 -1e-5,1.875 0.70963,3.4375 2.12891,4.6875 1.41926,1.25 3.49608,1.875 6.23047,1.875 2.70831,0 5.11716,-0.59245 7.22656,-1.77735 2.10935,-1.18489 3.65883,-2.80598 4.64844,-4.86328 0.75518,-1.58853 1.13278,-3.93228 1.13281,-7.03125 z"
         style=""
         id="path3046" />
      <path
         d="m 226.61719,124.00213 0,-57.265627 7.03125,0 0,57.265627 z"
         style=""
         id="path3048" />
      <path
         d="m 244.42969,124.00213 0,-57.265627 7.03125,0 0,57.265627 z"
         style=""
         id="path3050" />
      <path
         d="m 262.08594,139.97869 -0.78125,-6.60156 c 1.53645,0.41666 2.87759,0.62499 4.02343,0.625 1.5625,-1e-5 2.81249,-0.26043 3.75,-0.78125 0.93749,-0.52084 1.70572,-1.25001 2.30469,-2.1875 0.4427,-0.70313 1.15884,-2.44792 2.14844,-5.23438 0.13019,-0.39062 0.33852,-0.96354 0.625,-1.71875 l -15.74219,-41.562497 7.57813,0 8.63281,24.023437 c 1.11977,3.04689 2.12238,6.25001 3.00781,9.60938 0.80727,-3.22916 1.77081,-6.3802 2.89063,-9.45313 l 8.86718,-24.179687 7.03125,0 -15.78125,42.187497 c -1.69273,4.55729 -3.00783,7.69531 -3.94531,9.41407 -1.25002,2.31769 -2.68231,4.01691 -4.29687,5.09765 -1.6146,1.08071 -3.54168,1.62108 -5.78125,1.6211 -1.35418,-2e-5 -2.86459,-0.28648 -4.53125,-0.85938 z"
         style=""
         id="path3052" />
      <path
         d="m 324.50781,124.00213 0,-41.484377 6.32813,0 0,6.289063 c 1.61457,-2.942671 3.10545,-4.882773 4.47265,-5.820313 1.36717,-0.937458 2.87108,-1.406207 4.51172,-1.40625 2.36977,4.3e-5 4.77862,0.75525 7.22656,2.265625 l -2.42187,6.523438 c -1.71877,-1.015591 -3.43752,-1.523403 -5.15625,-1.523438 -1.53648,3.5e-5 -2.91668,0.462274 -4.14063,1.386719 -1.22397,0.924512 -2.09636,2.207063 -2.61718,3.847656 -0.78127,2.500028 -1.17189,5.2344 -1.17188,8.203127 l 0,21.71875 z"
         style=""
         id="path3054" />
      <path
         d="m 379.70312,110.64275 7.26563,0.89844 c -1.14587,4.2448 -3.26827,7.53907 -6.36719,9.88281 -3.09899,2.34375 -7.05732,3.51563 -11.875,3.51563 -6.06772,0 -10.87892,-1.86849 -14.43359,-5.60547 -3.55469,-3.73697 -5.33204,-8.97785 -5.33203,-15.72266 -10e-6,-6.979136 1.79687,-12.395797 5.39062,-16.249997 3.59374,-3.854126 8.25519,-5.781207 13.98438,-5.78125 5.54684,4.3e-5 10.07809,1.888062 13.59375,5.664063 3.51558,3.776074 5.27339,9.088569 5.27343,15.937504 -4e-5,0.41668 -0.0131,1.04168 -0.0391,1.875 l -30.9375,0 c 0.26041,4.5573 1.54947,8.04688 3.86719,10.46875 2.31769,2.42188 5.20831,3.63281 8.67187,3.63281 2.5781,0 4.77862,-0.67708 6.60157,-2.03125 1.82288,-1.35416 3.26819,-3.51562 4.33593,-6.48438 z m -23.08593,-11.367184 23.16406,0 c -0.31253,-3.489555 -1.19795,-6.10674 -2.65625,-7.851563 -2.23961,-2.708298 -5.14326,-4.062463 -8.71094,-4.0625 -3.22918,3.7e-5 -5.94402,1.080765 -8.14453,3.242188 -2.20053,2.161489 -3.41798,5.052111 -3.65234,8.671875 z"
         style=""
         id="path3056" />
      <path
         d="m 422.90625,118.88494 c -2.6042,2.21355 -5.1107,3.77604 -7.51953,4.6875 -2.40888,0.91146 -4.99351,1.36719 -7.75391,1.36719 -4.5573,0 -8.0599,-1.11328 -10.50781,-3.33985 -2.44792,-2.22655 -3.67188,-5.0716 -3.67188,-8.53515 0,-2.03124 0.46224,-3.88671 1.38672,-5.56641 0.92448,-1.67967 2.13541,-3.02732 3.63282,-4.04297 1.49738,-1.0156 3.18358,-1.78383 5.05859,-2.30468 1.38019,-0.36456 3.46353,-0.71613 6.25,-1.05469 5.67706,-0.677061 9.85674,-1.484351 12.53906,-2.421877 0.026,-0.963514 0.039,-1.575493 0.0391,-1.835937 -3e-5,-2.864553 -0.66409,-4.88278 -1.99218,-6.054688 -1.79691,-1.588506 -4.46617,-2.382776 -8.00782,-2.382812 -3.30731,3.6e-5 -5.74871,0.579463 -7.32421,1.738281 -1.57554,1.158888 -2.7409,3.209667 -3.4961,6.152344 l -6.875,-0.9375 c 0.625,-2.942676 1.65364,-5.318976 3.08594,-7.128907 1.43228,-1.809857 3.50259,-3.203085 6.21094,-4.179687 2.70831,-0.976521 5.84633,-1.464801 9.41406,-1.464844 3.54164,4.3e-5 6.41924,0.416709 8.63281,1.25 2.21351,0.833374 3.84111,1.88155 4.88281,3.144531 1.04163,1.263058 1.7708,2.858108 2.1875,4.785157 0.23434,1.197948 0.35153,3.359405 0.35157,6.484375 l 0,9.375004 c -4e-5,6.53646 0.1497,10.67058 0.44922,12.40234 0.29944,1.73177 0.89188,3.39193 1.77734,4.98047 l -7.34375,0 c -0.7292,-1.45833 -1.19795,-3.16406 -1.40625,-5.11719 z m -0.58594,-15.70312 c -2.55211,1.04168 -6.38023,1.9271 -11.48437,2.65625 -2.89064,0.41668 -4.93491,0.88543 -6.13282,1.40625 -1.19792,0.52085 -2.1224,1.28256 -2.77343,2.28515 -0.65105,1.00262 -0.97658,2.1159 -0.97657,3.33985 -1e-5,1.875 0.70963,3.4375 2.12891,4.6875 1.41926,1.25 3.49608,1.875 6.23047,1.875 2.70831,0 5.11716,-0.59245 7.22656,-1.77735 2.10935,-1.18489 3.65883,-2.80598 4.64844,-4.86328 0.75518,-1.58853 1.13278,-3.93228 1.13281,-7.03125 z"
         style=""
         id="path3058" />
      <path
         d="m 467.4375,108.80682 6.91406,0.89843 c -0.75524,4.76564 -2.68884,8.4961 -5.80078,11.19141 -3.11201,2.69531 -6.93362,4.04297 -11.46484,4.04297 -5.6771,0 -10.2409,-1.85547 -13.69141,-5.56641 -3.45052,-3.71093 -5.17578,-9.02993 -5.17578,-15.95703 0,-4.479141 0.74218,-8.398408 2.22656,-11.757812 1.48437,-3.359339 3.74348,-5.878868 6.77735,-7.558594 3.03384,-1.679646 6.33461,-2.519488 9.90234,-2.519531 4.50518,4.3e-5 8.19007,1.139364 11.05469,3.417969 2.86454,2.278682 4.70048,5.514356 5.50781,9.707031 l -6.83594,1.054688 c -0.65107,-2.786428 -1.80341,-4.88278 -3.45703,-6.289063 -1.65367,-1.406214 -3.65237,-2.109338 -5.99609,-2.109375 -3.54169,3.7e-5 -6.41929,1.269567 -8.63282,3.808594 -2.21355,2.539093 -3.32032,6.556016 -3.32031,12.050783 -1e-5,5.57293 1.0677,9.62241 3.20313,12.14844 2.1354,2.52604 4.92185,3.78906 8.35937,3.78906 2.76039,0 5.06508,-0.84635 6.91406,-2.53906 1.84893,-1.6927 3.02081,-4.29687 3.51563,-7.8125 z"
         style=""
         id="path3060" />
      <path
         d="m 480.36719,124.00213 0,-57.265627 7.03125,0 0,20.546875 c 3.28123,-3.802043 7.42185,-5.703082 12.42187,-5.703125 3.07289,4.3e-5 5.74216,0.605511 8.00781,1.816406 2.26559,1.210977 3.88669,2.884153 4.86329,5.019532 0.97652,2.13545 1.4648,5.234405 1.46484,9.296875 l 0,26.289064 -7.03125,0 0,-26.289064 c -3e-5,-3.515596 -0.76175,-6.074187 -2.28516,-7.675782 -1.52346,-1.601527 -3.67841,-2.402307 -6.46484,-2.402343 -2.08335,3.6e-5 -4.04299,0.5404 -5.87891,1.621093 -1.83595,1.080763 -3.14454,2.545606 -3.92578,4.394532 -0.78126,1.848986 -1.17188,4.401067 -1.17187,7.656254 l 0,22.69531 z"
         style=""
         id="path3062" />
      <path
         d="m 524.9375,74.822441 0,-8.085938 7.03125,0 0,8.085938 z m 0,49.179689 0,-41.484377 7.03125,0 0,41.484377 z"
         style=""
         id="path3064" />
      <path
         d="m 542.71094,124.00213 0,-41.484377 6.32812,0 0,5.898438 c 3.04686,-4.557252 7.4479,-6.835895 13.20313,-6.835938 2.49997,4.3e-5 4.79814,0.449261 6.89453,1.347656 2.09632,0.898478 3.66533,2.076862 4.70703,3.535157 1.04163,1.458369 1.7708,3.190138 2.1875,5.195312 0.26038,1.302115 0.39059,3.580758 0.39062,6.835938 l 0,25.507814 -7.03125,0 0,-25.234377 c -3e-5,-2.864555 -0.27346,-5.00648 -0.82031,-6.425781 -0.5469,-1.419238 -1.51695,-2.552049 -2.91015,-3.398438 -1.39326,-0.846318 -3.02737,-1.269495 -4.90235,-1.269531 -2.99481,3.6e-5 -5.57944,0.950556 -7.7539,2.851563 -2.1745,1.901073 -3.26173,5.50784 -3.26172,10.820314 l 0,22.65625 z"
         style=""
         id="path3066" />
      <path
         d="m 585.95312,127.43963 6.83594,1.01562 c 0.28645,2.10937 1.08072,3.64583 2.38281,4.60938 1.74478,1.30207 4.12759,1.95311 7.14844,1.95312 3.25519,-1e-5 5.76821,-0.65105 7.53906,-1.95312 1.77081,-1.30209 2.96872,-3.12501 3.59375,-5.46875 0.36456,-1.4323 0.53383,-4.44011 0.50782,-9.02344 -3.07295,3.61979 -6.90107,5.42969 -11.48438,5.42969 -5.70314,0 -10.1172,-2.05729 -13.24219,-6.17188 -3.125,-4.11457 -4.6875,-9.04946 -4.6875,-14.80468 0,-3.958313 0.71615,-7.610653 2.14844,-10.957036 1.43229,-3.346319 3.50911,-5.930951 6.23047,-7.753906 2.72134,-1.822875 5.91795,-2.734332 9.58984,-2.734375 4.89581,4.3e-5 8.93227,1.979207 12.10938,5.9375 l 0,-5 6.48437,0 0,35.859377 c -3e-5,6.45833 -0.65759,11.03515 -1.97265,13.73047 -1.31514,2.6953 -3.39847,4.8242 -6.25,6.38672 -2.85159,1.56248 -6.3607,2.34373 -10.52735,2.34375 -4.94793,-2e-5 -8.94532,-1.1133 -11.99218,-3.33985 -3.04688,-2.22657 -4.51824,-5.57943 -4.41407,-10.05859 z m 5.82032,-24.92188 c -1e-5,5.44273 1.08072,9.41408 3.24218,11.91407 2.16145,2.5 4.86978,3.75 8.125,3.75 3.22915,0 5.93748,-1.24349 8.125,-3.73047 2.18747,-2.48697 3.28122,-6.38671 3.28125,-11.69922 -3e-5,-5.078101 -1.12633,-8.906222 -3.3789,-11.484377 -2.25263,-2.57809 -4.96747,-3.867151 -8.14453,-3.867187 -3.12502,3.6e-5 -5.78127,1.269566 -7.96875,3.808593 -2.18751,2.539093 -3.28126,6.308621 -3.28125,11.308591 z"
         style=""
         id="path3068" />
      <path
         d="m 669.3125,117.71307 1.01562,6.21093 c -1.97918,0.41667 -3.75001,0.625 -5.3125,0.625 -2.55209,0 -4.53126,-0.40364 -5.9375,-1.21093 -1.40625,-0.80729 -2.39584,-1.86849 -2.96875,-3.1836 -0.57292,-1.3151 -0.85938,-4.08202 -0.85937,-8.30078 l 0,-23.867187 -5.15625,0 0,-5.46875 5.15625,0 0,-10.273437 6.99219,-4.21875 0,14.492187 7.07031,0 0,5.46875 -7.07031,0 0,24.257817 c -2e-5,2.00521 0.12368,3.29427 0.37109,3.86718 0.24738,0.57293 0.65103,1.02866 1.21094,1.36719 0.55988,0.33855 1.36066,0.50782 2.40234,0.50781 0.78123,10e-6 1.80988,-0.0911 3.08594,-0.27343 z"
         style=""
         id="path3070" />
      <path
         d="m 676.14844,124.00213 0,-57.265627 7.03125,0 0,20.546875 c 3.28123,-3.802043 7.42185,-5.703082 12.42187,-5.703125 3.07289,4.3e-5 5.74216,0.605511 8.00781,1.816406 2.26559,1.210977 3.88669,2.884153 4.86329,5.019532 0.97652,2.13545 1.4648,5.234405 1.46484,9.296875 l 0,26.289064 -7.03125,0 0,-26.289064 c -3e-5,-3.515596 -0.76175,-6.074187 -2.28516,-7.675782 -1.52346,-1.601527 -3.67841,-2.402307 -6.46484,-2.402343 -2.08335,3.6e-5 -4.04299,0.5404 -5.87891,1.621093 -1.83595,1.080763 -3.14454,2.545606 -3.92578,4.394532 -0.78126,1.848986 -1.17188,4.401067 -1.17187,7.656254 l 0,22.69531 z"
         style=""
         id="path3072" />
      <path
         d="m 749.07812,110.64275 7.26563,0.89844 c -1.14587,4.2448 -3.26827,7.53907 -6.36719,9.88281 -3.09899,2.34375 -7.05732,3.51563 -11.875,3.51563 -6.06772,0 -10.87892,-1.86849 -14.43359,-5.60547 -3.55469,-3.73697 -5.33204,-8.97785 -5.33203,-15.72266 -1e-5,-6.979136 1.79687,-12.395797 5.39062,-16.249997 3.59374,-3.854126 8.25519,-5.781207 13.98438,-5.78125 5.54684,4.3e-5 10.07809,1.888062 13.59375,5.664063 3.51558,3.776074 5.27339,9.088569 5.27343,15.937504 -4e-5,0.41668 -0.0131,1.04168 -0.0391,1.875 l -30.9375,0 c 0.26041,4.5573 1.54947,8.04688 3.86719,10.46875 2.31769,2.42188 5.20831,3.63281 8.67187,3.63281 2.5781,0 4.77862,-0.67708 6.60157,-2.03125 1.82288,-1.35416 3.26819,-3.51562 4.33593,-6.48438 z m -23.08593,-11.367184 23.16406,0 c -0.31253,-3.489555 -1.19795,-6.10674 -2.65625,-7.851563 -2.23961,-2.708298 -5.14326,-4.062463 -8.71094,-4.0625 -3.22918,3.7e-5 -5.94402,1.080765 -8.14453,3.242188 -2.20053,2.161489 -3.41798,5.052111 -3.65234,8.671875 z"
         style=""
         id="path3074" />
      <path
         d="m 814.46875,118.88494 c -2.6042,2.21355 -5.1107,3.77604 -7.51953,4.6875 -2.40888,0.91146 -4.99351,1.36719 -7.75391,1.36719 -4.5573,0 -8.0599,-1.11328 -10.50781,-3.33985 -2.44792,-2.22655 -3.67188,-5.0716 -3.67188,-8.53515 0,-2.03124 0.46224,-3.88671 1.38672,-5.56641 0.92448,-1.67967 2.13541,-3.02732 3.63282,-4.04297 1.49738,-1.0156 3.18358,-1.78383 5.05859,-2.30468 1.38019,-0.36456 3.46353,-0.71613 6.25,-1.05469 5.67706,-0.677061 9.85674,-1.484351 12.53906,-2.421877 0.026,-0.963514 0.039,-1.575493 0.0391,-1.835937 -3e-5,-2.864553 -0.66409,-4.88278 -1.99218,-6.054688 -1.79691,-1.588506 -4.46617,-2.382776 -8.00782,-2.382812 -3.30731,3.6e-5 -5.74871,0.579463 -7.32421,1.738281 -1.57554,1.158888 -2.7409,3.209667 -3.4961,6.152344 l -6.875,-0.9375 c 0.625,-2.942676 1.65364,-5.318976 3.08594,-7.128907 1.43228,-1.809857 3.50259,-3.203085 6.21094,-4.179687 2.70831,-0.976521 5.84633,-1.464801 9.41406,-1.464844 3.54164,4.3e-5 6.41924,0.416709 8.63281,1.25 2.21351,0.833374 3.84111,1.88155 4.88281,3.144531 1.04163,1.263058 1.7708,2.858108 2.1875,4.785157 0.23434,1.197948 0.35153,3.359405 0.35157,6.484375 l 0,9.375004 c -4e-5,6.53646 0.1497,10.67058 0.44922,12.40234 0.29944,1.73177 0.89188,3.39193 1.77734,4.98047 l -7.34375,0 c -0.7292,-1.45833 -1.19795,-3.16406 -1.40625,-5.11719 z m -0.58594,-15.70312 c -2.55211,1.04168 -6.38023,1.9271 -11.48437,2.65625 -2.89064,0.41668 -4.93491,0.88543 -6.13282,1.40625 -1.19792,0.52085 -2.1224,1.28256 -2.77343,2.28515 -0.65105,1.00262 -0.97658,2.1159 -0.97657,3.33985 -10e-6,1.875 0.70963,3.4375 2.12891,4.6875 1.41926,1.25 3.49608,1.875 6.23047,1.875 2.70831,0 5.11716,-0.59245 7.22656,-1.77735 2.10935,-1.18489 3.65883,-2.80598 4.64844,-4.86328 0.75518,-1.58853 1.13278,-3.93228 1.13281,-7.03125 z"
         style=""
         id="path3076" />
      <path
         d="m 831.77344,124.00213 0,-57.265627 7.03125,0 0,57.265627 z"
         style=""
         id="path3078" />
      <path
         d="m 849.78125,74.822441 0,-8.085938 7.03125,0 0,8.085938 z m 0,49.179689 0,-41.484377 7.03125,0 0,41.484377 z"
         style=""
         id="path3080" />
      <path
         d="m 895.95312,110.64275 7.26563,0.89844 c -1.14587,4.2448 -3.26827,7.53907 -6.36719,9.88281 -3.09899,2.34375 -7.05732,3.51563 -11.875,3.51563 -6.06772,0 -10.87892,-1.86849 -14.43359,-5.60547 -3.55469,-3.73697 -5.33204,-8.97785 -5.33203,-15.72266 -1e-5,-6.979136 1.79687,-12.395797 5.39062,-16.249997 3.59374,-3.854126 8.25519,-5.781207 13.98438,-5.78125 5.54684,4.3e-5 10.07809,1.888062 13.59375,5.664063 3.51558,3.776074 5.27339,9.088569 5.27343,15.937504 -4e-5,0.41668 -0.0131,1.04168 -0.0391,1.875 l -30.9375,0 c 0.26041,4.5573 1.54947,8.04688 3.86719,10.46875 2.31769,2.42188 5.20831,3.63281 8.67187,3.63281 2.5781,0 4.77862,-0.67708 6.60157,-2.03125 1.82288,-1.35416 3.26819,-3.51562 4.33593,-6.48438 z m -23.08593,-11.367184 23.16406,0 c -0.31253,-3.489555 -1.19795,-6.10674 -2.65625,-7.851563 -2.23961,-2.708298 -5.14326,-4.062463 -8.71094,-4.0625 -3.22918,3.7e-5 -5.94402,1.080765 -8.14453,3.242188 -2.20053,2.161489 -3.41798,5.052111 -3.65234,8.671875 z"
         style=""
         id="path3082" />
      <path
         d="m 912.08594,124.00213 0,-41.484377 6.32812,0 0,5.898438 c 3.04686,-4.557252 7.4479,-6.835895 13.20313,-6.835938 2.49997,4.3e-5 4.79814,0.449261 6.89453,1.347656 2.09632,0.898478 3.66533,2.076862 4.70703,3.535157 1.04163,1.458369 1.7708,3.190138 2.1875,5.195312 0.26038,1.302115 0.39059,3.580758 0.39062,6.835938 l 0,25.507814 -7.03125,0 0,-25.234377 c -3e-5,-2.864555 -0.27346,-5.00648 -0.82031,-6.425781 -0.5469,-1.419238 -1.51695,-2.552049 -2.91015,-3.398438 -1.39326,-0.846318 -3.02737,-1.269495 -4.90235,-1.269531 -2.99481,3.6e-5 -5.57944,0.950556 -7.7539,2.851563 -2.1745,1.901073 -3.26173,5.50784 -3.26172,10.820314 l 0,22.65625 z"
         style=""
         id="path3084" />
      <path
         d="m 70.992187,224.00213 0,-57.26563 7.03125,0 0,20.54688 c 3.281235,-3.80204 7.421856,-5.70308 12.421875,-5.70313 3.072889,5e-5 5.742158,0.60551 8.007813,1.81641 2.265595,1.21098 3.886685,2.88415 4.863285,5.01953 0.97652,2.13545 1.4648,5.23441 1.46484,9.29688 l 0,26.28906 -7.03125,0 0,-26.28906 c -3.2e-5,-3.5156 -0.76175,-6.07419 -2.285156,-7.67579 -1.523466,-1.60152 -3.678412,-2.4023 -6.464844,-2.40234 -2.083355,4e-5 -4.042988,0.5404 -5.878906,1.62109 -1.835953,1.08077 -3.144546,2.54561 -3.925782,4.39454 -0.781262,1.84898 -1.171887,4.40106 -1.171875,7.65625 l 0,22.69531 z"
         style=""
         id="path3086" />
      <path
         d="m 112.90625,203.25994 c 0,-7.68226 2.13541,-13.37236 6.40625,-17.07031 3.5677,-3.07288 7.91665,-4.60933 13.04687,-4.60938 5.7031,5e-5 10.36456,1.86853 13.98438,5.60547 3.61975,3.73701 5.42965,8.89977 5.42969,15.48828 -4e-5,5.33856 -0.80082,9.53778 -2.40235,12.59766 -1.6016,3.0599 -3.93232,5.4362 -6.99218,7.12891 -3.05993,1.6927 -6.39977,2.53906 -10.01954,2.53906 -5.8073,0 -10.50131,-1.86198 -14.08203,-5.58594 -3.58073,-3.72395 -5.37109,-9.08853 -5.37109,-16.09375 z m 7.22656,0 c -1e-5,5.31252 1.15885,9.29038 3.47657,11.93359 2.31769,2.64324 5.23435,3.96485 8.74999,3.96485 3.48956,0 6.39321,-1.32812 8.71094,-3.98438 2.31768,-2.65624 3.47653,-6.70571 3.47656,-12.14843 -3e-5,-5.13019 -1.16539,-9.0169 -3.49609,-11.66016 -2.33076,-2.64319 -5.22789,-3.96481 -8.69141,-3.96484 -3.51564,3e-5 -6.4323,1.31514 -8.74999,3.94531 -2.31772,2.63024 -3.47658,6.60159 -3.47657,11.91406 z"
         style=""
         id="path3088" />
      <path
         d="m 160.05469,224.00213 0,-41.48438 6.28906,0 0,5.82032 c 1.30207,-2.03122 3.03384,-3.66533 5.19531,-4.90235 2.16144,-1.23694 4.62238,-1.85542 7.38281,-1.85547 3.07289,5e-5 5.59242,0.63807 7.5586,1.91407 1.96611,1.27608 3.35283,3.05993 4.16015,5.35156 3.28122,-4.84371 7.55204,-7.26558 12.8125,-7.26563 4.11454,5e-5 7.27859,1.13937 9.49219,3.41797 2.21348,2.27868 3.32025,5.7878 3.32031,10.52735 l 0,28.47656 -6.99218,0 0,-26.13281 c -6e-5,-2.81248 -0.22792,-4.83721 -0.6836,-6.07422 -0.45578,-1.23695 -1.2826,-2.23304 -2.48047,-2.98828 -1.19796,-0.75518 -2.60421,-1.13278 -4.21875,-1.13282 -2.91671,4e-5 -5.33858,0.97009 -7.26562,2.91016 -1.92712,1.94014 -2.89066,5.0456 -2.89063,9.31641 l 0,24.10156 -7.03125,0 0,-26.95313 c -2e-5,-3.12497 -0.57294,-5.46871 -1.71875,-7.03125 -1.14586,-1.56246 -3.02085,-2.34371 -5.625,-2.34375 -1.97918,4e-5 -3.80861,0.52087 -5.48828,1.5625 -1.6797,1.0417 -2.89715,2.56514 -3.65234,4.57032 -0.75522,2.00523 -1.13282,4.89585 -1.13281,8.67187 l 0,21.52344 z"
         style=""
         id="path3090" />
      <path
         d="m 255.17187,210.64275 7.26563,0.89844 c -1.14587,4.2448 -3.26827,7.53907 -6.36719,9.88281 -3.09899,2.34375 -7.05732,3.51563 -11.875,3.51563 -6.06772,0 -10.87892,-1.86849 -14.43359,-5.60547 -3.55469,-3.73697 -5.33204,-8.97785 -5.33203,-15.72266 -1e-5,-6.97914 1.79687,-12.3958 5.39062,-16.25 3.59374,-3.85412 8.25519,-5.7812 13.98438,-5.78125 5.54684,5e-5 10.07809,1.88806 13.59375,5.66407 3.51558,3.77607 5.27339,9.08856 5.27343,15.9375 -4e-5,0.41668 -0.0131,1.04168 -0.0391,1.875 l -30.9375,0 c 0.26041,4.5573 1.54947,8.04688 3.86719,10.46875 2.31769,2.42188 5.20831,3.63281 8.67187,3.63281 2.5781,0 4.77862,-0.67708 6.60157,-2.03125 1.82288,-1.35416 3.26819,-3.51562 4.33593,-6.48438 z m -23.08593,-11.36718 23.16406,0 c -0.31253,-3.48956 -1.19795,-6.10674 -2.65625,-7.85157 -2.23961,-2.70829 -5.14326,-4.06246 -8.71094,-4.0625 -3.22918,4e-5 -5.94402,1.08077 -8.14453,3.24219 -2.20053,2.16149 -3.41798,5.05211 -3.65234,8.67188 z"
         style=""
         id="path3092" />
      <path
         d="m 278.96094,224.00213 -12.69532,-41.48438 7.26563,0 6.60156,23.94532 2.46094,8.90625 c 0.10415,-0.4427 0.8203,-3.29426 2.14844,-8.55469 l 6.60156,-24.29688 7.22656,0 6.21094,24.0625 2.07031,7.92969 2.38281,-8.00781 7.10938,-23.98438 6.83594,0 -12.96875,41.48438 -7.30469,0 -6.60156,-24.84375 -1.60157,-7.07031 -8.39843,31.91406 z"
         style=""
         id="path3094" />
      <path
         d="m 326.5,203.25994 c 0,-7.68226 2.13541,-13.37236 6.40625,-17.07031 3.5677,-3.07288 7.91665,-4.60933 13.04687,-4.60938 5.7031,5e-5 10.36456,1.86853 13.98438,5.60547 3.61975,3.73701 5.42965,8.89977 5.42969,15.48828 -4e-5,5.33856 -0.80082,9.53778 -2.40235,12.59766 -1.6016,3.0599 -3.93232,5.4362 -6.99218,7.12891 -3.05993,1.6927 -6.39977,2.53906 -10.01954,2.53906 -5.8073,0 -10.50131,-1.86198 -14.08203,-5.58594 C 328.29036,215.62974 326.5,210.26516 326.5,203.25994 z m 7.22656,0 c -1e-5,5.31252 1.15885,9.29038 3.47656,11.93359 2.3177,2.64324 5.23436,3.96485 8.75,3.96485 3.48956,0 6.39321,-1.32812 8.71094,-3.98438 2.31768,-2.65624 3.47653,-6.70571 3.47656,-12.14843 -3e-5,-5.13019 -1.16539,-9.0169 -3.49609,-11.66016 -2.33076,-2.64319 -5.22789,-3.96481 -8.69141,-3.96484 -3.51564,3e-5 -6.4323,1.31514 -8.75,3.94531 -2.31771,2.63024 -3.47657,6.60159 -3.47656,11.91406 z"
         style=""
         id="path3096" />
      <path
         d="m 373.57031,224.00213 0,-41.48438 6.32813,0 0,6.28907 c 1.61457,-2.94267 3.10545,-4.88278 4.47265,-5.82032 1.36717,-0.93745 2.87108,-1.4062 4.51172,-1.40625 2.36977,5e-5 4.77862,0.75525 7.22656,2.26563 l -2.42187,6.52344 c -1.71877,-1.01559 -3.43752,-1.52341 -5.15625,-1.52344 -1.53648,3e-5 -2.91668,0.46227 -4.14063,1.38672 -1.22397,0.92451 -2.09636,2.20706 -2.61718,3.84765 -0.78127,2.50003 -1.17189,5.2344 -1.17188,8.20313 l 0,21.71875 z"
         style=""
         id="path3098" />
      <path
         d="m 400.21094,224.00213 0,-57.26563 7.03125,0 0,57.26563 z"
         style=""
         id="path3100" />
      <path
         d="m 445.09375,224.00213 0,-5.23438 c -2.63024,4.11459 -6.49742,6.17188 -11.60156,6.17188 -3.30731,0 -6.34767,-0.91146 -9.1211,-2.73438 -2.77344,-1.82291 -4.92188,-4.36848 -6.44531,-7.63672 -1.52344,-3.26821 -2.28516,-7.02472 -2.28516,-11.26953 0,-4.1406 0.69011,-7.8971 2.07032,-11.26953 1.3802,-3.37236 3.45051,-5.95699 6.21093,-7.7539 2.76041,-1.79684 5.84634,-2.69527 9.25782,-2.69532 2.49997,5e-5 4.72653,0.52739 6.67968,1.58203 1.9531,1.05473 3.54164,2.42843 4.76563,4.1211 l 0,-20.54688 6.99219,0 0,57.26563 z M 422.86719,203.299 c -10e-6,5.31252 1.11978,9.28387 3.35937,11.91407 2.23957,2.63021 4.8828,3.94531 7.92969,3.94531 3.07289,0 5.68357,-1.25651 7.83203,-3.76953 2.14841,-2.51301 3.22263,-6.34764 3.22266,-11.50391 -3e-5,-5.67706 -1.09378,-9.84372 -3.28125,-12.5 -2.18753,-2.65621 -4.88284,-3.98434 -8.08594,-3.98437 -3.12502,3e-5 -5.73569,1.27607 -7.83203,3.82812 -2.09637,2.55211 -3.14454,6.57555 -3.14453,12.07031 z"
         style=""
         id="path3102" />
      <path
         d="m 482.28125,203.25994 c 0,-7.68226 2.13541,-13.37236 6.40625,-17.07031 3.5677,-3.07288 7.91665,-4.60933 13.04687,-4.60938 5.7031,5e-5 10.36456,1.86853 13.98438,5.60547 3.61975,3.73701 5.42965,8.89977 5.42969,15.48828 -4e-5,5.33856 -0.80082,9.53778 -2.40235,12.59766 -1.6016,3.0599 -3.93232,5.4362 -6.99218,7.12891 -3.05993,1.6927 -6.39977,2.53906 -10.01954,2.53906 -5.8073,0 -10.50131,-1.86198 -14.08203,-5.58594 -3.58073,-3.72395 -5.37109,-9.08853 -5.37109,-16.09375 z m 7.22656,0 c -1e-5,5.31252 1.15885,9.29038 3.47656,11.93359 2.3177,2.64324 5.23436,3.96485 8.75,3.96485 3.48956,0 6.39321,-1.32812 8.71094,-3.98438 2.31768,-2.65624 3.47653,-6.70571 3.47656,-12.14843 -3e-5,-5.13019 -1.16539,-9.0169 -3.49609,-11.66016 -2.33076,-2.64319 -5.22789,-3.96481 -8.69141,-3.96484 -3.51564,3e-5 -6.4323,1.31514 -8.75,3.94531 -2.31771,2.63024 -3.47657,6.60159 -3.47656,11.91406 z"
         style=""
         id="path3104" />
      <path
         d="m 556.61719,224.00213 0,-6.09375 c -3.2292,4.6875 -7.61721,7.03125 -13.16407,7.03125 -2.44793,0 -4.73308,-0.46875 -6.85546,-1.40625 -2.12241,-0.9375 -3.69793,-2.11588 -4.72657,-3.53516 -1.02865,-1.41926 -1.7513,-3.15754 -2.16797,-5.21484 -0.28646,-1.3802 -0.42969,-3.5677 -0.42968,-6.5625 l 0,-25.70313 7.03125,0 0,23.00782 c -1e-5,3.67189 0.14321,6.14584 0.42968,7.42187 0.4427,1.84897 1.3802,3.30079 2.8125,4.35547 1.43228,1.05469 3.20311,1.58204 5.3125,1.58203 2.10936,1e-5 4.08852,-0.54036 5.9375,-1.62109 1.84893,-1.08072 3.15753,-2.55208 3.92579,-4.41407 0.76819,-1.86196 1.15231,-4.56378 1.15234,-8.10546 l 0,-22.22657 7.03125,0 0,41.48438 z"
         style=""
         id="path3106" />
      <path
         d="m 573.88281,224.00213 0,-41.48438 6.32813,0 0,6.28907 c 1.61457,-2.94267 3.10545,-4.88278 4.47265,-5.82032 1.36717,-0.93745 2.87108,-1.4062 4.51172,-1.40625 2.36977,5e-5 4.77862,0.75525 7.22656,2.26563 L 594,190.36932 c -1.71877,-1.01559 -3.43752,-1.52341 -5.15625,-1.52344 -1.53648,3e-5 -2.91668,0.46227 -4.14063,1.38672 -1.22397,0.92451 -2.09636,2.20706 -2.61718,3.84765 -0.78127,2.50003 -1.17189,5.2344 -1.17188,8.20313 l 0,21.71875 z"
         style=""
         id="path3108" />
      <path
         d="m 622.86719,224.00213 0,-57.26563 7.03125,0 0,20.54688 c 3.28123,-3.80204 7.42185,-5.70308 12.42187,-5.70313 3.07289,5e-5 5.74216,0.60551 8.00781,1.81641 2.26559,1.21098 3.88669,2.88415 4.86329,5.01953 0.97652,2.13545 1.4648,5.23441 1.46484,9.29688 l 0,26.28906 -7.03125,0 0,-26.28906 c -3e-5,-3.5156 -0.76175,-6.07419 -2.28516,-7.67579 -1.52346,-1.60152 -3.67841,-2.4023 -6.46484,-2.40234 -2.08335,4e-5 -4.04299,0.5404 -5.87891,1.62109 -1.83595,1.08077 -3.14454,2.54561 -3.92578,4.39454 -0.78126,1.84898 -1.17188,4.40106 -1.17187,7.65625 l 0,22.69531 z"
         style=""
         id="path3110" />
      <path
         d="m 695.79687,210.64275 7.26563,0.89844 c -1.14587,4.2448 -3.26827,7.53907 -6.36719,9.88281 -3.09899,2.34375 -7.05732,3.51563 -11.875,3.51563 -6.06772,0 -10.87892,-1.86849 -14.43359,-5.60547 -3.55469,-3.73697 -5.33204,-8.97785 -5.33203,-15.72266 -1e-5,-6.97914 1.79687,-12.3958 5.39062,-16.25 3.59374,-3.85412 8.25519,-5.7812 13.98438,-5.78125 5.54684,5e-5 10.07809,1.88806 13.59375,5.66407 3.51558,3.77607 5.27339,9.08856 5.27343,15.9375 -4e-5,0.41668 -0.0131,1.04168 -0.0391,1.875 l -30.9375,0 c 0.26041,4.5573 1.54947,8.04688 3.86719,10.46875 2.31769,2.42188 5.20831,3.63281 8.67187,3.63281 2.5781,0 4.77862,-0.67708 6.60157,-2.03125 1.82288,-1.35416 3.26819,-3.51562 4.33593,-6.48438 z m -23.08593,-11.36718 23.16406,0 c -0.31253,-3.48956 -1.19795,-6.10674 -2.65625,-7.85157 -2.23961,-2.70829 -5.14326,-4.06246 -8.71094,-4.0625 -3.22918,4e-5 -5.94402,1.08077 -8.14453,3.24219 -2.20053,2.16149 -3.41798,5.05211 -3.65234,8.67188 z"
         style=""
         id="path3112" />
      <path
         d="m 711.85156,224.00213 0,-41.48438 6.32813,0 0,6.28907 c 1.61457,-2.94267 3.10545,-4.88278 4.47265,-5.82032 1.36717,-0.93745 2.87108,-1.4062 4.51172,-1.40625 2.36977,5e-5 4.77862,0.75525 7.22656,2.26563 l -2.42187,6.52344 c -1.71877,-1.01559 -3.43752,-1.52341 -5.15625,-1.52344 -1.53648,3e-5 -2.91668,0.46227 -4.14063,1.38672 -1.22397,0.92451 -2.09636,2.20706 -2.61718,3.84765 -0.78127,2.50003 -1.17189,5.2344 -1.17188,8.20313 l 0,21.71875 z"
         style=""
         id="path3114" />
      <path
         d="m 736.03125,203.25994 c 0,-7.68226 2.13541,-13.37236 6.40625,-17.07031 3.5677,-3.07288 7.91665,-4.60933 13.04687,-4.60938 5.7031,5e-5 10.36456,1.86853 13.98438,5.60547 3.61975,3.73701 5.42965,8.89977 5.42969,15.48828 -4e-5,5.33856 -0.80082,9.53778 -2.40235,12.59766 -1.6016,3.0599 -3.93232,5.4362 -6.99218,7.12891 -3.05993,1.6927 -6.39977,2.53906 -10.01954,2.53906 -5.8073,0 -10.50131,-1.86198 -14.08203,-5.58594 -3.58073,-3.72395 -5.37109,-9.08853 -5.37109,-16.09375 z m 7.22656,0 c -10e-6,5.31252 1.15885,9.29038 3.47656,11.93359 2.3177,2.64324 5.23436,3.96485 8.75,3.96485 3.48956,0 6.39321,-1.32812 8.71094,-3.98438 2.31768,-2.65624 3.47653,-6.70571 3.47656,-12.14843 -3e-5,-5.13019 -1.16539,-9.0169 -3.49609,-11.66016 -2.33076,-2.64319 -5.22789,-3.96481 -8.69141,-3.96484 -3.51564,3e-5 -6.4323,1.31514 -8.75,3.94531 -2.31771,2.63024 -3.47657,6.60159 -3.47656,11.91406 z"
         style=""
         id="path3116" />
      <path
         d="m 805.40625,174.82244 0,-8.08594 7.03125,0 0,8.08594 z m 0,49.17969 0,-41.48438 7.03125,0 0,41.48438 z"
         style=""
         id="path3118" />
      <path
         d="m 820.36719,211.61932 6.95312,-1.09375 c 0.39062,2.78646 1.47786,4.92188 3.26172,6.40625 1.78384,1.48438 4.27733,2.22656 7.48047,2.22656 3.22914,0 5.62497,-0.65755 7.1875,-1.97266 1.56247,-1.31509 2.34372,-2.85806 2.34375,-4.6289 -3e-5,-1.58853 -0.69013,-2.83853 -2.07031,-3.75 -0.96357,-0.62499 -3.3594,-1.41926 -7.1875,-2.38282 -5.15627,-1.30206 -8.73048,-2.42836 -10.72266,-3.3789 -1.99219,-0.9505 -3.50261,-2.2656 -4.53125,-3.94532 -1.02865,-1.67966 -1.54297,-3.53512 -1.54297,-5.5664 0,-1.84893 0.42318,-3.56117 1.26953,-5.13672 0.84635,-1.57548 1.99869,-2.88408 3.45703,-3.92578 1.09375,-0.80725 2.58463,-1.49085 4.47266,-2.05078 1.88801,-0.55986 3.91274,-0.8398 6.07422,-0.83985 3.25519,5e-5 6.11326,0.4688 8.57422,1.40625 2.46091,0.93754 4.27731,2.20707 5.44922,3.8086 1.17184,1.60159 1.97913,3.74352 2.42187,6.42578 l -6.875,0.9375 c -0.31253,-2.13539 -1.21747,-3.80205 -2.71484,-5 -1.49742,-1.19788 -3.6133,-1.79684 -6.34766,-1.79688 -3.22918,4e-5 -5.53387,0.53389 -6.91406,1.60157 -1.38022,1.06774 -2.07032,2.31774 -2.07031,3.75 -1e-5,0.91148 0.28645,1.7318 0.85937,2.46093 0.57291,0.75524 1.47134,1.38024 2.69531,1.875 0.70312,0.26045 2.77343,0.8594 6.21094,1.79688 4.97394,1.32815 8.44398,2.41539 10.41016,3.26172 1.96611,0.84637 3.50908,2.07684 4.6289,3.6914 1.11976,1.6146 1.67966,3.61981 1.67969,6.01563 -3e-5,2.34376 -0.68363,4.55079 -2.05078,6.62109 -1.36722,2.07032 -3.33987,3.67188 -5.91797,4.80469 -2.57815,1.13281 -5.49481,1.69922 -8.75,1.69922 -5.39064,0 -9.49871,-1.11979 -12.32422,-3.35938 -2.82552,-2.23958 -4.62891,-5.55988 -5.41015,-9.96093 z"
         style=""
         id="path3120" />
      <path
         d="m 885.40625,174.82244 0,-8.08594 7.03125,0 0,8.08594 z m 0,49.17969 0,-41.48438 7.03125,0 0,41.48438 z"
         style=""
         id="path3122" />
      <path
         d="m 903.17969,224.00213 0,-41.48438 6.32812,0 0,5.89844 c 3.04686,-4.55725 7.4479,-6.83589 13.20313,-6.83594 2.49997,5e-5 4.79814,0.44926 6.89453,1.34766 2.09632,0.89848 3.66533,2.07686 4.70703,3.53516 1.04163,1.45837 1.7708,3.19013 2.1875,5.19531 0.26038,1.30211 0.39059,3.58076 0.39062,6.83594 l 0,25.50781 -7.03125,0 0,-25.23438 c -3e-5,-2.86455 -0.27346,-5.00648 -0.82031,-6.42578 -0.5469,-1.41924 -1.51695,-2.55205 -2.91015,-3.39844 -1.39326,-0.84631 -3.02737,-1.26949 -4.90235,-1.26953 -2.99481,4e-5 -5.57944,0.95056 -7.7539,2.85157 -2.1745,1.90107 -3.26173,5.50784 -3.26172,10.82031 l 0,22.65625 z"
         style=""
         id="path3124" />
      <path
         d="m 971.57812,224.00213 0,-36.01563 -6.21093,0 0,-5.46875 6.21093,0 0,-4.41406 c 0,-2.78641 0.24739,-4.85672 0.74219,-6.21094 0.67708,-1.82286 1.86848,-3.30072 3.57422,-4.43359 1.70572,-1.13276 4.09504,-1.69916 7.16797,-1.69922 1.97915,6e-5 4.16664,0.23443 6.5625,0.70313 l -1.05469,6.13281 c -1.45835,-0.26037 -2.83856,-0.39058 -4.14062,-0.39063 -2.13544,5e-5 -3.64585,0.45578 -4.53125,1.36719 -0.88543,0.91151 -1.32814,2.61724 -1.32813,5.11719 l 0,3.82812 8.08594,0 0,5.46875 -8.08594,0 0,36.01563 z"
         style=""
         id="path3126" />
      <path
         d="m 989.46875,203.25994 c 0,-7.68226 2.13541,-13.37236 6.40625,-17.07031 3.5677,-3.07288 7.9166,-4.60933 13.0469,-4.60938 5.7031,5e-5 10.3645,1.86853 13.9843,5.60547 3.6198,3.73701 5.4297,8.89977 5.4297,15.48828 0,5.33856 -0.8008,9.53778 -2.4023,12.59766 -1.6016,3.0599 -3.9323,5.4362 -6.9922,7.12891 -3.0599,1.6927 -6.3998,2.53906 -10.0195,2.53906 -5.8073,0 -10.50134,-1.86198 -14.08206,-5.58594 -3.58073,-3.72395 -5.37109,-9.08853 -5.37109,-16.09375 z m 7.22656,0 c -10e-6,5.31252 1.15885,9.29038 3.47659,11.93359 2.3177,2.64324 5.2343,3.96485 8.75,3.96485 3.4895,0 6.3932,-1.32812 8.7109,-3.98438 2.3177,-2.65624 3.4765,-6.70571 3.4766,-12.14843 -1e-4,-5.13019 -1.1654,-9.0169 -3.4961,-11.66016 -2.3308,-2.64319 -5.2279,-3.96481 -8.6914,-3.96484 -3.5157,3e-5 -6.4323,1.31514 -8.75,3.94531 -2.31774,2.63024 -3.4766,6.60159 -3.47659,11.91406 z"
         style=""
         id="path3128" />
      <path
         d="m 1036.5391,224.00213 0,-41.48438 6.3281,0 0,6.28907 c 1.6146,-2.94267 3.1054,-4.88278 4.4726,-5.82032 1.3672,-0.93745 2.8711,-1.4062 4.5118,-1.40625 2.3697,5e-5 4.7786,0.75525 7.2265,2.26563 l -2.4218,6.52344 c -1.7188,-1.01559 -3.4376,-1.52341 -5.1563,-1.52344 -1.5365,3e-5 -2.9167,0.46227 -4.1406,1.38672 -1.224,0.92451 -2.0964,2.20706 -2.6172,3.84765 -0.7813,2.50003 -1.1719,5.2344 -1.1719,8.20313 l 0,21.71875 z"
         style=""
         id="path3130" />
      <path
         d="m 86.34375,317.71307 1.015625,6.21093 c -1.979186,0.41667 -3.750018,0.625 -5.3125,0.625 -2.552097,0 -4.531262,-0.40364 -5.9375,-1.21093 -1.406259,-0.80729 -2.395841,-1.86849 -2.96875,-3.1836 -0.572924,-1.3151 -0.859382,-4.08202 -0.859375,-8.30078 l 0,-23.86719 -5.15625,0 0,-5.46875 5.15625,0 0,-10.27343 6.992187,-4.21875 0,14.49218 7.070313,0 0,5.46875 -7.070313,0 0,24.25782 c -1.3e-5,2.00521 0.123685,3.29427 0.371094,3.86718 0.247382,0.57293 0.651027,1.02866 1.210938,1.36719 0.55988,0.33855 1.36066,0.50782 2.402343,0.50781 0.781232,1e-5 1.809877,-0.0911 3.085938,-0.27343 z"
         style=""
         id="path3132" />
      <path
         d="m 93.179687,324.00213 0,-57.26563 7.031253,0 0,20.54688 c 3.28123,-3.80204 7.42185,-5.70308 12.42187,-5.70313 3.07289,5e-5 5.74216,0.60551 8.00782,1.81641 2.26559,1.21098 3.88668,2.88415 4.86328,5.01953 0.97652,2.13545 1.4648,5.23441 1.46484,9.29688 l 0,26.28906 -7.03125,0 0,-26.28906 c -3e-5,-3.5156 -0.76175,-6.07419 -2.28516,-7.67579 -1.52346,-1.60152 -3.67841,-2.4023 -6.46484,-2.40234 -2.08335,4e-5 -4.04299,0.5404 -5.87891,1.62109 -1.83595,1.08077 -3.14454,2.54561 -3.92578,4.39454 -0.78126,1.84898 -1.17188,4.40106 -1.17187,7.65625 l 0,22.69531 z"
         style=""
         id="path3134" />
      <path
         d="m 166.10937,310.64275 7.26563,0.89844 c -1.14587,4.2448 -3.26827,7.53907 -6.36719,9.88281 -3.09899,2.34375 -7.05732,3.51563 -11.875,3.51563 -6.06772,0 -10.87892,-1.86849 -14.43359,-5.60547 -3.55469,-3.73697 -5.33204,-8.97785 -5.33203,-15.72266 -1e-5,-6.97914 1.79687,-12.3958 5.39062,-16.25 3.59374,-3.85412 8.25519,-5.7812 13.98438,-5.78125 5.54684,5e-5 10.07809,1.88806 13.59375,5.66407 3.51558,3.77607 5.27339,9.08856 5.27343,15.9375 -4e-5,0.41668 -0.0131,1.04168 -0.0391,1.875 l -30.9375,0 c 0.26041,4.5573 1.54947,8.04688 3.86719,10.46875 2.31769,2.42188 5.20831,3.63281 8.67187,3.63281 2.5781,0 4.77862,-0.67708 6.60157,-2.03125 1.82288,-1.35416 3.26819,-3.51562 4.33593,-6.48438 z m -23.08593,-11.36718 23.16406,0 c -0.31253,-3.48956 -1.19795,-6.10674 -2.65625,-7.85157 -2.23961,-2.70829 -5.14326,-4.06246 -8.71094,-4.0625 -3.22918,4e-5 -5.94402,1.08077 -8.14453,3.24219 -2.20053,2.16149 -3.41798,5.05211 -3.65234,8.67188 z"
         style=""
         id="path3136" />
      <path
         d="m 204.42969,324.00213 0,-57.26563 7.03125,0 0,20.54688 c 3.28123,-3.80204 7.42185,-5.70308 12.42187,-5.70313 3.07289,5e-5 5.74216,0.60551 8.00781,1.81641 2.26559,1.21098 3.88669,2.88415 4.86329,5.01953 0.97652,2.13545 1.4648,5.23441 1.46484,9.29688 l 0,26.28906 -7.03125,0 0,-26.28906 c -3e-5,-3.5156 -0.76175,-6.07419 -2.28516,-7.67579 -1.52346,-1.60152 -3.67841,-2.4023 -6.46484,-2.40234 -2.08335,4e-5 -4.04299,0.5404 -5.87891,1.62109 -1.83595,1.08077 -3.14454,2.54561 -3.92578,4.39454 -0.78126,1.84898 -1.17188,4.40106 -1.17187,7.65625 l 0,22.69531 z"
         style=""
         id="path3138" />
      <path
         d="m 276.03125,318.88494 c -2.6042,2.21355 -5.1107,3.77604 -7.51953,4.6875 -2.40888,0.91146 -4.99351,1.36719 -7.75391,1.36719 -4.5573,0 -8.0599,-1.11328 -10.50781,-3.33985 -2.44792,-2.22655 -3.67188,-5.0716 -3.67188,-8.53515 0,-2.03124 0.46224,-3.88671 1.38672,-5.56641 0.92448,-1.67967 2.13541,-3.02732 3.63282,-4.04297 1.49738,-1.0156 3.18358,-1.78383 5.05859,-2.30468 1.38019,-0.36456 3.46353,-0.71613 6.25,-1.05469 5.67706,-0.67706 9.85674,-1.48435 12.53906,-2.42188 0.026,-0.96351 0.039,-1.57549 0.0391,-1.83593 -3e-5,-2.86456 -0.66409,-4.88278 -1.99218,-6.05469 -1.79691,-1.58851 -4.46617,-2.38278 -8.00782,-2.38281 -3.30731,3e-5 -5.74871,0.57946 -7.32421,1.73828 -1.57554,1.15888 -2.7409,3.20966 -3.4961,6.15234 l -6.875,-0.9375 c 0.625,-2.94268 1.65364,-5.31897 3.08594,-7.12891 1.43228,-1.80985 3.50259,-3.20308 6.21094,-4.17968 2.70831,-0.97652 5.84633,-1.4648 9.41406,-1.46485 3.54164,5e-5 6.41924,0.41671 8.63281,1.25 2.21351,0.83338 3.84111,1.88155 4.88281,3.14453 1.04163,1.26306 1.7708,2.85811 2.1875,4.78516 0.23434,1.19795 0.35153,3.35941 0.35157,6.48438 l 0,9.375 c -4e-5,6.53646 0.1497,10.67058 0.44922,12.40234 0.29944,1.73177 0.89188,3.39193 1.77734,4.98047 l -7.34375,0 c -0.7292,-1.45833 -1.19795,-3.16406 -1.40625,-5.11719 z m -0.58594,-15.70312 c -2.55211,1.04168 -6.38023,1.9271 -11.48437,2.65625 -2.89064,0.41668 -4.93491,0.88543 -6.13282,1.40625 -1.19792,0.52085 -2.1224,1.28256 -2.77343,2.28515 -0.65105,1.00262 -0.97658,2.1159 -0.97657,3.33985 -1e-5,1.875 0.70963,3.4375 2.12891,4.6875 1.41926,1.25 3.49608,1.875 6.23047,1.875 2.70831,0 5.11716,-0.59245 7.22656,-1.77735 2.10935,-1.18489 3.65883,-2.80598 4.64844,-4.86328 0.75518,-1.58853 1.13278,-3.93228 1.13281,-7.03125 z"
         style=""
         id="path3140" />
      <path
         d="m 293.41406,324.00213 0,-41.48438 6.32813,0 0,6.28907 c 1.61457,-2.94267 3.10545,-4.88278 4.47265,-5.82032 1.36717,-0.93745 2.87108,-1.4062 4.51172,-1.40625 2.36977,5e-5 4.77862,0.75525 7.22656,2.26563 l -2.42187,6.52344 c -1.71877,-1.01559 -3.43752,-1.52341 -5.15625,-1.52344 -1.53648,3e-5 -2.91668,0.46227 -4.14063,1.38672 -1.22397,0.92451 -2.09636,2.20706 -2.61718,3.84765 -0.78127,2.50003 -1.17189,5.2344 -1.17188,8.20313 l 0,21.71875 z"
         style=""
         id="path3142" />
      <path
         d="m 347.125,324.00213 0,-5.23438 c -2.63024,4.11459 -6.49742,6.17188 -11.60156,6.17188 -3.30731,0 -6.34767,-0.91146 -9.1211,-2.73438 -2.77344,-1.82291 -4.92188,-4.36848 -6.44531,-7.63672 -1.52344,-3.26821 -2.28516,-7.02472 -2.28516,-11.26953 0,-4.1406 0.69011,-7.8971 2.07032,-11.26953 1.3802,-3.37236 3.45051,-5.95699 6.21093,-7.7539 2.76041,-1.79684 5.84634,-2.69527 9.25782,-2.69532 2.49997,5e-5 4.72653,0.52739 6.67968,1.58203 1.9531,1.05473 3.54164,2.42843 4.76563,4.1211 l 0,-20.54688 6.99219,0 0,57.26563 z M 324.89844,303.299 c -10e-6,5.31252 1.11978,9.28387 3.35937,11.91407 2.23957,2.63021 4.8828,3.94531 7.92969,3.94531 3.07289,0 5.68357,-1.25651 7.83203,-3.76953 2.14841,-2.51301 3.22263,-6.34764 3.22266,-11.50391 -3e-5,-5.67706 -1.09378,-9.84372 -3.28125,-12.5 -2.18753,-2.65621 -4.88284,-3.98434 -8.08594,-3.98437 -3.12502,3e-5 -5.73569,1.27607 -7.83203,3.82812 -2.09637,2.55211 -3.14454,6.57555 -3.14453,12.07031 z"
         style=""
         id="path3144" />
      <path
         d="m 393.14062,310.64275 7.26563,0.89844 c -1.14587,4.2448 -3.26827,7.53907 -6.36719,9.88281 -3.09899,2.34375 -7.05732,3.51563 -11.875,3.51563 -6.06772,0 -10.87892,-1.86849 -14.43359,-5.60547 -3.55469,-3.73697 -5.33204,-8.97785 -5.33203,-15.72266 -10e-6,-6.97914 1.79687,-12.3958 5.39062,-16.25 3.59374,-3.85412 8.25519,-5.7812 13.98438,-5.78125 5.54684,5e-5 10.07809,1.88806 13.59375,5.66407 3.51558,3.77607 5.27339,9.08856 5.27343,15.9375 -4e-5,0.41668 -0.0131,1.04168 -0.0391,1.875 l -30.9375,0 c 0.26041,4.5573 1.54947,8.04688 3.86719,10.46875 2.31769,2.42188 5.20831,3.63281 8.67187,3.63281 2.5781,0 4.77862,-0.67708 6.60157,-2.03125 1.82288,-1.35416 3.26819,-3.51562 4.33593,-6.48438 z m -23.08593,-11.36718 23.16406,0 c -0.31253,-3.48956 -1.19795,-6.10674 -2.65625,-7.85157 -2.23961,-2.70829 -5.14326,-4.06246 -8.71094,-4.0625 -3.22918,4e-5 -5.94402,1.08077 -8.14453,3.24219 -2.20053,2.16149 -3.41798,5.05211 -3.65234,8.67188 z"
         style=""
         id="path3146" />
      <path
         d="m 406.46094,311.61932 6.95312,-1.09375 c 0.39062,2.78646 1.47786,4.92188 3.26172,6.40625 1.78384,1.48438 4.27733,2.22656 7.48047,2.22656 3.22914,0 5.62497,-0.65755 7.1875,-1.97266 1.56247,-1.31509 2.34372,-2.85806 2.34375,-4.6289 -3e-5,-1.58853 -0.69013,-2.83853 -2.07031,-3.75 -0.96357,-0.62499 -3.3594,-1.41926 -7.1875,-2.38282 -5.15627,-1.30206 -8.73048,-2.42836 -10.72266,-3.3789 -1.99219,-0.9505 -3.50261,-2.2656 -4.53125,-3.94532 -1.02865,-1.67966 -1.54297,-3.53512 -1.54297,-5.5664 0,-1.84893 0.42318,-3.56117 1.26953,-5.13672 0.84635,-1.57548 1.99869,-2.88408 3.45703,-3.92578 1.09375,-0.80725 2.58463,-1.49085 4.47266,-2.05078 1.88801,-0.55986 3.91274,-0.8398 6.07422,-0.83985 3.25519,5e-5 6.11326,0.4688 8.57422,1.40625 2.46091,0.93754 4.27731,2.20707 5.44922,3.8086 1.17184,1.60159 1.97913,3.74352 2.42187,6.42578 l -6.875,0.9375 c -0.31253,-2.13539 -1.21747,-3.80205 -2.71484,-5 -1.49742,-1.19788 -3.6133,-1.79684 -6.34766,-1.79688 -3.22918,4e-5 -5.53387,0.53389 -6.91406,1.60157 -1.38022,1.06774 -2.07032,2.31774 -2.07031,3.75 -10e-6,0.91148 0.28645,1.7318 0.85937,2.46093 0.57291,0.75524 1.47134,1.38024 2.69531,1.875 0.70312,0.26045 2.77343,0.8594 6.21094,1.79688 4.97394,1.32815 8.44398,2.41539 10.41016,3.26172 1.96611,0.84637 3.50908,2.07684 4.6289,3.6914 1.11976,1.6146 1.67966,3.61981 1.67969,6.01563 -3e-5,2.34376 -0.68363,4.55079 -2.05078,6.62109 -1.36722,2.07032 -3.33987,3.67188 -5.91797,4.80469 -2.57815,1.13281 -5.49481,1.69922 -8.75,1.69922 -5.39064,0 -9.49871,-1.11979 -12.32422,-3.35938 -2.82552,-2.23958 -4.62891,-5.55988 -5.41015,-9.96093 z"
         style=""
         id="path3148" />
      <path
         d="m 464.625,317.71307 1.01562,6.21093 c -1.97918,0.41667 -3.75001,0.625 -5.3125,0.625 -2.55209,0 -4.53126,-0.40364 -5.9375,-1.21093 -1.40625,-0.80729 -2.39584,-1.86849 -2.96875,-3.1836 -0.57292,-1.3151 -0.85938,-4.08202 -0.85937,-8.30078 l 0,-23.86719 -5.15625,0 0,-5.46875 5.15625,0 0,-10.27343 6.99219,-4.21875 0,14.49218 7.07031,0 0,5.46875 -7.07031,0 0,24.25782 c -2e-5,2.00521 0.12368,3.29427 0.37109,3.86718 0.24738,0.57293 0.65103,1.02866 1.21094,1.36719 0.55988,0.33855 1.36066,0.50782 2.40234,0.50781 0.78123,1e-5 1.80988,-0.0911 3.08594,-0.27343 z"
         style=""
         id="path3150" />
      <path
         d="m 520.71875,308.80682 6.91406,0.89843 c -0.75524,4.76564 -2.68884,8.4961 -5.80078,11.19141 -3.11201,2.69531 -6.93362,4.04297 -11.46484,4.04297 -5.6771,0 -10.2409,-1.85547 -13.69141,-5.56641 -3.45052,-3.71093 -5.17578,-9.02993 -5.17578,-15.95703 0,-4.47914 0.74218,-8.39841 2.22656,-11.75781 1.48437,-3.35934 3.74348,-5.87887 6.77735,-7.5586 3.03384,-1.67964 6.33461,-2.51948 9.90234,-2.51953 4.50518,5e-5 8.19007,1.13937 11.05469,3.41797 2.86454,2.27868 4.70048,5.51436 5.50781,9.70703 l -6.83594,1.05469 c -0.65107,-2.78643 -1.80341,-4.88278 -3.45703,-6.28906 -1.65367,-1.40622 -3.65237,-2.10934 -5.99609,-2.10938 -3.54169,4e-5 -6.41929,1.26957 -8.63282,3.8086 -2.21355,2.53909 -3.32032,6.55601 -3.32031,12.05078 -1e-5,5.57293 1.0677,9.62241 3.20313,12.14844 2.1354,2.52604 4.92185,3.78906 8.35937,3.78906 2.76039,0 5.06508,-0.84635 6.91406,-2.53906 1.84893,-1.6927 3.02081,-4.29687 3.51563,-7.8125 z"
         style=""
         id="path3152" />
      <path
         d="m 533.64844,324.00213 0,-57.26563 7.03125,0 0,20.54688 c 3.28123,-3.80204 7.42185,-5.70308 12.42187,-5.70313 3.07289,5e-5 5.74216,0.60551 8.00781,1.81641 2.26559,1.21098 3.88669,2.88415 4.86329,5.01953 0.97652,2.13545 1.4648,5.23441 1.46484,9.29688 l 0,26.28906 -7.03125,0 0,-26.28906 c -3e-5,-3.5156 -0.76175,-6.07419 -2.28516,-7.67579 -1.52346,-1.60152 -3.67841,-2.4023 -6.46484,-2.40234 -2.08335,4e-5 -4.04299,0.5404 -5.87891,1.62109 -1.83595,1.08077 -3.14454,2.54561 -3.92578,4.39454 -0.78126,1.84898 -1.17188,4.40106 -1.17187,7.65625 l 0,22.69531 z"
         style=""
         id="path3154" />
      <path
         d="m 605.25,318.88494 c -2.6042,2.21355 -5.1107,3.77604 -7.51953,4.6875 -2.40888,0.91146 -4.99351,1.36719 -7.75391,1.36719 -4.5573,0 -8.0599,-1.11328 -10.50781,-3.33985 -2.44792,-2.22655 -3.67188,-5.0716 -3.67188,-8.53515 0,-2.03124 0.46224,-3.88671 1.38672,-5.56641 0.92448,-1.67967 2.13541,-3.02732 3.63282,-4.04297 1.49738,-1.0156 3.18358,-1.78383 5.05859,-2.30468 1.38019,-0.36456 3.46353,-0.71613 6.25,-1.05469 5.67706,-0.67706 9.85674,-1.48435 12.53906,-2.42188 0.026,-0.96351 0.039,-1.57549 0.0391,-1.83593 -3e-5,-2.86456 -0.66409,-4.88278 -1.99218,-6.05469 -1.79691,-1.58851 -4.46617,-2.38278 -8.00782,-2.38281 -3.30731,3e-5 -5.74871,0.57946 -7.32421,1.73828 -1.57554,1.15888 -2.7409,3.20966 -3.4961,6.15234 l -6.875,-0.9375 c 0.625,-2.94268 1.65364,-5.31897 3.08594,-7.12891 1.43228,-1.80985 3.50259,-3.20308 6.21094,-4.17968 2.70831,-0.97652 5.84633,-1.4648 9.41406,-1.46485 3.54164,5e-5 6.41924,0.41671 8.63281,1.25 2.21351,0.83338 3.84111,1.88155 4.88281,3.14453 1.04163,1.26306 1.7708,2.85811 2.1875,4.78516 0.23434,1.19795 0.35153,3.35941 0.35157,6.48438 l 0,9.375 c -4e-5,6.53646 0.1497,10.67058 0.44922,12.40234 0.29944,1.73177 0.89188,3.39193 1.77734,4.98047 l -7.34375,0 c -0.7292,-1.45833 -1.19795,-3.16406 -1.40625,-5.11719 z m -0.58594,-15.70312 c -2.55211,1.04168 -6.38023,1.9271 -11.48437,2.65625 -2.89064,0.41668 -4.93491,0.88543 -6.13282,1.40625 -1.19792,0.52085 -2.1224,1.28256 -2.77343,2.28515 -0.65105,1.00262 -0.97658,2.1159 -0.97657,3.33985 -10e-6,1.875 0.70963,3.4375 2.12891,4.6875 1.41926,1.25 3.49608,1.875 6.23047,1.875 2.70831,0 5.11716,-0.59245 7.22656,-1.77735 2.10935,-1.18489 3.65883,-2.80598 4.64844,-4.86328 0.75518,-1.58853 1.13278,-3.93228 1.13281,-7.03125 z"
         style=""
         id="path3156" />
      <path
         d="m 622.55469,324.00213 0,-57.26563 7.03125,0 0,57.26563 z"
         style=""
         id="path3158" />
      <path
         d="m 640.36719,324.00213 0,-57.26563 7.03125,0 0,57.26563 z"
         style=""
         id="path3160" />
      <path
         d="M 686.73437,310.64275 694,311.54119 c -1.14587,4.2448 -3.26827,7.53907 -6.36719,9.88281 -3.09899,2.34375 -7.05732,3.51563 -11.875,3.51563 -6.06772,0 -10.87892,-1.86849 -14.43359,-5.60547 -3.55469,-3.73697 -5.33204,-8.97785 -5.33203,-15.72266 -1e-5,-6.97914 1.79687,-12.3958 5.39062,-16.25 3.59374,-3.85412 8.25519,-5.7812 13.98438,-5.78125 5.54684,5e-5 10.07809,1.88806 13.59375,5.66407 3.51558,3.77607 5.27339,9.08856 5.27343,15.9375 -4e-5,0.41668 -0.0131,1.04168 -0.0391,1.875 l -30.9375,0 c 0.26041,4.5573 1.54947,8.04688 3.86719,10.46875 2.31769,2.42188 5.20831,3.63281 8.67187,3.63281 2.5781,0 4.77862,-0.67708 6.60157,-2.03125 1.82288,-1.35416 3.26819,-3.51562 4.33593,-6.48438 z m -23.08593,-11.36718 23.16406,0 c -0.31253,-3.48956 -1.19795,-6.10674 -2.65625,-7.85157 -2.23961,-2.70829 -5.14326,-4.06246 -8.71094,-4.0625 -3.22918,4e-5 -5.94402,1.08077 -8.14453,3.24219 -2.20053,2.16149 -3.41798,5.05211 -3.65234,8.67188 z"
         style=""
         id="path3162" />
      <path
         d="m 702.86719,324.00213 0,-41.48438 6.32812,0 0,5.89844 c 3.04686,-4.55725 7.4479,-6.83589 13.20313,-6.83594 2.49997,5e-5 4.79814,0.44926 6.89453,1.34766 2.09632,0.89848 3.66533,2.07686 4.70703,3.53516 1.04163,1.45837 1.7708,3.19013 2.1875,5.19531 0.26038,1.30211 0.39059,3.58076 0.39062,6.83594 l 0,25.50781 -7.03125,0 0,-25.23438 c -3e-5,-2.86455 -0.27346,-5.00648 -0.82031,-6.42578 -0.5469,-1.41924 -1.51695,-2.55205 -2.91015,-3.39844 -1.39326,-0.84631 -3.02737,-1.26949 -4.90235,-1.26953 -2.99481,4e-5 -5.57944,0.95056 -7.7539,2.85157 -2.1745,1.90107 -3.26173,5.50784 -3.26172,10.82031 l 0,22.65625 z"
         style=""
         id="path3164" />
      <path
         d="m 746.10937,327.43963 6.83594,1.01562 c 0.28645,2.10937 1.08072,3.64583 2.38281,4.60938 1.74478,1.30207 4.12759,1.95311 7.14844,1.95312 3.25519,-10e-6 5.76821,-0.65105 7.53906,-1.95312 1.77081,-1.30209 2.96872,-3.12501 3.59375,-5.46875 0.36456,-1.4323 0.53383,-4.44011 0.50782,-9.02344 -3.07295,3.61979 -6.90107,5.42969 -11.48438,5.42969 -5.70314,0 -10.1172,-2.05729 -13.24219,-6.17188 -3.125,-4.11457 -4.6875,-9.04946 -4.6875,-14.80468 0,-3.95831 0.71615,-7.61065 2.14844,-10.95704 1.43229,-3.34631 3.50911,-5.93095 6.23047,-7.7539 2.72134,-1.82288 5.91795,-2.73433 9.58984,-2.73438 4.89581,5e-5 8.93227,1.97921 12.10938,5.9375 l 0,-5 6.48437,0 0,35.85938 c -3e-5,6.45833 -0.65759,11.03515 -1.97265,13.73047 -1.31514,2.6953 -3.39847,4.8242 -6.25,6.38672 -2.85159,1.56248 -6.3607,2.34373 -10.52735,2.34375 -4.94793,-2e-5 -8.94532,-1.1133 -11.99218,-3.33985 -3.04688,-2.22657 -4.51824,-5.57943 -4.41407,-10.05859 z m 5.82032,-24.92188 c -1e-5,5.44273 1.08072,9.41408 3.24218,11.91407 2.16145,2.5 4.86978,3.75 8.125,3.75 3.22915,0 5.93748,-1.24349 8.125,-3.73047 2.18747,-2.48697 3.28122,-6.38671 3.28125,-11.69922 -3e-5,-5.0781 -1.12633,-8.90622 -3.3789,-11.48438 -2.25263,-2.57809 -4.96747,-3.86715 -8.14453,-3.86718 -3.12502,3e-5 -5.78127,1.26956 -7.96875,3.80859 -2.18751,2.53909 -3.28126,6.30862 -3.28125,11.30859 z"
         style=""
         id="path3166" />
      <path
         d="m 820.32812,310.64275 7.26563,0.89844 c -1.14587,4.2448 -3.26827,7.53907 -6.36719,9.88281 -3.09899,2.34375 -7.05732,3.51563 -11.875,3.51563 -6.06772,0 -10.87892,-1.86849 -14.43359,-5.60547 -3.55469,-3.73697 -5.33204,-8.97785 -5.33203,-15.72266 -1e-5,-6.97914 1.79687,-12.3958 5.39062,-16.25 3.59374,-3.85412 8.25519,-5.7812 13.98438,-5.78125 5.54684,5e-5 10.07809,1.88806 13.59375,5.66407 3.51558,3.77607 5.27339,9.08856 5.27343,15.9375 -4e-5,0.41668 -0.0131,1.04168 -0.0391,1.875 l -30.9375,0 c 0.26041,4.5573 1.54947,8.04688 3.86719,10.46875 2.31769,2.42188 5.20831,3.63281 8.67187,3.63281 2.5781,0 4.77862,-0.67708 6.60157,-2.03125 1.82288,-1.35416 3.26819,-3.51562 4.33593,-6.48438 z m -23.08593,-11.36718 23.16406,0 c -0.31253,-3.48956 -1.19795,-6.10674 -2.65625,-7.85157 -2.23961,-2.70829 -5.14326,-4.06246 -8.71094,-4.0625 -3.22918,4e-5 -5.94402,1.08077 -8.14453,3.24219 -2.20053,2.16149 -3.41798,5.05211 -3.65234,8.67188 z"
         style=""
         id="path3168" />
      <path
         d="m 858.33594,339.97869 -0.78125,-6.60156 c 1.53645,0.41666 2.87759,0.62499 4.02343,0.625 1.5625,-1e-5 2.81249,-0.26043 3.75,-0.78125 0.93749,-0.52084 1.70572,-1.25001 2.30469,-2.1875 0.4427,-0.70313 1.15884,-2.44792 2.14844,-5.23438 0.13019,-0.39062 0.33852,-0.96354 0.625,-1.71875 l -15.74219,-41.5625 7.57813,0 8.63281,24.02344 c 1.11977,3.04689 2.12238,6.25001 3.00781,9.60938 0.80727,-3.22916 1.77081,-6.3802 2.89063,-9.45313 l 8.86718,-24.17969 7.03125,0 -15.78125,42.1875 c -1.69273,4.55729 -3.00783,7.69531 -3.94531,9.41407 -1.25002,2.31769 -2.68231,4.01691 -4.29687,5.09765 -1.6146,1.08071 -3.54168,1.62108 -5.78125,1.6211 -1.35418,-2e-5 -2.86459,-0.28648 -4.53125,-0.85938 z"
         style=""
         id="path3170" />
      <path
         d="m 927.04687,310.64275 7.26563,0.89844 c -1.14587,4.2448 -3.26827,7.53907 -6.36719,9.88281 -3.09899,2.34375 -7.05732,3.51563 -11.875,3.51563 -6.06772,0 -10.87892,-1.86849 -14.43359,-5.60547 -3.55469,-3.73697 -5.33204,-8.97785 -5.33203,-15.72266 -1e-5,-6.97914 1.79687,-12.3958 5.39062,-16.25 3.59374,-3.85412 8.25519,-5.7812 13.98438,-5.78125 5.54684,5e-5 10.07809,1.88806 13.59375,5.66407 3.51558,3.77607 5.27339,9.08856 5.27343,15.9375 -4e-5,0.41668 -0.0131,1.04168 -0.0391,1.875 l -30.9375,0 c 0.26041,4.5573 1.54947,8.04688 3.86719,10.46875 2.31769,2.42188 5.20831,3.63281 8.67187,3.63281 2.5781,0 4.77862,-0.67708 6.60157,-2.03125 1.82288,-1.35416 3.26819,-3.51562 4.33593,-6.48438 z m -23.08593,-11.36718 23.16406,0 c -0.31253,-3.48956 -1.19795,-6.10674 -2.65625,-7.85157 -2.23961,-2.70829 -5.14326,-4.06246 -8.71094,-4.0625 -3.22918,4e-5 -5.94402,1.08077 -8.14453,3.24219 -2.20053,2.16149 -3.41798,5.05211 -3.65234,8.67188 z"
         style=""
         id="path3172" />
      <path
         d="m 958.53125,317.71307 1.01562,6.21093 c -1.97918,0.41667 -3.75001,0.625 -5.3125,0.625 -2.55209,0 -4.53126,-0.40364 -5.9375,-1.21093 -1.40625,-0.80729 -2.39584,-1.86849 -2.96875,-3.1836 -0.57292,-1.3151 -0.85938,-4.08202 -0.85937,-8.30078 l 0,-23.86719 -5.15625,0 0,-5.46875 5.15625,0 0,-10.27343 6.99219,-4.21875 0,14.49218 7.07031,0 0,5.46875 -7.07031,0 0,24.25782 c -2e-5,2.00521 0.12368,3.29427 0.37109,3.86718 0.24738,0.57293 0.65103,1.02866 1.21094,1.36719 0.55988,0.33855 1.36066,0.50782 2.40234,0.50781 0.78123,1e-5 1.80988,-0.0911 3.08594,-0.27343 z"
         style=""
         id="path3174" />
      <path
         d="m 967.35937,324.00213 0,-8.00781 8.00782,0 0,8.00781 z"
         style=""
         id="path3176" />
    </g>
    <flowRoot
       style="font-size:40px;font-style:normal;font-weight:normal;line-height:125%;letter-spacing:0px;word-spacing:0px;fill:#000000;fill-opacity:1;stroke:none;font-family:Sans"
       id="flowRoot4933"
       xml:space="preserve"
       transform="translate(-974.94369,220.04061)"><flowRegion
         id="flowRegion4935"><rect
           y="308.20627"
           x="28.387419"
           height="164.2415"
           width="99.355965"
           id="rect4937" /></flowRegion><flowPara
         id="flowPara4939" /></flowRoot>    <g
       id="g3271"
       transform="translate(73.225493,0)">
      <g
         inkscape:label="Layer 1"
         id="layer1-9"
         transform="translate(-359.52544,-148.038)">
        <g
           id="g3141"
           transform="matrix(0.442346,0,0,0.44212997,546.79534,576.2639)">
          <path
             inkscape:connector-curvature="0"
             id="path3906"
             d="m 1163.5534,854.17452 c -1.3002,-1.58001 -2.7008,-3.07047 -4.1918,-4.46119 -8.176,-7.62588 -19.0891,-12.26861 -31.0937,-12.26861 l -99.4063,0 0,0 c -25.4906,0 -45.99999,20.94588 -45.99999,46.93938 l 0,95.53582 c 0,15.16637 6.98211,28.60348 17.86189,37.16618 z"
             style="opacity:0.5;fill:#ff0000;stroke:#ff0000;stroke-width:7.0192318;stroke-miterlimit:4;stroke-opacity:1;stroke-dasharray:none" />
          <path
             inkscape:connector-curvature="0"
             id="rect3896"
             d="m 1003.5807,1019.9432 c 7.767,5.9945 17.5204,9.5529 28.1381,9.5529 l 99.4062,0 c 25.4906,0 46.0313,-20.5094 46.0313,-45.99999 l 0,-93.6875 c 0,-11.29672 -4.0365,-21.62994 -10.7457,-29.62512 z"
             style="opacity:0.5;fill:#00ff00;stroke:#00ff00;stroke-width:6.95100021;stroke-miterlimit:4;stroke-opacity:1;stroke-dasharray:none" />
          <path
             transform="matrix(0.50254323,0,0,0.44791897,919.83196,858.10739)"
             d="m 388.57143,298.07648 c 0,36.293 -26.22332,65.71428 -58.57143,65.71428 -32.34811,0 -58.57143,-29.42128 -58.57143,-65.71428 0,-36.293 26.22332,-65.71429 58.57143,-65.71429 32.34811,0 58.57143,29.42129 58.57143,65.71429 z"
             sodipodi:ry="65.714287"
             sodipodi:rx="58.57143"
             sodipodi:cy="298.07648"
             sodipodi:cx="330"
             id="path2985"
             style="fill:#ffffff;fill-opacity:1;stroke:#000000;stroke-width:5;stroke-miterlimit:4;stroke-opacity:1;stroke-dasharray:none"
             sodipodi:type="arc" />
          <path
             transform="matrix(0.50254323,0,0,0.44791897,855.09086,796.86581)"
             d="m 388.57143,298.07648 c 0,36.293 -26.22332,65.71428 -58.57143,65.71428 -32.34811,0 -58.57143,-29.42128 -58.57143,-65.71428 0,-36.293 26.22332,-65.71429 58.57143,-65.71429 32.34811,0 58.57143,29.42129 58.57143,65.71429 z"
             sodipodi:ry="65.714287"
             sodipodi:rx="58.57143"
             sodipodi:cy="298.07648"
             sodipodi:cx="330"
             id="path2985-7"
             style="fill:#ffffff;fill-opacity:1;stroke:#000000;stroke-width:5;stroke-miterlimit:4;stroke-opacity:1;stroke-dasharray:none"
             sodipodi:type="arc" />
          <path
             transform="matrix(0.50254323,0,0,0.44791897,919.83196,733.87447)"
             d="m 388.57143,298.07648 c 0,36.293 -26.22332,65.71428 -58.57143,65.71428 -32.34811,0 -58.57143,-29.42128 -58.57143,-65.71428 0,-36.293 26.22332,-65.71429 58.57143,-65.71429 32.34811,0 58.57143,29.42129 58.57143,65.71429 z"
             sodipodi:ry="65.714287"
             sodipodi:rx="58.57143"
             sodipodi:cy="298.07648"
             sodipodi:cx="330"
             id="path2985-4"
             style="fill:#ffffff;fill-opacity:1;stroke:#000000;stroke-width:5;stroke-miterlimit:4;stroke-opacity:1;stroke-dasharray:none"
             sodipodi:type="arc" />
          <path
             transform="matrix(0.50254323,0,0,0.44791897,978.94489,796.86581)"
             d="m 388.57143,298.07648 c 0,36.293 -26.22332,65.71428 -58.57143,65.71428 -32.34811,0 -58.57143,-29.42128 -58.57143,-65.71428 0,-36.293 26.22332,-65.71429 58.57143,-65.71429 32.34811,0 58.57143,29.42129 58.57143,65.71429 z"
             sodipodi:ry="65.714287"
             sodipodi:rx="58.57143"
             sodipodi:cy="298.07648"
             sodipodi:cx="330"
             id="path2985-6"
             style="fill:#ffffff;fill-opacity:1;stroke:#000000;stroke-width:5;stroke-miterlimit:4;stroke-opacity:1;stroke-dasharray:none"
             sodipodi:type="arc" />
          <rect
             height="27.108917"
             y="916.82544"
             x="1007.3757"
             width="27.108917"
             id="rect3033"
             style="fill:#ffffff;fill-opacity:1;stroke:#000000;stroke-width:3.51187372;stroke-miterlimit:4;stroke-opacity:1;stroke-dasharray:none" />
          <path
             transform="matrix(0.61241579,0,0,0.61241579,852.07836,606.97755)"
             d="m 405.71427,425.21933 c 0,13.41263 -10.87308,24.28571 -24.28571,24.28571 -13.41263,0 -24.28572,-10.87308 -24.28572,-24.28571 0,-13.41263 10.87309,-24.28572 24.28572,-24.28572 13.41263,0 24.28571,10.87309 24.28571,24.28572 z"
             sodipodi:ry="24.285715"
             sodipodi:rx="24.285715"
             sodipodi:cy="425.21933"
             sodipodi:cx="381.42856"
             id="path3805"
             style="fill:#ffffff;fill-opacity:1;stroke:#000000;stroke-width:5.2329998;stroke-miterlimit:4;stroke-opacity:1;stroke-dasharray:none"
             sodipodi:type="arc" />
          <path
             inkscape:connector-curvature="0"
             id="path3807"
             d="m 1128.4128,930.87465 11.8625,12.86264 19.1595,-26.71475 1.7207,0.31726"
             style="fill:none;stroke:#000000;stroke-width:4.71560144;stroke-linecap:butt;stroke-linejoin:miter;stroke-miterlimit:4;stroke-opacity:1;stroke-dasharray:none" />
          <g
             id="flowRoot3809"
             style="font-size:40px;font-style:normal;font-weight:normal;line-height:125%;letter-spacing:0px;word-spacing:0px;fill:#000000;fill-opacity:1;stroke:none;font-family:Sans;-inkscape-font-specification:Sans"
             transform="matrix(1.4437937,0,0,1.1012981,1037.5918,494.40573)">
            <path
               id="path3139"
               d="M 20.175781,465.79794 31.25,450.87606 l -9.765625,-13.71093 4.511719,0 5.195312,7.34375 c 1.080717,1.52345 1.848946,2.69533 2.304688,3.51562 0.638006,-1.04165 1.393214,-2.12888 2.265625,-3.26172 l 5.761718,-7.59765 4.121094,0 -10.058594,13.49609 10.839844,15.13672 -4.6875,0 -7.207031,-10.21484 c -0.40366,-0.58593 -0.820326,-1.22395 -1.25,-1.91407 -0.638033,1.04168 -1.093762,1.75783 -1.367188,2.14844 l -7.1875,9.98047 z"
               inkscape:connector-curvature="0" />
          </g>
        </g>
      </g>
      <g
         transform="translate(-66.279536,738.7504)"
         id="g6237">
        <rect
           rx="11.693918"
           y="81.106926"
           x="119.63269"
           height="46.636475"
           width="407.56223"
           id="rect4984"
           style="fill:#00ff00;fill-opacity:1;stroke:#000000;stroke-width:1.5;stroke-miterlimit:4;stroke-opacity:1;stroke-dasharray:none" />
        <g
           id="g6146"
           transform="translate(-233.18237,-427.83896)">
          <g
             style="fill:#000000"
             inkscape:label="Gear8"
             transform="translate(372.04724,526.18109)"
             id="g5709">
            <path
               inkscape:connector-curvature="0"
               style="fill:#000000;stroke:#000000"
               d="m 5.898,-1.184 1.847,-0.371 0.122,-0.01 2.128,0.765 0,1.6 L 7.867,1.565 7.745,1.555 5.898,1.184 5.008,3.333 6.576,4.377 6.67,4.456 7.633,6.501 6.501,7.633 4.456,6.67 4.377,6.576 3.333,5.008 1.184,5.898 1.555,7.745 1.565,7.867 0.8,9.995 -0.8,9.995 -1.565,7.867 -1.555,7.745 -1.184,5.898 -3.333,5.008 -4.377,6.576 -4.456,6.67 -6.501,7.633 -7.633,6.501 -6.67,4.456 -6.576,4.377 -5.008,3.333 -5.898,1.184 -7.745,1.555 -7.867,1.565 -9.995,0.8 l 0,-1.6 2.128,-0.765 0.122,0.01 1.847,0.371 0.89,-2.149 -1.568,-1.044 -0.094,-0.079 -0.963,-2.045 1.132,-1.132 2.045,0.963 0.079,0.094 1.044,1.568 2.149,-0.89 -0.371,-1.847 -0.01,-0.122 0.765,-2.128 1.6,0 0.765,2.128 -0.01,0.122 -0.371,1.847 2.149,0.89 1.044,-1.568 0.079,-0.094 2.045,-0.963 1.132,1.132 -0.963,2.045 -0.094,0.079 -1.568,1.044 z"
               id="path5711" />
          </g>
          <path
             transform="matrix(1.9622236,0,0,1.9622236,-69.940062,-608.50848)"
             d="m 226.7648,578.26721 c 0,0.83761 -0.67901,1.51662 -1.51662,1.51662 -0.8376,0 -1.51661,-0.67901 -1.51661,-1.51662 0,-0.8376 0.67901,-1.51662 1.51661,-1.51662 0.83761,0 1.51662,0.67902 1.51662,1.51662 z"
             sodipodi:ry="1.5166185"
             sodipodi:rx="1.5166185"
             sodipodi:cy="578.26721"
             sodipodi:cx="225.24818"
             id="path6144"
             style="fill:#00ff00;fill-opacity:1;stroke:#000000;stroke-width:0.5;stroke-miterlimit:4;stroke-opacity:1;stroke-dasharray:none"
             sodipodi:type="arc" />
        </g>
      </g>
      <flowRoot
         transform="translate(1342.8571,243.79076)"
         style="font-size:60px;font-style:normal;font-weight:normal;line-height:125%;letter-spacing:0px;word-spacing:0px;fill:#ffffff;fill-opacity:1;stroke:none;font-family:Sans"
         id="flowRoot3263"
         xml:space="preserve"><flowRegion
           id="flowRegion3265"><rect
             style="font-size:60px;fill:#ffffff"
             y="557.14288"
             x="-831.42859"
             height="137.14285"
             width="277.14285"
             id="rect3267" /></flowRegion><flowPara
           id="flowPara3269">or</flowPara></flowRoot>    </g>
  </g>
</svg>
