<?xml version="1.0" encoding="UTF-8" standalone="no"?>
<!-- Created with Inkscape (http://www.inkscape.org/) -->

<svg
   xmlns:dc="http://purl.org/dc/elements/1.1/"
   xmlns:cc="http://creativecommons.org/ns#"
   xmlns:rdf="http://www.w3.org/1999/02/22-rdf-syntax-ns#"
   xmlns:svg="http://www.w3.org/2000/svg"
   xmlns="http://www.w3.org/2000/svg"
   xmlns:xlink="http://www.w3.org/1999/xlink"
   xmlns:sodipodi="http://sodipodi.sourceforge.net/DTD/sodipodi-0.dtd"
   xmlns:inkscape="http://www.inkscape.org/namespaces/inkscape"
   id="svg3051"
   version="1.1"
   inkscape:version="0.48.1 "
   width="502.8071"
   height="195.24385"
   sodipodi:docname="chalign.svg">
  <metadata
     id="metadata3057">
    <rdf:RDF>
      <cc:Work
         rdf:about="">
        <dc:format>image/svg+xml</dc:format>
        <dc:type
           rdf:resource="http://purl.org/dc/dcmitype/StillImage" />
        <dc:title></dc:title>
      </cc:Work>
    </rdf:RDF>
  </metadata>
  <defs
     id="defs3055">
    <marker
       inkscape:stockid="Arrow1Lend"
       orient="auto"
       refY="0"
       refX="0"
       id="Arrow1Lend"
       style="overflow:visible">
      <path
         id="path3945"
         d="M 0,0 5,-5 -12.5,0 5,5 0,0 z"
         style="fill-rule:evenodd;stroke:#000000;stroke-width:1pt;marker-start:none"
         transform="matrix(-0.8,0,0,-0.8,-10,0)"
         inkscape:connector-curvature="0" />
    </marker>
    <marker
       inkscape:stockid="Arrow1Lstart"
       orient="auto"
       refY="0"
       refX="0"
       id="Arrow1Lstart"
       style="overflow:visible">
      <path
         id="path3942"
         d="M 0,0 5,-5 -12.5,0 5,5 0,0 z"
         style="fill-rule:evenodd;stroke:#000000;stroke-width:1pt;marker-start:none"
         transform="matrix(0.8,0,0,0.8,10,0)"
         inkscape:connector-curvature="0" />
    </marker>
    <filter
       color-interpolation-filters="sRGB"
       inkscape:menu-tooltip="Glow of object's own color at the edges"
       inkscape:menu="Shadows and Glows"
       inkscape:label="Glow"
       id="filter2993">
      <feGaussianBlur
         result="result91"
         stdDeviation="5"
         id="feGaussianBlur2995" />
      <feComposite
         operator="over"
         in="SourceGraphic"
         in2="result91"
         id="feComposite2997" />
    </filter>
    <marker
       inkscape:stockid="Arrow1Lend"
       orient="auto"
       refY="0"
       refX="0"
       id="Arrow1Lend-3"
       style="overflow:visible">
      <path
         id="path3945-5"
         d="M 0,0 5,-5 -12.5,0 5,5 0,0 z"
         style="fill-rule:evenodd;stroke:#000000;stroke-width:1pt;marker-start:none"
         transform="matrix(-0.8,0,0,-0.8,-10,0)"
         inkscape:connector-curvature="0" />
    </marker>
    <marker
       inkscape:stockid="Arrow1Lstart"
       orient="auto"
       refY="0"
       refX="0"
       id="Arrow1Lstart-0"
       style="overflow:visible">
      <path
         id="path3942-4"
         d="M 0,0 5,-5 -12.5,0 5,5 0,0 z"
         style="fill-rule:evenodd;stroke:#000000;stroke-width:1pt;marker-start:none"
         transform="matrix(0.8,0,0,0.8,10,0)"
         inkscape:connector-curvature="0" />
    </marker>
    <filter
       color-interpolation-filters="sRGB"
       inkscape:menu-tooltip="Glow of object's own color at the edges"
       inkscape:menu="Shadows and Glows"
       inkscape:label="Glow"
       id="filter2993-6">
      <feGaussianBlur
         result="result91"
         stdDeviation="5"
         id="feGaussianBlur2995-7" />
      <feComposite
         operator="over"
         in="SourceGraphic"
         in2="result91"
         id="feComposite2997-3" />
    </filter>
    <linearGradient
       y2="391.61685"
       x2="465.87979"
       y1="391.61685"
       x1="311.26309"
       gradientUnits="userSpaceOnUse"
       id="linearGradient8038"
       xlink:href="#linearGradient7601"
       inkscape:collect="always" />
    <linearGradient
       y2="391.61685"
       x2="465.87979"
       y1="391.61685"
       x1="311.26309"
       gradientUnits="userSpaceOnUse"
       id="linearGradient8036"
       xlink:href="#linearGradient7607"
       inkscape:collect="always" />
    <linearGradient
       gradientUnits="userSpaceOnUse"
       y2="391.61685"
       x2="465.87979"
       y1="391.61685"
       x1="311.26309"
       id="linearGradient7613"
       xlink:href="#linearGradient7607"
       inkscape:collect="always" />
    <linearGradient
       gradientUnits="userSpaceOnUse"
       y2="391.61685"
       x2="465.87979"
       y1="391.61685"
       x1="311.26309"
       id="linearGradient7575"
       xlink:href="#linearGradient7601"
       inkscape:collect="always" />
    <linearGradient
       id="linearGradient7417">
      <stop
         id="stop7419"
         offset="0"
         style="stop-color:#ff0000;stop-opacity:1;" />
      <stop
         id="stop7421"
         offset="1"
         style="stop-color:#ff0000;stop-opacity:0;" />
    </linearGradient>
    <linearGradient
       id="linearGradient7577">
      <stop
         style="stop-color:#ff0000;stop-opacity:1;"
         offset="0"
         id="stop7579" />
      <stop
         style="stop-color:#ff0000;stop-opacity:0;"
         offset="1"
         id="stop7581" />
    </linearGradient>
    <linearGradient
       id="linearGradient7583">
      <stop
         id="stop7585"
         offset="0"
         style="stop-color:#ff0000;stop-opacity:1;" />
      <stop
         id="stop7587"
         offset="1"
         style="stop-color:#ff0000;stop-opacity:0;" />
    </linearGradient>
    <linearGradient
       id="linearGradient7589">
      <stop
         style="stop-color:#ff0000;stop-opacity:1;"
         offset="0"
         id="stop7591" />
      <stop
         style="stop-color:#ff0000;stop-opacity:0;"
         offset="1"
         id="stop7593" />
    </linearGradient>
    <linearGradient
       id="linearGradient7595">
      <stop
         id="stop7597"
         offset="0"
         style="stop-color:#ff0000;stop-opacity:1;" />
      <stop
         id="stop7599"
         offset="1"
         style="stop-color:#ff0000;stop-opacity:0;" />
    </linearGradient>
    <linearGradient
       id="linearGradient7601">
      <stop
         style="stop-color:#ff0000;stop-opacity:1;"
         offset="0"
         id="stop7603" />
      <stop
         style="stop-color:#ff0000;stop-opacity:0;"
         offset="1"
         id="stop7605" />
    </linearGradient>
    <linearGradient
       id="linearGradient7607"
       inkscape:collect="always">
      <stop
         id="stop7609"
         offset="0"
         style="stop-color:#ff0000;stop-opacity:1;" />
      <stop
         id="stop7611"
         offset="1"
         style="stop-color:#ff0000;stop-opacity:0;" />
    </linearGradient>
    <filter
       color-interpolation-filters="sRGB"
       inkscape:label="Bright metal"
       inkscape:menu="Bevels"
       inkscape:menu-tooltip="Bright metallic effect for any color"
       id="filter2987-1">
      <feGaussianBlur
         in="SourceGraphic"
         stdDeviation="8"
         result="result6"
         id="feGaussianBlur2989-7" />
      <feComposite
         result="result10"
         operator="xor"
         in="result6"
         in2="SourceGraphic"
         id="feComposite2991-4" />
      <feGaussianBlur
         stdDeviation="8"
         result="result2"
         id="feGaussianBlur2993-0" />
      <feComposite
         result="result91"
         in="result10"
         operator="atop"
         in2="SourceGraphic"
         id="feComposite2995-9" />
      <feComposite
         operator="xor"
         in="result2"
         result="result4"
         in2="result91"
         id="feComposite2997-4" />
      <feGaussianBlur
         stdDeviation="4"
         result="result3"
         in="result4"
         id="feGaussianBlur2999-8" />
      <feSpecularLighting
         surfaceScale="18"
         specularConstant="1.10000002"
         specularExponent="5"
         result="result5"
         id="feSpecularLighting3001-8">
        <feDistantLight
           elevation="55"
           azimuth="235"
           id="feDistantLight3003-2" />
      </feSpecularLighting>
      <feComposite
         k1="0.5"
         result="result7"
         operator="arithmetic"
         k2="0.5"
         k3="1.1"
         in="result3"
         in2="result5"
         id="feComposite3005-4"
         k4="0" />
      <feComposite
         result="result8"
         operator="atop"
         in="result7"
         in2="SourceGraphic"
         id="feComposite3007-5" />
    </filter>
    <filter
       color-interpolation-filters="sRGB"
       inkscape:label="Bright metal"
       inkscape:menu="Bevels"
       inkscape:menu-tooltip="Bright metallic effect for any color"
       id="filter2987">
      <feGaussianBlur
         in="SourceGraphic"
         stdDeviation="8"
         result="result6"
         id="feGaussianBlur2989" />
      <feComposite
         result="result10"
         operator="xor"
         in="result6"
         in2="SourceGraphic"
         id="feComposite2991" />
      <feGaussianBlur
         stdDeviation="8"
         result="result2"
         id="feGaussianBlur2993" />
      <feComposite
         result="result91"
         in="result10"
         operator="atop"
         in2="SourceGraphic"
         id="feComposite2995" />
      <feComposite
         operator="xor"
         in="result2"
         result="result4"
         in2="result91"
         id="feComposite2997-6" />
      <feGaussianBlur
         stdDeviation="4"
         result="result3"
         in="result4"
         id="feGaussianBlur2999" />
      <feSpecularLighting
         surfaceScale="18"
         specularConstant="1.10000002"
         specularExponent="5"
         result="result5"
         id="feSpecularLighting3001">
        <feDistantLight
           elevation="55"
           azimuth="235"
           id="feDistantLight3003" />
      </feSpecularLighting>
      <feComposite
         k4="0"
         k1="0.5"
         result="result7"
         operator="arithmetic"
         k2="0.5"
         k3="1.1"
         in="result3"
         in2="result5"
         id="feComposite3005" />
      <feComposite
         result="result8"
         operator="atop"
         in="result7"
         in2="SourceGraphic"
         id="feComposite3007" />
    </filter>
    <filter
       id="filter4412-8"
       inkscape:label="Glow"
       inkscape:menu="Shadows and Glows"
       inkscape:menu-tooltip="Glow of object's own color at the edges"
       color-interpolation-filters="sRGB">
      <feGaussianBlur
         id="feGaussianBlur4414-5"
         stdDeviation="5"
         result="result91" />
      <feComposite
         id="feComposite4416-7"
         in2="result91"
         in="SourceGraphic"
         operator="over" />
    </filter>
    <filter
       id="filter4412-8-0"
       inkscape:label="Glow"
       inkscape:menu="Shadows and Glows"
       inkscape:menu-tooltip="Glow of object's own color at the edges"
       color-interpolation-filters="sRGB">
      <feGaussianBlur
         id="feGaussianBlur4414-5-5"
         stdDeviation="5"
         result="result91" />
      <feComposite
         id="feComposite4416-7-6"
         in2="result91"
         in="SourceGraphic"
         operator="over" />
    </filter>
    <filter
       id="filter4412-8-6"
       inkscape:label="Glow"
       inkscape:menu="Shadows and Glows"
       inkscape:menu-tooltip="Glow of object's own color at the edges"
       color-interpolation-filters="sRGB">
      <feGaussianBlur
         id="feGaussianBlur4414-5-7"
         stdDeviation="5"
         result="result91" />
      <feComposite
         id="feComposite4416-7-7"
         in2="result91"
         in="SourceGraphic"
         operator="over" />
    </filter>
    <filter
       id="filter4412-8-7"
       inkscape:label="Glow"
       inkscape:menu="Shadows and Glows"
       inkscape:menu-tooltip="Glow of object's own color at the edges"
       color-interpolation-filters="sRGB">
      <feGaussianBlur
         id="feGaussianBlur4414-5-6"
         stdDeviation="5"
         result="result91" />
      <feComposite
         id="feComposite4416-7-1"
         in2="result91"
         in="SourceGraphic"
         operator="over" />
    </filter>
  </defs>
  <sodipodi:namedview
     pagecolor="#ffffff"
     bordercolor="#666666"
     borderopacity="1"
     objecttolerance="10"
     gridtolerance="10"
     guidetolerance="10"
     inkscape:pageopacity="0"
     inkscape:pageshadow="2"
     inkscape:window-width="1280"
     inkscape:window-height="738"
     id="namedview3053"
     showgrid="false"
     inkscape:zoom="0.57666666"
     inkscape:cx="133.24308"
     inkscape:cy="-69.74298"
     inkscape:window-x="-8"
     inkscape:window-y="-8"
     inkscape:window-maximized="1"
     inkscape:current-layer="layer4"
     fit-margin-top="0"
     fit-margin-left="0"
     fit-margin-right="0"
     fit-margin-bottom="0" />
  <g
     inkscape:groupmode="layer"
     id="layer4"
     inkscape:label="align"
     transform="translate(-117.33495,-185.01317)">
    <rect
       style="opacity:0.5;fill:none;stroke:#00ff00;stroke-width:7.52072287;stroke-miterlimit:4;stroke-opacity:1;stroke-dasharray:none;display:inline;filter:url(#filter4412-8)"
       id="rect4409-9"
       width="334.71524"
       height="406.57336"
       x="210.67708"
       y="119.25668"
       rx="15.26333"
       transform="matrix(1.1872227,0,0,0.39581042,-80.068789,145.7845)" />
    <g
       transform="translate(-125.63675,-118.64586)"
       id="layer1-90"
       inkscape:label="Layer 1">
      <g
         id="g3164">
        <path
           inkscape:connector-curvature="0"
           id="path3301"
           d=""
           style="fill:#66ff00;stroke:#ff0000;stroke-width:0.27893007" />
        <path
           inkscape:connector-curvature="0"
           id="path4077"
           d=""
           style="fill:#66ff00;stroke:#55d400;stroke-width:0.27893007" />
        <g
           transform="translate(5.4085937e-6,-158.60826)"
           id="g3055">
          <g
             id="g3113">
            <g
               id="g3098"
               style="opacity:0.50679997"
               transform="translate(18.249057,373.09179)">
              <path
                 transform="matrix(1.3834219,0,0,1.7821687,14.713309,-832.05419)"
                 d="m 365.71428,590.93359 c 0,7.10081 -18.54821,12.85715 -41.42857,12.85715 -22.88037,0 -41.42857,-5.75634 -41.42857,-12.85715 0,-7.1008 18.5482,-12.85714 41.42857,-12.85714 22.88036,0 41.42857,5.75634 41.42857,12.85714 z"
                 sodipodi:ry="12.857142"
                 sodipodi:rx="41.42857"
                 sodipodi:cy="590.93359"
                 sodipodi:cx="324.28571"
                 id="path3011-1"
                 style="fill:#000000;stroke:#f9f9f9"
                 sodipodi:type="arc" />
              <path
                 transform="matrix(1,0,0,1.0984349,94.93618,-310.26704)"
                 d="m 439.99999,438.07648 c 0,25.2473 -32.61925,45.71428 -72.85714,45.71428 -40.23788,0 -72.85714,-20.46698 -72.85714,-45.71428 0,-25.24731 32.61926,-45.71429 72.85714,-45.71429 40.23789,0 72.85714,20.46698 72.85714,45.71429 z"
                 sodipodi:ry="45.714287"
                 sodipodi:rx="72.85714"
                 sodipodi:cy="438.07648"
                 sodipodi:cx="367.14285"
                 id="path3013-7"
                 style="fill:#000000;stroke:#000000"
                 sodipodi:type="arc" />
              <path
                 transform="matrix(1,0,0,1.2258065,54.747165,-82.022636)"
                 d="m 596.13582,224.05785 c 0,17.35771 -81.70381,31.42892 -182.49056,31.42892 -100.78675,0 -182.49055,-14.07121 -182.49055,-31.42892 0,-17.35772 81.7038,-31.42893 182.49055,-31.42893 100.78675,0 182.49056,14.07121 182.49056,31.42893 z"
                 sodipodi:ry="31.428928"
                 sodipodi:rx="182.49055"
                 sodipodi:cy="224.05785"
                 sodipodi:cx="413.64526"
                 id="path3093-4"
                 style="fill:#000000;stroke:none"
                 sodipodi:type="arc" />
            </g>
            <g
               id="g3057"
               transform="translate(168.29685,24.332074)">
              <path
                 transform="matrix(1.3834219,0,0,1.7821687,-128.7943,-495.12333)"
                 d="m 365.71428,590.93359 c 0,7.10081 -18.54821,12.85715 -41.42857,12.85715 -22.88037,0 -41.42857,-5.75634 -41.42857,-12.85715 0,-7.1008 18.5482,-12.85714 41.42857,-12.85714 22.88036,0 41.42857,5.75634 41.42857,12.85714 z"
                 sodipodi:ry="12.857142"
                 sodipodi:rx="41.42857"
                 sodipodi:cy="590.93359"
                 sodipodi:cx="324.28571"
                 id="path3011"
                 style="fill:#0000ff;stroke:#f9f9f9"
                 sodipodi:type="arc" />
              <path
                 transform="matrix(1,0,0,1.0984349,-48.571429,26.663824)"
                 d="m 439.99999,438.07648 c 0,25.2473 -32.61925,45.71428 -72.85714,45.71428 -40.23788,0 -72.85714,-20.46698 -72.85714,-45.71428 0,-25.24731 32.61926,-45.71429 72.85714,-45.71429 40.23789,0 72.85714,20.46698 72.85714,45.71429 z"
                 sodipodi:ry="45.714287"
                 sodipodi:rx="72.85714"
                 sodipodi:cy="438.07648"
                 sodipodi:cx="367.14285"
                 id="path3013"
                 style="fill:#ffffff;stroke:#000000"
                 sodipodi:type="arc" />
              <path
                 transform="matrix(1,0,0,0.78808221,8.5714284,119.04207)"
                 d="m 502.85713,526.64789 c 0,26.82526 -84.4263,48.57143 -188.57142,48.57143 -104.14513,0 -188.57143,-21.74617 -188.57143,-48.57143 0,-26.82526 84.4263,-48.57143 188.57143,-48.57143 104.14512,0 188.57142,21.74617 188.57142,48.57143 z"
                 sodipodi:ry="48.57143"
                 sodipodi:rx="188.57143"
                 sodipodi:cy="526.64789"
                 sodipodi:cx="314.28571"
                 id="path2985-9"
                 style="fill:#333333;stroke:#f9f9f9;filter:url(#filter2987)"
                 sodipodi:type="arc" />
            </g>
            <path
               style="fill:none;stroke:#000000;stroke-width:1px;stroke-linecap:butt;stroke-linejoin:miter;stroke-opacity:1"
               d="m 439.04144,511.9428 2.76127,3.5502 1.1834,2.76126 0.78893,0 3.15574,-0.39446"
               id="path4085-9"
               inkscape:connector-curvature="0" />
          </g>
          <path
             sodipodi:nodetypes="cccc"
             inkscape:connector-curvature="0"
             id="path3123"
             d="m 525.03518,572.69067 42.60241,-1.57787 60.35341,-8.2838 18.53993,-8.67827"
             style="fill:none;stroke:none" />
          <g
             transform="matrix(0.91772774,0,0,0.84887709,43.28721,87.160291)"
             style="font-size:21.94953537px;font-style:normal;font-weight:normal;line-height:125%;letter-spacing:0px;word-spacing:0px;fill:#000000;fill-opacity:1;stroke:none;font-family:Sans"
             id="text3125">
            <path
               inkscape:connector-curvature="0"
               d="m 526.72737,572.628 -0.58153,-15.70116 5.92275,-0.21936 c 1.04245,-0.0386 1.84042,-0.0181 2.39392,0.0615 0.77589,0.1 1.43113,0.3206 1.96572,0.66186 0.53458,0.34128 0.97277,0.83091 1.31458,1.46888 0.34179,0.638 0.5271,1.34613 0.55594,2.12439 0.0494,1.33521 -0.33355,2.48087 -1.14897,3.43698 -0.81544,0.95613 -2.33344,1.47531 -4.55401,1.55754 l -4.02704,0.14915 0.23642,6.38328 z m 1.77273,-8.3131 4.05917,-0.15034 c 1.34234,-0.0497 2.28629,-0.33492 2.83186,-0.85563 0.54555,-0.52069 0.80153,-1.23444 0.76796,-2.14125 -0.0243,-0.65688 -0.21117,-1.21301 -0.5605,-1.66841 -0.34935,-0.45537 -0.79812,-0.74798 -1.34631,-0.87784 -0.35332,-0.0799 -1.00122,-0.10232 -1.94371,-0.0674 l -4.01632,0.14875 z"
               id="path3041" />
            <path
               inkscape:connector-curvature="0"
               d="m 541.2092,576.47811 -0.28124,-1.8021 c 0.4255,0.0986 0.79533,0.14214 1.1095,0.13051 0.4284,-0.0159 0.76849,-0.1 1.02025,-0.25228 0.25175,-0.15233 0.45498,-0.36005 0.60968,-0.62318 0.11424,-0.19728 0.29288,-0.68294 0.53591,-1.45698 0.0317,-0.10843 0.083,-0.26763 0.15391,-0.4776 l -4.73827,-11.2358 2.07777,-0.077 2.61091,6.49911 c 0.33797,0.82403 0.64539,1.69208 0.92227,2.60417 0.18855,-0.89358 0.42074,-1.76732 0.69656,-2.62123 l 2.18568,-6.71966 1.92783,-0.0714 -3.89851,11.72728 c -0.41784,1.26671 -0.74655,2.14045 -0.98613,2.62122 -0.3192,0.64816 -0.69465,1.1286 -1.12636,1.44131 -0.43172,0.31271 -0.9546,0.48044 -1.56865,0.50319 -0.37129,0.0137 -0.78832,-0.0495 -1.25111,-0.18961 z"
               id="path3043-3" />
            <path
               inkscape:connector-curvature="0"
               d="m 556.24511,569.80803 0.34154,1.69261 c -0.53842,0.13434 -1.02184,0.20945 -1.45024,0.22531 -0.69974,0.0259 -1.24649,-0.0647 -1.64025,-0.27172 -0.39377,-0.20706 -0.67587,-0.48797 -0.8463,-0.84273 -0.17044,-0.35476 -0.27708,-1.11049 -0.31992,-2.26719 l -0.24237,-6.54394 -1.41375,0.0524 -0.0555,-1.49942 1.41375,-0.0524 -0.10433,-2.81678 1.87429,-1.22771 0.14716,3.97349 1.93855,-0.0718 0.0555,1.49943 -1.93854,0.0718 0.24633,6.65103 c 0.0204,0.5498 0.0674,0.90198 0.14102,1.05655 0.0736,0.15457 0.18895,0.27542 0.3459,0.36256 0.15695,0.0871 0.37823,0.12541 0.66384,0.11483 0.21419,-0.008 0.4953,-0.0434 0.84332,-0.10631 z"
               id="path3045" />
            <path
               inkscape:connector-curvature="0"
               d="m 557.25899,566.77827 -0.0718,-1.93855 5.92275,-0.21936 0.0718,1.93855 z"
               id="path3047" />
            <path
               inkscape:connector-curvature="0"
               d="m 565.73286,571.23277 -1.7874,-15.60992 2.11895,-0.24263 9.60227,11.317 -1.40334,-12.25581 1.98053,-0.22678 1.7874,15.60993 -2.11895,0.24262 -9.6035,-11.32765 1.40456,12.26647 z"
               id="path3049" />
            <path
               inkscape:connector-curvature="0"
               d="m 586.83771,568.47748 -0.51154,-3.72692 -6.75305,0.92689 -0.24046,-1.75197 5.71893,-11.06208 1.56085,-0.21423 1.3845,10.0871 2.10237,-0.28856 0.24046,1.75197 -2.10236,0.28856 0.51154,3.72691 z m -0.75201,-5.47889 -0.96332,-7.01849 -3.91034,7.68743 z"
               id="path3051" />
            <path
               inkscape:connector-curvature="0"
               d="m 602.60812,564.44142 0.25212,1.83691 -10.28884,1.4122 c -0.0773,-0.45817 -0.0637,-0.91079 0.0408,-1.35786 0.16572,-0.73673 0.4904,-1.48447 0.97404,-2.24321 0.48364,-0.75873 1.20931,-1.65886 2.17701,-2.7004 1.50136,-1.61962 2.49373,-2.87549 2.97709,-3.76762 0.48336,-0.89211 0.67549,-1.69918 0.5764,-2.42122 -0.10397,-0.7574 -0.46242,-1.35909 -1.07534,-1.80506 -0.61293,-0.44594 -1.35473,-0.60916 -2.2254,-0.48967 -0.92023,0.12632 -1.61852,0.50343 -2.09487,1.13133 -0.47636,0.62794 -0.65103,1.43081 -0.52403,2.40862 l -1.99202,0.0679 c -0.0666,-1.48373 0.28623,-2.66985 1.05857,-3.55838 0.77234,-0.88849 1.89823,-1.43428 3.37767,-1.63736 1.49359,-0.20498 2.73257,0.0469 3.71692,0.75555 0.98434,0.70871 1.56056,1.67537 1.72865,2.89996 0.0855,0.62294 0.0421,1.25273 -0.13012,1.88938 -0.17225,0.63667 -0.50825,1.32827 -1.00798,2.07478 -0.49975,0.74653 -1.35658,1.79448 -2.57049,3.14386 -1.01462,1.1201 -1.66117,1.87415 -1.93966,2.26216 -0.2785,0.38801 -0.50012,0.77001 -0.66487,1.14601 z"
               id="path3053" />
          </g>
          <g
             id="g2183"
             transform="matrix(0.29366981,0,0,0.23485894,601.55219,543.57452)">
            <g
               id="g3026"
               transform="matrix(1,0.38627824,0,1,0,-17.521388)">
              <circle
                 d="m 18.247999,46.903999 c 0,5.039046 -4.084954,9.124 -9.1239994,9.124 C 4.0849538,56.027999 0,51.943045 0,46.903999 0,41.864953 4.0849538,37.78 9.1239996,37.78 c 5.0390454,0 9.1239994,4.084953 9.1239994,9.123999 z"
                 style="fill:#ff6309"
                 sodipodi:ry="9.1239996"
                 sodipodi:rx="9.1239996"
                 sodipodi:cy="46.903999"
                 sodipodi:cx="9.1239996"
                 cx="9.1239996"
                 cy="46.903999"
                 r="9.1239996"
                 id="circle4" />
              <circle
                 d="m 83.671996,84.667 c 0,5.039046 -4.084954,9.123999 -9.123999,9.123999 -5.039046,0 -9.124,-4.084953 -9.124,-9.123999 0,-5.039046 4.084954,-9.124 9.124,-9.124 5.039045,0 9.123999,4.084954 9.123999,9.124 z"
                 style="fill:#ffb515"
                 sodipodi:ry="9.1239996"
                 sodipodi:rx="9.1239996"
                 sodipodi:cy="84.667"
                 sodipodi:cx="74.547997"
                 cx="74.547997"
                 cy="84.667"
                 r="9.1239996"
                 id="circle6" />
              <circle
                 d="m 83.664001,9.1260004 c 0,5.0390456 -4.084954,9.1239996 -9.124,9.1239996 -5.039046,0 -9.124,-4.084954 -9.124,-9.1239996 0,-5.0390458 4.084954,-9.12399959 9.124,-9.12399959 5.039046,0 9.124,4.08495379 9.124,9.12399959 z"
                 style="fill:#c90016"
                 sodipodi:ry="9.1239996"
                 sodipodi:rx="9.1239996"
                 sodipodi:cy="9.1260004"
                 sodipodi:cx="74.540001"
                 cx="74.540001"
                 cy="9.1260004"
                 r="9.1239996"
                 id="circle8" />
              <path
                 inkscape:connector-curvature="0"
                 style="fill:#ff6309"
                 d="m 52.739,24.327 c 11.361,0 20.787,8.436 22.348,19.373 l 15.632,0 C 90.009,35.106 86.446,27.096 80.489,20.779 76.674,22.722 71.983,22.759 67.998,20.459 64.01,18.156 61.696,14.072 61.474,9.792 58.643,9.132 55.718,8.79 52.739,8.79 c -5.704,0 -11.216,1.245 -16.229,3.606 l 7.826,13.555 c 2.599,-1.046 5.435,-1.624 8.403,-1.624 z"
                 id="path10" />
              <path
                 inkscape:connector-curvature="0"
                 style="fill:#ffb515"
                 d="m 30.163,46.904 c 0,-7.193 3.381,-13.61 8.636,-17.747 L 30.975,15.604 c -1.835,1.282 -3.571,2.733 -5.188,4.349 -4.528,4.528 -7.775,9.995 -9.562,15.962 3.6,2.332 5.984,6.38 5.984,10.989 0,4.608 -2.384,8.657 -5.984,10.988 1.787,5.967 5.034,11.434 9.562,15.962 1.616,1.616 3.35,3.065 5.184,4.348 L 38.796,64.648 C 33.542,60.511 30.163,54.094 30.163,46.904 z"
                 id="path12" />
              <path
                 inkscape:connector-curvature="0"
                 style="fill:#c90016"
                 d="M 75.088,50.098 C 73.531,61.039 64.103,69.48 52.739,69.48 c -2.97,0 -5.807,-0.578 -8.406,-1.626 L 36.506,81.41 c 5.012,2.362 10.526,3.608 16.232,3.608 2.981,0 5.91,-0.344 8.742,-1.004 0.218,-4.285 2.533,-8.376 6.524,-10.68 3.986,-2.302 8.679,-2.265 12.495,-0.318 5.952,-6.318 9.511,-14.327 10.219,-22.918 l -15.63,0 z"
                 id="path14" />
            </g>
          </g>
          <path
             style="fill:none;stroke:#000000;stroke-width:1px;stroke-linecap:butt;stroke-linejoin:miter;stroke-opacity:1"
             d="m 508.86205,519.83213 c 1.91941,-3.36361 3.06772,-7.0845 4.24051,-10.75445 -0.0172,-1.5035 -0.82908,-2.83736 -1.05757,-4.30146 0.45833,-1.49712 1.33195,-2.81664 2.21,-4.09613 3.14075,-0.98443 6.43032,-0.1753 9.59683,0.21768 2.68239,1.59269 5.57106,3.33563 6.95557,6.26546 1.19641,0.73319 1.11882,2.91494 -0.28753,3.3657 -1.03701,0.84097 -2.69016,1.18933 -3.80049,0.28873 -2.09226,-0.81708 -4.22236,-1.59326 -6.45021,-1.94287 -1.06863,1.31287 -0.15032,3.15368 -0.95257,4.56417 -0.87205,2.57038 -2.26463,4.94278 -2.95965,7.57661"
             id="path3193"
             inkscape:connector-curvature="0" />
          <path
             style="fill:none;stroke:#000000;stroke-width:1px;stroke-linecap:butt;stroke-linejoin:miter;stroke-opacity:1"
             d="m 447.68278,521.00038 c -1.53181,-3.17475 -2.94709,-6.61389 -5.76948,-8.88473 -1.78137,-1.42333 -4.43094,-1.61011 -6.3911,-0.44059 -2.18198,1.09622 -3.85209,2.93904 -5.40607,4.77633 0.92166,-0.0622 1.52069,-0.95451 2.41108,-1.17097 1.34017,-0.65406 2.87992,-1.25186 4.38357,-0.8606 1.31564,0.51558 1.80859,2.00655 1.98076,3.29251 0.20768,1.17366 0.25317,2.49596 1.05802,3.44354 0.0588,0.0545 0.13336,0.0841 0.20211,0.12343"
             id="path3273"
             inkscape:connector-curvature="0" />
          <path
             style="fill:none;stroke:#000000;stroke-width:1.01067066px;stroke-linecap:butt;stroke-linejoin:miter;stroke-opacity:1"
             d="m 467.49216,519.82683 c 6.53197,-20.313 19.14124,-14.64313 27.88233,0.88928"
             id="path3281"
             inkscape:connector-curvature="0" />
          <path
             style="fill:none;stroke:#000000;stroke-width:0.84359008px;stroke-linecap:butt;stroke-linejoin:miter;stroke-opacity:1"
             d="m 478.3088,511.5533 c -3.66133,0.58686 -5.35894,4.94494 -6.52152,8.29469 5.71709,-0.0721 11.43419,-0.14423 17.15128,-0.21633 -2.5341,-3.63741 -6.03336,-8.30842 -10.62976,-8.07836 z"
             id="path3289"
             inkscape:connector-curvature="0" />
          <path
             sodipodi:type="arc"
             style="fill:#ffffff;stroke:#000000"
             id="path3295"
             sodipodi:cx="520.62299"
             sodipodi:cy="501.89368"
             sodipodi:rx="3.7655561"
             sodipodi:ry="3.4866261"
             d="m 524.38854,501.89368 c 0,1.92561 -1.68589,3.48662 -3.76555,3.48662 -2.07966,0 -3.76556,-1.56101 -3.76556,-3.48662 0,-1.92561 1.6859,-3.48663 3.76556,-3.48663 2.07966,0 3.76555,1.56102 3.76555,3.48663 z" />
          <path
             style="fill:none;stroke:#ff0000;stroke-width:1px;stroke-linecap:butt;stroke-linejoin:miter;stroke-opacity:1"
             d="m 530.24609,510.40103 2.23144,2.51037 -0.27893,1.67358"
             id="path3297"
             inkscape:connector-curvature="0" />
          <path
             style="fill:#66ff00;stroke:#ff0000;stroke-width:1px;stroke-linecap:butt;stroke-linejoin:miter;stroke-opacity:1"
             d="m 532.75646,512.9114 2.7893,0.27893"
             id="path3299"
             inkscape:connector-curvature="0" />
          <path
             style="fill:#66ff00;stroke:#55d400;stroke-width:0.27893007"
             d="m 510.57509,517.86082 c 0.51809,-1.12134 1.47085,-3.58128 2.11724,-5.46652 l 1.17525,-3.42772 -0.57394,-2.14305 -0.57394,-2.14305 0.86684,-1.63103 c 0.77692,-1.46183 1.54962,-2.13452 2.45188,-2.13452 0.14342,0 0.26124,0.47069 0.26181,1.04598 0.002,2.2411 1.89733,3.97192 4.35086,3.97372 1.7834,10e-4 3.08978,-0.80639 3.90297,-2.41309 l 0.58429,-1.15443 0.94982,0.71472 c 1.56419,1.17702 3.03852,2.64617 3.84358,3.83009 1.17629,1.72984 1.22885,2.03922 0.47462,2.79345 -1.0812,1.0812 -1.83585,1.11049 -4.39498,0.17054 -1.2763,-0.46878 -3.12068,-1.05629 -4.09861,-1.30559 -2.25053,-0.57371 -2.52084,-0.35465 -2.82007,2.2855 -0.14434,1.27356 -0.6915,3.07984 -1.63586,5.40026 l -1.41897,3.48663 -3.20239,0.0785 -3.20239,0.0785 0.94199,-2.03881 z"
             id="path4075"
             inkscape:connector-curvature="0" />
          <path
             style="fill:#66ff00;stroke:#55d400;stroke-width:0.27893007"
             d="m 468.32336,519.67297 c 3.2e-4,-0.47893 1.24073,-3.42654 2.30015,-5.4659 2.00874,-3.86677 4.82261,-6.30342 7.78397,-6.74046 3.3529,-0.49482 7.84061,2.07406 11.59629,6.63802 1.72628,2.0978 3.70208,4.91877 3.70208,5.28569 0,0.11711 -0.91,0.21184 -2.02224,0.21052 l -2.02224,-0.002 -2.03262,-2.65564 c -2.90291,-3.79271 -6.16619,-5.98639 -8.90524,-5.98639 -1.06495,0 -2.65356,0.79112 -3.80806,1.8964 -0.98083,0.939 -2.7427,4.07123 -3.4804,6.18739 -0.27429,0.78684 -0.38579,0.84197 -1.70267,0.84197 -0.77504,0 -1.4091,-0.0941 -1.40902,-0.2092 z"
             id="path4079-8"
             inkscape:connector-curvature="0" />
          <path
             style="fill:#66ff00;stroke:#000000;stroke-width:0.27893007"
             d="m 440.20121,520.26762 c -0.17992,-0.44212 -0.45155,-1.47208 -0.60362,-2.28882 -0.6405,-3.44019 -1.6428,-4.37944 -4.4343,-4.15537 -2.0315,0.16307 -2.0021,0.0619 0.38564,-1.32668 3.76386,-2.1889 7.04636,-0.24155 10.21575,6.0605 l 1.08715,2.16171 -1.07675,0 c -0.59221,0 -2.01499,0.0793 -3.16174,0.17625 l -2.08498,0.17624 -0.32715,-0.80383 0,0 z"
             id="path4081-4"
             inkscape:connector-curvature="0" />
          <path
             sodipodi:type="arc"
             style="fill:#000000;stroke:#000000"
             id="path4083-4"
             sodipodi:cx="522.6026"
             sodipodi:cy="504.72809"
             sodipodi:rx="1.951485"
             sodipodi:ry="1.206545"
             d="m 524.55409,504.72809 c 0,0.66635 -0.87371,1.20654 -1.95149,1.20654 -1.07778,0 -1.95148,-0.54019 -1.95148,-1.20654 0,-0.66636 0.8737,-1.20655 1.95148,-1.20655 1.07778,0 1.95149,0.54019 1.95149,1.20655 z"
             transform="translate(-0.55891084,-1.6735839)" />
        </g>
      </g>
    </g>
    <g
       transform="translate(-332.94798,57.225434)"
       style="font-size:60px;font-style:normal;font-weight:normal;line-height:125%;letter-spacing:0px;word-spacing:0px;fill:#ffffff;fill-opacity:1;stroke:none;font-family:Sans"
       id="flowRoot9303">
      <path
         d="m 794.66406,550.03871 0,-5.03907 18.19336,-0.0293 0,15.9375 c -2.79301,2.22656 -5.67386,3.90137 -8.64258,5.02441 -2.96878,1.12305 -6.01565,1.68457 -9.14062,1.68457 -4.21877,0 -8.05178,-0.90332 -11.49902,-2.70996 -3.44728,-1.80664 -6.04982,-4.41894 -7.80762,-7.83691 -1.75782,-3.41796 -2.63672,-7.23632 -2.63672,-11.45508 0,-4.17966 0.87402,-8.08103 2.62207,-11.7041 1.74804,-3.62301 4.26268,-6.31344 7.54394,-8.07129 3.28124,-1.75777 7.06053,-2.63668 11.3379,-2.63672 3.10544,4e-5 5.91305,0.50297 8.42285,1.50879 2.50973,1.0059 4.4775,2.40726 5.90332,4.2041 1.42574,1.79691 2.50972,4.14066 3.25195,7.03125 l -5.12695,1.40625 c -0.64457,-2.18747 -1.44535,-3.90622 -2.40235,-5.15625 -0.95706,-1.24997 -2.32425,-2.25094 -4.10156,-3.00293 -1.77737,-0.75192 -3.75003,-1.12789 -5.91797,-1.12793 -2.59768,4e-5 -4.84377,0.39555 -6.73828,1.18652 -1.89455,0.79106 -3.42286,1.83109 -4.58496,3.12012 -1.16212,1.2891 -2.06544,2.70511 -2.70996,4.24805 -1.09376,2.65627 -1.64063,5.53713 -1.64063,8.64257 0,3.82815 0.65917,7.03127 1.97754,9.60938 1.31835,2.57813 3.23729,4.49219 5.75684,5.74219 2.51951,1.25 5.19529,1.875 8.02734,1.875 2.46091,0 4.86325,-0.47363 7.20703,-1.4209 2.34372,-0.94726 4.12106,-1.958 5.33204,-3.03223 l 0,-7.99804 z"
         id="path9398"
         inkscape:connector-curvature="0" />
      <path
         d="m 820.5332,566.88441 0,-31.11328 4.7461,0 0,4.42383 c 2.28514,-3.41794 5.58592,-5.12693 9.90234,-5.12696 1.87498,3e-5 3.59861,0.33695 5.1709,1.01074 1.57224,0.67386 2.749,1.55765 3.53027,2.65137 0.78122,1.09378 1.3281,2.39261 1.64063,3.89649 0.19528,0.97658 0.29294,2.68556 0.29297,5.12695 l 0,19.13086 -5.27344,0 0,-18.92578 c -3e-5,-2.14842 -0.2051,-3.75486 -0.61524,-4.81934 -0.41017,-1.06443 -1.13771,-1.91404 -2.18261,-2.54883 -1.04494,-0.63474 -2.27053,-0.95212 -3.67676,-0.95215 -2.24611,3e-5 -4.18458,0.71292 -5.81543,2.13868 -1.63087,1.4258 -2.4463,4.13088 -2.44629,8.11523 l 0,16.99219 z"
         id="path9400"
         inkscape:connector-curvature="0" />
      <path
         d="m 874.32227,566.88441 0,-4.57031 c -2.4219,3.51562 -5.71291,5.27343 -9.87305,5.27343 -1.83595,0 -3.54982,-0.35156 -5.1416,-1.05468 -1.59181,-0.70313 -2.77345,-1.58692 -3.54492,-2.65137 -0.77149,-1.06445 -1.31349,-2.36816 -1.62598,-3.91113 -0.21485,-1.03515 -0.32227,-2.67578 -0.32227,-4.92188 l 0,-19.27734 5.27344,0 0,17.25586 c -10e-6,2.75391 0.10741,4.60938 0.32227,5.5664 0.33202,1.38673 1.03514,2.47559 2.10937,3.2666 1.07421,0.79102 2.40233,1.18653 3.98438,1.18653 1.58201,0 3.06638,-0.40527 4.45312,-1.21582 1.3867,-0.81054 2.36814,-1.91406 2.94434,-3.31055 0.57615,-1.39647 0.86423,-3.42284 0.86425,-6.0791 l 0,-16.66992 5.27344,0 0,31.11328 z"
         id="path9402"
         inkscape:connector-curvature="0" />
    </g>
    <g
       style="font-size:60px;font-style:normal;font-weight:normal;line-height:125%;letter-spacing:0px;word-spacing:0px;fill:#ffffff;fill-opacity:1;stroke:none;font-family:Sans"
       id="text9327">
      <path
         d="m 360.12024,367.63007 0,-42.94922 16.20117,0 c 2.85154,4e-5 5.02927,0.13676 6.5332,0.41015 2.10935,0.35161 3.87693,1.02055 5.30274,2.00684 1.42575,0.98637 2.57321,2.3682 3.44238,4.14551 0.86911,1.77738 1.30367,3.7305 1.30371,5.85937 -4e-5,3.65237 -1.16214,6.74319 -3.48633,9.27246 -2.32425,2.52932 -6.52346,3.79397 -12.59765,3.79395 l -11.01563,0 0,17.46094 z m 5.68359,-22.5293 11.10352,0 c 3.67185,2e-5 6.27927,-0.68357 7.82226,-2.05078 1.54294,-1.36716 2.31443,-3.29099 2.31446,-5.77149 -3e-5,-1.79684 -0.45414,-3.33492 -1.36231,-4.61425 -0.90823,-1.27927 -2.10452,-2.12399 -3.58886,-2.53418 -0.95706,-0.25387 -2.72464,-0.38083 -5.30274,-0.38086 l -10.98633,0 z"
         id="path9405"
         inkscape:connector-curvature="0" />
      <path
         d="m 399.29016,379.61249 -0.58594,-4.95117 c 1.15234,0.31249 2.1582,0.46874 3.01758,0.46875 1.17187,-10e-6 2.10937,-0.19532 2.8125,-0.58594 0.70312,-0.39063 1.27929,-0.93751 1.72852,-1.64063 0.33202,-0.52735 0.86913,-1.83594 1.61133,-3.92578 0.0976,-0.29297 0.25389,-0.72265 0.46875,-1.28906 l -11.80665,-31.17188 5.6836,0 6.47461,18.01758 c 0.83983,2.28517 1.59178,4.68751 2.25586,7.20703 0.60545,-2.42186 1.32811,-4.78514 2.16797,-7.08984 l 6.65039,-18.13477 5.27343,0 -11.83593,31.64063 c -1.26955,3.41796 -2.25588,5.77148 -2.95899,7.06055 -0.93751,1.73827 -2.01173,3.01268 -3.22265,3.82324 -1.21095,0.81053 -2.65626,1.21581 -4.33594,1.21582 -1.01563,-1e-5 -2.14844,-0.21486 -3.39844,-0.64453 z"
         id="path9407"
         inkscape:connector-curvature="0" />
      <path
         d="m 441.03821,362.91327 0.76172,4.6582 c -1.48439,0.3125 -2.81252,0.46875 -3.98438,0.46875 -1.91407,0 -3.39844,-0.30273 -4.45312,-0.9082 -1.0547,-0.60547 -1.79688,-1.40137 -2.22657,-2.3877 -0.42969,-0.98632 -0.64453,-3.06151 -0.64453,-6.22558 l 0,-17.90039 -3.86718,0 0,-4.10157 3.86718,0 0,-7.70507 5.24414,-3.16407 0,10.86914 5.30274,0 0,4.10157 -5.30274,0 0,18.19336 c -1e-5,1.50391 0.0928,2.47071 0.27832,2.90039 0.18554,0.42969 0.48827,0.77149 0.90821,1.02539 0.41991,0.25391 1.02049,0.38086 1.80175,0.38086 0.58593,0 1.35741,-0.0684 2.31446,-0.20508 z"
         id="path9409"
         inkscape:connector-curvature="0" />
      <path
         d="m 446.16516,367.63007 0,-42.94922 5.27344,0 0,15.41015 c 2.46092,-2.85153 5.56639,-4.27731 9.3164,-4.27734 2.30467,3e-5 4.30662,0.45413 6.00586,1.3623 1.6992,0.90824 2.91502,2.16312 3.64747,3.76465 0.73239,1.60159 1.0986,3.92581 1.09863,6.97266 l 0,19.7168 -5.27344,0 0,-19.7168 c -2e-5,-2.6367 -0.57131,-4.55564 -1.71387,-5.75684 -1.1426,-1.20114 -2.75881,-1.80173 -4.84863,-1.80175 -1.56252,2e-5 -3.03224,0.4053 -4.40918,1.21582 -1.37696,0.81057 -2.35841,1.9092 -2.94434,3.29589 -0.58594,1.38674 -0.87891,3.3008 -0.8789,5.74219 l 0,17.02149 z"
         id="path9411"
         inkscape:connector-curvature="0" />
      <path
         d="m 477.60071,352.07343 c 0,-5.7617 1.60156,-10.02928 4.80469,-12.80274 2.67577,-2.30466 5.93748,-3.457 9.78515,-3.45703 4.27732,3e-5 7.77341,1.4014 10.48828,4.2041 2.71482,2.80276 4.07224,6.67483 4.07227,11.61621 -3e-5,4.00392 -0.60062,7.15333 -1.80176,9.44824 -1.2012,2.29493 -2.94924,4.07716 -5.24414,5.34668 -2.29494,1.26954 -4.79982,1.9043 -7.51465,1.9043 -4.35548,0 -7.87598,-1.39648 -10.56152,-4.18945 -2.68555,-2.79296 -4.02832,-6.8164 -4.02832,-12.07031 z m 5.41992,0 c -10e-6,3.98438 0.86913,6.96778 2.60742,8.95019 1.73827,1.98243 3.92577,2.97364 6.5625,2.97363 2.61717,10e-6 4.7949,-0.99609 6.5332,-2.98828 1.73826,-1.99218 2.6074,-5.02928 2.60743,-9.11133 -3e-5,-3.84763 -0.87405,-6.76267 -2.62207,-8.74511 -1.74807,-1.9824 -3.92092,-2.97361 -6.51856,-2.97364 -2.63673,3e-5 -4.82423,0.98636 -6.5625,2.95899 -1.73829,1.97268 -2.60743,4.95119 -2.60742,8.93555 z"
         id="path9413"
         inkscape:connector-curvature="0" />
      <path
         d="m 512.96204,367.63007 0,-31.11329 4.74609,0 0,4.42383 c 2.28515,-3.41794 5.58592,-5.12692 9.90234,-5.12695 1.87498,3e-5 3.59861,0.33695 5.1709,1.01074 1.57224,0.67386 2.749,1.55765 3.53028,2.65137 0.78122,1.09378 1.32809,2.3926 1.64062,3.89648 0.19528,0.97659 0.29294,2.68557 0.29297,5.12696 l 0,19.13086 -5.27344,0 0,-18.92579 c -2e-5,-2.14841 -0.2051,-3.75486 -0.61523,-4.81933 -0.41018,-1.06443 -1.13772,-1.91404 -2.18262,-2.54883 -1.04494,-0.63474 -2.27053,-0.95212 -3.67676,-0.95215 -2.24611,3e-5 -4.18458,0.71292 -5.81543,2.13867 -1.63087,1.42581 -2.4463,4.13088 -2.44629,8.11524 l 0,16.99219 z"
         id="path9415"
         inkscape:connector-curvature="0" />
    </g>
    <g
       transform="translate(301.73411,-46.820805)"
       style="font-size:60px;font-style:normal;font-weight:normal;line-height:125%;letter-spacing:0px;word-spacing:0px;fill:#ffffff;fill-opacity:1;stroke:none;font-family:Sans"
       id="flowRoot9331">
      <path
         d="m 515.00391,705.63441 -11.39649,-42.94922 5.83008,0 6.5332,28.1543 c 0.70311,2.94923 1.30858,5.87891 1.81641,8.78906 1.09373,-4.58983 1.73826,-7.23632 1.93359,-7.93945 l 8.17383,-29.00391 6.85547,0 6.15234,21.73828 c 1.54293,5.39064 2.65621,10.459 3.33985,15.20508 0.54683,-2.71484 1.25972,-5.83007 2.13867,-9.3457 l 6.73828,-27.59766 5.71289,0 -11.77734,42.94922 -5.47852,0 -9.05273,-32.72461 c -0.76175,-2.73434 -1.21097,-4.41403 -1.34766,-5.03906 -0.44925,1.97269 -0.86917,3.65237 -1.25976,5.03906 l -9.11133,32.72461 z"
         id="path9358"
         inkscape:connector-curvature="0" />
      <path
         d="m 563.46094,668.74964 0,-6.06445 5.27343,0 0,6.06445 z m 0,36.88477 0,-31.11328 5.27343,0 0,31.11328 z"
         id="path9360"
         inkscape:connector-curvature="0" />
      <path
         d="m 576.67383,705.63441 0,-42.94922 5.27344,0 0,42.94922 z"
         id="path9362"
         inkscape:connector-curvature="0" />
      <path
         d="m 595.01367,705.63441 -4.89258,0 0,-42.94922 5.27344,0 0,15.32227 c 2.22655,-2.79294 5.06835,-4.18943 8.52539,-4.18946 1.91404,3e-5 3.72557,0.38578 5.43457,1.15723 1.70896,0.77151 3.11521,1.8555 4.21875,3.25195 1.10349,1.39651 1.96775,3.08108 2.59278,5.05371 0.62497,1.97268 0.93746,4.08205 0.9375,6.32813 -4e-5,5.33204 -1.31839,9.45313 -3.95508,12.36328 -2.63675,2.91016 -5.8008,4.36523 -9.49219,4.36523 -3.67189,0 -6.55275,-1.5332 -8.64258,-4.59961 z m -0.0586,-15.79102 c -10e-6,3.73048 0.5078,6.42579 1.52344,8.08594 1.66014,2.71485 3.90623,4.07227 6.73828,4.07227 2.30467,0 4.29685,-1.00098 5.97656,-3.00293 1.67966,-2.00195 2.51951,-4.98534 2.51953,-8.9502 -2e-5,-4.06248 -0.80569,-7.06052 -2.41699,-8.99414 -1.61135,-1.93357 -3.55959,-2.90036 -5.84473,-2.90039 -2.3047,3e-5 -4.29689,1.001 -5.97656,3.00293 -1.6797,2.00198 -2.51954,4.89748 -2.51953,8.68652 z"
         id="path9364"
         inkscape:connector-curvature="0" />
      <path
         d="m 644.84766,695.61488 5.44921,0.67383 c -0.8594,3.1836 -2.4512,5.6543 -4.77539,7.4121 -2.32424,1.75782 -5.29299,2.63672 -8.90625,2.63672 -4.55079,0 -8.15918,-1.40136 -10.82519,-4.2041 -2.66602,-2.80273 -3.99903,-6.73339 -3.99902,-11.79199 -10e-6,-5.23435 1.34765,-9.29685 4.04296,-12.1875 2.69531,-2.89059 6.1914,-4.33591 10.48829,-4.33594 4.16013,3e-5 7.55857,1.41605 10.19531,4.24805 2.63669,2.83206 3.95505,6.81643 3.95508,11.95312 -3e-5,0.31252 -0.01,0.78127 -0.0293,1.40625 l -23.20313,0 c 0.19531,3.41798 1.1621,6.03517 2.90039,7.85157 1.73827,1.81641 3.90624,2.72461 6.50391,2.72461 1.93358,0 3.58396,-0.50781 4.95117,-1.52344 1.36717,-1.01562 2.45115,-2.63671 3.25196,-4.86328 z m -17.31446,-8.52539 17.37305,0 c -0.2344,-2.61717 -0.89846,-4.58006 -1.99219,-5.88868 -1.67971,-2.03122 -3.85744,-3.04684 -6.5332,-3.04687 -2.42189,3e-5 -4.45802,0.81057 -6.1084,2.43164 -1.6504,1.62112 -2.56348,3.78908 -2.73926,6.50391 z"
         id="path9366"
         inkscape:connector-curvature="0" />
      <path
         d="m 656.88867,705.63441 0,-31.11328 4.7461,0 0,4.71679 c 1.21092,-2.207 2.32909,-3.66208 3.35449,-4.36523 1.02538,-0.70309 2.1533,-1.05466 3.38379,-1.05469 1.77732,3e-5 3.58396,0.56644 5.41992,1.69922 l -1.81641,4.89258 c -1.28908,-0.76169 -2.57814,-1.14255 -3.86719,-1.14258 -1.15235,3e-5 -2.18751,0.34671 -3.10546,1.04004 -0.91798,0.69338 -1.57228,1.6553 -1.96289,2.88574 -0.58595,1.87502 -0.87892,3.9258 -0.87891,6.15235 l 0,16.28906 z"
         id="path9368"
         inkscape:connector-curvature="0" />
      <path
         d="m 509.8916,761.88068 c -1.45508,-1.83594 -2.68555,-3.98438 -3.6914,-6.44531 -1.00587,-2.46094 -1.5088,-5.00976 -1.50879,-7.64649 -1e-5,-2.3242 0.37597,-4.55076 1.12793,-6.67968 0.8789,-2.47069 2.23632,-4.93162 4.07226,-7.38282 l 1.88965,0 c -1.18165,2.03127 -1.9629,3.48147 -2.34375,4.35059 -0.59571,1.34767 -1.06446,2.75392 -1.40625,4.21875 -0.41993,1.82618 -0.62989,3.66212 -0.62988,5.50781 -10e-6,4.69727 1.45995,9.38965 4.37988,14.07715 z"
         style="font-size:30px"
         id="path9370"
         inkscape:connector-curvature="0" />
      <path
         d="m 515.50195,755.5672 0,-13.50586 -2.3291,0 0,-2.05078 2.3291,0 0,-1.65527 c 0,-1.0449 0.0928,-1.82127 0.27832,-2.3291 0.25391,-0.68357 0.70068,-1.23777 1.34034,-1.6626 0.63964,-0.42478 1.53563,-0.63718 2.68798,-0.63721 0.74218,3e-5 1.5625,0.0879 2.46094,0.26368 l -0.39551,2.2998 c -0.54688,-0.0976 -1.06446,-0.14646 -1.55273,-0.14648 -0.80079,2e-5 -1.36719,0.17091 -1.69922,0.51269 -0.33204,0.34182 -0.49805,0.98146 -0.49805,1.91895 l 0,1.43554 3.03223,0 0,2.05078 -3.03223,0 0,13.50586 z"
         style="font-size:30px"
         id="path9372"
         inkscape:connector-curvature="0" />
      <path
         d="m 523.16309,755.5672 0,-15.55664 2.37304,0 0,2.3584 c 0.60547,-1.1035 1.16455,-1.83104 1.67725,-2.18262 0.51269,-0.35154 1.07665,-0.52732 1.69189,-0.52734 0.88867,2e-5 1.79199,0.28322 2.70996,0.84961 l -0.9082,2.44629 c -0.64454,-0.38085 -1.28907,-0.57128 -1.93359,-0.57129 -0.57618,10e-6 -1.09376,0.17335 -1.55274,0.52002 -0.45899,0.34669 -0.78613,0.82765 -0.98144,1.44287 -0.29298,0.93751 -0.43946,1.9629 -0.43946,3.07617 l 0,8.14453 z"
         style="font-size:30px"
         id="path9374"
         inkscape:connector-curvature="0" />
      <path
         d="m 532.23047,747.78888 c 0,-2.88084 0.80078,-5.01463 2.40234,-6.40136 1.33789,-1.15233 2.96875,-1.7285 4.89258,-1.72852 2.13866,2e-5 3.88671,0.7007 5.24414,2.10205 1.35741,1.40138 2.03612,3.33741 2.03613,5.80811 -10e-6,2.00196 -0.3003,3.57666 -0.90087,4.72412 -0.6006,1.14746 -1.47463,2.03857 -2.62208,2.67334 -1.14747,0.63476 -2.39991,0.95215 -3.75732,0.95215 -2.17774,0 -3.93799,-0.69825 -5.28076,-2.09473 -1.34278,-1.39648 -2.01416,-3.4082 -2.01416,-6.03516 z m 2.70996,0 c 0,1.9922 0.43457,3.4839 1.30371,4.4751 0.86914,0.99121 1.96288,1.48682 3.28125,1.48682 1.30858,0 2.39745,-0.49805 3.2666,-1.49414 0.86913,-0.99609 1.3037,-2.51465 1.30371,-4.55567 -10e-6,-1.92381 -0.43702,-3.38133 -1.31103,-4.37256 -0.87404,-0.99119 -1.96046,-1.4868 -3.25928,-1.48681 -1.31837,10e-6 -2.41211,0.49318 -3.28125,1.47949 -0.86914,0.98634 -1.30371,2.4756 -1.30371,4.46777 z"
         style="font-size:30px"
         id="path9376"
         inkscape:connector-curvature="0" />
      <path
         d="m 549.91113,755.5672 0,-15.55664 2.3584,0 0,2.18262 c 0.48828,-0.7617 1.13769,-1.3745 1.94824,-1.83838 0.81054,-0.46385 1.73339,-0.69578 2.76856,-0.6958 1.15233,2e-5 2.09715,0.23927 2.83447,0.71777 0.73729,0.47853 1.25731,1.14748 1.56006,2.00684 1.23045,-1.81639 2.83201,-2.72459 4.80469,-2.72461 1.54295,2e-5 2.72947,0.42726 3.55957,1.28174 0.83005,0.85451 1.24509,2.17042 1.24511,3.94775 l 0,10.67871 -2.62207,0 0,-9.7998 c -2e-5,-1.05468 -0.0855,-1.81395 -0.25634,-2.27783 -0.17092,-0.46386 -0.48098,-0.83739 -0.93018,-1.12061 -0.44924,-0.28319 -0.97658,-0.42479 -1.58203,-0.4248 -1.09377,10e-6 -2.00197,0.36378 -2.72461,1.09131 -0.72267,0.72755 -1.084,1.8921 -1.08398,3.49365 l 0,9.03808 -2.63672,0 0,-10.10742 c -1e-5,-1.17186 -0.21486,-2.05077 -0.64453,-2.63672 -0.4297,-0.58592 -1.13283,-0.87889 -2.10938,-0.8789 -0.74219,10e-6 -1.42823,0.19532 -2.0581,0.58593 -0.62989,0.39064 -1.08644,0.96193 -1.36963,1.71387 -0.28321,0.75197 -0.42481,1.83595 -0.42481,3.25196 l 0,8.07128 z"
         style="font-size:30px"
         id="path9378"
         inkscape:connector-curvature="0" />
      <path
         d="m 593.63672,747.14435 0,-2.51953 9.09668,-0.0146 0,7.96875 c -1.39651,1.11329 -2.83693,1.95069 -4.32129,2.51221 -1.48439,0.56152 -3.00783,0.84228 -4.57031,0.84229 -2.10939,-1e-5 -4.02589,-0.45166 -5.74951,-1.35499 -1.72364,-0.90331 -3.02491,-2.20946 -3.90381,-3.91845 -0.87891,-1.70898 -1.31836,-3.61816 -1.31836,-5.72754 0,-2.08983 0.43701,-4.04051 1.31103,-5.85205 0.87402,-1.81151 2.13134,-3.15672 3.77197,-4.03565 1.64062,-0.87888 3.53027,-1.31833 5.66895,-1.31836 1.55272,3e-5 2.95653,0.25149 4.21143,0.7544 1.25486,0.50295 2.23875,1.20363 2.95166,2.10205 0.71287,0.89845 1.25486,2.07033 1.62597,3.51562 l -2.56347,0.70313 c -0.32229,-1.09373 -0.72268,-1.95311 -1.20118,-2.57813 -0.47853,-0.62498 -1.16212,-1.12547 -2.05078,-1.50146 -0.88868,-0.37596 -1.87501,-0.56395 -2.95898,-0.56397 -1.29884,2e-5 -2.42189,0.19778 -3.36914,0.59327 -0.94728,0.39552 -1.71143,0.91554 -2.29248,1.56005 -0.58106,0.64455 -1.03272,1.35256 -1.35498,2.12403 -0.54688,1.32814 -0.82032,2.76857 -0.82032,4.32129 0,1.91407 0.32959,3.51563 0.98877,4.80468 0.65918,1.28907 1.61865,2.2461 2.87842,2.8711 1.25976,0.625 2.59765,0.9375 4.01367,0.9375 1.23046,0 2.43163,-0.23682 3.60352,-0.71045 1.17186,-0.47363 2.06053,-0.979 2.66602,-1.51611 l 0,-3.99903 z"
         style="font-size:30px"
         id="path9380"
         inkscape:connector-curvature="0" />
      <path
         d="m 606.58594,737.12482 0,-3.03223 2.63672,0 0,3.03223 z m 0,18.44238 0,-15.55664 2.63672,0 0,15.55664 z"
         style="font-size:30px"
         id="path9382"
         inkscape:connector-curvature="0" />
      <path
         d="m 613.25098,755.5672 0,-15.55664 2.35839,0 0,2.18262 c 0.48828,-0.7617 1.13769,-1.3745 1.94825,-1.83838 0.81054,-0.46385 1.73339,-0.69578 2.76855,-0.6958 1.15234,2e-5 2.09716,0.23927 2.83447,0.71777 0.7373,0.47853 1.25732,1.14748 1.56006,2.00684 1.23046,-1.81639 2.83202,-2.72459 4.80469,-2.72461 1.54295,2e-5 2.72947,0.42726 3.55957,1.28174 0.83006,0.85451 1.2451,2.17042 1.24512,3.94775 l 0,10.67871 -2.62207,0 0,-9.7998 c -2e-5,-1.05468 -0.0855,-1.81395 -0.25635,-2.27783 -0.17092,-0.46386 -0.48098,-0.83739 -0.93018,-1.12061 -0.44923,-0.28319 -0.97658,-0.42479 -1.58203,-0.4248 -1.09376,10e-6 -2.00197,0.36378 -2.72461,1.09131 -0.72267,0.72755 -1.08399,1.8921 -1.08398,3.49365 l 0,9.03808 -2.63672,0 0,-10.10742 c -10e-6,-1.17186 -0.21485,-2.05077 -0.64453,-2.63672 -0.4297,-0.58592 -1.13282,-0.87889 -2.10938,-0.8789 -0.74219,10e-6 -1.42823,0.19532 -2.0581,0.58593 -0.62989,0.39064 -1.08643,0.96193 -1.36963,1.71387 -0.28321,0.75197 -0.42481,1.83595 -0.4248,3.25196 l 0,8.07128 z"
         style="font-size:30px"
         id="path9384"
         inkscape:connector-curvature="0" />
      <path
         d="m 638.27051,761.52912 0,-21.51856 2.40234,0 0,2.02149 c 0.5664,-0.791 1.20605,-1.38426 1.91895,-1.77979 0.71288,-0.39549 1.57714,-0.59324 2.59277,-0.59326 1.32812,2e-5 2.49999,0.34181 3.51563,1.02539 1.01561,0.68361 1.78221,1.64796 2.2998,2.89307 0.51756,1.24513 0.77635,2.60987 0.77637,4.09424 -2e-5,1.5918 -0.28566,3.0249 -0.85694,4.29931 -0.5713,1.27442 -1.40138,2.25098 -2.49023,2.92969 -1.08888,0.67871 -2.2339,1.01807 -3.43506,1.01807 -0.87891,0 -1.66749,-0.18555 -2.36572,-0.55664 -0.69825,-0.3711 -1.27198,-0.83985 -1.72119,-1.40625 l 0,7.57324 z m 2.38769,-13.65235 c 0,2.00196 0.40527,3.48145 1.21582,4.43848 0.81054,0.95703 1.79199,1.43555 2.94434,1.43555 1.17186,0 2.17528,-0.49561 3.01025,-1.48682 0.83495,-0.9912 1.25243,-2.52685 1.25244,-4.60693 -10e-6,-1.98241 -0.40772,-3.46679 -1.22314,-4.45313 -0.81544,-0.98631 -1.78956,-1.47948 -2.92236,-1.47949 -1.12306,10e-6 -2.11671,0.52492 -2.98096,1.57471 -0.86426,1.04981 -1.29639,2.57569 -1.29639,4.57763 z"
         style="font-size:30px"
         id="path9386"
         inkscape:connector-curvature="0" />
      <path
         d="m 656.69824,761.88068 -1.88965,0 c 2.91992,-4.6875 4.37988,-9.37988 4.37989,-14.07715 -10e-6,-1.83593 -0.20997,-3.65721 -0.62989,-5.46386 -0.33203,-1.46483 -0.7959,-2.87108 -1.3916,-4.21875 -0.38086,-0.87889 -1.16699,-2.34373 -2.3584,-4.39454 l 1.88965,0 c 1.83593,2.4512 3.19335,4.91213 4.07227,7.38282 0.75194,2.12892 1.12792,4.35548 1.12793,6.67968 -1e-5,2.63673 -0.50538,5.18555 -1.51612,7.64649 -1.01074,2.46093 -2.23877,4.60937 -3.68408,6.44531 z"
         style="font-size:30px"
         id="path9388"
         inkscape:connector-curvature="0" />
    </g>
    <g
       transform="translate(78.034683,-48.554914)"
       style="font-size:60px;font-style:normal;font-weight:normal;line-height:125%;letter-spacing:0px;word-spacing:0px;fill:#ffffff;fill-opacity:1;stroke:none;font-family:Sans"
       id="flowRoot9311">
      <path
         d="m 832.30664,511.41566 0,-37.88086 -14.15039,0 0,-5.06836 34.04297,0 0,5.06836 -14.20899,0 0,37.88086 z"
         id="path9391"
         inkscape:connector-curvature="0" />
      <path
         d="m 877.77539,511.41566 0,-4.57031 c -2.4219,3.51562 -5.71291,5.27343 -9.87305,5.27343 -1.83595,0 -3.54981,-0.35156 -5.1416,-1.05468 -1.5918,-0.70313 -2.77344,-1.58692 -3.54492,-2.65137 -0.77149,-1.06445 -1.31348,-2.36816 -1.62598,-3.91113 -0.21484,-1.03515 -0.32227,-2.67578 -0.32226,-4.92188 l 0,-19.27734 5.27344,0 0,17.25586 c -10e-6,2.75391 0.10741,4.60938 0.32226,5.5664 0.33202,1.38673 1.03515,2.47559 2.10938,3.2666 1.0742,0.79102 2.40233,1.18653 3.98437,1.18653 1.58202,0 3.06639,-0.40527 4.45313,-1.21582 1.38669,-0.81054 2.36814,-1.91406 2.94433,-3.31055 0.57615,-1.39647 0.86424,-3.42284 0.86426,-6.0791 l 0,-16.66992 5.27344,0 0,31.11328 z"
         id="path9393"
         inkscape:connector-curvature="0" />
      <path
         d="m 887.26758,511.41566 11.36719,-16.17188 -10.51758,-14.9414 6.59179,0 4.77539,7.29492 c 0.89843,1.38674 1.62108,2.54885 2.16797,3.48633 0.85936,-1.28904 1.65038,-2.43162 2.37305,-3.42774 l 5.24414,-7.35351 6.29883,0 -10.75195,14.64843 11.57226,16.46485 -6.47461,0 -6.38672,-9.66797 -1.69922,-2.60742 -8.17382,12.27539 z"
         id="path9395"
         inkscape:connector-curvature="0" />
    </g>
  </g>
</svg>
