<?xml version="1.0" encoding="UTF-8" standalone="no"?>
<!-- Created with Inkscape (http://www.inkscape.org/) -->

<svg
   xmlns:dc="http://purl.org/dc/elements/1.1/"
   xmlns:cc="http://creativecommons.org/ns#"
   xmlns:rdf="http://www.w3.org/1999/02/22-rdf-syntax-ns#"
   xmlns:svg="http://www.w3.org/2000/svg"
   xmlns="http://www.w3.org/2000/svg"
   xmlns:sodipodi="http://sodipodi.sourceforge.net/DTD/sodipodi-0.dtd"
   xmlns:inkscape="http://www.inkscape.org/namespaces/inkscape"
   width="354.06683"
   height="104.63004"
   id="svg2"
   version="1.1"
   inkscape:version="0.48.1 "
   sodipodi:docname="mmcredits.svg">
  <defs
     id="defs4">
    <filter
       id="filter3001"
       inkscape:label="Glow"
       inkscape:menu="Shadows and Glows"
       inkscape:menu-tooltip="Glow of object's own color at the edges"
       color-interpolation-filters="sRGB">
      <feGaussianBlur
         id="feGaussianBlur3003"
         stdDeviation="5"
         result="result91" />
      <feComposite
         id="feComposite3005"
         in2="result91"
         in="SourceGraphic"
         operator="over" />
    </filter>
    <filter
       id="filter3001-1"
       inkscape:label="Glow"
       inkscape:menu="Shadows and Glows"
       inkscape:menu-tooltip="Glow of object's own color at the edges"
       color-interpolation-filters="sRGB">
      <feGaussianBlur
         id="feGaussianBlur3003-5"
         stdDeviation="5"
         result="result91" />
      <feComposite
         id="feComposite3005-5"
         in2="result91"
         in="SourceGraphic"
         operator="over" />
    </filter>
    <filter
       id="filter3179"
       inkscape:label="Glow"
       inkscape:menu="Shadows and Glows"
       inkscape:menu-tooltip="Glow of object's own color at the edges"
       color-interpolation-filters="sRGB">
      <feGaussianBlur
         id="feGaussianBlur3181"
         stdDeviation="5"
         result="result91" />
      <feComposite
         id="feComposite3183"
         in2="result91"
         in="SourceGraphic"
         operator="over" />
    </filter>
    <filter
       id="filter3179-5"
       inkscape:label="Glow"
       inkscape:menu="Shadows and Glows"
       inkscape:menu-tooltip="Glow of object's own color at the edges"
       color-interpolation-filters="sRGB">
      <feGaussianBlur
         id="feGaussianBlur3181-2"
         stdDeviation="5"
         result="result91" />
      <feComposite
         id="feComposite3183-2"
         in2="result91"
         in="SourceGraphic"
         operator="over" />
    </filter>
    <filter
       id="filter3179-1"
       inkscape:label="Glow"
       inkscape:menu="Shadows and Glows"
       inkscape:menu-tooltip="Glow of object's own color at the edges"
       color-interpolation-filters="sRGB">
      <feGaussianBlur
         id="feGaussianBlur3181-5"
         stdDeviation="5"
         result="result91" />
      <feComposite
         id="feComposite3183-6"
         in2="result91"
         in="SourceGraphic"
         operator="over" />
    </filter>
    <filter
       id="filter3179-9"
       inkscape:label="Glow"
       inkscape:menu="Shadows and Glows"
       inkscape:menu-tooltip="Glow of object's own color at the edges"
       color-interpolation-filters="sRGB">
      <feGaussianBlur
         id="feGaussianBlur3181-1"
         stdDeviation="5"
         result="result91" />
      <feComposite
         id="feComposite3183-5"
         in2="result91"
         in="SourceGraphic"
         operator="over" />
    </filter>
    <filter
       id="filter3179-5-9"
       inkscape:label="Glow"
       inkscape:menu="Shadows and Glows"
       inkscape:menu-tooltip="Glow of object's own color at the edges"
       color-interpolation-filters="sRGB">
      <feGaussianBlur
         id="feGaussianBlur3181-2-5"
         stdDeviation="5"
         result="result91" />
      <feComposite
         id="feComposite3183-2-0"
         in2="result91"
         in="SourceGraphic"
         operator="over" />
    </filter>
  </defs>
  <sodipodi:namedview
     id="base"
     pagecolor="#ffffff"
     bordercolor="#666666"
     borderopacity="1.0"
     inkscape:pageopacity="0.0"
     inkscape:pageshadow="2"
     inkscape:zoom="0.57666667"
     inkscape:cx="286.6185"
     inkscape:cy="-58.912513"
     inkscape:document-units="px"
     inkscape:current-layer="layer3"
     showgrid="false"
     inkscape:window-width="1280"
     inkscape:window-height="738"
     inkscape:window-x="-8"
     inkscape:window-y="-8"
     inkscape:window-maximized="1"
     fit-margin-top="0"
     fit-margin-left="0"
     fit-margin-right="0"
     fit-margin-bottom="0" />
  <metadata
     id="metadata7">
    <rdf:RDF>
      <cc:Work
         rdf:about="">
        <dc:format>image/svg+xml</dc:format>
        <dc:type
           rdf:resource="http://purl.org/dc/dcmitype/StillImage" />
        <dc:title />
      </cc:Work>
    </rdf:RDF>
  </metadata>
  <g
     inkscape:groupmode="layer"
     id="layer3"
     inkscape:label="Layer"
     transform="translate(-157.54291,-803.40491)"
     style="display:inline">
    <flowRoot
       xml:space="preserve"
       id="flowRoot3143"
       style="font-size:40px;font-style:normal;font-weight:normal;line-height:125%;letter-spacing:0px;word-spacing:0px;fill:#000000;fill-opacity:1;stroke:none;font-family:Sans"><flowRegion
         id="flowRegion3145"><rect
           id="rect3147"
           width="571.80371"
           height="87.189934"
           x="58.802509"
           y="458.25406" /></flowRegion><flowPara
         id="flowPara3149" /></flowRoot>    <g
       transform="translate(212.48792,172.35218)"
       style="font-size:64px;font-style:normal;font-weight:normal;line-height:125%;letter-spacing:0px;word-spacing:0px;fill:#ffffff;fill-opacity:1;stroke:none;font-family:Sans"
       id="flowRoot3167">
      <path
         d="m 57.90625,684.2267 6.0625,1.53125 c -1.270876,4.97918 -3.557332,8.77605 -6.859375,11.39063 -3.302117,2.61458 -7.338571,3.92187 -12.109375,3.92187 -4.93752,0 -8.953141,-1.00521 -12.046875,-3.01562 -3.09376,-2.01041 -5.447924,-4.92187 -7.0625,-8.73438 -1.614587,-3.81248 -2.421878,-7.90623 -2.421875,-12.28125 -3e-6,-4.7708 0.911454,-8.93226 2.734375,-12.48437 1.822909,-3.55205 4.416656,-6.24996 7.78125,-8.09375 3.364566,-1.84371 7.067688,-2.76558 11.109375,-2.76563 4.583304,5e-5 8.437467,1.16671 11.5625,3.5 3.12496,2.33338 5.302042,5.61462 6.53125,9.84375 l -5.96875,1.40625 c -1.062536,-3.3333 -2.604201,-5.76038 -4.625,-7.28125 -2.020864,-1.52079 -4.562528,-2.28121 -7.625,-2.28125 -3.520854,4e-5 -6.46356,0.84379 -8.828125,2.53125 -2.364597,1.68754 -4.026054,3.95316 -4.984375,6.79688 -0.958343,2.84378 -1.437509,5.77607 -1.4375,8.79687 -9e-6,3.89586 0.567698,7.29689 1.703125,10.20313 1.135404,2.90626 2.901028,5.07813 5.296875,6.51562 2.395814,1.43751 4.989562,2.15626 7.78125,2.15625 3.395806,10e-6 6.270803,-0.97916 8.625,-2.9375 2.354131,-1.95832 3.94788,-4.86457 4.78125,-8.71875 z"
         style=""
         id="path3220" />
      <path
         d="m 70.6875,700.2892 0,-33.1875 5.0625,0 0,5.03125 c 1.291656,-2.35413 2.484363,-3.90622 3.578125,-4.65625 1.093736,-0.74996 2.29686,-1.12496 3.609375,-1.125 1.895815,4e-5 3.822896,0.6042 5.78125,1.8125 l -1.9375,5.21875 c -1.375019,-0.81247 -2.750017,-1.21872 -4.125,-1.21875 -1.229182,3e-5 -2.333347,0.36982 -3.3125,1.10938 -0.979179,0.73961 -1.677094,1.76565 -2.09375,3.07812 -0.62501,2.00002 -0.93751,4.18752 -0.9375,6.5625 l 0,17.375 z"
         style=""
         id="path3222" />
      <path
         d="m 114.84375,689.6017 5.8125,0.71875 c -0.9167,3.39584 -2.61461,6.03126 -5.09375,7.90625 -2.47919,1.875 -5.64586,2.8125 -9.5,2.8125 -4.85418,0 -8.703134,-1.49479 -11.546875,-4.48437 -2.843754,-2.98958 -4.265627,-7.18228 -4.265625,-12.57813 -2e-6,-5.58331 1.437496,-9.91664 4.3125,-13 2.87499,-3.0833 6.60415,-4.62496 11.1875,-4.625 4.43748,4e-5 8.06247,1.51045 10.875,4.53125 2.81247,3.02086 4.21872,7.27086 4.21875,12.75 -3e-5,0.33335 -0.0105,0.83335 -0.0312,1.5 l -24.75,0 c 0.208325,3.64585 1.239574,6.43751 3.09375,8.375 1.85415,1.93751 4.16665,2.90626 6.9375,2.90625 2.06248,10e-6 3.82289,-0.54166 5.28125,-1.625 1.45831,-1.08332 2.61456,-2.81249 3.46875,-5.1875 z m -18.46875,-9.09375 18.53125,0 c -0.25003,-2.79164 -0.95836,-4.88539 -2.125,-6.28125 -1.79169,-2.16664 -4.1146,-3.24997 -6.96875,-3.25 -2.58335,3e-5 -4.75522,0.86461 -6.515625,2.59375 -1.760426,1.72919 -2.734384,4.04169 -2.921875,6.9375 z"
         style=""
         id="path3224" />
      <path
         d="m 149.28125,700.2892 0,-4.1875 c -2.10419,3.29167 -5.19794,4.9375 -9.28125,4.9375 -2.64585,0 -5.07814,-0.72916 -7.29688,-2.1875 -2.21875,-1.45833 -3.9375,-3.49478 -5.15624,-6.10937 -1.21876,-2.61458 -1.82813,-5.61978 -1.82813,-9.01563 0,-3.31248 0.55208,-6.31768 1.65625,-9.01562 1.10416,-2.69789 2.76041,-4.7656 4.96875,-6.20313 2.20832,-1.43746 4.67707,-2.15621 7.40625,-2.15625 1.99998,4e-5 3.78123,0.42191 5.34375,1.26563 1.56248,0.84378 2.83331,1.94274 3.8125,3.29687 l 0,-16.4375 5.59375,0 0,45.8125 z M 131.5,683.7267 c -1e-5,4.25001 0.89582,7.42709 2.6875,9.53125 1.79165,2.10417 3.90624,3.15626 6.34375,3.15625 2.45831,10e-6 4.54685,-1.0052 6.26562,-3.01562 1.71873,-2.01041 2.5781,-5.07812 2.57813,-9.20313 -3e-5,-4.54164 -0.87502,-7.87497 -2.625,-10 -1.75002,-2.12497 -3.90627,-3.18747 -6.46875,-3.1875 -2.50001,3e-5 -4.58855,1.02086 -6.26563,3.0625 -1.67709,2.04169 -2.51563,5.26044 -2.51562,9.65625 z"
         style=""
         id="path3226" />
      <path
         d="m 163.40625,660.94545 0,-6.46875 5.625,0 0,6.46875 z m 0,39.34375 0,-33.1875 5.625,0 0,33.1875 z"
         style=""
         id="path3228" />
      <path
         d="m 189.90625,695.25795 0.8125,4.96875 c -1.58335,0.33334 -3.00001,0.5 -4.25,0.5 -2.04168,0 -3.62501,-0.32291 -4.75,-0.96875 -1.12501,-0.64583 -1.91667,-1.49479 -2.375,-2.54687 -0.45834,-1.05208 -0.68751,-3.26562 -0.6875,-6.64063 l 0,-19.09375 -4.125,0 0,-4.375 4.125,0 0,-8.21875 5.59375,-3.375 0,11.59375 5.65625,0 0,4.375 -5.65625,0 0,19.40625 c -1e-5,1.60418 0.099,2.63543 0.29687,3.09375 0.19791,0.45834 0.52083,0.82292 0.96875,1.09375 0.44791,0.27084 1.08853,0.40626 1.92188,0.40625 0.62499,10e-6 1.4479,-0.0729 2.46875,-0.21875 z"
         style=""
         id="path3230" />
      <path
         d="m 193.125,690.38295 5.5625,-0.875 c 0.31249,2.22918 1.18228,3.93751 2.60937,5.125 1.42708,1.18751 3.42187,1.78126 5.98438,1.78125 2.58331,10e-6 4.49998,-0.52603 5.75,-1.57812 1.24998,-1.05208 1.87498,-2.28645 1.875,-3.70313 -2e-5,-1.27082 -0.55211,-2.27082 -1.65625,-3 -0.77085,-0.49998 -2.68752,-1.1354 -5.75,-1.90625 -4.12501,-1.04165 -6.98438,-1.94269 -8.57813,-2.70312 -1.59375,-0.7604 -2.80208,-1.81248 -3.625,-3.15625 -0.82291,-1.34373 -1.23437,-2.8281 -1.23437,-4.45313 0,-1.47914 0.33854,-2.84893 1.01562,-4.10937 0.67708,-1.26039 1.59896,-2.30726 2.76563,-3.14063 0.87499,-0.6458 2.0677,-1.19267 3.57812,-1.64062 1.51041,-0.44789 3.1302,-0.67184 4.85938,-0.67188 2.60415,4e-5 4.8906,0.37504 6.85937,1.125 1.96873,0.75003 3.42185,1.76566 4.35938,3.04688 0.93747,1.28128 1.58331,2.99482 1.9375,5.14062 l -5.5,0.75 c -0.25002,-1.70831 -0.97398,-3.04164 -2.17188,-4 -1.19793,-0.9583 -2.89064,-1.43747 -5.07812,-1.4375 -2.58335,3e-5 -4.42709,0.42711 -5.53125,1.28125 -1.10418,0.8542 -1.65626,1.8542 -1.65625,3 -1e-5,0.72919 0.22916,1.38544 0.6875,1.96875 0.45832,0.60419 1.17707,1.10419 2.15625,1.5 0.56249,0.20836 2.21874,0.68752 4.96875,1.4375 3.97915,1.06252 6.75519,1.93231 8.32812,2.60938 1.5729,0.6771 2.80727,1.66147 3.70313,2.95312 0.8958,1.29168 1.34372,2.89585 1.34375,4.8125 -3e-5,1.87501 -0.5469,3.64063 -1.64063,5.29688 -1.09377,1.65625 -2.6719,2.9375 -4.73437,3.84375 -2.06252,0.90625 -4.39585,1.35937 -7,1.35937 -4.31251,0 -7.59897,-0.89583 -9.85938,-2.6875 -2.26042,-1.79166 -3.70312,-4.44791 -4.32812,-7.96875 z"
         style=""
         id="path3232" />
    </g>
  </g>
  <g
     inkscape:groupmode="layer"
     id="layer4"
     inkscape:label="GREEN"
     style="display:inline"
     transform="translate(-422.97687,-756.62508)" />
</svg>
