<?xml version="1.0" encoding="UTF-8" standalone="no"?>
<!-- Created with Inkscape (http://www.inkscape.org/) -->

<svg
   xmlns:dc="http://purl.org/dc/elements/1.1/"
   xmlns:cc="http://creativecommons.org/ns#"
   xmlns:rdf="http://www.w3.org/1999/02/22-rdf-syntax-ns#"
   xmlns:svg="http://www.w3.org/2000/svg"
   xmlns="http://www.w3.org/2000/svg"
   version="1.2"
   width="426.63751"
   height="163.72501"
   id="svg2">
  <defs
     id="defs4">
    <filter
       color-interpolation-filters="sRGB"
       id="filter3001">
      <feGaussianBlur
         result="result91"
         stdDeviation="5"
         id="feGaussianBlur3003" />
      <feComposite
         in2="result91"
         operator="over"
         in="SourceGraphic"
         id="feComposite3005" />
    </filter>
    <filter
       color-interpolation-filters="sRGB"
       id="filter3001-1">
      <feGaussianBlur
         result="result91"
         stdDeviation="5"
         id="feGaussianBlur3003-5" />
      <feComposite
         in2="result91"
         operator="over"
         in="SourceGraphic"
         id="feComposite3005-5" />
    </filter>
    <filter
       color-interpolation-filters="sRGB"
       id="filter3179">
      <feGaussianBlur
         result="result91"
         stdDeviation="5"
         id="feGaussianBlur3181" />
      <feComposite
         in2="result91"
         operator="over"
         in="SourceGraphic"
         id="feComposite3183" />
    </filter>
    <filter
       color-interpolation-filters="sRGB"
       id="filter3179-5">
      <feGaussianBlur
         result="result91"
         stdDeviation="5"
         id="feGaussianBlur3181-2" />
      <feComposite
         in2="result91"
         operator="over"
         in="SourceGraphic"
         id="feComposite3183-2" />
    </filter>
    <filter
       color-interpolation-filters="sRGB"
       id="filter3179-1">
      <feGaussianBlur
         result="result91"
         stdDeviation="5"
         id="feGaussianBlur3181-5" />
      <feComposite
         in2="result91"
         operator="over"
         in="SourceGraphic"
         id="feComposite3183-6" />
    </filter>
    <filter
       color-interpolation-filters="sRGB"
       id="filter3179-9">
      <feGaussianBlur
         result="result91"
         stdDeviation="5"
         id="feGaussianBlur3181-1" />
      <feComposite
         in2="result91"
         operator="over"
         in="SourceGraphic"
         id="feComposite3183-5" />
    </filter>
    <filter
       color-interpolation-filters="sRGB"
       id="filter3179-5-9">
      <feGaussianBlur
         result="result91"
         stdDeviation="5"
         id="feGaussianBlur3181-2-5" />
      <feComposite
         in2="result91"
         operator="over"
         in="SourceGraphic"
         id="feComposite3183-2-0" />
    </filter>
  </defs>
  <metadata
     id="metadata7">
    <rdf:RDF>
      <cc:Work
         rdf:about="">
        <dc:format>image/svg+xml</dc:format>
        <dc:type
           rdf:resource="http://purl.org/dc/dcmitype/StillImage" />
        <dc:title></dc:title>
      </cc:Work>
    </rdf:RDF>
  </metadata>
  <g
     transform="translate(-121.25937,-263.7)"
     id="layer3"
     style="display:inline">
    <g
       transform="translate(369.60413,0)"
       id="flowRoot3135"
       style="font-size:100px;font-style:normal;font-weight:normal;line-height:125%;letter-spacing:0px;word-spacing:0px;fill:#ffffff;fill-opacity:1;stroke:none;font-family:Sans">
      <path
         d="M -138.28516,377.55735 L -138.28516,305.97532 L -111.2832,305.97532 C -106.53064,305.97539 -102.90108,306.20325 -100.39453,306.65891 C -96.878955,307.24492 -93.932995,308.35983 -91.556641,310.00364 C -89.180395,311.64758 -87.267962,313.95064 -85.819336,316.91282 C -84.37083,319.87511 -83.646547,323.13032 -83.646484,326.67844 C -83.646547,332.76573 -85.583394,337.91709 -89.457031,342.13254 C -93.330782,346.34807 -100.32947,348.45581 -110.45313,348.45579 L -128.8125,348.45579 L -128.8125,377.55735 z M -128.8125,340.00852 L -110.30664,340.00852 C -104.18689,340.00856 -99.841192,338.86924 -97.269531,336.59055 C -94.697968,334.31195 -93.412162,331.10557 -93.412109,326.97141 C -93.412162,323.97667 -94.168997,321.4132 -95.682617,319.28098 C -97.196338,317.14888 -99.190151,315.741 -101.66406,315.05735 C -103.25916,314.63423 -106.20512,314.42265 -110.50195,314.42258 L -128.8125,314.42258 z"
         id="path3578" />
      <path
         d="M -72.806641,377.55735 L -72.806641,305.97532 L -64.017578,305.97532 L -64.017578,377.55735 z"
         id="path3580" />
      <path
         d="M -16.507812,371.16086 C -19.763058,373.92779 -22.896193,375.88092 -25.907227,377.02024 C -28.918322,378.15956 -32.149113,378.72922 -35.599609,378.72922 C -41.29624,378.72922 -45.67449,377.33762 -48.734375,374.55442 C -51.794276,371.77122 -53.324222,368.21491 -53.324219,363.88547 C -53.324222,361.34643 -52.746423,359.02709 -51.59082,356.92746 C -50.435228,354.82788 -48.921557,353.14331 -47.049805,351.87375 C -45.178072,350.60425 -43.070326,349.64396 -40.726562,348.99289 C -39.00132,348.53719 -36.397156,348.09774 -32.914062,347.67454 C -25.817739,346.82821 -20.593135,345.8191 -17.240234,344.64719 C -17.207724,343.4428 -17.191444,342.67783 -17.191404,342.35227 C -17.191444,338.77158 -18.021521,336.2488 -19.681639,334.78391 C -21.927767,332.79828 -25.264353,331.80544 -29.691404,331.80539 C -33.825542,331.80544 -36.877297,332.52972 -38.846678,333.97825 C -40.816095,335.42686 -42.272799,337.99033 -43.216795,341.66868 L -51.810545,340.4968 C -51.029301,336.81846 -49.743495,333.84808 -47.953123,331.58567 C -46.162769,329.32335 -43.574881,327.58181 -40.189451,326.36106 C -36.804055,325.14041 -32.881532,324.53006 -28.421873,324.53 C -23.994823,324.53006 -20.397821,325.05089 -17.630857,326.0925 C -14.863972,327.13422 -12.829469,328.44444 -11.527342,330.02317 C -10.225305,331.60199 -9.3138477,333.5958 -8.7929668,336.00461 C -8.5000464,337.50205 -8.3535622,340.20387 -8.3535136,344.11008 L -8.3535136,355.82883 C -8.3535622,363.99942 -8.1663879,369.16706 -7.7919902,371.33176 C -7.4176907,373.49648 -6.6771316,375.57167 -5.5703105,377.55735 L -14.749998,377.55735 C -15.661498,375.73443 -16.247435,373.60227 -16.50781,371.16086 z M -17.240234,351.53196 C -20.430375,352.83407 -25.215527,353.94083 -31.595703,354.85227 C -35.209006,355.37313 -37.764342,355.95906 -39.261719,356.61008 C -40.759131,357.26114 -41.914729,358.21329 -42.728516,359.46653 C -43.542331,360.7198 -43.949232,362.1114 -43.949219,363.64133 C -43.949232,365.98509 -43.062188,367.93822 -41.288086,369.50071 C -39.514015,371.06321 -36.917989,371.84446 -33.5,371.84446 C -30.11461,371.84446 -27.103545,371.1039 -24.466797,369.62278 C -21.830113,368.14167 -19.893266,366.1153 -18.65625,363.54368 C -17.712279,361.55801 -17.240274,358.62833 -17.240234,354.75461 z"
         id="path3582" />
      <path
         d="M 4.9277344,397.52805 L 3.9511719,389.2761 C 5.8717376,389.79692 7.5481683,390.05734 8.9804688,390.05735 C 10.933582,390.05734 12.49608,389.73181 13.667969,389.08079 C 14.839828,388.42973 15.800113,387.51828 16.548828,386.34641 C 17.102195,385.4675 17.997377,383.28651 19.234375,379.80344 C 19.397115,379.31516 19.657531,378.59901 20.015625,377.655 L 0.33789063,325.70188 L 9.8105469,325.70188 L 20.601562,355.73118 C 22.001279,359.53979 23.254533,363.54369 24.361328,367.74289 C 25.370416,363.70645 26.574842,359.76765 27.974609,355.92649 L 39.058594,325.70188 L 47.847656,325.70188 L 28.121094,378.43625 C 26.005181,384.13286 24.361302,388.05538 23.189453,390.20383 C 21.62693,393.10095 19.836567,395.22497 17.818359,396.5759 C 15.800113,397.92679 13.391261,398.60225 10.591797,398.60227 C 8.8990784,398.60225 7.0110594,398.24418 4.9277344,397.52805 z"
         id="path3584" />
      <path
         d="M 60.005859,359.78391 L 57.320312,321.84446 L 57.320312,305.97532 L 68.208984,305.97532 L 68.208984,321.84446 L 65.669922,359.78391 z M 57.710937,377.55735 L 57.710937,367.54758 L 67.818359,367.54758 L 67.818359,377.55735 z"
         id="path3586" />
    </g>
    <flowRoot
       id="flowRoot3143"
       xml:space="preserve"
       style="font-size:40px;font-style:normal;font-weight:normal;line-height:125%;letter-spacing:0px;word-spacing:0px;fill:#000000;fill-opacity:1;stroke:none;font-family:Sans"><flowRegion
         id="flowRegion3145"><rect
           width="571.80371"
           height="87.189934"
           x="58.802509"
           y="458.25406"
           id="rect3147" /></flowRegion><flowPara
         id="flowPara3149" /></flowRoot>  </g>
  <g
     transform="translate(-386.69333,-216.92016)"
     id="layer4"
     style="display:inline" />
</svg>
