<?xml version="1.0" encoding="UTF-8" standalone="no"?>
<!-- Created with Inkscape (http://www.inkscape.org/) -->

<svg
   xmlns:dc="http://purl.org/dc/elements/1.1/"
   xmlns:cc="http://creativecommons.org/ns#"
   xmlns:rdf="http://www.w3.org/1999/02/22-rdf-syntax-ns#"
   xmlns:svg="http://www.w3.org/2000/svg"
   xmlns="http://www.w3.org/2000/svg"
   xmlns:sodipodi="http://sodipodi.sourceforge.net/DTD/sodipodi-0.dtd"
   xmlns:inkscape="http://www.inkscape.org/namespaces/inkscape"
   width="451.38089"
   height="313.58853"
   id="svg2"
   version="1.1"
   inkscape:version="0.48.1 "
   sodipodi:docname="stbarrenselect.svg">
  <defs
     id="defs4">
    <inkscape:path-effect
       is_visible="true"
       id="path-effect4889"
       effect="spiro" />
    <inkscape:path-effect
       is_visible="true"
       id="path-effect4901"
       effect="spiro" />
    <inkscape:path-effect
       is_visible="true"
       id="path-effect5035"
       effect="spiro" />
    <inkscape:path-effect
       is_visible="true"
       id="path-effect4889-3"
       effect="spiro" />
    <inkscape:path-effect
       is_visible="true"
       id="path-effect4901-9"
       effect="spiro" />
    <inkscape:path-effect
       is_visible="true"
       id="path-effect5035-1"
       effect="spiro" />
    <marker
       inkscape:stockid="Arrow1Lend"
       orient="auto"
       refY="0"
       refX="0"
       id="Arrow1Lend"
       style="overflow:visible">
      <path
         id="path3945"
         d="M 0,0 5,-5 -12.5,0 5,5 0,0 z"
         style="fill-rule:evenodd;stroke:#000000;stroke-width:1pt;marker-start:none"
         transform="matrix(-0.8,0,0,-0.8,-10,0)"
         inkscape:connector-curvature="0" />
    </marker>
    <marker
       inkscape:stockid="Arrow1Lstart"
       orient="auto"
       refY="0"
       refX="0"
       id="Arrow1Lstart"
       style="overflow:visible">
      <path
         id="path3942"
         d="M 0,0 5,-5 -12.5,0 5,5 0,0 z"
         style="fill-rule:evenodd;stroke:#000000;stroke-width:1pt;marker-start:none"
         transform="matrix(0.8,0,0,0.8,10,0)"
         inkscape:connector-curvature="0" />
    </marker>
    <filter
       color-interpolation-filters="sRGB"
       inkscape:menu-tooltip="Glow of object's own color at the edges"
       inkscape:menu="Shadows and Glows"
       inkscape:label="Glow"
       id="filter2993">
      <feGaussianBlur
         result="result91"
         stdDeviation="5"
         id="feGaussianBlur2995" />
      <feComposite
         operator="over"
         in="SourceGraphic"
         in2="result91"
         id="feComposite2997" />
    </filter>
    <marker
       inkscape:stockid="Arrow1Lend"
       orient="auto"
       refY="0"
       refX="0"
       id="Arrow1Lend-7"
       style="overflow:visible">
      <path
         id="path3945-1"
         d="M 0,0 5,-5 -12.5,0 5,5 0,0 z"
         style="fill-rule:evenodd;stroke:#000000;stroke-width:1pt;marker-start:none"
         transform="matrix(-0.8,0,0,-0.8,-10,0)"
         inkscape:connector-curvature="0" />
    </marker>
    <marker
       inkscape:stockid="Arrow1Lstart"
       orient="auto"
       refY="0"
       refX="0"
       id="Arrow1Lstart-6"
       style="overflow:visible">
      <path
         id="path3942-2"
         d="M 0,0 5,-5 -12.5,0 5,5 0,0 z"
         style="fill-rule:evenodd;stroke:#000000;stroke-width:1pt;marker-start:none"
         transform="matrix(0.8,0,0,0.8,10,0)"
         inkscape:connector-curvature="0" />
    </marker>
    <filter
       color-interpolation-filters="sRGB"
       inkscape:menu-tooltip="Glow of object's own color at the edges"
       inkscape:menu="Shadows and Glows"
       inkscape:label="Glow"
       id="filter2993-2">
      <feGaussianBlur
         result="result91"
         stdDeviation="5"
         id="feGaussianBlur2995-1" />
      <feComposite
         operator="over"
         in="SourceGraphic"
         in2="result91"
         id="feComposite2997-4" />
    </filter>
    <filter
       id="filter4412-8"
       inkscape:label="Glow"
       inkscape:menu="Shadows and Glows"
       inkscape:menu-tooltip="Glow of object's own color at the edges"
       color-interpolation-filters="sRGB">
      <feGaussianBlur
         id="feGaussianBlur4414-5"
         stdDeviation="5"
         result="result91" />
      <feComposite
         id="feComposite4416-7"
         in2="result91"
         in="SourceGraphic"
         operator="over" />
    </filter>
    <filter
       id="filter4412-8-7"
       inkscape:label="Glow"
       inkscape:menu="Shadows and Glows"
       inkscape:menu-tooltip="Glow of object's own color at the edges"
       color-interpolation-filters="sRGB">
      <feGaussianBlur
         id="feGaussianBlur4414-5-0"
         stdDeviation="5"
         result="result91" />
      <feComposite
         id="feComposite4416-7-8"
         in2="result91"
         in="SourceGraphic"
         operator="over" />
    </filter>
    <filter
       id="filter4412-8-6"
       inkscape:label="Glow"
       inkscape:menu="Shadows and Glows"
       inkscape:menu-tooltip="Glow of object's own color at the edges"
       color-interpolation-filters="sRGB">
      <feGaussianBlur
         id="feGaussianBlur4414-5-8"
         stdDeviation="5"
         result="result91" />
      <feComposite
         id="feComposite4416-7-9"
         in2="result91"
         in="SourceGraphic"
         operator="over" />
    </filter>
    <filter
       id="filter4412-8-9"
       inkscape:label="Glow"
       inkscape:menu="Shadows and Glows"
       inkscape:menu-tooltip="Glow of object's own color at the edges"
       color-interpolation-filters="sRGB">
      <feGaussianBlur
         id="feGaussianBlur4414-5-89"
         stdDeviation="5"
         result="result91" />
      <feComposite
         id="feComposite4416-7-2"
         in2="result91"
         in="SourceGraphic"
         operator="over" />
    </filter>
  </defs>
  <sodipodi:namedview
     id="base"
     pagecolor="#ffffff"
     bordercolor="#666666"
     borderopacity="1.0"
     inkscape:pageopacity="0.0"
     inkscape:pageshadow="2"
     inkscape:zoom="0.57666667"
     inkscape:cx="-170.91347"
     inkscape:cy="171.76717"
     inkscape:document-units="px"
     inkscape:current-layer="layer2"
     showgrid="false"
     inkscape:window-width="1280"
     inkscape:window-height="738"
     inkscape:window-x="-8"
     inkscape:window-y="-8"
     inkscape:window-maximized="1"
     fit-margin-top="0"
     fit-margin-left="0"
     fit-margin-right="0"
     fit-margin-bottom="0" />
  <metadata
     id="metadata7">
    <rdf:RDF>
      <cc:Work
         rdf:about="">
        <dc:format>image/svg+xml</dc:format>
        <dc:type
           rdf:resource="http://purl.org/dc/dcmitype/StillImage" />
        <dc:title />
      </cc:Work>
    </rdf:RDF>
  </metadata>
  <g
     inkscape:label="Layer 1"
     inkscape:groupmode="layer"
     id="layer1"
     transform="translate(130.63553,-546.78614)" />
  <g
     inkscape:groupmode="layer"
     id="layer2"
     inkscape:label="Layer"
     transform="translate(-192.22159,-450.13825)">
    <rect
       style="opacity:0.5;fill:none;stroke:#00ff00;stroke-width:7.52072287;stroke-miterlimit:4;stroke-opacity:1;stroke-dasharray:none;display:inline;filter:url(#filter4412-8-6)"
       id="rect4409-9-3"
       width="334.71524"
       height="406.57336"
       x="794.71136"
       y="252.04729"
       rx="15.26333"
       transform="matrix(1.0838967,0,0,0.66803467,-624.86433,302.75754)" />
    <g
       id="g3084"
       transform="translate(431.10077,103.54382)">
      <path
         style="fill:#fdfdc5"
         d="m -180.61073,503.3887 0,-125.945 167.421995,0 167.421995,0 0,125.945 0,125.945 -167.421995,0 -167.421995,0 0,-125.945 z"
         id="path3100"
         inkscape:connector-curvature="0" />
      <path
         style="fill:#f49e52"
         d="m -180.61073,503.24876 0,-125.80506 167.421995,0 167.421995,0 0,125.80506 0,125.80506 -167.421995,0 -167.421995,0 0,-125.80506 z m 50.36612,-62.13268 c 4.95838,-1.04059 9.38588,-4.43882 11.5677,-8.87856 2.55751,-5.20422 2.55751,-10.06461 0,-15.26883 -2.67858,-5.45058 -8.84176,-9.28847 -14.91614,-9.28847 -6.07439,0 -12.23757,3.83789 -14.91615,9.28847 -2.55751,5.20422 -2.55751,10.06461 0,15.26883 3.28551,6.68561 10.95322,10.41294 18.26459,8.87856 z"
         id="path3098"
         inkscape:connector-curvature="0" />
      <path
         style="fill:#ef6950"
         d="m -180.60646,538.86321 c 0.003,-58.33122 0.0998,-90.04232 0.27477,-89.7708 0.14877,0.2309 0.27241,0.30526 0.27476,0.16524 0.002,-0.14002 0.6385,0.80457 1.41367,2.09908 5.33796,8.91426 13.23199,16.16185 22.37213,20.54011 3.90985,1.87286 8.07782,3.27203 12.70086,4.26361 3.29028,0.70571 4.04457,0.76343 9.97722,0.76343 5.93264,0 6.68693,-0.0577 9.97721,-0.76343 5.05982,-1.08526 8.96914,-2.44598 13.46187,-4.68567 10.167565,-5.06868 18.238276,-13.16372 23.29173,-23.36194 2.23296,-4.50627 3.589586,-8.42737 4.671582,-13.50244 0.703596,-3.3002 0.761139,-4.05677 0.761139,-10.00729 0,-5.95053 -0.05754,-6.7071 -0.761139,-10.0073 -3.240168,-15.1979 -11.818355,-27.40088 -24.729172,-35.17871 -1.29063,-0.7775 -2.23237,-1.41557 -2.09278,-1.41793 0.1396,-0.002 0.0655,-0.12637 -0.16474,-0.27559 -0.27054,-0.17537 46.227938,-0.27282 131.49603,-0.27559 l 131.91458,-0.004 0,125.80506 0,125.80506 -167.421995,0 -167.421995,0 0.004,-90.19061 z m 0,-149.87455 -0.004,-11.54496 11.51026,0.004 c 7.53446,0.003 11.36569,0.098 11.09171,0.27559 -0.23021,0.14922 -0.30434,0.27323 -0.16474,0.27559 0.1396,0.002 -0.80215,0.64043 -2.09278,1.41793 -7.36981,4.43978 -13.95054,11.04035 -18.37698,18.43238 -0.77517,1.29452 -1.41132,2.2391 -1.41367,2.09908 -0.002,-0.14002 -0.12599,-0.0657 -0.27476,0.16524 -0.17706,0.27481 -0.27197,-3.56797 -0.27477,-11.12514 z"
         id="path3096"
         inkscape:connector-curvature="0" />
      <path
         style="fill:#ee5d52"
         d="m -180.61073,596.56801 c 0,-25.62614 0.0736,-32.55547 0.3488,-32.81567 0.52889,-0.50017 2.11296,-0.97093 3.97627,-1.18169 0.92082,-0.10415 2.47181,-0.37015 3.44664,-0.5911 1.61714,-0.36654 2.97457,-0.34329 4.31186,0.0738 0.45353,0.14146 0.43132,0.22422 -0.22365,0.83305 -0.39996,0.37179 -0.93193,0.67598 -1.18214,0.67598 -0.25022,0 -1.44007,0.26662 -2.64412,0.59249 -1.49793,0.4054 -2.28313,0.76855 -2.48671,1.15009 -0.29477,0.55245 -0.2204,0.55638 8.02995,0.42485 4.58011,-0.073 9.95984,-0.28032 11.95495,-0.46066 1.99512,-0.18034 5.25985,-0.45654 7.25496,-0.61378 3.38837,-0.26704 6.82073,-0.74133 9.99685,-1.38136 0.74069,-0.14926 1.80078,-0.27138 2.35575,-0.27138 1.05864,0 3.82892,-0.42828 10.10985,-1.56296 2.07185,-0.37429 4.52039,-0.81256 5.44121,-0.97393 0.92082,-0.16136 2.42762,-0.46195 3.34844,-0.66796 0.92082,-0.20601 2.36484,-0.51995 3.20892,-0.69763 2.97279,-0.62579 3.90652,-0.9317 3.90652,-1.27987 0,-0.48055 1.33537,-0.73897 4.37978,-0.84758 1.41132,-0.0503 2.80717,-0.22097 3.10189,-0.37918 0.29472,-0.1582 1.52577,-0.48198 2.735657,-0.7195 1.209892,-0.23753 2.890418,-0.61373 3.734504,-0.836 0.844086,-0.22228 2.47645,-0.64944 3.627476,-0.94926 1.151027,-0.29981 2.846174,-0.75543 3.766995,-1.01248 0.920821,-0.25705 2.176486,-0.60553 2.790367,-0.7744 1.826005,-0.50231 5.968873,-1.87366 6.490973,-2.14862 0.266717,-0.14046 1.112776,-0.44767 1.880127,-0.68268 l 1.395183,-0.4273 -1.116147,-0.0584 c -1.592214,-0.0833 6.244802,-0.6001 22.967756,-1.51444 8.737659,-0.47773 11.879056,-0.65581 15.143696,-0.85847 1.477756,-0.0917 3.454466,0.0118 5.162178,0.27043 1.522081,0.2305 5.027616,0.68436 7.790079,1.00858 2.762463,0.32422 7.872718,0.96025 11.356125,1.4134 6.5776333,0.85567 7.0979195,0.90829 6.8868003,0.69654 -0.069846,-0.0701 -3.7635933,-0.63994 -8.2083293,-1.2664 -8.01602,-1.12981 -11.011225,-1.62748 -11.011225,-1.82956 0,-0.0577 3.117208,-3.22892 6.927127,-7.04707 7.042534,-7.05774 10.7929094,-11.33266 15.6661758,-17.85732 17.4127132,-23.31332 28.2380882,-50.65251 31.5442432,-79.66413 1.874716,-16.45071 1.112751,-33.17405 -2.274475,-49.91928 -0.610206,-3.01664 -2.471082,-10.61753 -3.143736,-12.84083 -0.34987,-1.15641 -0.354622,-1.42463 -0.03099,-1.74923 0.321472,-0.32245 10.854646,-0.3834 66.254824,-0.3834 l 65.872586,0 0,125.80506 0,125.80506 -167.421998,0 -167.421992,0 0,-32.48581 z M -4.2072426,550.49686 c -0.2014282,-0.0808 -0.4421001,-0.0709 -0.5348212,0.0221 -0.092721,0.093 0.072086,0.15915 0.3662357,0.147 0.3250637,-0.0134 0.3911815,-0.0797 0.1685855,-0.16909 z m -1.8016085,-0.28265 c -0.2714943,-0.071 -0.6481938,-0.0663 -0.83711,0.0104 -0.1889162,0.0767 0.033214,0.13472 0.4936242,0.12902 0.4604105,-0.006 0.6149801,-0.0684 0.3434858,-0.13939 z m -84.3974669,0.0249 c 0.09272,-0.093 0.33339,-0.10294 0.534821,-0.0221 0.222596,0.0893 0.156479,0.15567 -0.168585,0.1691 -0.29415,0.0121 -0.458957,-0.054 -0.366236,-0.147 z m 2.360689,-0.29437 c 0.188917,-0.0767 0.565616,-0.0813 0.83711,-0.0104 0.271495,0.071 0.116925,0.13368 -0.343485,0.13939 -0.460411,0.006 -0.682541,-0.0524 -0.493625,-0.12902 z m 2.373868,-0.28859 c 0.266785,-0.0701 0.769051,-0.0726 1.116147,-0.006 0.347097,0.067 0.12882,0.12426 -0.485061,0.12737 -0.61388,0.003 -0.89787,-0.0517 -0.631086,-0.12172 z m 2.793621,-0.2805 c 0.268572,-0.0704 0.708055,-0.0704 0.976628,0 0.268573,0.0704 0.04883,0.12799 -0.488314,0.12799 -0.537146,0 -0.756887,-0.0576 -0.488314,-0.12799 z m 2.508076,-0.27925 c 0.266784,-0.0701 0.76905,-0.0726 1.116147,-0.006 0.347096,0.067 0.12882,0.12426 -0.485061,0.12737 -0.613881,0.003 -0.89787,-0.0517 -0.631086,-0.12172 z m 47.845071,-3.12938 c -0.766843,-0.17374 -0.74274,-0.20804 1.395183,-1.98528 3.388286,-2.81667 14.445159,-14.04152 17.654677,-17.9229 20.4271189,-24.70317 32.363548,-52.98359 35.911251,-85.08284 0.737045,-6.66869 0.737045,-26.07702 0,-32.7457 -1.065789,-9.64316 -2.822288,-18.7396 -5.255748,-27.21812 -0.556812,-1.94 -0.999364,-3.00868 -1.245935,-3.00868 -0.210315,0 -0.382394,-0.12595 -0.382394,-0.27988 0,-0.35422 3.815422,-0.37426 4.032981,-0.0212 0.08767,0.14228 -0.0112,0.29971 -0.219708,0.34984 -0.295296,0.071 -0.143403,0.92646 0.687064,3.8695 2.269776,8.04376 4.076566,17.60942 5.180686,27.42803 0.382141,3.39826 0.487829,6.70286 0.487829,15.25334 0,11.65409 -0.199299,14.52132 -1.682781,24.20942 -5.480509,35.79134 -23.1601319,68.86901 -50.062533,93.66444 -4.272671,3.93803 -4.346992,3.97794 -6.500572,3.49001 z"
         id="path3094"
         inkscape:connector-curvature="0" />
      <path
         style="fill:#e56934"
         d="m -96.829973,628.56404 -83.780757,-0.0709 0,-32.20548 c 0,-25.40187 0.0737,-32.27516 0.3488,-32.53533 0.52889,-0.50017 2.11296,-0.97093 3.97627,-1.18169 0.92082,-0.10415 2.47181,-0.37015 3.44664,-0.5911 1.61714,-0.36654 2.97457,-0.34329 4.31186,0.0738 0.45353,0.14146 0.43132,0.22422 -0.22365,0.83305 -0.39996,0.37179 -0.93193,0.67598 -1.18214,0.67598 -0.25022,0 -1.44007,0.26662 -2.64412,0.59249 -1.49793,0.4054 -2.28313,0.76855 -2.48671,1.15009 -0.29477,0.55245 -0.2204,0.55638 8.02995,0.42485 4.58011,-0.073 9.95984,-0.28032 11.95495,-0.46066 1.99512,-0.18034 5.25985,-0.45654 7.25496,-0.61378 3.38837,-0.26704 6.82073,-0.74133 9.99685,-1.38136 0.74069,-0.14926 1.80078,-0.27138 2.35575,-0.27138 1.05864,0 3.82892,-0.42828 10.10985,-1.56296 2.07185,-0.37429 4.52039,-0.81256 5.44121,-0.97393 0.92082,-0.16136 2.42762,-0.46195 3.34844,-0.66796 0.92082,-0.20601 2.36484,-0.51995 3.20892,-0.69763 2.97279,-0.62579 3.90652,-0.9317 3.90652,-1.27987 0,-0.48055 1.33537,-0.73897 4.37978,-0.84758 1.41132,-0.0503 2.80717,-0.22097 3.10189,-0.37918 0.29472,-0.1582 1.52577,-0.48198 2.735657,-0.7195 1.209892,-0.23753 2.890418,-0.61373 3.734504,-0.836 0.844086,-0.22228 2.47645,-0.64944 3.627476,-0.94926 1.151027,-0.29981 2.846174,-0.75543 3.766995,-1.01248 0.920821,-0.25705 2.176486,-0.60553 2.790367,-0.7744 1.826005,-0.50231 5.968873,-1.87366 6.490973,-2.14862 0.266717,-0.14046 1.112776,-0.44767 1.880127,-0.68268 l 1.395183,-0.4273 -1.116147,-0.0584 c -1.592214,-0.0833 6.244802,-0.6001 22.967756,-1.51444 8.737659,-0.47773 11.879056,-0.65581 15.143696,-0.85847 1.477756,-0.0917 3.454466,0.0118 5.162178,0.27043 1.522081,0.2305 5.027616,0.68376 7.790079,1.00726 2.762463,0.3235 8.852438,1.09155 13.533278,1.70679 8.3969047,1.10367 8.6316666,1.15245 17.570313,3.65066 l 9.059692,2.53203 13.681796,-0.1889 13.681792,-0.1889 11.205688,-1.93357 c 10.532004,-1.81733 11.874053,-1.98503 22.322933,-2.78948 l 11.117244,-0.85591 14.99113,1.66549 14.99116,1.66549 9.42455,-2.62424 c 5.18353,-1.44333 9.73849,-2.7638 10.12217,-2.93439 0.38367,-0.17058 4.48434,-2.69299 9.11255,-5.60536 4.62824,-2.91237 8.5522,-5.29521 8.7199,-5.29521 0.21929,0 0.30493,12.88092 0.30493,45.87001 0,41.56926 -0.0414,45.88594 -0.44138,46.03989 -0.24276,0.0934 -37.88132,0.13861 -83.641236,0.10038 -45.759922,-0.0382 -120.901201,-0.10141 -166.980617,-0.1404 z m 6.423655,-78.32497 c 0.09272,-0.093 0.33339,-0.10294 0.534821,-0.0221 0.222596,0.0893 0.156479,0.15566 -0.168585,0.16909 -0.29415,0.0122 -0.458957,-0.054 -0.366236,-0.147 z m 2.360689,-0.29436 c 0.188917,-0.0767 0.565616,-0.0813 0.83711,-0.0104 0.271495,0.071 0.116925,0.13369 -0.343485,0.13939 -0.460411,0.006 -0.682541,-0.0524 -0.493625,-0.12902 z m 2.373868,-0.2886 c 0.266785,-0.0701 0.769051,-0.0726 1.116147,-0.006 0.347097,0.0669 0.12882,0.12426 -0.485061,0.12737 -0.61388,0.003 -0.89787,-0.0517 -0.631086,-0.12172 z m 2.793621,-0.2805 c 0.268572,-0.0704 0.708055,-0.0704 0.976628,0 0.268573,0.0704 0.04883,0.12799 -0.488314,0.12799 -0.537146,0 -0.756887,-0.0576 -0.488314,-0.12799 z m 2.508076,-0.27925 c 0.266784,-0.0701 0.76905,-0.0726 1.116147,-0.006 0.347096,0.067 0.12882,0.12426 -0.485061,0.12737 -0.613881,0.003 -0.89787,-0.0517 -0.631086,-0.12172 z"
         id="path3092"
         inkscape:connector-curvature="0" />
      <path
         style="fill:#9b532a"
         d="m -92.644423,628.56404 -87.966307,-0.0708 0,-11.1604 c 0,-9.42295 0.0632,-11.213 0.40579,-11.4982 0.49191,-0.40948 3.42279,-0.17372 5.79039,0.46578 1.0255,0.27699 2.26677,0.38318 3.48796,0.2984 1.04273,-0.0724 2.69393,-0.0231 3.66933,0.1096 1.49124,0.20282 2.09069,0.14369 3.767,-0.37157 2.24806,-0.69101 6.27519,-0.76272 11.55045,-0.20567 2.82978,0.29882 9.40586,-0.0123 12.20795,-0.57753 0.61388,-0.12383 2.19414,-0.24283 3.51168,-0.26443 3.57995,-0.0587 5.19992,-0.41495 7.63575,-1.67924 1.21277,-0.62947 2.36825,-1.1445 2.56773,-1.1445 0.19949,0 0.77383,-0.25142 1.27632,-0.55871 0.59022,-0.36094 1.40746,-0.55915 2.30879,-0.55997 1.19849,-10e-4 1.54986,-0.13934 2.49226,-0.98062 0.60339,-0.53864 1.31799,-0.97935 1.588,-0.97935 0.65759,0 0.97431,-0.55436 0.33104,-0.57943 -0.45058,-0.0176 -0.44486,-0.0455 0.0533,-0.26021 0.30694,-0.13229 0.3937,-0.24938 0.19281,-0.2602 -0.85239,-0.0459 0.071,-0.57981 1.00956,-0.58371 0.56646,-0.002 1.21328,-0.12062 1.43738,-0.2628 0.35151,-0.223 0.34193,-0.33114 -0.0698,-0.78741 -0.66416,-0.73611 -0.60539,-0.95447 0.45106,-1.67585 0.63209,-0.43162 1.66061,-0.72384 3.25219,-0.92401 1.28026,-0.16101 2.55029,-0.41221 2.82229,-0.55822 0.272,-0.14601 1.23356,-0.26547 2.13679,-0.26547 1.40976,0 1.72926,0.10038 2.25693,0.70908 l 0.61469,0.70909 -0.83903,0.48039 c -1.11596,0.63895 -1.19237,0.9485 -0.46115,1.8683 0.97102,1.22144 6.401543,2.53062 7.670845,1.84926 0.320627,-0.17211 1.621066,-0.44241 2.889862,-0.60066 3.017662,-0.37637 5.177235,-1.01759 5.751312,-1.70765 0.998387,-1.20011 3.003748,-1.91962 6.126322,-2.19808 4.657602,-0.41534 6.472917,-0.71094 8.378508,-1.36435 l 1.765108,-0.60524 2.564425,0.70073 c 1.410433,0.3854 2.849759,0.62589 3.198502,0.53441 0.348743,-0.0915 2.669711,-8.3e-4 5.157711,0.20137 5.386002,0.43776 5.771706,0.42712 6.955935,-0.19195 0.546912,-0.2859 1.984508,-0.5633 3.566989,-0.6883 3.594135,-0.2839 4.0722,-0.43706 4.701037,-1.50606 0.401718,-0.68292 0.806383,-0.96554 1.594968,-1.11392 1.803838,-0.33942 3.174179,-1.02359 3.539167,-1.76699 0.276065,-0.56228 0.816252,-0.85052 2.566328,-1.36935 1.219164,-0.36143 2.474829,-0.65838 2.790367,-0.65988 0.646056,-0.003 3.419064,-1.23745 4.060756,-1.80759 0.712512,-0.63307 4.162069,-1.54821 5.835859,-1.54821 1.258489,0 1.788045,-0.1461 2.536148,-0.6997 0.797051,-0.58982 1.254705,-0.70007 2.914337,-0.70212 1.082843,-0.001 2.630833,-0.0822 3.43998,-0.17967 1.241353,-0.14954 1.446688,-0.25462 1.314425,-0.6726 -0.119127,-0.37646 0.04123,-0.53898 0.668047,-0.67707 0.783328,-0.17257 1.351656,-0.83645 0.928994,-1.0852 -0.1084,-0.0638 -0.605183,-0.20377 -1.103961,-0.31107 -1.037896,-0.22328 -1.083438,-0.33066 -0.441824,-1.04178 0.255773,-0.28348 0.499345,-0.8381 0.541267,-1.2325 0.04192,-0.39439 0.218773,-0.88936 0.393001,-1.09992 0.340358,-0.41134 4.279691,-1.81422 5.0944,-1.81422 0.270886,0 1.8400402,-0.42865 3.4870067,-0.95255 3.8845725,-1.2357 3.8314747,-1.22847 11.5051027,-1.56583 3.6065489,-0.15855 7.4363266,-0.4229 8.5106186,-0.58744 4.139087,-0.63396 6.444438,-1.14746 7.115434,-1.58492 1.044128,-0.68072 2.86526,-0.97956 6.278325,-1.03025 2.664027,-0.0396 8.072759,-0.69466 9.766283,-1.18286 0.30694,-0.0885 1.139533,-0.57543 1.850206,-1.0821 0.710675,-0.50668 1.683816,-1.12438 2.162534,-1.37268 0.478721,-0.24831 0.870402,-0.63144 0.870402,-0.85141 0,-0.24438 0.407028,-0.46822 1.046387,-0.57546 0.575513,-0.0965 1.693546,-0.35412 2.484517,-0.57244 0.790972,-0.21831 1.681866,-0.39692 1.979768,-0.39692 0.64205,0 1.465244,-0.83386 1.465244,-1.48421 0,-0.25331 0.345308,-0.64044 0.767351,-0.86029 0.422043,-0.21985 1.064625,-0.80475 1.427959,-1.29977 0.760891,-1.03667 0.583658,-1.27877 -1.148922,-1.56942 -0.575513,-0.0965 -1.046388,-0.28538 -1.046388,-0.41964 0,-0.13426 -0.205284,-0.24411 -0.456186,-0.24411 -0.344155,0 -0.288951,-0.13194 0.224798,-0.53727 0.433584,-0.34209 1.891813,-0.75653 4.0139,-1.14079 1.833109,-0.33193 5.028071,-0.97728 7.099918,-1.43411 2.242846,-0.49454 5.742742,-0.99766 8.650136,-1.24349 19.954947,-1.68726 17.448896,-1.58347 23.316761,-0.96566 2.906474,0.30601 9.55376,1.01052 14.77174,1.56557 5.21799,0.55506 9.9327,0.94987 10.47716,0.87737 0.54448,-0.0725 5.12766,-1.29482 10.18484,-2.71627 l 9.19493,-2.58445 4.46458,-2.8121 c 2.45552,-1.54665 6.32055,-3.99392 8.58892,-5.43837 2.2684,-1.44444 4.30885,-2.69728 4.53434,-2.78407 0.35963,-0.13842 0.41002,5.48248 0.41002,45.74214 0,41.59657 -0.0414,45.91589 -0.44138,46.06984 -0.24276,0.0934 -35.99782,0.1386 -79.455686,0.10035 -43.457869,-0.0382 -118.599149,-0.10141 -166.980617,-0.14037 z m -16.602677,-29.3172 c 1.21694,0 1.46494,-0.0841 1.46494,-0.49671 0,-0.27567 -0.31853,-0.61819 -0.71576,-0.76967 -1.08429,-0.41349 -4.6124,-0.31794 -5.42305,0.14687 -0.38367,0.21999 -1.32542,0.42102 -2.09277,0.44674 -1.33644,0.0448 -1.35406,0.0554 -0.41856,0.25295 0.53715,0.11341 0.85106,0.23162 0.69759,0.26271 -0.15347,0.0311 -0.0279,0.16598 0.27904,0.29977 0.30694,0.13379 1.49982,0.15643 2.65085,0.0503 1.15102,-0.10613 2.752,-0.19296 3.55772,-0.19296 z m 5.98184,-0.0512 c -0.20143,-0.0809 -0.4421,-0.0709 -0.53482,0.0221 -0.0927,0.093 0.0721,0.15915 0.36624,0.147 0.32506,-0.0134 0.39118,-0.0797 0.16858,-0.16909 z m -43.79721,2.71774 c -0.96243,-0.27025 -2.00668,-0.72446 -2.32054,-1.00936 -0.53941,-0.48963 -0.54381,-0.53771 -0.0803,-0.87766 0.26971,-0.19781 0.87447,-0.35925 1.34391,-0.35877 0.46945,5.6e-4 1.75499,-0.26709 2.85675,-0.59463 1.28596,-0.38229 2.33501,-0.53263 2.92989,-0.41989 1.02185,0.19367 2.74041,1.14901 2.74041,1.52339 0,0.13096 -0.77236,0.45349 -1.71635,0.71673 -0.94399,0.26325 -2.02823,0.7247 -2.40944,1.02546 -0.81452,0.64263 -1.03826,0.64228 -3.34434,-0.005 z m -33.54826,-7.35886 c 0,-2.3151 0.18096,-2.56215 1.65955,-2.26554 0.71622,0.14368 1.76371,0.0489 6.85107,-0.62004 l 1.11614,-0.14675 -0.95606,0.78369 c -0.52583,0.43103 -1.34713,1.17086 -1.8251,1.64406 -1.19384,1.18191 -3.81719,2.41746 -5.47131,2.57688 l -1.37429,0.13245 0,-2.10475 z"
         id="path3090"
         inkscape:connector-curvature="0" />
      <path
         style="fill:#664623"
         d="m -180.61073,625.8705 c 0,-2.55851 0.0292,-2.68938 0.62783,-2.81081 1.59875,-0.32433 5.11206,-0.40837 6.96035,-0.16651 14.05077,1.83867 15.23237,1.95079 21.01308,1.99386 4.59325,0.0342 6.10101,-0.0466 6.97591,-0.37386 0.61388,-0.22965 1.74398,-0.50654 2.51133,-0.61532 0.76735,-0.10877 1.77189,-0.25479 2.2323,-0.32447 0.46041,-0.0697 1.55564,-0.39049 2.43384,-0.71289 2.24709,-0.82495 6.65481,-0.63575 9.81816,0.42145 3.57949,1.19627 5.38915,1.38624 13.55889,1.42334 10.47208,0.0476 16.379977,-0.39534 19.672082,-1.47473 2.836358,-0.92996 5.353626,-1.20762 11.998577,-1.32349 4.913037,-0.0857 7.308171,-0.47346 11.091182,-1.79575 1.342577,-0.46927 2.723808,-0.85445 3.069404,-0.85595 0.345598,-10e-4 1.318972,-0.32738 2.163058,-0.72416 1.315256,-0.61826 2.033441,-0.74125 5.02266,-0.86012 4.253024,-0.16914 5.197289,-0.162 8.929173,0.0675 1.680152,0.10332 3.703528,0.0541 4.743623,-0.11548 0.997556,-0.16262 3.069404,-0.43896 4.604105,-0.61409 2.255247,-0.25735 3.224551,-0.52543 5.054403,-1.39788 1.245221,-0.5937 2.567754,-1.44149 2.938959,-1.88397 0.955453,-1.13892 2.179252,-1.67149 4.351909,-1.89389 3.395491,-0.34756 8.606858,-1.86369 17.790688,-5.1758 2.332671,-0.84126 2.691705,-0.89496 5.0467829,-0.75482 2.6653805,0.1586 3.5984065,-0.0557 2.9731886,-0.68276 -0.1905541,-0.19113 -0.3464631,-0.44826 -0.3464631,-0.57141 0,-0.12315 1.4440147,-0.2239 3.2089216,-0.2239 2.92649183,0 3.2625301,0.0538 3.8180279,0.61094 0.7609441,0.76324 3.0265823,1.00094 5.1013705,0.53523 1.2750776,-0.28621 1.734344,-0.25258 3.6140326,0.26466 1.870952,0.51484 2.617436,0.57061 5.692381,0.42534 3.559118,-0.16816 6.181329,-0.55325 7.108325,-1.04393 0.274929,-0.14553 1.593378,-0.45466 2.929885,-0.68697 1.336505,-0.2323 3.497326,-0.71478 4.801822,-1.07218 1.304496,-0.3574 3.410235,-0.73001 4.679417,-0.82804 2.793609,-0.21576 4.900355,-0.93046 5.044829,-1.71143 0.136463,-0.73765 0.577712,-1.25154 1.074635,-1.25154 0.223402,0 1.344119,-0.45249 2.49048,-1.00553 1.961706,-0.94639 2.820201,-1.1673 6.940797,-1.78607 0.920821,-0.13828 2.553185,-0.45241 3.627476,-0.69807 1.074291,-0.24566 2.581089,-0.57904 3.34844,-0.74084 0.767351,-0.16181 2.493304,-0.81897 3.835454,-1.46035 2.730845,-1.30501 3.014134,-1.80456 1.536002,-2.7086 -1.176268,-0.71941 -1.223805,-1.67738 -0.107482,-2.16593 0.439664,-0.19242 1.820895,-0.35203 3.069403,-0.35471 1.248508,-0.003 3.117523,-0.185 4.153366,-0.40516 1.392783,-0.29604 2.30131,-0.33165 3.487958,-0.13671 3.213071,0.52785 4.501659,0.28088 5.483983,-1.05108 0.425497,-0.57695 0.467057,-0.8225 0.209277,-1.23652 -0.44345,-0.71222 -0.434903,-0.73097 0.571205,-1.25281 l 0.892862,-0.46311 -0.658493,-0.53482 c -0.387535,-0.31476 -0.554,-0.6346 -0.404548,-0.77729 0.432912,-0.41334 5.196316,-1.89835 6.777388,-2.11288 0.825429,-0.11199 2.77171,-0.75784 4.325068,-1.43521 1.985162,-0.86567 3.585632,-1.34572 5.386789,-1.61573 1.497609,-0.2245 2.88912,-0.60531 3.348447,-0.91635 1.86262,-1.26129 3.68682,-1.83471 6.44304,-2.02531 l 2.40019,-0.16599 0.47452,-1.38027 c 0.26099,-0.75915 0.67689,-1.52871 0.92426,-1.71012 0.68827,-0.5048 0.53832,-1.16358 -0.39007,-1.71363 -0.46186,-0.27366 -0.80097,-0.61436 -0.75351,-0.75711 0.0474,-0.14275 0.70786,-0.41947 1.4676,-0.61494 0.75976,-0.19547 2.13301,-0.75242 3.05171,-1.23767 1.48659,-0.78522 1.8396,-0.86315 3.20892,-0.70845 2.13803,0.24153 6.81075,-0.71696 7.73336,-1.58633 0.60531,-0.57038 0.66832,-0.84136 0.61572,-2.64792 -0.0452,-1.55441 0.0463,-2.11772 0.40221,-2.4747 0.25345,-0.2542 0.4608,-0.56462 0.4608,-0.68984 0,-0.12521 0.78493,-0.16445 1.74431,-0.0872 0.95939,0.0772 2.60311,0.006 3.65276,-0.15757 1.6724,-0.26116 2.08644,-0.45593 3.34808,-1.57508 2.34745,-2.08231 3.27505,-3.05367 3.53804,-3.7049 0.17066,-0.42259 0.57917,-0.67074 1.30723,-0.79411 0.58246,-0.0987 1.24735,-0.23059 1.47756,-0.29311 0.52333,-0.14214 3.34844,-2.84256 3.34844,-3.20067 0,-0.14509 -0.48678,-0.51289 -1.08174,-0.81733 -0.59494,-0.30443 -1.15658,-0.74918 -1.24808,-0.98832 -0.259,-0.67698 0.11175,-2.05354 0.60414,-2.24305 0.24422,-0.094 2.01945,-0.24155 3.94497,-0.32791 4.0888,-0.18338 4.56317,-0.41029 4.37069,-2.09067 -0.0664,-0.58019 -0.19605,-1.17698 -0.288,-1.3262 -0.33171,-0.53837 0.46167,-1.88582 1.94824,-3.30878 l 1.51606,-1.45118 0,45.9254 0,45.92541 -113.228505,-0.20367 c -132.252187,-0.23789 -220.545185,-0.23565 -221.171975,0.006 -0.38632,0.14869 -0.44351,-0.17535 -0.44351,-2.51275 z"
         id="path3088"
         inkscape:connector-curvature="0" />
      <path
         style="fill:#4b3d1e"
         d="m 80.567582,628.19877 c -79.98485896,-0.19901 -93.061795,-0.26405 -92.221615,-0.45865 5.0512133,-1.16999 11.56738337,-2.39644 15.3165367,-2.88283 2.9007674,-0.37632 5.1004134,-0.80665 5.7202515,-1.11908 0.5539073,-0.2792 1.6349398,-0.59003 2.4022908,-0.69072 6.252159,-0.82045 17.245261,-2.88469 20.499157,-3.84926 6.126448,-1.8161 6.659601,-1.92226 10.892467,-2.16879 4.059205,-0.23642 9.570586,-1.17831 10.261847,-1.75373 0.52424,-0.4364 -0.04822,-0.94975 -1.733468,-1.5545 -1.443711,-0.51808 -1.779445,-0.9879 -0.805375,-1.12701 0.334163,-0.0477 0.757629,-0.26813 0.941034,-0.48978 0.183408,-0.22166 0.635146,-0.40302 1.003865,-0.40302 0.368716,0 1.389265,-0.25563 2.267884,-0.56808 2.114119,-0.75179 10.502703,-2.41009 13.317031,-2.63258 3.213257,-0.25402 5.398103,-0.68419 6.600832,-1.29963 0.772335,-0.3952 1.631374,-0.53751 3.24468,-0.53751 1.532989,0 2.896588,-0.21086 4.524875,-0.69969 1.281853,-0.38484 2.594489,-0.6997 2.916972,-0.6997 0.322482,0 0.853575,-0.18775 1.180207,-0.41722 0.326632,-0.22947 1.434977,-0.53669 2.462984,-0.68272 1.028008,-0.14602 2.07576,-0.45102 2.328335,-0.67777 0.252579,-0.22675 1.181679,-0.54506 2.064674,-0.70735 1.907232,-0.35055 2.719625,-0.74188 2.719625,-1.31006 0,-0.2293 -0.30172,-0.53196 -0.670486,-0.67259 -0.744897,-0.28406 -1.218486,-0.84997 -0.711312,-0.84997 0.178946,0 0.25908,-0.17324 0.17807,-0.38498 -0.197826,-0.51708 0.945795,-1.01455 3.017466,-1.3126 0.920821,-0.13248 3.05545,-0.81982 4.74362,-1.52744 1.68817,-0.70761 3.57167,-1.48748 4.18555,-1.73303 0.61388,-0.24555 1.31438,-0.61584 1.55666,-0.82286 0.24229,-0.20702 0.58459,-0.3764 0.76063,-0.3764 0.17605,0 0.73119,-0.25142 1.23368,-0.55871 0.65933,-0.40319 1.40726,-0.559 2.68709,-0.55975 0.9754,-5.6e-4 2.4822,-0.17947 3.34844,-0.39754 0.86622,-0.21807 2.66469,-0.53642 3.99656,-0.70745 2.4901,-0.31976 8.91631,-2.24839 9.69678,-2.91019 0.5466,-0.46351 2.96088,-1.58112 3.43488,-1.59007 0.66922,-0.0126 3.53528,-1.32129 5.0101,-2.28763 0.81429,-0.53356 2.48678,-1.37127 3.71661,-1.86159 3.30041,-1.31584 4.14562,-1.889 3.90006,-2.64475 -0.1101,-0.33888 -0.26173,-1.08659 -0.33696,-1.66159 -0.12373,-0.94578 -0.0611,-1.07428 0.65663,-1.34798 0.95288,-0.36339 2.42234,-0.13325 2.90965,0.4557 0.19407,0.23453 0.61478,0.40618 0.93491,0.38143 0.32014,-0.0247 1.2413,-0.0311 2.04702,-0.014 l 1.46494,0.031 0,25.189 c 0,13.85395 -0.0942,25.16356 -0.20928,25.13247 -0.1151,-0.0311 -33.17048,-0.13853 -73.456398,-0.23877 z m -101.987898,-0.54434 c 0.7649,-0.32968 2.421276,-0.32968 2.929884,0 0.291058,0.18867 -0.176434,0.26662 -1.534701,0.25592 -1.347139,-0.0106 -1.780081,-0.09 -1.395183,-0.25592 z"
         id="path3086"
         inkscape:connector-curvature="0" />
    </g>
    <g
       transform="translate(11.787035,-105.78035)"
       style="font-size:50px;font-style:normal;font-weight:normal;line-height:125%;letter-spacing:0px;word-spacing:0px;fill:#ffffff;fill-opacity:1;stroke:none;font-family:Sans"
       id="flowRoot17496">
      <path
         inkscape:connector-curvature="0"
         d="m 255.09961,730.21617 0,-35.79101 13.42773,0 c 2.73436,3e-5 4.92755,0.36218 6.57959,1.08642 1.652,0.72432 2.94594,1.83923 3.88184,3.34473 0.93584,1.50556 1.40378,3.08027 1.40381,4.72412 -3e-5,1.52997 -0.41507,2.9704 -1.24512,4.32129 -0.8301,1.35093 -2.08336,2.44143 -3.75976,3.27149 2.16468,0.63478 3.82891,1.71713 4.99267,3.24707 1.16371,1.52996 1.74558,3.3366 1.74561,5.41992 -3e-5,1.67644 -0.35404,3.23487 -1.06202,4.67529 -0.70803,1.44043 -1.58287,2.55127 -2.62451,3.33252 -1.04169,0.78125 -2.34784,1.37126 -3.91845,1.77002 -1.57066,0.39876 -3.4953,0.59814 -5.77393,0.59814 z m 4.73633,-20.75195 7.73926,0 c 2.09959,2e-5 3.60512,-0.13832 4.5166,-0.41504 1.2044,-0.35805 2.11179,-0.95212 2.72216,-1.78222 0.61033,-0.83006 0.91551,-1.87172 0.91553,-3.125 -2e-5,-1.18813 -0.28485,-2.23386 -0.85449,-3.13721 -0.56968,-0.90329 -1.38349,-1.52178 -2.44141,-1.85547 -1.05796,-0.33363 -2.87274,-0.50046 -5.44433,-0.50049 l -7.15332,0 z m 0,16.52832 8.91113,0 c 1.52993,1e-5 2.60415,-0.057 3.22266,-0.1709 1.09047,-0.19531 2.00193,-0.52083 2.73437,-0.97656 0.7324,-0.45572 1.33461,-1.11897 1.80664,-1.98975 0.47198,-0.87076 0.70798,-1.8758 0.70801,-3.01513 -3e-5,-1.33463 -0.34182,-2.49429 -1.02539,-3.47901 -0.68362,-0.98468 -1.6317,-1.67641 -2.84424,-2.07519 -1.21258,-0.39875 -2.95819,-0.59813 -5.23682,-0.59815 l -8.27636,0 z"
         id="path17574" />
      <path
         inkscape:connector-curvature="0"
         d="m 305.05078,727.01793 c -1.62762,1.38347 -3.19419,2.36003 -4.69971,2.92969 -1.50554,0.56966 -3.12094,0.85449 -4.84619,0.85449 -2.84831,0 -5.03744,-0.6958 -6.56738,-2.0874 -1.52995,-1.3916 -2.29492,-3.16976 -2.29492,-5.33447 0,-1.26953 0.2889,-2.42919 0.8667,-3.47901 0.57779,-1.04979 1.33463,-1.89208 2.27051,-2.52685 0.93586,-0.63476 1.98973,-1.1149 3.16162,-1.44043 0.86262,-0.22785 2.1647,-0.44758 3.90625,-0.65918 3.54816,-0.42316 6.16046,-0.92772 7.83691,-1.51367 0.0163,-0.6022 0.0244,-0.98469 0.0244,-1.14747 -2e-5,-1.79034 -0.41505,-3.05173 -1.24511,-3.78417 -1.12307,-0.99282 -2.79136,-1.48924 -5.00489,-1.48926 -2.06706,2e-5 -3.59294,0.36216 -4.57763,1.08642 -0.98471,0.72431 -1.71306,2.00604 -2.18506,3.84522 l -4.29688,-0.58594 c 0.39063,-1.83917 1.03353,-3.32436 1.92871,-4.45557 0.89518,-1.13116 2.18913,-2.00192 3.88184,-2.6123 1.6927,-0.61033 3.65396,-0.9155 5.88379,-0.91553 2.21353,3e-5 4.01203,0.26044 5.39551,0.78125 1.38344,0.52086 2.40069,1.17597 3.05176,1.96533 0.65101,0.78941 1.10674,1.78632 1.36718,2.99073 0.14646,0.74871 0.21971,2.09962 0.21973,4.05273 l 0,5.85938 c -2e-5,4.08529 0.0936,6.66911 0.28076,7.75146 0.18715,1.08236 0.55743,2.11996 1.11084,3.11279 l -4.58984,0 c -0.45575,-0.91145 -0.74872,-1.97753 -0.87891,-3.19824 z m -0.36621,-9.81445 c -1.59507,0.65105 -3.98765,1.20444 -7.17773,1.66015 -1.80666,0.26043 -3.08432,0.5534 -3.83301,0.87891 -0.74871,0.32553 -1.32651,0.80161 -1.7334,1.42822 -0.40691,0.62664 -0.61036,1.32244 -0.61035,2.08741 -1e-5,1.17188 0.44351,2.14844 1.33056,2.92968 0.88704,0.78126 2.18505,1.17188 3.89405,1.17188 1.69269,0 3.19822,-0.37028 4.5166,-1.11084 1.31834,-0.74056 2.28676,-1.75374 2.90527,-3.03955 0.47199,-0.99283 0.70799,-2.45767 0.70801,-4.39453 z"
         id="path17576" />
      <path
         inkscape:connector-curvature="0"
         d="m 315.91504,730.21617 0,-25.92773 3.95508,0 0,3.93066 c 1.0091,-1.83917 1.94091,-3.05173 2.79541,-3.63769 0.85448,-0.58591 1.79442,-0.87888 2.81982,-0.87891 1.48111,3e-5 2.98664,0.47203 4.5166,1.41602 l -1.51367,4.07715 c -1.07423,-0.63475 -2.14845,-0.95213 -3.22266,-0.95215 -0.96029,2e-5 -1.82292,0.28892 -2.58789,0.8667 -0.76498,0.57782 -1.31023,1.37941 -1.63574,2.40478 -0.48829,1.56252 -0.73243,3.2715 -0.73242,5.12696 l 0,13.57421 z"
         id="path17578" />
      <path
         inkscape:connector-curvature="0"
         d="m 332.61426,730.21617 0,-25.92773 3.95508,0 0,3.93066 c 1.0091,-1.83917 1.9409,-3.05173 2.79541,-3.63769 0.85448,-0.58591 1.79442,-0.87888 2.81982,-0.87891 1.48111,3e-5 2.98664,0.47203 4.5166,1.41602 l -1.51367,4.07715 c -1.07423,-0.63475 -2.14845,-0.95213 -3.22266,-0.95215 -0.96029,2e-5 -1.82292,0.28892 -2.58789,0.8667 -0.76498,0.57782 -1.31023,1.37941 -1.63574,2.40478 -0.48829,1.56252 -0.73243,3.2715 -0.73242,5.12696 l 0,13.57421 z"
         id="path17580" />
      <path
         inkscape:connector-curvature="0"
         d="m 367.11133,721.86656 4.54101,0.56153 c -0.71617,2.653 -2.04266,4.71192 -3.97949,6.17676 -1.93687,1.46484 -4.41082,2.19726 -7.42187,2.19726 -3.79233,0 -6.79933,-1.1678 -9.021,-3.50342 -2.22168,-2.3356 -3.33252,-5.61115 -3.33252,-9.82666 0,-4.36196 1.12304,-7.74737 3.36914,-10.15625 2.24609,-2.40883 5.1595,-3.61325 8.74024,-3.61328 3.46678,3e-5 6.2988,1.18004 8.49609,3.54004 2.19724,2.36005 3.29587,5.68036 3.2959,9.96094 -3e-5,0.26043 -0.008,0.65105 -0.0244,1.17187 l -19.33593,0 c 0.16275,2.84832 0.96841,5.02931 2.41699,6.54297 1.44856,1.51368 3.2552,2.27051 5.41992,2.27051 1.61131,0 2.98664,-0.42317 4.12598,-1.26953 1.1393,-0.84635 2.04262,-2.19726 2.70996,-4.05274 z m -14.42871,-7.10449 14.47754,0 c -0.19534,-2.18097 -0.74872,-3.81671 -1.66016,-4.90722 -1.39976,-1.69269 -3.21453,-2.53904 -5.44434,-2.53907 -2.01824,3e-5 -3.71501,0.67548 -5.09033,2.02637 -1.37533,1.35093 -2.13624,3.15757 -2.28271,5.41992 z"
         id="path17582" />
      <path
         inkscape:connector-curvature="0"
         d="m 377.19434,730.21617 0,-25.92773 3.95507,0 0,3.68652 c 1.90429,-2.84828 4.65494,-4.27243 8.25196,-4.27246 1.56248,3e-5 2.99884,0.28079 4.30908,0.84229 1.3102,0.56155 2.29083,1.29804 2.94189,2.20947 0.65102,0.91148 1.10675,1.99384 1.36719,3.24707 0.16274,0.81382 0.24412,2.23797 0.24414,4.27246 l 0,15.94238 -4.39453,0 0,-15.77148 c -2e-5,-1.79035 -0.17092,-3.12905 -0.51269,-4.01611 -0.34182,-0.88703 -0.9481,-1.59503 -1.81885,-2.12403 -0.87079,-0.52895 -1.89211,-0.79343 -3.06397,-0.79345 -1.87175,2e-5 -3.48715,0.59409 -4.84619,1.78222 -1.35906,1.18817 -2.03858,3.4424 -2.03857,6.7627 l 0,14.16015 z"
         id="path17584" />
      <path
         inkscape:connector-curvature="0"
         d="m 419.45508,730.21617 0,-35.79101 13.50097,0 c 2.37629,3e-5 4.19106,0.11397 5.44434,0.3418 1.75779,0.293 3.23077,0.85045 4.41895,1.67236 1.18812,0.82197 2.14434,1.9735 2.86865,3.45459 0.72425,1.48115 1.08639,3.10875 1.08642,4.88281 -3e-5,3.04364 -0.96845,5.61932 -2.90527,7.72705 -1.93687,2.10776 -5.43622,3.16164 -10.49805,3.16162 l -9.17968,0 0,14.55078 z m 4.73633,-18.77441 9.25293,0 c 3.05987,2e-5 5.23272,-0.56964 6.51855,-1.70898 1.28578,-1.13931 1.92869,-2.74249 1.92871,-4.80957 -2e-5,-1.49737 -0.37844,-2.77911 -1.13525,-3.84522 -0.75686,-1.06605 -1.75377,-1.76999 -2.99073,-2.11182 -0.79754,-0.21155 -2.27052,-0.31735 -4.41894,-0.31738 l -9.15527,0 z"
         id="path17586" />
      <path
         inkscape:connector-curvature="0"
         d="m 452.19434,730.21617 0,-35.79101 4.39453,0 0,35.79101 z"
         id="path17588" />
      <path
         inkscape:connector-curvature="0"
         d="m 480.34375,727.01793 c -1.62762,1.38347 -3.19419,2.36003 -4.69971,2.92969 -1.50554,0.56966 -3.12094,0.85449 -4.84619,0.85449 -2.84831,0 -5.03744,-0.6958 -6.56738,-2.0874 -1.52995,-1.3916 -2.29492,-3.16976 -2.29492,-5.33447 0,-1.26953 0.28889,-2.42919 0.8667,-3.47901 0.57779,-1.04979 1.33463,-1.89208 2.2705,-2.52685 0.93587,-0.63476 1.98974,-1.1149 3.16162,-1.44043 0.86263,-0.22785 2.16471,-0.44758 3.90625,-0.65918 3.54817,-0.42316 6.16047,-0.92772 7.83692,-1.51367 0.0163,-0.6022 0.0244,-0.98469 0.0244,-1.14747 -2e-5,-1.79034 -0.41506,-3.05173 -1.24511,-3.78417 -1.12307,-0.99282 -2.79136,-1.48924 -5.00489,-1.48926 -2.06707,2e-5 -3.59294,0.36216 -4.57763,1.08642 -0.98471,0.72431 -1.71306,2.00604 -2.18506,3.84522 l -4.29688,-0.58594 c 0.39062,-1.83917 1.03353,-3.32436 1.92871,-4.45557 0.89518,-1.13116 2.18912,-2.00192 3.88184,-2.6123 1.6927,-0.61033 3.65396,-0.9155 5.88379,-0.91553 2.21352,3e-5 4.01202,0.26044 5.39551,0.78125 1.38344,0.52086 2.40069,1.17597 3.05175,1.96533 0.65102,0.78941 1.10675,1.78632 1.36719,2.99073 0.14646,0.74871 0.2197,2.09962 0.21973,4.05273 l 0,5.85938 c -3e-5,4.08529 0.0936,6.66911 0.28076,7.75146 0.18715,1.08236 0.55743,2.11996 1.11084,3.11279 l -4.58984,0 c -0.45575,-0.91145 -0.74872,-1.97753 -0.87891,-3.19824 z m -0.36621,-9.81445 c -1.59507,0.65105 -3.98765,1.20444 -7.17774,1.66015 -1.80665,0.26043 -3.08431,0.5534 -3.833,0.87891 -0.74871,0.32553 -1.32651,0.80161 -1.7334,1.42822 -0.40691,0.62664 -0.61036,1.32244 -0.61035,2.08741 -10e-6,1.17188 0.44351,2.14844 1.33056,2.92968 0.88704,0.78126 2.18505,1.17188 3.89405,1.17188 1.69269,0 3.19822,-0.37028 4.5166,-1.11084 1.31834,-0.74056 2.28676,-1.75374 2.90527,-3.03955 0.47199,-0.99283 0.70799,-2.45767 0.70801,-4.39453 z"
         id="path17590" />
      <path
         inkscape:connector-curvature="0"
         d="m 491.25684,730.21617 0,-25.92773 3.95507,0 0,3.68652 c 1.90429,-2.84828 4.65494,-4.27243 8.25196,-4.27246 1.56248,3e-5 2.99884,0.28079 4.30908,0.84229 1.3102,0.56155 2.29083,1.29804 2.94189,2.20947 0.65102,0.91148 1.10675,1.99384 1.36719,3.24707 0.16274,0.81382 0.24412,2.23797 0.24414,4.27246 l 0,15.94238 -4.39453,0 0,-15.77148 c -2e-5,-1.79035 -0.17092,-3.12905 -0.51269,-4.01611 -0.34182,-0.88703 -0.9481,-1.59503 -1.81885,-2.12403 -0.87079,-0.52895 -1.89211,-0.79343 -3.06397,-0.79345 -1.87175,2e-5 -3.48715,0.59409 -4.84619,1.78222 -1.35906,1.18817 -2.03858,3.4424 -2.03857,6.7627 l 0,14.16015 z"
         id="path17592" />
      <path
         inkscape:connector-curvature="0"
         d="m 536.83789,721.86656 4.54102,0.56153 c -0.71617,2.653 -2.04267,4.71192 -3.9795,6.17676 -1.93686,1.46484 -4.41082,2.19726 -7.42187,2.19726 -3.79233,0 -6.79932,-1.1678 -9.021,-3.50342 -2.22168,-2.3356 -3.33252,-5.61115 -3.33252,-9.82666 0,-4.36196 1.12305,-7.74737 3.36914,-10.15625 2.24609,-2.40883 5.1595,-3.61325 8.74024,-3.61328 3.46678,3e-5 6.29881,1.18004 8.49609,3.54004 2.19724,2.36005 3.29587,5.68036 3.2959,9.96094 -3e-5,0.26043 -0.008,0.65105 -0.0244,1.17187 l -19.33594,0 c 0.16275,2.84832 0.96842,5.02931 2.41699,6.54297 1.44856,1.51368 3.2552,2.27051 5.41992,2.27051 1.61132,0 2.98664,-0.42317 4.12598,-1.26953 1.1393,-0.84635 2.04262,-2.19726 2.70996,-4.05274 z m -14.42871,-7.10449 14.47754,0 c -0.19533,-2.18097 -0.74872,-3.81671 -1.66016,-4.90722 -1.39976,-1.69269 -3.21453,-2.53904 -5.44433,-2.53907 -2.01824,3e-5 -3.71502,0.67548 -5.09034,2.02637 -1.37533,1.35093 -2.13623,3.15757 -2.28271,5.41992 z"
         id="path17594" />
      <path
         inkscape:connector-curvature="0"
         d="m 556.51562,726.28551 0.63477,3.88184 c -1.23699,0.26041 -2.34376,0.39062 -3.32031,0.39062 -1.59506,0 -2.83204,-0.25228 -3.71094,-0.75684 -0.87891,-0.50455 -1.4974,-1.1678 -1.85547,-1.98974 -0.35808,-0.82194 -0.53711,-2.55127 -0.53711,-5.18799 l 0,-14.91699 -3.22265,0 0,-3.41797 3.22265,0 0,-6.4209 4.37012,-2.63672 0,9.05762 4.41894,0 0,3.41797 -4.41894,0 0,15.16113 c -10e-6,1.25326 0.0773,2.05893 0.23193,2.41699 0.15462,0.35808 0.4069,0.64291 0.75684,0.8545 0.34992,0.21159 0.85041,0.31738 1.50146,0.31738 0.48827,0 1.13118,-0.057 1.92871,-0.1709 z"
         id="path17596" />
    </g>
  </g>
</svg>
