<?xml version="1.0" encoding="UTF-8" standalone="no"?>
<!-- Created with Inkscape (http://www.inkscape.org/) -->

<svg
   xmlns:dc="http://purl.org/dc/elements/1.1/"
   xmlns:cc="http://creativecommons.org/ns#"
   xmlns:rdf="http://www.w3.org/1999/02/22-rdf-syntax-ns#"
   xmlns:svg="http://www.w3.org/2000/svg"
   xmlns="http://www.w3.org/2000/svg"
   xmlns:sodipodi="http://sodipodi.sourceforge.net/DTD/sodipodi-0.dtd"
   xmlns:inkscape="http://www.inkscape.org/namespaces/inkscape"
   width="451.38089"
   height="313.58853"
   id="svg2"
   version="1.1"
   inkscape:version="0.48.1 "
   sodipodi:docname="stdeepstage.svg">
  <defs
     id="defs4">
    <inkscape:path-effect
       is_visible="true"
       id="path-effect4889"
       effect="spiro" />
    <inkscape:path-effect
       is_visible="true"
       id="path-effect4901"
       effect="spiro" />
    <inkscape:path-effect
       is_visible="true"
       id="path-effect5035"
       effect="spiro" />
    <inkscape:path-effect
       is_visible="true"
       id="path-effect4889-3"
       effect="spiro" />
    <inkscape:path-effect
       is_visible="true"
       id="path-effect4901-9"
       effect="spiro" />
    <inkscape:path-effect
       is_visible="true"
       id="path-effect5035-1"
       effect="spiro" />
    <marker
       inkscape:stockid="Arrow1Lend"
       orient="auto"
       refY="0"
       refX="0"
       id="Arrow1Lend"
       style="overflow:visible">
      <path
         id="path3945"
         d="M 0,0 5,-5 -12.5,0 5,5 0,0 z"
         style="fill-rule:evenodd;stroke:#000000;stroke-width:1pt;marker-start:none"
         transform="matrix(-0.8,0,0,-0.8,-10,0)"
         inkscape:connector-curvature="0" />
    </marker>
    <marker
       inkscape:stockid="Arrow1Lstart"
       orient="auto"
       refY="0"
       refX="0"
       id="Arrow1Lstart"
       style="overflow:visible">
      <path
         id="path3942"
         d="M 0,0 5,-5 -12.5,0 5,5 0,0 z"
         style="fill-rule:evenodd;stroke:#000000;stroke-width:1pt;marker-start:none"
         transform="matrix(0.8,0,0,0.8,10,0)"
         inkscape:connector-curvature="0" />
    </marker>
    <filter
       color-interpolation-filters="sRGB"
       inkscape:menu-tooltip="Glow of object's own color at the edges"
       inkscape:menu="Shadows and Glows"
       inkscape:label="Glow"
       id="filter2993">
      <feGaussianBlur
         result="result91"
         stdDeviation="5"
         id="feGaussianBlur2995" />
      <feComposite
         operator="over"
         in="SourceGraphic"
         in2="result91"
         id="feComposite2997" />
    </filter>
    <marker
       inkscape:stockid="Arrow1Lend"
       orient="auto"
       refY="0"
       refX="0"
       id="Arrow1Lend-7"
       style="overflow:visible">
      <path
         id="path3945-1"
         d="M 0,0 5,-5 -12.5,0 5,5 0,0 z"
         style="fill-rule:evenodd;stroke:#000000;stroke-width:1pt;marker-start:none"
         transform="matrix(-0.8,0,0,-0.8,-10,0)"
         inkscape:connector-curvature="0" />
    </marker>
    <marker
       inkscape:stockid="Arrow1Lstart"
       orient="auto"
       refY="0"
       refX="0"
       id="Arrow1Lstart-6"
       style="overflow:visible">
      <path
         id="path3942-2"
         d="M 0,0 5,-5 -12.5,0 5,5 0,0 z"
         style="fill-rule:evenodd;stroke:#000000;stroke-width:1pt;marker-start:none"
         transform="matrix(0.8,0,0,0.8,10,0)"
         inkscape:connector-curvature="0" />
    </marker>
    <filter
       color-interpolation-filters="sRGB"
       inkscape:menu-tooltip="Glow of object's own color at the edges"
       inkscape:menu="Shadows and Glows"
       inkscape:label="Glow"
       id="filter2993-2">
      <feGaussianBlur
         result="result91"
         stdDeviation="5"
         id="feGaussianBlur2995-1" />
      <feComposite
         operator="over"
         in="SourceGraphic"
         in2="result91"
         id="feComposite2997-4" />
    </filter>
    <filter
       id="filter4412-8"
       inkscape:label="Glow"
       inkscape:menu="Shadows and Glows"
       inkscape:menu-tooltip="Glow of object's own color at the edges"
       color-interpolation-filters="sRGB">
      <feGaussianBlur
         id="feGaussianBlur4414-5"
         stdDeviation="5"
         result="result91" />
      <feComposite
         id="feComposite4416-7"
         in2="result91"
         in="SourceGraphic"
         operator="over" />
    </filter>
    <filter
       id="filter4412-8-7"
       inkscape:label="Glow"
       inkscape:menu="Shadows and Glows"
       inkscape:menu-tooltip="Glow of object's own color at the edges"
       color-interpolation-filters="sRGB">
      <feGaussianBlur
         id="feGaussianBlur4414-5-0"
         stdDeviation="5"
         result="result91" />
      <feComposite
         id="feComposite4416-7-8"
         in2="result91"
         in="SourceGraphic"
         operator="over" />
    </filter>
    <filter
       id="filter4412-8-6"
       inkscape:label="Glow"
       inkscape:menu="Shadows and Glows"
       inkscape:menu-tooltip="Glow of object's own color at the edges"
       color-interpolation-filters="sRGB">
      <feGaussianBlur
         id="feGaussianBlur4414-5-8"
         stdDeviation="5"
         result="result91" />
      <feComposite
         id="feComposite4416-7-9"
         in2="result91"
         in="SourceGraphic"
         operator="over" />
    </filter>
    <filter
       id="filter4412-8-9"
       inkscape:label="Glow"
       inkscape:menu="Shadows and Glows"
       inkscape:menu-tooltip="Glow of object's own color at the edges"
       color-interpolation-filters="sRGB">
      <feGaussianBlur
         id="feGaussianBlur4414-5-89"
         stdDeviation="5"
         result="result91" />
      <feComposite
         id="feComposite4416-7-2"
         in2="result91"
         in="SourceGraphic"
         operator="over" />
    </filter>
  </defs>
  <sodipodi:namedview
     id="base"
     pagecolor="#ffffff"
     bordercolor="#666666"
     borderopacity="1.0"
     inkscape:pageopacity="0.0"
     inkscape:pageshadow="2"
     inkscape:zoom="0.57666667"
     inkscape:cx="36.311961"
     inkscape:cy="171.76717"
     inkscape:document-units="px"
     inkscape:current-layer="layer2"
     showgrid="false"
     inkscape:window-width="1280"
     inkscape:window-height="738"
     inkscape:window-x="-8"
     inkscape:window-y="-8"
     inkscape:window-maximized="1"
     fit-margin-top="0"
     fit-margin-left="0"
     fit-margin-right="0"
     fit-margin-bottom="0" />
  <metadata
     id="metadata7">
    <rdf:RDF>
      <cc:Work
         rdf:about="">
        <dc:format>image/svg+xml</dc:format>
        <dc:type
           rdf:resource="http://purl.org/dc/dcmitype/StillImage" />
        <dc:title></dc:title>
      </cc:Work>
    </rdf:RDF>
  </metadata>
  <g
     inkscape:label="Layer 1"
     inkscape:groupmode="layer"
     id="layer1"
     transform="translate(130.63553,-546.78614)" />
  <g
     inkscape:groupmode="layer"
     id="layer2"
     inkscape:label="Layer"
     transform="translate(-192.22159,-450.13825)">
    <g
       id="g17642">
      <g
         transform="matrix(0.6765645,0,0,0.7363597,97.797224,248.15185)"
         inkscape:label="Layer 1"
         id="layer1-4">
        <g
           id="g13793">
          <rect
             y="318.07648"
             x="231.42857"
             height="334.28574"
             width="485.71426"
             id="rect13779"
             style="fill:#000000;fill-opacity:1;stroke:#000000;stroke-width:8;stroke-miterlimit:4;stroke-opacity:1;stroke-dasharray:none" />
          <path
             inkscape:connector-curvature="0"
             d="m 349.31654,559.25039 c 7.88585,2.03184 15.62715,4.62037 23.20072,7.60642 6.14059,1.69407 11.80866,4.62596 17.74909,6.85367 5.80769,2.21546 11.77691,3.78154 17.39672,6.47975 5.23626,2.26943 10.47083,4.51083 16.02577,5.87419 6.61071,1.19657 13.34986,1.27778 20.04676,1.3685 6.54251,-0.247 12.89515,-0.0352 19.19763,1.8086 6.11537,2.18847 12.49801,3.02192 18.93403,3.52175 6.2098,0.38728 12.43452,0.3819 18.65362,0.3845 5.79423,0.24922 11.56955,-0.61674 17.11577,-2.27114 -7.9451,5.43972 16.65199,-8.94752 8.42541,-4.46005 -20.87719,11.38819 -11.27388,6.18794 -5.82794,2.08426 5.37522,-4.81064 10.37256,-10.02085 15.66591,-14.92468 4.95706,-4.75149 9.79855,-9.46906 14.02424,-14.88263 4.3484,-6.42646 9.42647,-12.25395 14.89898,-17.73511 0,0 15.45596,-6.38718 15.45596,-6.38718 l 0,0 c -5.50257,5.31499 -10.62012,11.04548 -14.80475,17.47451 -4.37322,5.38373 -8.86255,10.48116 -14.0264,15.16329 -5.32201,4.89067 -10.39594,10.00548 -15.56263,15.05446 -9.74316,7.49367 -20.27803,14.24138 -31.65387,18.90488 -5.703,1.39308 -11.49827,2.22913 -17.38564,1.91106 -6.23749,-0.0199 -12.4819,-0.0472 -18.7052,-0.51875 -6.50888,-0.59271 -12.92578,-1.60967 -19.12781,-3.75813 -6.23578,-1.55306 -12.51762,-1.63105 -18.92283,-1.48819 -6.79834,-0.1207 -13.64845,-0.24551 -20.32712,-1.66276 -5.58486,-1.52619 -10.9138,-3.78632 -16.20012,-6.12915 -5.63552,-2.55149 -11.56401,-4.18166 -17.33403,-6.38369 -5.88855,-2.34175 -11.62141,-5.08207 -17.71333,-6.89594 -7.47282,-2.98423 -15.15614,-5.61651 -23.04733,-7.22819 0,0 13.84839,-9.76425 13.84839,-9.76425 z"
             id="path13787"
             style="fill:#ffff00;fill-opacity:1;stroke:#ffff00;stroke-width:8;stroke-miterlimit:4;stroke-opacity:1;stroke-dasharray:none" />
          <path
             inkscape:connector-curvature="0"
             d="m 404.68011,385.54158 c -0.0344,12.71007 -0.60161,25.44983 0.21139,38.14211 1.03337,8.77214 1.81689,17.5601 2.25323,26.38158 0.34457,7.31722 0.35739,14.643 0.38184,21.96642 0,0 -15.0152,7.65442 -15.0152,7.65442 l 0,0 c -0.005,-7.30867 -0.0326,-14.61929 -0.29899,-21.92398 -0.39239,-8.83307 -1.18458,-17.62779 -2.13464,-26.41761 -0.72006,-12.68979 -0.0435,-25.41825 -0.47214,-38.12209 0,0 15.07451,-7.68085 15.07451,-7.68085 z"
             id="path13789"
             style="fill:#ffff00;fill-opacity:1;stroke:#ffff00;stroke-width:8;stroke-miterlimit:4;stroke-opacity:1;stroke-dasharray:none" />
          <path
             inkscape:connector-curvature="0"
             d="m 518.97832,388.0506 c -0.14641,9.9478 -0.11039,19.89677 -0.1048,29.84526 0.007,9.39427 0.0317,18.78856 0.0322,28.18282 0.006,6.29399 0.0379,12.5879 0.0279,18.88189 0,0 -15.0101,7.64803 -15.0101,7.64803 l 0,0 c -0.01,-6.30347 0.022,-12.60687 0.0279,-18.91035 4.4e-4,-9.40519 0.0254,-18.81041 0.0322,-28.21561 0.006,-9.91289 0.0422,-19.82627 -0.10481,-29.73847 0,0 15.0995,-7.69357 15.0995,-7.69357 z"
             id="path13791"
             style="fill:#ffff00;fill-opacity:1;stroke:#ffff00;stroke-width:8;stroke-miterlimit:4;stroke-opacity:1;stroke-dasharray:none" />
        </g>
      </g>
      <rect
         transform="matrix(1.0838967,0,0,0.66803467,-624.86433,302.75754)"
         rx="15.26333"
         y="252.04729"
         x="794.71136"
         height="406.57336"
         width="334.71524"
         id="rect4409-9-3"
         style="opacity:0.5;fill:none;stroke:#00ff00;stroke-width:7.52072287;stroke-miterlimit:4;stroke-opacity:1;stroke-dasharray:none;display:inline;filter:url(#filter4412-8-6)" />
      <g
         id="flowRoot17496"
         style="font-size:50px;font-style:normal;font-weight:normal;line-height:125%;letter-spacing:0px;word-spacing:0px;fill:#ffffff;fill-opacity:1;stroke:none;font-family:Sans"
         transform="translate(12.138728,-199.42197)">
        <path
           id="path17574"
           d="m 255.09961,730.21617 0,-35.79101 13.42773,0 c 2.73436,3e-5 4.92755,0.36218 6.57959,1.08642 1.652,0.72432 2.94594,1.83923 3.88184,3.34473 0.93584,1.50556 1.40378,3.08027 1.40381,4.72412 -3e-5,1.52997 -0.41507,2.9704 -1.24512,4.32129 -0.8301,1.35093 -2.08336,2.44143 -3.75976,3.27149 2.16468,0.63478 3.82891,1.71713 4.99267,3.24707 1.16371,1.52996 1.74558,3.3366 1.74561,5.41992 -3e-5,1.67644 -0.35404,3.23487 -1.06202,4.67529 -0.70803,1.44043 -1.58287,2.55127 -2.62451,3.33252 -1.04169,0.78125 -2.34784,1.37126 -3.91845,1.77002 -1.57066,0.39876 -3.4953,0.59814 -5.77393,0.59814 z m 4.73633,-20.75195 7.73926,0 c 2.09959,2e-5 3.60512,-0.13832 4.5166,-0.41504 1.2044,-0.35805 2.11179,-0.95212 2.72216,-1.78222 0.61033,-0.83006 0.91551,-1.87172 0.91553,-3.125 -2e-5,-1.18813 -0.28485,-2.23386 -0.85449,-3.13721 -0.56968,-0.90329 -1.38349,-1.52178 -2.44141,-1.85547 -1.05796,-0.33363 -2.87274,-0.50046 -5.44433,-0.50049 l -7.15332,0 z m 0,16.52832 8.91113,0 c 1.52993,1e-5 2.60415,-0.057 3.22266,-0.1709 1.09047,-0.19531 2.00193,-0.52083 2.73437,-0.97656 0.7324,-0.45572 1.33461,-1.11897 1.80664,-1.98975 0.47198,-0.87076 0.70798,-1.8758 0.70801,-3.01513 -3e-5,-1.33463 -0.34182,-2.49429 -1.02539,-3.47901 -0.68362,-0.98468 -1.6317,-1.67641 -2.84424,-2.07519 -1.21258,-0.39875 -2.95819,-0.59813 -5.23682,-0.59815 l -8.27636,0 z"
           inkscape:connector-curvature="0" />
        <path
           id="path17576"
           d="m 305.05078,727.01793 c -1.62762,1.38347 -3.19419,2.36003 -4.69971,2.92969 -1.50554,0.56966 -3.12094,0.85449 -4.84619,0.85449 -2.84831,0 -5.03744,-0.6958 -6.56738,-2.0874 -1.52995,-1.3916 -2.29492,-3.16976 -2.29492,-5.33447 0,-1.26953 0.2889,-2.42919 0.8667,-3.47901 0.57779,-1.04979 1.33463,-1.89208 2.27051,-2.52685 0.93586,-0.63476 1.98973,-1.1149 3.16162,-1.44043 0.86262,-0.22785 2.1647,-0.44758 3.90625,-0.65918 3.54816,-0.42316 6.16046,-0.92772 7.83691,-1.51367 0.0163,-0.6022 0.0244,-0.98469 0.0244,-1.14747 -2e-5,-1.79034 -0.41505,-3.05173 -1.24511,-3.78417 -1.12307,-0.99282 -2.79136,-1.48924 -5.00489,-1.48926 -2.06706,2e-5 -3.59294,0.36216 -4.57763,1.08642 -0.98471,0.72431 -1.71306,2.00604 -2.18506,3.84522 l -4.29688,-0.58594 c 0.39063,-1.83917 1.03353,-3.32436 1.92871,-4.45557 0.89518,-1.13116 2.18913,-2.00192 3.88184,-2.6123 1.6927,-0.61033 3.65396,-0.9155 5.88379,-0.91553 2.21353,3e-5 4.01203,0.26044 5.39551,0.78125 1.38344,0.52086 2.40069,1.17597 3.05176,1.96533 0.65101,0.78941 1.10674,1.78632 1.36718,2.99073 0.14646,0.74871 0.21971,2.09962 0.21973,4.05273 l 0,5.85938 c -2e-5,4.08529 0.0936,6.66911 0.28076,7.75146 0.18715,1.08236 0.55743,2.11996 1.11084,3.11279 l -4.58984,0 c -0.45575,-0.91145 -0.74872,-1.97753 -0.87891,-3.19824 z m -0.36621,-9.81445 c -1.59507,0.65105 -3.98765,1.20444 -7.17773,1.66015 -1.80666,0.26043 -3.08432,0.5534 -3.83301,0.87891 -0.74871,0.32553 -1.32651,0.80161 -1.7334,1.42822 -0.40691,0.62664 -0.61036,1.32244 -0.61035,2.08741 -1e-5,1.17188 0.44351,2.14844 1.33056,2.92968 0.88704,0.78126 2.18505,1.17188 3.89405,1.17188 1.69269,0 3.19822,-0.37028 4.5166,-1.11084 1.31834,-0.74056 2.28676,-1.75374 2.90527,-3.03955 0.47199,-0.99283 0.70799,-2.45767 0.70801,-4.39453 z"
           inkscape:connector-curvature="0" />
        <path
           id="path17578"
           d="m 315.91504,730.21617 0,-25.92773 3.95508,0 0,3.93066 c 1.0091,-1.83917 1.94091,-3.05173 2.79541,-3.63769 0.85448,-0.58591 1.79442,-0.87888 2.81982,-0.87891 1.48111,3e-5 2.98664,0.47203 4.5166,1.41602 l -1.51367,4.07715 c -1.07423,-0.63475 -2.14845,-0.95213 -3.22266,-0.95215 -0.96029,2e-5 -1.82292,0.28892 -2.58789,0.8667 -0.76498,0.57782 -1.31023,1.37941 -1.63574,2.40478 -0.48829,1.56252 -0.73243,3.2715 -0.73242,5.12696 l 0,13.57421 z"
           inkscape:connector-curvature="0" />
        <path
           id="path17580"
           d="m 332.61426,730.21617 0,-25.92773 3.95508,0 0,3.93066 c 1.0091,-1.83917 1.9409,-3.05173 2.79541,-3.63769 0.85448,-0.58591 1.79442,-0.87888 2.81982,-0.87891 1.48111,3e-5 2.98664,0.47203 4.5166,1.41602 l -1.51367,4.07715 c -1.07423,-0.63475 -2.14845,-0.95213 -3.22266,-0.95215 -0.96029,2e-5 -1.82292,0.28892 -2.58789,0.8667 -0.76498,0.57782 -1.31023,1.37941 -1.63574,2.40478 -0.48829,1.56252 -0.73243,3.2715 -0.73242,5.12696 l 0,13.57421 z"
           inkscape:connector-curvature="0" />
        <path
           id="path17582"
           d="m 367.11133,721.86656 4.54101,0.56153 c -0.71617,2.653 -2.04266,4.71192 -3.97949,6.17676 -1.93687,1.46484 -4.41082,2.19726 -7.42187,2.19726 -3.79233,0 -6.79933,-1.1678 -9.021,-3.50342 -2.22168,-2.3356 -3.33252,-5.61115 -3.33252,-9.82666 0,-4.36196 1.12304,-7.74737 3.36914,-10.15625 2.24609,-2.40883 5.1595,-3.61325 8.74024,-3.61328 3.46678,3e-5 6.2988,1.18004 8.49609,3.54004 2.19724,2.36005 3.29587,5.68036 3.2959,9.96094 -3e-5,0.26043 -0.008,0.65105 -0.0244,1.17187 l -19.33593,0 c 0.16275,2.84832 0.96841,5.02931 2.41699,6.54297 1.44856,1.51368 3.2552,2.27051 5.41992,2.27051 1.61131,0 2.98664,-0.42317 4.12598,-1.26953 1.1393,-0.84635 2.04262,-2.19726 2.70996,-4.05274 z m -14.42871,-7.10449 14.47754,0 c -0.19534,-2.18097 -0.74872,-3.81671 -1.66016,-4.90722 -1.39976,-1.69269 -3.21453,-2.53904 -5.44434,-2.53907 -2.01824,3e-5 -3.71501,0.67548 -5.09033,2.02637 -1.37533,1.35093 -2.13624,3.15757 -2.28271,5.41992 z"
           inkscape:connector-curvature="0" />
        <path
           id="path17584"
           d="m 377.19434,730.21617 0,-25.92773 3.95507,0 0,3.68652 c 1.90429,-2.84828 4.65494,-4.27243 8.25196,-4.27246 1.56248,3e-5 2.99884,0.28079 4.30908,0.84229 1.3102,0.56155 2.29083,1.29804 2.94189,2.20947 0.65102,0.91148 1.10675,1.99384 1.36719,3.24707 0.16274,0.81382 0.24412,2.23797 0.24414,4.27246 l 0,15.94238 -4.39453,0 0,-15.77148 c -2e-5,-1.79035 -0.17092,-3.12905 -0.51269,-4.01611 -0.34182,-0.88703 -0.9481,-1.59503 -1.81885,-2.12403 -0.87079,-0.52895 -1.89211,-0.79343 -3.06397,-0.79345 -1.87175,2e-5 -3.48715,0.59409 -4.84619,1.78222 -1.35906,1.18817 -2.03858,3.4424 -2.03857,6.7627 l 0,14.16015 z"
           inkscape:connector-curvature="0" />
        <path
           id="path17586"
           d="m 419.45508,730.21617 0,-35.79101 13.50097,0 c 2.37629,3e-5 4.19106,0.11397 5.44434,0.3418 1.75779,0.293 3.23077,0.85045 4.41895,1.67236 1.18812,0.82197 2.14434,1.9735 2.86865,3.45459 0.72425,1.48115 1.08639,3.10875 1.08642,4.88281 -3e-5,3.04364 -0.96845,5.61932 -2.90527,7.72705 -1.93687,2.10776 -5.43622,3.16164 -10.49805,3.16162 l -9.17968,0 0,14.55078 z m 4.73633,-18.77441 9.25293,0 c 3.05987,2e-5 5.23272,-0.56964 6.51855,-1.70898 1.28578,-1.13931 1.92869,-2.74249 1.92871,-4.80957 -2e-5,-1.49737 -0.37844,-2.77911 -1.13525,-3.84522 -0.75686,-1.06605 -1.75377,-1.76999 -2.99073,-2.11182 -0.79754,-0.21155 -2.27052,-0.31735 -4.41894,-0.31738 l -9.15527,0 z"
           inkscape:connector-curvature="0" />
        <path
           id="path17588"
           d="m 452.19434,730.21617 0,-35.79101 4.39453,0 0,35.79101 z"
           inkscape:connector-curvature="0" />
        <path
           id="path17590"
           d="m 480.34375,727.01793 c -1.62762,1.38347 -3.19419,2.36003 -4.69971,2.92969 -1.50554,0.56966 -3.12094,0.85449 -4.84619,0.85449 -2.84831,0 -5.03744,-0.6958 -6.56738,-2.0874 -1.52995,-1.3916 -2.29492,-3.16976 -2.29492,-5.33447 0,-1.26953 0.28889,-2.42919 0.8667,-3.47901 0.57779,-1.04979 1.33463,-1.89208 2.2705,-2.52685 0.93587,-0.63476 1.98974,-1.1149 3.16162,-1.44043 0.86263,-0.22785 2.16471,-0.44758 3.90625,-0.65918 3.54817,-0.42316 6.16047,-0.92772 7.83692,-1.51367 0.0163,-0.6022 0.0244,-0.98469 0.0244,-1.14747 -2e-5,-1.79034 -0.41506,-3.05173 -1.24511,-3.78417 -1.12307,-0.99282 -2.79136,-1.48924 -5.00489,-1.48926 -2.06707,2e-5 -3.59294,0.36216 -4.57763,1.08642 -0.98471,0.72431 -1.71306,2.00604 -2.18506,3.84522 l -4.29688,-0.58594 c 0.39062,-1.83917 1.03353,-3.32436 1.92871,-4.45557 0.89518,-1.13116 2.18912,-2.00192 3.88184,-2.6123 1.6927,-0.61033 3.65396,-0.9155 5.88379,-0.91553 2.21352,3e-5 4.01202,0.26044 5.39551,0.78125 1.38344,0.52086 2.40069,1.17597 3.05175,1.96533 0.65102,0.78941 1.10675,1.78632 1.36719,2.99073 0.14646,0.74871 0.2197,2.09962 0.21973,4.05273 l 0,5.85938 c -3e-5,4.08529 0.0936,6.66911 0.28076,7.75146 0.18715,1.08236 0.55743,2.11996 1.11084,3.11279 l -4.58984,0 c -0.45575,-0.91145 -0.74872,-1.97753 -0.87891,-3.19824 z m -0.36621,-9.81445 c -1.59507,0.65105 -3.98765,1.20444 -7.17774,1.66015 -1.80665,0.26043 -3.08431,0.5534 -3.833,0.87891 -0.74871,0.32553 -1.32651,0.80161 -1.7334,1.42822 -0.40691,0.62664 -0.61036,1.32244 -0.61035,2.08741 -10e-6,1.17188 0.44351,2.14844 1.33056,2.92968 0.88704,0.78126 2.18505,1.17188 3.89405,1.17188 1.69269,0 3.19822,-0.37028 4.5166,-1.11084 1.31834,-0.74056 2.28676,-1.75374 2.90527,-3.03955 0.47199,-0.99283 0.70799,-2.45767 0.70801,-4.39453 z"
           inkscape:connector-curvature="0" />
        <path
           id="path17592"
           d="m 491.25684,730.21617 0,-25.92773 3.95507,0 0,3.68652 c 1.90429,-2.84828 4.65494,-4.27243 8.25196,-4.27246 1.56248,3e-5 2.99884,0.28079 4.30908,0.84229 1.3102,0.56155 2.29083,1.29804 2.94189,2.20947 0.65102,0.91148 1.10675,1.99384 1.36719,3.24707 0.16274,0.81382 0.24412,2.23797 0.24414,4.27246 l 0,15.94238 -4.39453,0 0,-15.77148 c -2e-5,-1.79035 -0.17092,-3.12905 -0.51269,-4.01611 -0.34182,-0.88703 -0.9481,-1.59503 -1.81885,-2.12403 -0.87079,-0.52895 -1.89211,-0.79343 -3.06397,-0.79345 -1.87175,2e-5 -3.48715,0.59409 -4.84619,1.78222 -1.35906,1.18817 -2.03858,3.4424 -2.03857,6.7627 l 0,14.16015 z"
           inkscape:connector-curvature="0" />
        <path
           id="path17594"
           d="m 536.83789,721.86656 4.54102,0.56153 c -0.71617,2.653 -2.04267,4.71192 -3.9795,6.17676 -1.93686,1.46484 -4.41082,2.19726 -7.42187,2.19726 -3.79233,0 -6.79932,-1.1678 -9.021,-3.50342 -2.22168,-2.3356 -3.33252,-5.61115 -3.33252,-9.82666 0,-4.36196 1.12305,-7.74737 3.36914,-10.15625 2.24609,-2.40883 5.1595,-3.61325 8.74024,-3.61328 3.46678,3e-5 6.29881,1.18004 8.49609,3.54004 2.19724,2.36005 3.29587,5.68036 3.2959,9.96094 -3e-5,0.26043 -0.008,0.65105 -0.0244,1.17187 l -19.33594,0 c 0.16275,2.84832 0.96842,5.02931 2.41699,6.54297 1.44856,1.51368 3.2552,2.27051 5.41992,2.27051 1.61132,0 2.98664,-0.42317 4.12598,-1.26953 1.1393,-0.84635 2.04262,-2.19726 2.70996,-4.05274 z m -14.42871,-7.10449 14.47754,0 c -0.19533,-2.18097 -0.74872,-3.81671 -1.66016,-4.90722 -1.39976,-1.69269 -3.21453,-2.53904 -5.44433,-2.53907 -2.01824,3e-5 -3.71502,0.67548 -5.09034,2.02637 -1.37533,1.35093 -2.13623,3.15757 -2.28271,5.41992 z"
           inkscape:connector-curvature="0" />
        <path
           id="path17596"
           d="m 556.51562,726.28551 0.63477,3.88184 c -1.23699,0.26041 -2.34376,0.39062 -3.32031,0.39062 -1.59506,0 -2.83204,-0.25228 -3.71094,-0.75684 -0.87891,-0.50455 -1.4974,-1.1678 -1.85547,-1.98974 -0.35808,-0.82194 -0.53711,-2.55127 -0.53711,-5.18799 l 0,-14.91699 -3.22265,0 0,-3.41797 3.22265,0 0,-6.4209 4.37012,-2.63672 0,9.05762 4.41894,0 0,3.41797 -4.41894,0 0,15.16113 c -10e-6,1.25326 0.0773,2.05893 0.23193,2.41699 0.15462,0.35808 0.4069,0.64291 0.75684,0.8545 0.34992,0.21159 0.85041,0.31738 1.50146,0.31738 0.48827,0 1.13118,-0.057 1.92871,-0.1709 z"
           inkscape:connector-curvature="0" />
      </g>
    </g>
  </g>
</svg>
