<?xml version="1.0" encoding="UTF-8" standalone="no"?>
<!-- Created with Inkscape (http://www.inkscape.org/) -->

<svg
   xmlns:dc="http://purl.org/dc/elements/1.1/"
   xmlns:cc="http://creativecommons.org/ns#"
   xmlns:rdf="http://www.w3.org/1999/02/22-rdf-syntax-ns#"
   xmlns:svg="http://www.w3.org/2000/svg"
   xmlns="http://www.w3.org/2000/svg"
   xmlns:sodipodi="http://sodipodi.sourceforge.net/DTD/sodipodi-0.dtd"
   xmlns:inkscape="http://www.inkscape.org/namespaces/inkscape"
   width="449.2305"
   height="315.14807"
   id="svg2"
   version="1.1"
   inkscape:version="0.48.1 "
   sodipodi:docname="stsolarselect.svg">
  <defs
     id="defs4">
    <inkscape:path-effect
       is_visible="true"
       id="path-effect4889"
       effect="spiro" />
    <inkscape:path-effect
       is_visible="true"
       id="path-effect4901"
       effect="spiro" />
    <inkscape:path-effect
       is_visible="true"
       id="path-effect5035"
       effect="spiro" />
    <inkscape:path-effect
       is_visible="true"
       id="path-effect4889-3"
       effect="spiro" />
    <inkscape:path-effect
       is_visible="true"
       id="path-effect4901-9"
       effect="spiro" />
    <inkscape:path-effect
       is_visible="true"
       id="path-effect5035-1"
       effect="spiro" />
    <marker
       inkscape:stockid="Arrow1Lend"
       orient="auto"
       refY="0"
       refX="0"
       id="Arrow1Lend"
       style="overflow:visible">
      <path
         id="path3945"
         d="M 0,0 5,-5 -12.5,0 5,5 0,0 z"
         style="fill-rule:evenodd;stroke:#000000;stroke-width:1pt;marker-start:none"
         transform="matrix(-0.8,0,0,-0.8,-10,0)"
         inkscape:connector-curvature="0" />
    </marker>
    <marker
       inkscape:stockid="Arrow1Lstart"
       orient="auto"
       refY="0"
       refX="0"
       id="Arrow1Lstart"
       style="overflow:visible">
      <path
         id="path3942"
         d="M 0,0 5,-5 -12.5,0 5,5 0,0 z"
         style="fill-rule:evenodd;stroke:#000000;stroke-width:1pt;marker-start:none"
         transform="matrix(0.8,0,0,0.8,10,0)"
         inkscape:connector-curvature="0" />
    </marker>
    <filter
       color-interpolation-filters="sRGB"
       inkscape:menu-tooltip="Glow of object's own color at the edges"
       inkscape:menu="Shadows and Glows"
       inkscape:label="Glow"
       id="filter2993">
      <feGaussianBlur
         result="result91"
         stdDeviation="5"
         id="feGaussianBlur2995" />
      <feComposite
         operator="over"
         in="SourceGraphic"
         in2="result91"
         id="feComposite2997" />
    </filter>
    <marker
       inkscape:stockid="Arrow1Lend"
       orient="auto"
       refY="0"
       refX="0"
       id="Arrow1Lend-7"
       style="overflow:visible">
      <path
         id="path3945-1"
         d="M 0,0 5,-5 -12.5,0 5,5 0,0 z"
         style="fill-rule:evenodd;stroke:#000000;stroke-width:1pt;marker-start:none"
         transform="matrix(-0.8,0,0,-0.8,-10,0)"
         inkscape:connector-curvature="0" />
    </marker>
    <marker
       inkscape:stockid="Arrow1Lstart"
       orient="auto"
       refY="0"
       refX="0"
       id="Arrow1Lstart-6"
       style="overflow:visible">
      <path
         id="path3942-2"
         d="M 0,0 5,-5 -12.5,0 5,5 0,0 z"
         style="fill-rule:evenodd;stroke:#000000;stroke-width:1pt;marker-start:none"
         transform="matrix(0.8,0,0,0.8,10,0)"
         inkscape:connector-curvature="0" />
    </marker>
    <filter
       color-interpolation-filters="sRGB"
       inkscape:menu-tooltip="Glow of object's own color at the edges"
       inkscape:menu="Shadows and Glows"
       inkscape:label="Glow"
       id="filter2993-2">
      <feGaussianBlur
         result="result91"
         stdDeviation="5"
         id="feGaussianBlur2995-1" />
      <feComposite
         operator="over"
         in="SourceGraphic"
         in2="result91"
         id="feComposite2997-4" />
    </filter>
    <filter
       id="filter4412-8"
       inkscape:label="Glow"
       inkscape:menu="Shadows and Glows"
       inkscape:menu-tooltip="Glow of object's own color at the edges"
       color-interpolation-filters="sRGB">
      <feGaussianBlur
         id="feGaussianBlur4414-5"
         stdDeviation="5"
         result="result91" />
      <feComposite
         id="feComposite4416-7"
         in2="result91"
         in="SourceGraphic"
         operator="over" />
    </filter>
    <filter
       id="filter4412-8-7"
       inkscape:label="Glow"
       inkscape:menu="Shadows and Glows"
       inkscape:menu-tooltip="Glow of object's own color at the edges"
       color-interpolation-filters="sRGB">
      <feGaussianBlur
         id="feGaussianBlur4414-5-0"
         stdDeviation="5"
         result="result91" />
      <feComposite
         id="feComposite4416-7-8"
         in2="result91"
         in="SourceGraphic"
         operator="over" />
    </filter>
    <filter
       id="filter4412-8-6"
       inkscape:label="Glow"
       inkscape:menu="Shadows and Glows"
       inkscape:menu-tooltip="Glow of object's own color at the edges"
       color-interpolation-filters="sRGB">
      <feGaussianBlur
         id="feGaussianBlur4414-5-8"
         stdDeviation="5"
         result="result91" />
      <feComposite
         id="feComposite4416-7-9"
         in2="result91"
         in="SourceGraphic"
         operator="over" />
    </filter>
    <filter
       id="filter4412-8-9"
       inkscape:label="Glow"
       inkscape:menu="Shadows and Glows"
       inkscape:menu-tooltip="Glow of object's own color at the edges"
       color-interpolation-filters="sRGB">
      <feGaussianBlur
         id="feGaussianBlur4414-5-89"
         stdDeviation="5"
         result="result91" />
      <feComposite
         id="feComposite4416-7-2"
         in2="result91"
         in="SourceGraphic"
         operator="over" />
    </filter>
  </defs>
  <sodipodi:namedview
     id="base"
     pagecolor="#ffffff"
     bordercolor="#666666"
     borderopacity="1.0"
     inkscape:pageopacity="0.0"
     inkscape:pageshadow="2"
     inkscape:zoom="0.57666667"
     inkscape:cx="-72.908272"
     inkscape:cy="205.0707"
     inkscape:document-units="px"
     inkscape:current-layer="layer2"
     showgrid="false"
     inkscape:window-width="1280"
     inkscape:window-height="738"
     inkscape:window-x="-8"
     inkscape:window-y="-8"
     inkscape:window-maximized="1"
     fit-margin-top="0"
     fit-margin-left="0"
     fit-margin-right="0"
     fit-margin-bottom="0" />
  <metadata
     id="metadata7">
    <rdf:RDF>
      <cc:Work
         rdf:about="">
        <dc:format>image/svg+xml</dc:format>
        <dc:type
           rdf:resource="http://purl.org/dc/dcmitype/StillImage" />
        <dc:title />
      </cc:Work>
    </rdf:RDF>
  </metadata>
  <g
     inkscape:label="Layer 1"
     inkscape:groupmode="layer"
     id="layer1"
     transform="translate(-265.82243,-235.60565)" />
  <g
     inkscape:groupmode="layer"
     id="layer2"
     inkscape:label="Layer"
     transform="translate(-588.67955,-138.95776)">
    <rect
       style="opacity:0.5;fill:none;stroke:#00ff00;stroke-width:7.52072287;stroke-miterlimit:4;stroke-opacity:1;stroke-dasharray:none;display:inline;filter:url(#filter4412-8-7)"
       id="rect4409-9-4"
       width="334.71524"
       height="406.57336"
       x="794.71136"
       y="252.04729"
       rx="15.26333"
       transform="matrix(1.0838967,0,0,0.66803467,-229.4886,-7.6470847)" />
    <g
       id="g3480"
       transform="translate(73.115435,314.10228)">
      <path
         style="fill:#fafae0"
         d="m 572.84137,-17.57048 0,-125.89595 167.33799,0 167.338,0 0,125.89595 0,125.89595 -167.338,0 -167.33799,0 0,-125.89595 z"
         id="path3514"
         inkscape:connector-curvature="0" />
      <path
         style="fill:#e6e599"
         d="m 572.84137,-17.57048 0,-125.89595 167.33799,0 167.338,0 0,125.89595 0,125.89595 -167.338,0 -167.33799,0 0,-125.89595 z m 57.37303,-72.540048 c 1.80784,-1.8135 3.28699,-5.173994 3.28699,-7.467764 0,-2.293768 0.84265,-3.648078 1.87255,-3.009578 1.74238,1.080223 4.40263,-3.25364 4.40263,-7.1724 0,-0.94566 -3.5062,-3.79457 -7.79155,-6.33089 -6.43222,-3.80697 -9.61847,-4.36839 -18.26332,-3.21803 -5.75948,0.76641 -11.181,2.51227 -12.04781,3.87968 -2.51224,3.96306 -1.8851,21.334648 0.86997,24.098339 3.75147,3.763193 23.70232,3.201267 27.67054,-0.779357 z"
         id="path3512"
         inkscape:connector-curvature="0" />
      <path
         style="fill:#cbc978"
         d="m 572.84137,-17.57048 0,-125.89595 167.33799,0 167.338,0 0,125.89595 0,125.89595 -167.338,0 -167.33799,0 0,-125.89595 z m 55.8705,-62.947975 c 0.6017,-2.308092 2.75151,-4.196532 4.77736,-4.196532 5.40963,0 7.657,-3.939848 9.20137,-16.130893 1.32482,-10.45793 1.07226,-11.21983 -6.43372,-19.40896 -7.34668,-8.01533 -8.51023,-8.52373 -19.50781,-8.52373 -12.19588,0 -16.71528,2.39678 -16.71528,8.86465 0,2.17789 -2.31024,4.70991 -5.35791,5.87226 -5.03899,1.92181 -5.26972,2.63685 -3.87628,12.01309 0.91758,6.174247 3.00758,11.048764 5.48994,12.80423 2.20457,1.559015 4.86687,5.099839 5.91623,7.868496 1.70126,4.488634 3.18094,5.033921 13.66002,5.033921 9.99293,0 11.91584,-0.628171 12.84608,-4.196532 z"
         id="path3510"
         inkscape:connector-curvature="0" />
      <path
         style="fill:#a09b56"
         d="m 572.84137,-17.57048 0,-125.89595 167.33799,0 167.338,0 0,125.89595 0,125.89595 -167.338,0 -167.33799,0 0,-125.89595 z m 59.27323,-55.931307 c 4.69138,-0.77754 8.45306,-2.729447 9.05391,-4.698007 0.56536,-1.852286 2.36601,-5.874028 4.00144,-8.937204 1.63544,-3.063177 2.97352,-7.54822 2.97352,-9.966763 0,-2.418543 0.94127,-4.397349 2.09172,-4.397349 3.80176,0 2.17164,-9.43181 -2.09172,-12.10265 -2.3009,-1.44142 -4.18345,-4.85771 -4.18345,-7.59174 0,-7.40568 -4.35475,-9.76399 -20.54373,-11.12546 -20.26576,-1.70433 -32.01751,3.05319 -35.54458,14.38967 -4.28487,13.77215 -3.21397,26.37598 2.74932,32.357922 2.87612,2.885115 5.22931,6.100047 5.22931,7.144291 0,5.571439 17.79193,7.988859 36.26426,4.92729 z"
         id="path3508"
         inkscape:connector-curvature="0" />
      <path
         style="fill:#7b7541"
         d="m 572.84137,10.756109 c 0,-53.663149 0.53252,-97.569362 1.18338,-97.569362 3.59458,0 9.28431,4.837596 9.34135,7.942323 0.0777,4.227072 7.92692,13.667275 14.13523,17.000257 4.73158,2.540181 24.01569,3.061902 36.52299,0.988109 5.89067,-0.976712 7.84397,-2.303898 7.84397,-5.32964 0,-2.602949 2.53075,-5.089778 7.1499,-7.025816 6.84757,-2.870044 7.21255,-3.583677 8.6317,-16.876917 0.81499,-7.634085 0.65669,-19.654833 -0.35179,-26.712773 -1.61188,-11.28093 -2.46591,-12.97962 -7.06291,-14.04841 -3.74345,-0.87035 -5.41737,-2.83178 -5.89118,-6.90306 l -0.66187,-5.68725 131.91761,0 131.91761,0 0,125.89595 0,125.89595 -167.338,0 -167.33799,0 0,-97.569361 z m 2.61466,-138.826049 c -1.43806,-0.58209 -2.61466,-4.28442 -2.61466,-8.22741 0,-6.75133 0.41356,-7.16908 7.09725,-7.16908 8.56377,0 11.1511,4.71268 6.49819,11.83612 -3.16762,4.84952 -5.7374,5.68273 -10.98078,3.56037 z"
         id="path3506"
         inkscape:connector-curvature="0" />
      <path
         style="fill:#84673a"
         d="m 572.84137,24.394837 0,-83.930634 6.32695,0 c 4.72649,0 6.80237,1.254384 8.20642,4.958842 2.40612,6.348379 7.33529,7.574241 30.43872,7.569973 19.75143,-0.0036 22.45367,-0.748286 24.68097,-6.801134 0.75176,-2.042985 4.11484,-4.265836 7.4735,-4.939669 4.69584,-0.942104 6.39542,-2.67348 7.35656,-7.494183 0.71465,-3.584436 2.8776,-6.696019 5.0509,-7.266126 6.87842,-1.80437 10.71789,-25.372514 7.40753,-45.470306 -0.95974,-5.82678 -2.67804,-8.5517 -6.25215,-9.91483 -2.71077,-1.03385 -4.92868,-3.24221 -4.92868,-4.90746 0,-1.66524 -0.57134,-4.52127 -1.26965,-6.34673 -1.14908,-3.00382 10.67016,-3.31901 124.45763,-3.31901 l 125.72729,0 0,125.89595 0,125.89595 -167.338,0 -167.33799,0 0,-83.930633 z"
         id="path3504"
         inkscape:connector-curvature="0" />
      <path
         style="fill:#6d6839"
         d="m 572.84137,24.394837 0,-83.930634 6.32695,0 c 4.72649,0 6.80237,1.254384 8.20642,4.958842 2.40612,6.348379 7.33529,7.574241 30.43872,7.569973 19.75143,-0.0036 22.45367,-0.748286 24.68097,-6.801134 0.75176,-2.042985 4.11484,-4.265836 7.4735,-4.939669 4.69584,-0.942104 6.39542,-2.67348 7.35656,-7.494183 0.71465,-3.584436 2.8776,-6.696019 5.0509,-7.266126 6.87842,-1.80437 10.71789,-25.372514 7.40753,-45.470306 -0.95974,-5.82678 -2.67804,-8.5517 -6.25215,-9.91483 -2.71077,-1.03385 -4.92868,-3.24221 -4.92868,-4.90746 0,-1.66524 -0.57134,-4.52127 -1.26965,-6.34673 -1.14908,-3.00382 10.67016,-3.31901 124.45763,-3.31901 l 125.72729,0 0,125.89595 0,125.89595 -167.338,0 -167.33799,0 0,-83.930633 z M 779.54469,-94.703185 c 0.50225,-3.531356 -0.37704,-4.699662 -3.53707,-4.699662 -5.00657,0 -7.38291,3.173847 -5.68992,7.599486 1.78926,4.677328 8.44691,2.584988 9.22699,-2.899824 z"
         id="path3502"
         inkscape:connector-curvature="0" />
      <path
         style="fill:#4e4b2a"
         d="m 572.84137,38.258056 c 0,-59.868109 0.44981,-70.240563 3.09012,-71.256911 1.69956,-0.654224 12.57937,-0.362668 24.17735,0.647901 12.26663,1.068829 26.50444,1.051286 34.03801,-0.04194 7.12291,-1.033636 14.07599,-1.89832 15.45127,-1.921525 1.37529,-0.02321 3.72848,-2.598864 5.22932,-5.723687 1.50083,-3.124822 4.937,-6.201773 7.63592,-6.83767 4.82083,-1.135839 10.67352,-12.844039 10.74931,-21.503827 0.0174,-1.978978 1.79508,-4.544934 3.95058,-5.702128 2.90294,-1.558464 4.52298,-6.177085 6.24825,-17.813236 3.21719,-21.698503 1.30711,-34.355363 -6.26084,-41.486423 -3.29902,-3.10857 -5.99822,-6.64939 -5.99822,-7.86849 0,-1.5304 36.58428,-2.21655 118.18246,-2.21655 l 118.18246,0 0,125.895954 0,125.895946 -167.338,0 -167.33799,0 0,-70.06741 z M 779.54469,-94.703185 c 0.50225,-3.531356 -0.37704,-4.699662 -3.53707,-4.699662 -5.00657,0 -7.38291,3.173847 -5.68992,7.599486 1.78926,4.677328 8.44691,2.584988 9.22699,-2.899824 z"
         id="path3500"
         inkscape:connector-curvature="0" />
      <path
         style="fill:#203156"
         d="m 572.84137,52.721425 0,-55.6040442 6.27517,0 c 3.65827,0 8.17615,1.90691661 10.83359,4.5726605 4.05137,4.0640388 6.88493,4.5891739 25.47449,4.7210982 15.93831,0.1131175 21.6615,-0.5993718 24.04824,-2.9937785 3.27295,-3.28347753 18.98019,-8.1463114 26.82772,-8.3056432 3.09412,-0.062822 4.77586,-1.6040089 5.22931,-4.792265 0.38788,-2.7271958 2.42423,-5.0235888 4.85186,-5.4714568 6.26545,-1.155895 9.41277,-4.466241 9.41277,-9.900349 0,-2.678369 1.73883,-6.103578 3.86407,-7.611574 2.91837,-2.07077 4.8043,-8.775884 7.70572,-27.396436 3.21074,-20.605663 4.44235,-24.654624 7.49945,-24.654624 4.02145,0 5.13207,-2.634421 7.13956,-16.935313 1.58889,-11.31888 -2.07938,-27.12827 -6.29459,-27.12827 -3.43352,0 -4.21872,-1.15382 -6.06866,-8.91763 l -1.37491,-5.77023 104.62611,0 104.62609,0 0,125.89595 0,125.89595 -167.338,0 -167.33799,0 0,-55.604045 z M 719.63289,7.60871 c 3.53607,0 3.95363,-1.3140306 3.39906,-10.6966088 -0.61478,-10.4010242 -0.86345,-10.7783652 -8.99915,-13.6552332 -4.60179,-1.627243 -10.59982,-2.432131 -13.32896,-1.788637 -4.67758,1.102909 -4.87973,1.792551 -3.52604,12.029081 1.81775,13.7457332 4.37003,16.930941 12.29292,15.3414077 C 712.8427,8.1622136 717.41568,7.60871 719.63289,7.60871 z m 59.9118,-102.311895 c 0.50225,-3.531356 -0.37704,-4.699662 -3.53707,-4.699662 -5.00657,0 -7.38291,3.173847 -5.68992,7.599486 1.78926,4.677328 8.44691,2.584988 9.22699,-2.899824 z"
         id="path3498"
         inkscape:connector-curvature="0" />
      <path
         style="fill:#3b4127"
         d="m 572.84137,52.721425 0,-55.6040442 6.27517,0 c 3.65827,0 8.17615,1.90691661 10.83359,4.5726605 4.05137,4.0640388 6.88493,4.5891739 25.47449,4.7210982 15.93831,0.1131175 21.6615,-0.5993718 24.04824,-2.9937785 3.27295,-3.28347753 18.98019,-8.1463114 26.82772,-8.3056432 3.09412,-0.062822 4.77586,-1.6040089 5.22931,-4.792265 0.38788,-2.7271958 2.42423,-5.0235888 4.85186,-5.4714568 6.26545,-1.155895 9.41277,-4.466241 9.41277,-9.900349 0,-2.678369 1.73883,-6.103578 3.86407,-7.611574 2.91837,-2.07077 4.8043,-8.775884 7.70572,-27.396436 3.21074,-20.605663 4.44235,-24.654624 7.49945,-24.654624 4.02145,0 5.13207,-2.634421 7.13956,-16.935313 1.58889,-11.31888 -2.07938,-27.12827 -6.29459,-27.12827 -3.43352,0 -4.21872,-1.15382 -6.06866,-8.91763 l -1.37491,-5.77023 104.62611,0 104.62609,0 0,125.89595 0,125.89595 -167.338,0 -167.33799,0 0,-55.604045 z m 251.86966,-6.294797 c 2.66551,-2.885116 6.36774,-5.245665 8.22717,-5.245665 4.17383,0 6.03513,-6.863408 5.16692,-19.0527 l -0.66055,-9.273888 -13.07328,-0.62469 c -12.50104,-0.597349 -13.07328,-0.409071 -13.07328,4.301445 0,5.878168 -3.60142,9.961973 -8.78524,9.961973 -6.10644,0 -4.96707,9.733773 1.32479,11.317869 2.79944,0.704812 5.75013,3.403778 6.5571,5.9977 2.81757,9.056877 7.56545,9.925097 14.31637,2.617956 z M 719.63289,7.60871 c 3.53607,0 3.95363,-1.3140306 3.39906,-10.6966088 -0.61478,-10.4010242 -0.86345,-10.7783652 -8.99915,-13.6552332 -4.60179,-1.627243 -10.59982,-2.432131 -13.32896,-1.788637 -4.67758,1.102909 -4.87973,1.792551 -3.52604,12.029081 1.81775,13.7457332 4.37003,16.930941 12.29292,15.3414077 C 712.8427,8.1622136 717.41568,7.60871 719.63289,7.60871 z m 59.9118,-102.311895 c 0.50225,-3.531356 -0.37704,-4.699662 -3.53707,-4.699662 -5.00657,0 -7.38291,3.173847 -5.68992,7.599486 1.78926,4.677328 8.44691,2.584988 9.22699,-2.899824 z"
         id="path3496"
         inkscape:connector-curvature="0" />
      <path
         style="fill:#53311e"
         d="m 572.84137,66.17192 0,-42.15355 22.48604,0.701897 c 42.35329,1.32205 58.60684,0.16048 63.27468,-4.521962 3.791,-3.802849 4.18867,-3.852059 4.23911,-0.524566 0.0411,2.708491 0.99144,2.157936 3.62207,-2.098266 3.5778,-5.788665 9.97436,-7.336031 25.60642,-6.194341 11.51613,0.841083 27.92117,0.474888 31.63039,-0.706056 3.33157,-1.0607071 3.92894,-3.3987565 3.92894,-15.3777058 0,-8.0083212 -1.06257,-15.1926992 -2.45333,-16.5878112 -3.62689,-3.638225 1.06106,-12.578856 7.04152,-13.42926 4.19165,-0.59604 4.98229,-2.199979 6.02682,-12.226501 1.0933,-10.494697 8.12353,-28.419235 8.22965,-20.982658 0.037,2.58981 0.36652,2.638141 1.86023,0.272823 1.49791,-2.371968 2.14295,-2.287295 3.68917,0.484282 1.03062,1.847374 4.98876,3.98379 8.79586,4.747591 6.38373,1.280739 6.86699,1.005016 6.2145,-3.545665 -0.46416,-3.237211 -2.50613,-5.35489 -5.93683,-6.156939 -4.8539,-1.13478 -5.27371,-2.233038 -5.84781,-15.298446 -0.5648,-12.853776 -0.2577,-14.075896 3.53707,-14.075896 4.71021,0 5.3557,-0.80027 7.3347,-9.09344 0.93034,-3.89869 0.66981,-5.48163 -0.75667,-4.59727 -1.19656,0.74183 -2.17556,3.18149 -2.17556,5.42148 0,2.67385 -1.43688,4.0727 -4.18345,4.0727 -2.3009,0 -4.18345,-1.38311 -4.18345,-3.07358 0,-3.04455 -8.4783,-8.93996 -10.42314,-7.24775 -1.1934,1.03837 -3.92575,-13.41363 -4.09839,-21.67723 l -0.12055,-5.77023 83.669,0 83.669,0 0,125.89595 0,125.89595 -167.338,0 -167.33799,0 0,-42.15355 z M 824.71103,46.426628 c 2.66551,-2.885116 6.36774,-5.245665 8.22717,-5.245665 4.17383,0 6.03513,-6.863408 5.16692,-19.0527 l -0.66055,-9.273888 -13.07328,-0.62469 c -12.50104,-0.597349 -13.07328,-0.409071 -13.07328,4.301445 0,5.878168 -3.60142,9.961973 -8.78524,9.961973 -6.10644,0 -4.96707,9.733773 1.32479,11.317869 2.79944,0.704812 5.75013,3.403778 6.5571,5.9977 2.81757,9.056877 7.56545,9.925097 14.31637,2.617956 z M 779.54469,-94.703185 c 0.50225,-3.531356 -0.37704,-4.699662 -3.53707,-4.699662 -5.00657,0 -7.38291,3.173847 -5.68992,7.599486 1.78926,4.677328 8.44691,2.584988 9.22699,-2.899824 z m -35.18188,-1.901975 c 0,-8.99274 0.97031,-8.68812 2.78484,0.874278 0.74355,3.918398 0.42645,6.819364 -0.7454,6.819364 -1.12169,0 -2.03944,-3.462139 -2.03944,-7.693642 z"
         id="path3494"
         inkscape:connector-curvature="0" />
      <path
         style="fill:#2b2b27"
         d="m 572.84137,66.17192 0,-42.15355 22.48604,0.701897 c 42.35329,1.32205 58.60684,0.16048 63.27468,-4.521962 3.791,-3.802849 4.18867,-3.852059 4.23911,-0.524566 0.0411,2.708491 0.99144,2.157936 3.62207,-2.098266 3.5778,-5.788665 9.97436,-7.336031 25.60642,-6.194341 11.51613,0.841083 27.92117,0.474888 31.63039,-0.706056 3.33157,-1.0607071 3.92894,-3.3987565 3.92894,-15.3777058 0,-8.0083212 -1.06257,-15.1926992 -2.45333,-16.5878112 -3.62689,-3.638225 1.06106,-12.578856 7.04152,-13.42926 4.19165,-0.59604 4.98229,-2.199979 6.02682,-12.226501 1.0933,-10.494697 8.12353,-28.419235 8.22965,-20.982658 0.037,2.58981 0.36652,2.638141 1.86023,0.272823 1.49656,-2.36983 2.14627,-2.281344 3.70013,0.50393 2.70139,4.842206 24.6811,9.058641 28.90229,5.544413 1.7431,-1.451162 3.16926,-3.743931 3.16926,-5.09504 0,-1.351109 3.05915,-3.359989 6.7981,-4.464176 5.16682,-1.525859 6.95238,-3.344928 7.441,-7.580579 0.43853,-3.801462 2.19671,-5.964168 5.53105,-6.80365 3.84898,-0.969051 5.04865,-2.918816 5.64305,-9.171428 0.41521,-4.367408 0.27155,-10.740053 -0.31924,-14.161443 -1.2315,-7.13197 -5.77554,-8.74726 -25.7544,-9.15497 -13.91272,-0.28393 -20.25681,2.29001 -20.25681,8.21863 0,2.72386 -1.41946,4.12271 -4.18345,4.12271 -2.3009,0 -4.18345,-1.38311 -4.18345,-3.07358 0,-3.04455 -8.4783,-8.93996 -10.42314,-7.24775 -1.1934,1.03837 -3.92575,-13.41363 -4.09839,-21.67723 l -0.12055,-5.77023 83.669,0 83.669,0 0,125.89595 0,125.89595 -167.338,0 -167.33799,0 0,-42.15355 z M 824.71103,46.426628 c 2.66551,-2.885116 6.36774,-5.245665 8.22717,-5.245665 4.17383,0 6.03513,-6.863408 5.16692,-19.0527 l -0.66055,-9.273888 -13.07328,-0.62469 c -12.50104,-0.597349 -13.07328,-0.409071 -13.07328,4.301445 0,5.878168 -3.60142,9.961973 -8.78524,9.961973 -6.10644,0 -4.96707,9.733773 1.32479,11.317869 2.79944,0.704812 5.75013,3.403778 6.5571,5.9977 2.81757,9.056877 7.56545,9.925097 14.31637,2.617956 z M 744.36281,-96.60516 c 0,-8.99274 0.97031,-8.68812 2.78484,0.874278 0.74355,3.918398 0.42645,6.819364 -0.7454,6.819364 -1.12169,0 -2.03944,-3.462139 -2.03944,-7.693642 z"
         id="path3492"
         inkscape:connector-curvature="0" />
      <path
         style="fill:#2a1b27"
         d="m 572.84137,73.928577 c 0,-36.771502 0.0506,-36.944145 10.82553,-36.944145 2.44905,0 4.66552,-1.754272 5.30219,-4.196532 0.66684,-2.557941 2.83641,-4.183986 5.55642,-4.164401 3.47787,0.02503 3.8021,0.451306 1.46955,1.932012 -2.21451,1.405779 -0.99053,2.276698 4.70638,3.348786 7.96173,1.4983 25.63606,-0.839636 20.47566,-2.708492 -5.35725,-1.94014 10.35043,-6.800968 21.97721,-6.800968 8.47537,0 12.30012,-1.03903 15.44778,-4.196532 3.791,-3.802849 4.18867,-3.852059 4.23911,-0.524566 0.042,2.77423 0.88919,2.324721 3.46501,-1.838612 2.81164,-4.544491 5.43057,-5.719835 14.93844,-6.704203 6.34099,-0.656495 13.19135,-0.301231 15.223,0.789477 4.93094,2.647214 22.05477,2.527867 27.11543,-0.188991 3.38798,-1.8188587 4.04594,-4.4803788 4.04594,-16.3664672 0,-8.0600098 -1.06026,-15.2579508 -2.45333,-16.6553838 -4.37956,-4.393255 1.09909,-12.344278 9.60935,-13.945805 4.2505,-0.799894 7.48605,-2.648313 7.48605,-4.276671 0,-1.757597 3.44166,-3.404799 8.88983,-4.254733 16.03812,-2.502002 16.69691,-2.935006 15.82777,-10.403112 -0.76525,-6.575373 -0.53714,-6.804474 6.58406,-6.612762 5.58673,0.150404 7.84522,-0.865868 9.30726,-4.18807 1.06178,-2.412663 4.83104,-5.245322 8.37614,-6.294797 4.8139,-1.425079 6.60841,-3.318961 7.08854,-7.481098 0.44765,-3.880552 2.19451,-5.963614 5.75225,-6.85934 4.21572,-1.061391 5.10935,-2.587076 5.10935,-8.723274 0,-7.126377 0.28385,-7.409447 6.7981,-6.779387 l 6.79811,0.65751 0.60102,20.652525 c 0.51249,17.610911 1.07679,20.469379 3.8316,19.408959 1.77681,-0.683961 4.5655,-1.243566 6.19709,-1.243566 1.63156,0 3.07569,-2.124495 3.20914,-4.721099 0.20562,-4.000599 0.39756,-4.114231 1.25771,-0.744576 0.82799,3.243689 1.39086,3.437033 3.05419,1.049133 1.29972,-1.865895 2.37913,-2.11083 2.9768,-0.675478 1.48998,3.578352 13.36098,0.937474 13.55105,-3.014628 0.10041,-2.089638 0.57107,-2.428368 1.20212,-0.865315 0.79885,1.978684 2.08185,1.90408 5.5871,-0.324883 2.50258,-1.59136 9.49183,-3.543954 15.53168,-4.339096 l 10.98156,-1.445713 0,-11.343565 0,-11.343565 -17.25673,-0.04666 c -20.89016,-0.05648 -26.01694,-3.008973 -27.24511,-15.690333 l -0.81285,-8.39306 -0.35164,8.91763 c -0.51345,13.02184 -4.53507,10.92379 -4.53507,-2.36591 0,-7.47004 -1.06042,-12.16636 -3.13759,-13.89565 -3.92554,-3.26811 -3.96444,-5.76512 -0.14941,-9.59208 2.34186,-2.34917 10.25941,-2.99752 36.60519,-2.99752 l 33.61701,0 0,125.895948 0,125.895952 -40.93805,0 c -33.90688,0 -41.48616,-0.54983 -44.12939,-3.20132 -4.68197,-4.69662 -1.87781,-9.388277 5.61132,-9.388277 4.04421,0 8.34387,-1.913933 11.57013,-5.150298 2.82383,-2.832659 5.14865,-4.012934 5.16627,-2.622833 0.0188,1.558298 0.80956,1.320586 2.0597,-0.619932 3.70344,-5.748577 2.18211,-6.784302 -7.84397,-5.340171 -7.01109,1.009854 -11.06454,2.932893 -13.77068,6.533035 -3.21478,4.276832 -5.62587,5.101933 -14.90888,5.101933 -12.235,0 -16.98489,3.344783 -14.75559,10.390633 1.3587,4.29429 1.2829,4.29723 -110.68861,4.29723 l -112.04824,0 0,-34.396895 z M 811.29801,51.530895 c 0,-1.28053 1.78138,-1.672507 4.15969,-0.915302 2.89955,0.923162 5.66529,-0.305291 9.12969,-4.055133 2.73351,-2.958723 6.49138,-5.379497 8.35081,-5.379497 4.17383,0 6.03513,-6.863408 5.16692,-19.0527 l -0.66055,-9.273888 -14.13445,-0.620787 c -13.36347,-0.586925 -14.24155,-0.338178 -16.09817,4.560348 -1.1495,3.032886 -3.96185,5.465286 -6.78279,5.866451 -4.50589,0.640779 -4.794,1.558114 -4.43314,14.115282 0.2427,8.445532 1.40719,14.07959 3.13759,15.180299 3.94279,2.508032 12.1644,2.220737 12.1644,-0.425073 z m 75.6943,-13.881552 c -1.50998,-0.606128 -3.31409,-0.531583 -4.00915,0.165658 -0.69506,0.697237 0.54038,1.19316 2.74539,1.102051 2.43676,-0.100675 2.93239,-0.597882 1.26376,-1.267703 z m -68.37326,-95.086874 c 4.03335,-1.738604 4.019,-1.808602 -0.39948,-1.950789 -2.52061,-0.08111 -5.16468,0.796743 -5.87569,1.950789 -1.52906,2.481793 0.51774,2.481793 6.27517,0 z m -1.04586,-78.834849 c 0,-0.65945 1.59456,-2.78394 3.54348,-4.72109 3.31901,-3.29899 3.45152,-3.27863 2.09173,0.32148 -0.79847,2.11397 -1.45176,4.23847 -1.45176,4.7211 0,0.48264 -0.94128,0.87752 -2.09173,0.87752 -1.15045,0 -2.09172,-0.53955 -2.09172,-1.19901 z"
         id="path3490"
         inkscape:connector-curvature="0" />
      <path
         style="fill:#2b2819"
         d="m 572.84137,73.928577 c 0,-36.771502 0.0506,-36.944145 10.82553,-36.944145 2.44905,0 4.66552,-1.754272 5.30219,-4.196532 0.66684,-2.557941 2.83641,-4.183986 5.55642,-4.164401 3.47787,0.02503 3.8021,0.451306 1.46955,1.932012 -2.21451,1.405779 -0.99053,2.276698 4.70638,3.348786 7.96173,1.4983 25.63606,-0.839636 20.47566,-2.708492 -5.35725,-1.94014 10.35043,-6.800968 21.97721,-6.800968 8.47537,0 12.30012,-1.03903 15.44778,-4.196532 3.791,-3.802849 4.18867,-3.852059 4.23911,-0.524566 0.042,2.77423 0.88919,2.324721 3.46501,-1.838612 2.81164,-4.544491 5.43057,-5.719835 14.93844,-6.704203 6.34099,-0.656495 13.19135,-0.301231 15.223,0.789477 4.93094,2.647214 22.05477,2.527867 27.11543,-0.188991 3.38798,-1.8188587 4.04594,-4.4803788 4.04594,-16.3664672 0,-8.0600098 -1.06026,-15.2579508 -2.45333,-16.6553838 -4.37956,-4.393255 1.09909,-12.344278 9.60935,-13.945805 4.2505,-0.799894 7.48605,-2.648313 7.48605,-4.276671 0,-1.757597 3.44166,-3.404799 8.88983,-4.254733 16.03812,-2.502002 16.69691,-2.935006 15.82777,-10.403112 -0.76525,-6.575373 -0.53714,-6.804474 6.58406,-6.612762 5.58673,0.150404 7.84522,-0.865868 9.30726,-4.18807 1.06178,-2.412663 4.83104,-5.245322 8.37614,-6.294797 4.8139,-1.425079 6.60841,-3.318961 7.08854,-7.481098 0.44765,-3.880552 2.19451,-5.963614 5.75225,-6.85934 4.21572,-1.061391 5.10935,-2.587076 5.10935,-8.723274 0,-7.126377 0.28385,-7.409447 6.7981,-6.779387 l 6.79811,0.65751 0.60102,20.652525 c 0.51249,17.610911 1.07679,20.469379 3.8316,19.408959 1.77681,-0.683961 4.5655,-1.243566 6.19709,-1.243566 1.63156,0 3.07569,-2.124495 3.20914,-4.721099 0.20562,-4.000599 0.39756,-4.114231 1.25771,-0.744576 0.82799,3.243689 1.39086,3.437033 3.05419,1.049133 1.29972,-1.865895 2.37913,-2.11083 2.9768,-0.675478 1.48998,3.578352 13.36098,0.937474 13.55105,-3.014628 0.10041,-2.089638 0.57107,-2.428368 1.20212,-0.865315 0.79885,1.978684 2.08185,1.90408 5.5871,-0.324883 2.50258,-1.59136 9.49183,-3.543954 15.53168,-4.339096 l 10.98156,-1.445713 0,-10.977808 c 0,-8.933208 0.95328,-11.876172 5.11835,-15.801285 4.62735,-4.36076 5.42999,-4.51087 8.3669,-1.56476 2.80789,2.81667 3.24855,12.813863 3.24855,73.700485 l 0,70.441783 -7.09724,0 c -4.37907,0 -7.55837,1.205424 -8.30127,3.147398 -0.66219,1.73107 -0.0569,3.176112 1.34501,3.211205 1.40195,0.03508 0.90178,1.026231 -1.11151,2.202529 -2.01328,1.176298 -3.66051,4.508078 -3.66051,7.403957 0,2.89588 -0.73761,4.807939 -1.63914,4.249024 -0.90154,-0.558917 -3.96068,1.974215 -6.79811,5.629178 -10.04224,12.935641 -14.22287,16.120116 -21.27477,16.205347 -22.51543,0.272124 -29.81659,1.826373 -33.69986,7.173908 -3.30438,4.550362 -5.49626,5.332365 -14.94615,5.332365 -12.235,0 -16.98489,3.344783 -14.75559,10.390631 1.27706,4.03623 0.51619,4.29723 -12.52694,4.29723 -14.52283,0 -19.64098,-2.49901 -20.10558,-9.816884 -0.22013,-3.467153 -0.33813,-3.446149 -1.27146,0.226298 -0.56585,2.226466 -2.28254,5.305806 -3.81489,6.842926 -2.32028,2.32755 -2.7197,1.82614 -2.38906,-2.99901 0.34624,-5.052915 -0.43602,-5.875163 -6.11736,-6.43007 -5.78503,-0.565042 -6.65737,0.08099 -7.79167,5.77023 l -1.27731,6.40651 -83.72129,0 -83.72129,0 0,-34.396893 z M 811.29801,51.530895 c 0,-1.28053 1.78138,-1.672507 4.15969,-0.915302 2.89955,0.923162 5.66529,-0.305291 9.12969,-4.055133 2.73351,-2.958723 6.49138,-5.379497 8.35081,-5.379497 4.17383,0 6.03513,-6.863408 5.16692,-19.0527 l -0.66055,-9.273888 -14.13445,-0.620787 c -13.36347,-0.586925 -14.24155,-0.338178 -16.09817,4.560348 -1.1495,3.032886 -3.96185,5.465286 -6.78279,5.866451 -4.50589,0.640779 -4.794,1.558114 -4.43314,14.115282 0.2427,8.445532 1.40719,14.07959 3.13759,15.180299 3.94279,2.508032 12.1644,2.220737 12.1644,-0.425073 z m 75.6943,-13.881552 c -1.50998,-0.606128 -3.31409,-0.531583 -4.00915,0.165658 -0.69506,0.697237 0.54038,1.19316 2.74539,1.102051 2.43676,-0.100675 2.93239,-0.597882 1.26376,-1.267703 z m -68.37326,-95.086874 c 4.03335,-1.738604 4.019,-1.808602 -0.39948,-1.950789 -2.52061,-0.08111 -5.16468,0.796743 -5.87569,1.950789 -1.52906,2.481793 0.51774,2.481793 6.27517,0 z"
         id="path3488"
         inkscape:connector-curvature="0" />
      <path
         style="fill:#1a2c25"
         d="m 572.84137,79.998881 0,-28.326588 20.79864,0 c 19.19221,0 21.05469,0.364645 24.11381,4.721098 2.81892,4.014404 3.61944,4.249968 5.34792,1.573699 1.80689,-2.797687 2.26161,-2.797687 4.09245,0 1.13283,1.731069 2.07411,2.085152 2.09172,0.78685 0.0529,-3.902452 10.25258,-2.746584 11.53519,1.307219 1.06283,3.359146 12.48536,6.420757 24.42387,6.54638 1.97795,0.02098 4.43693,2.717758 5.64343,6.189548 1.69072,4.865144 3.38653,6.152661 8.10379,6.152661 6.94357,0 10.98578,3.350532 10.98578,9.10597 0,2.238556 1.29901,5.118426 2.8867,6.399711 1.58769,1.281264 3.48818,4.926183 4.2233,8.099811 l 1.3366,5.77023 -62.7916,0 -62.7916,0 0,-28.326589 z m 264.98737,-7.557324 c -0.73206,-2.80813 -2.91089,-3.983138 -7.38592,-3.983138 -3.49115,0 -6.9293,-0.944219 -7.64032,-2.098266 -0.71102,-1.154046 -3.1501,-2.098265 -5.42016,-2.098265 -2.36744,0 -4.87341,-2.013133 -5.87687,-4.721099 -2.39948,-6.4752 -0.555,-10.360208 4.19993,-8.84633 2.60326,0.828825 5.57466,-0.554175 8.88199,-4.133999 2.73351,-2.958723 6.49138,-5.379497 8.35081,-5.379497 4.17383,0 6.03513,-6.863408 5.16692,-19.0527 l -0.66055,-9.273888 -20.91724,0 c -25.43231,0 -33.4676,1.280095 -33.4676,5.331683 0,2.369009 -3.07497,3.06138 -13.59622,3.06138 l -13.59621,0 -0.63929,-8.837464 c -0.68661,-9.4914442 2.38459,-17.6637259 6.33061,-16.8454106 1.71256,0.3551462 2.29546,-4.4466072 1.97658,-16.2824424 l -0.45226,-16.786126 5.19418,6.218756 5.19419,6.218758 4.92902,-4.645059 c 2.71096,-2.554781 7.07436,-4.645057 9.69642,-4.645057 3.00963,0 5.1711,-1.548633 5.86235,-4.200201 0.65508,-2.512921 3.72745,-4.871689 7.64814,-5.871758 3.73546,-0.952827 7.45259,-3.708756 8.64491,-6.409491 1.46697,-3.322807 5.68322,-5.799325 14.11624,-8.291536 9.25006,-2.733669 12.08117,-4.521881 12.27008,-7.750134 0.23029,-3.936215 0.3085,-3.949862 1.26059,-0.22001 0.82799,3.243689 1.39086,3.437033 3.05419,1.049133 1.29972,-1.865895 2.37913,-2.11083 2.9768,-0.675478 1.48998,3.578352 13.36098,0.937474 13.55105,-3.014628 0.10041,-2.089638 0.57107,-2.428368 1.20212,-0.865315 0.79885,1.978684 2.08185,1.90408 5.5871,-0.324883 2.50258,-1.59136 9.49183,-3.543954 15.53168,-4.339096 l 10.98156,-1.445713 0,-10.977808 c 0,-8.933208 0.95328,-11.876172 5.11835,-15.801285 4.62735,-4.36076 5.42999,-4.51087 8.3669,-1.56476 2.80845,2.81722 3.24855,12.842767 3.24855,74.001796 l 0,70.743091 -14.29004,-1.332273 c -21.89636,-2.041415 -27.06148,-3.485805 -28.20921,-7.888522 -0.57675,-2.212355 -2.87286,-3.971419 -5.1839,-3.971419 -3.45691,0 -4.51984,2.186445 -6.37541,13.114161 -4.31506,25.411904 -5.95866,33.102305 -7.37929,34.527384 -2.9983,3.007654 -7.25293,2.134587 -8.25077,-1.693091 z m -79.42287,-97.880534 c 1.29845,-18.045405 1.67544,-19.168477 5.23568,-15.597109 1.90579,1.911754 1.89777,2.482948 -0.0349,2.482948 -1.71322,0 -2.51007,4.662812 -2.51007,14.687861 0,8.078323 -0.86868,14.6878603 -1.93042,14.6878603 -1.11401,0 -1.43556,-6.8773373 -0.76032,-16.2615603 z m 24.37206,-33.283519 c -4.24556,-1.791854 1.70618,-10.537057 8.55101,-12.564439 4.74102,-1.40425 6.53748,-3.314614 7.01575,-7.460554 0.44765,-3.880552 2.19451,-5.963614 5.75225,-6.85934 4.24603,-1.069019 5.10935,-2.575462 5.10935,-8.915536 0,-7.261755 0.18449,-7.461705 3.83026,-4.151977 2.10664,1.91245 4.38923,2.916474 5.07239,2.231166 1.78207,-1.787622 4.35342,17.27826 2.69362,19.972278 -0.76149,1.235981 -3.23508,2.24724 -5.49684,2.24724 -2.92129,0 -4.48619,1.875336 -5.40329,6.47514 -0.71003,3.561328 -2.33373,6.795609 -3.60822,7.187295 -4.92622,1.513976 -21.25979,2.79109 -23.51628,1.838727 z"
         id="path3486"
         inkscape:connector-curvature="0" />
      <path
         style="fill:#1b2d19"
         d="m 572.84137,79.998881 0,-28.326588 20.79864,0 c 19.19221,0 21.05469,0.364645 24.11381,4.721098 2.81892,4.014404 3.61944,4.249968 5.34792,1.573699 1.80689,-2.797687 2.26161,-2.797687 4.09245,0 1.13283,1.731069 2.07411,2.085152 2.09172,0.78685 0.0529,-3.902452 10.25258,-2.746584 11.53519,1.307219 1.06283,3.359146 12.48536,6.420757 24.42387,6.54638 1.97795,0.02098 4.43693,2.717758 5.64343,6.189548 1.69072,4.865144 3.38653,6.152661 8.10379,6.152661 6.94357,0 10.98578,3.350532 10.98578,9.10597 0,2.238556 1.29901,5.118426 2.8867,6.399711 1.58769,1.281264 3.48818,4.926183 4.2233,8.099811 l 1.3366,5.77023 -62.7916,0 -62.7916,0 0,-28.326589 z m 264.98737,-7.557324 c -0.68489,-2.627155 -2.8949,-3.983138 -6.4919,-3.983138 -2.99943,0 -7.08797,-0.875291 -9.08566,-1.945092 -1.99768,-1.069807 -5.27936,-2.456503 -7.29265,-3.081549 -2.01328,-0.625048 -3.66052,-2.472416 -3.66052,-4.105264 0,-2.164199 3.66312,-3.20279 13.51593,-3.832132 15.0324,-0.960185 15.84325,-1.358981 16.34485,-8.038712 0.19369,-2.58003 2.43171,-5.641383 4.97324,-6.803006 2.82824,-1.292666 5.3271,-5.0595 6.44113,-9.709501 1.94769,-8.129716 3.37084,-8.541012 18.65775,-5.392132 4.84398,0.997789 6.85766,2.742258 7.58773,6.573332 0.85401,4.48139 0.36775,5.046542 -3.45632,4.017095 -2.44759,-0.658896 -5.51697,-1.210882 -6.82084,-1.22664 -1.30388,-0.01576 -2.86299,-1.917091 -3.4647,-4.225184 -0.63009,-2.417049 -2.85313,-4.196531 -5.24257,-4.196531 -3.45691,0 -4.51984,2.186445 -6.37541,13.114161 -4.31506,25.411904 -5.95866,33.102305 -7.37929,34.527384 -2.9983,3.007654 -7.25293,2.134587 -8.25077,-1.693091 z M 756.30439,20.98647 c -2.16524,-2.172009 -1.75238,-18.0942168 0.56451,-21.77082333 1.09087,-1.73106927 3.18039,-3.14739877 4.64339,-3.14739877 1.97589,0 2.51991,-4.3170728 2.11532,-16.7861269 l -0.54467,-16.786126 5.19418,6.218756 5.19419,6.218758 4.92902,-4.645059 c 2.71096,-2.554781 7.07436,-4.645057 9.69642,-4.645057 3.00963,0 5.1711,-1.548633 5.86235,-4.200201 0.65508,-2.512921 3.72745,-4.871689 7.64814,-5.871758 3.62534,-0.924737 7.46852,-3.718771 8.60193,-6.253697 2.13456,-4.774131 10.87805,-8.853534 18.97602,-8.853534 3.34314,0 5.34076,1.807742 6.87443,6.220966 1.48983,4.287099 3.99185,6.628888 8.04858,7.53319 7.70765,1.718131 19.3014,7.119288 15.41365,7.180725 -1.73588,0.02742 0.29105,3.093182 4.75962,7.199052 4.61518,4.240553 6.74177,7.499449 5.22477,8.006697 -1.98814,0.664785 -1.93589,2.362683 0.23444,7.618729 2.54197,6.1560187 2.39126,7.1919913 -1.6784,11.5374998 -2.45913,2.6258034 -4.47114,6.7094862 -4.47114,9.0748466 0,3.5265763 -1.74933,4.5411823 -9.71902,5.6369616 -6.24653,0.85886 -10.77989,0.453095 -12.68827,-1.1356862 -4.24809,-3.5366229 -30.31851,-2.5568209 -33.12657,1.2449912 -1.36081,1.842399 -5.9975,2.971621 -12.20172,2.971621 -10.30825,0 -12.79583,1.019791 -12.79583,5.245664 0,2.711887 -24.2556,4.694566 -26.75534,2.18701 z m 63.36052,-74.227469 c 0,-1.154046 -0.94127,-2.098266 -2.09172,-2.098266 -1.15045,0 -2.09173,0.94422 -2.09173,2.098266 0,1.154046 0.94128,2.098266 2.09173,2.098266 1.15045,0 2.09172,-0.94422 2.09172,-2.098266 z m -61.25904,27.802022 c 1.29845,-18.045405 1.67544,-19.168477 5.23568,-15.597109 1.90579,1.911754 1.89777,2.482948 -0.0349,2.482948 -1.71322,0 -2.51007,4.662812 -2.51007,14.687861 0,8.078323 -0.86868,14.6878603 -1.93042,14.6878603 -1.11401,0 -1.43556,-6.8773373 -0.76032,-16.2615603 z m 24.37206,-33.283519 c -4.24556,-1.791854 1.70618,-10.537057 8.55101,-12.564439 4.74102,-1.40425 6.53748,-3.314614 7.01575,-7.460554 0.44765,-3.880552 2.19451,-5.963614 5.75225,-6.85934 4.24603,-1.069019 5.10935,-2.575462 5.10935,-8.915536 0,-7.261755 0.18449,-7.461705 3.83026,-4.151977 2.10664,1.91245 4.38923,2.916474 5.07239,2.231166 1.78207,-1.787622 4.35342,17.27826 2.69362,19.972278 -0.76149,1.235981 -3.23508,2.24724 -5.49684,2.24724 -2.92129,0 -4.48619,1.875336 -5.40329,6.47514 -0.71003,3.561328 -2.33373,6.795609 -3.60822,7.187295 -4.92622,1.513976 -21.25979,2.79109 -23.51628,1.838727 z"
         id="path3484"
         inkscape:connector-curvature="0" />
      <path
         style="fill:#311d12"
         d="m 572.84137,79.998881 0,-28.326588 20.79864,0 c 19.19221,0 21.05469,0.364645 24.11381,4.721098 2.81892,4.014404 3.61944,4.249968 5.34792,1.573699 1.80689,-2.797687 2.26161,-2.797687 4.09245,0 1.13283,1.731069 2.07411,2.085152 2.09172,0.78685 0.0529,-3.902452 10.25258,-2.746584 11.53519,1.307219 1.06283,3.359146 12.48536,6.420757 24.42387,6.54638 1.97795,0.02098 4.43693,2.717758 5.64343,6.189548 1.69072,4.865144 3.38653,6.152661 8.10379,6.152661 6.94357,0 10.98578,3.350532 10.98578,9.10597 0,2.238556 1.29901,5.118426 2.8867,6.399711 1.58769,1.281264 3.48818,4.926183 4.2233,8.099811 l 1.3366,5.77023 -62.7916,0 -62.7916,0 0,-28.326589 z M 782.77793,-58.722496 c -4.24556,-1.791854 1.70618,-10.537057 8.55101,-12.564439 4.74102,-1.40425 6.53748,-3.314614 7.01575,-7.460554 0.44765,-3.880552 2.19451,-5.963614 5.75225,-6.85934 4.24603,-1.069019 5.10935,-2.575462 5.10935,-8.915536 0,-7.261755 0.18449,-7.461705 3.83026,-4.151977 2.10664,1.91245 4.38923,2.916474 5.07239,2.231166 1.78207,-1.787622 4.35342,17.27826 2.69362,19.972278 -0.76149,1.235981 -3.23508,2.24724 -5.49684,2.24724 -2.92129,0 -4.48619,1.875336 -5.40329,6.47514 -0.71003,3.561328 -2.33373,6.795609 -3.60822,7.187295 -4.92622,1.513976 -21.25979,2.79109 -23.51628,1.838727 z"
         id="path3482"
         inkscape:connector-curvature="0" />
    </g>
    <g
       transform="translate(11.2782,-90.17341)"
       style="font-size:50px;font-style:normal;font-weight:normal;line-height:125%;letter-spacing:0px;word-spacing:0px;fill:#ffffff;fill-opacity:1;stroke:none;font-family:Sans"
       id="flowRoot17488">
      <path
         inkscape:connector-curvature="0"
         d="m 655.99609,401.3734 4.46778,-0.39062 c 0.21158,1.79037 0.70393,3.25928 1.47705,4.40673 0.7731,1.14747 1.97346,2.0752 3.60107,2.78321 1.62759,0.70801 3.45865,1.06201 5.49317,1.06201 1.80662,0 3.40167,-0.26855 4.78515,-0.80567 1.38344,-0.5371 2.4129,-1.27359 3.08838,-2.20947 0.67543,-0.93586 1.01316,-1.95718 1.01318,-3.06396 -2e-5,-1.12304 -0.32554,-2.10367 -0.97656,-2.9419 -0.65106,-0.8382 -1.72528,-1.54214 -3.22265,-2.11181 -0.96031,-0.37434 -3.08433,-0.95621 -6.37207,-1.74561 -3.28778,-0.78937 -5.59083,-1.534 -6.90918,-2.23389 -1.709,-0.89516 -2.98259,-2.006 -3.8208,-3.33252 -0.83822,-1.32647 -1.25733,-2.81166 -1.25733,-4.45556 0,-1.80661 0.51269,-3.49525 1.53809,-5.06592 1.02538,-1.5706 2.52278,-2.76282 4.49218,-3.57666 1.96939,-0.81377 4.15852,-1.22067 6.56739,-1.2207 2.65297,3e-5 4.99265,0.42728 7.01904,1.28173 2.02634,0.85453 3.58477,2.11185 4.67529,3.77198 1.09047,1.66018 1.67641,3.54006 1.75782,5.63965 l -4.54102,0.34179 c -0.24417,-2.26234 -1.07017,-3.97132 -2.47803,-5.12695 -1.4079,-1.15557 -3.48716,-1.73337 -6.23779,-1.7334 -2.8646,3e-5 -4.952,0.52494 -6.26221,1.57471 -1.31023,1.04983 -1.96534,2.31529 -1.96533,3.79639 -10e-6,1.28583 0.46386,2.34377 1.3916,3.17382 0.91145,0.8301 3.29182,1.68053 7.14112,2.55127 3.84926,0.87079 6.49004,1.6317 7.92236,2.28272 2.08331,0.9603 3.62139,2.17693 4.61426,3.6499 0.99281,1.473 1.48922,3.16977 1.48925,5.09033 -3e-5,1.90431 -0.54527,3.69874 -1.63574,5.3833 -1.09052,1.68458 -2.65709,2.9948 -4.6997,3.93067 -2.04267,0.93587 -4.34166,1.4038 -6.89698,1.40381 -3.23894,-10e-6 -5.95297,-0.47201 -8.14209,-1.41602 -2.18913,-0.94401 -3.90625,-2.36409 -5.15136,-4.26025 -1.24512,-1.89616 -1.90023,-4.04052 -1.96534,-6.43311 z"
         id="path17513" />
      <path
         inkscape:connector-curvature="0"
         d="m 688.80859,399.90856 c 0,-4.80142 1.33464,-8.35773 4.00391,-10.66895 2.22981,-1.92055 4.94791,-2.88083 8.1543,-2.88086 3.56443,3e-5 6.47784,1.16783 8.74023,3.50342 2.26235,2.33563 3.39353,5.56235 3.39356,9.68018 -3e-5,3.33659 -0.50052,5.9611 -1.50147,7.87353 -1.001,1.91244 -2.4577,3.39763 -4.37012,4.45557 -1.91245,1.05794 -3.99985,1.58691 -6.2622,1.58691 -3.62957,0 -6.56332,-1.16374 -8.80127,-3.49121 -2.23796,-2.32747 -3.35694,-5.68033 -3.35694,-10.05859 z m 4.51661,0 c -10e-6,3.32032 0.72427,5.80648 2.17285,7.45849 1.44855,1.65202 3.27147,2.47803 5.46875,2.47803 2.18097,0 3.99575,-0.83007 5.44433,-2.49023 1.44855,-1.66015 2.17283,-4.19108 2.17285,-7.59278 -2e-5,-3.20636 -0.72837,-5.63556 -2.18505,-7.2876 -1.45673,-1.65199 -3.26744,-2.478 -5.43213,-2.47802 -2.19728,2e-5 -4.0202,0.82196 -5.46875,2.46582 -1.44858,1.6439 -2.17286,4.12599 -2.17285,7.44629 z"
         id="path17515" />
      <path
         inkscape:connector-curvature="0"
         d="m 718.17871,412.87242 0,-35.79101 4.39453,0 0,35.79101 z"
         id="path17517" />
      <path
         inkscape:connector-curvature="0"
         d="m 746.32812,409.67418 c -1.62762,1.38347 -3.19419,2.36003 -4.6997,2.92969 -1.50555,0.56966 -3.12095,0.85449 -4.84619,0.85449 -2.84832,0 -5.03744,-0.6958 -6.56739,-2.0874 -1.52995,-1.3916 -2.29492,-3.16976 -2.29492,-5.33447 0,-1.26953 0.2889,-2.42919 0.8667,-3.47901 0.5778,-1.04979 1.33463,-1.89208 2.27051,-2.52685 0.93587,-0.63476 1.98974,-1.1149 3.16162,-1.44043 0.86262,-0.22785 2.1647,-0.44758 3.90625,-0.65918 3.54816,-0.42316 6.16046,-0.92772 7.83691,-1.51367 0.0163,-0.6022 0.0244,-0.98469 0.0244,-1.14747 -2e-5,-1.79034 -0.41506,-3.05173 -1.24512,-3.78417 -1.12306,-0.99282 -2.79136,-1.48924 -5.00488,-1.48926 -2.06707,2e-5 -3.59295,0.36216 -4.57764,1.08642 -0.98471,0.72431 -1.71306,2.00604 -2.18506,3.84522 l -4.29687,-0.58594 c 0.39062,-1.83917 1.03352,-3.32436 1.92871,-4.45557 0.89518,-1.13116 2.18912,-2.00192 3.88183,-2.6123 1.6927,-0.61033 3.65396,-0.9155 5.88379,-0.91553 2.21353,3e-5 4.01203,0.26044 5.39551,0.78125 1.38344,0.52086 2.4007,1.17597 3.05176,1.96533 0.65102,0.78941 1.10675,1.78632 1.36719,2.99073 0.14646,0.74871 0.2197,2.09962 0.21972,4.05273 l 0,5.85938 c -2e-5,4.08529 0.0936,6.66911 0.28077,7.75146 0.18714,1.08236 0.55742,2.11996 1.11083,3.11279 l -4.58984,0 c -0.45575,-0.91145 -0.74872,-1.97753 -0.87891,-3.19824 z m -0.36621,-9.81445 c -1.59507,0.65105 -3.98764,1.20444 -7.17773,1.66015 -1.80665,0.26043 -3.08432,0.5534 -3.83301,0.87891 -0.7487,0.32553 -1.3265,0.80161 -1.7334,1.42822 -0.4069,0.62664 -0.61035,1.32244 -0.61035,2.08741 0,1.17188 0.44352,2.14844 1.33057,2.92968 0.88703,0.78126 2.18505,1.17188 3.89404,1.17188 1.6927,0 3.19823,-0.37028 4.5166,-1.11084 1.31834,-0.74056 2.28677,-1.75374 2.90528,-3.03955 0.47198,-0.99283 0.70798,-2.45767 0.708,-4.39453 z"
         id="path17519" />
      <path
         inkscape:connector-curvature="0"
         d="m 757.19238,412.87242 0,-25.92773 3.95508,0 0,3.93066 c 1.00911,-1.83917 1.94091,-3.05173 2.79541,-3.63769 0.85448,-0.58591 1.79442,-0.87888 2.81983,-0.87891 1.4811,3e-5 2.98663,0.47203 4.5166,1.41602 l -1.51368,4.07715 c -1.07423,-0.63475 -2.14845,-0.95213 -3.22265,-0.95215 -0.9603,2e-5 -1.82293,0.28892 -2.58789,0.8667 -0.76499,0.57782 -1.31023,1.37941 -1.63574,2.40478 -0.48829,1.56252 -0.73243,3.2715 -0.73243,5.12696 l 0,13.57421 z"
         id="path17521" />
      <path
         inkscape:connector-curvature="0"
         d="m 786.75781,401.3734 4.46778,-0.39062 c 0.21158,1.79037 0.70393,3.25928 1.47705,4.40673 0.7731,1.14747 1.97346,2.0752 3.60107,2.78321 1.62759,0.70801 3.45864,1.06201 5.49316,1.06201 1.80663,0 3.40168,-0.26855 4.78516,-0.80567 1.38344,-0.5371 2.4129,-1.27359 3.08838,-2.20947 0.67543,-0.93586 1.01316,-1.95718 1.01318,-3.06396 -2e-5,-1.12304 -0.32554,-2.10367 -0.97656,-2.9419 -0.65106,-0.8382 -1.72528,-1.54214 -3.22266,-2.11181 -0.9603,-0.37434 -3.08432,-0.95621 -6.37207,-1.74561 -3.28777,-0.78937 -5.59083,-1.534 -6.90918,-2.23389 -1.70899,-0.89516 -2.98259,-2.006 -3.8208,-3.33252 -0.83822,-1.32647 -1.25732,-2.81166 -1.25732,-4.45556 0,-1.80661 0.51269,-3.49525 1.53809,-5.06592 1.02538,-1.5706 2.52277,-2.76282 4.49218,-3.57666 1.96939,-0.81377 4.15852,-1.22067 6.56739,-1.2207 2.65297,3e-5 4.99265,0.42728 7.01904,1.28173 2.02634,0.85453 3.58477,2.11185 4.67529,3.77198 1.09047,1.66018 1.6764,3.54006 1.75781,5.63965 l -4.54101,0.34179 c -0.24417,-2.26234 -1.07017,-3.97132 -2.47803,-5.12695 -1.4079,-1.15557 -3.48716,-1.73337 -6.23779,-1.7334 -2.8646,3e-5 -4.952,0.52494 -6.26221,1.57471 -1.31023,1.04983 -1.96534,2.31529 -1.96533,3.79639 -10e-6,1.28583 0.46386,2.34377 1.3916,3.17382 0.91145,0.8301 3.29182,1.68053 7.14111,2.55127 3.84927,0.87079 6.49005,1.6317 7.92237,2.28272 2.0833,0.9603 3.62139,2.17693 4.61426,3.6499 0.9928,1.473 1.48922,3.16977 1.48925,5.09033 -3e-5,1.90431 -0.54527,3.69874 -1.63574,5.3833 -1.09052,1.68458 -2.65709,2.9948 -4.69971,3.93067 -2.04266,0.93587 -4.34165,1.4038 -6.89697,1.40381 -3.23894,-10e-6 -5.95297,-0.47201 -8.14209,-1.41602 -2.18913,-0.94401 -3.90625,-2.36409 -5.15137,-4.26025 -1.24512,-1.89616 -1.90023,-4.04052 -1.96533,-6.43311 z"
         id="path17523" />
      <path
         inkscape:connector-curvature="0"
         d="m 821.01074,422.85778 -0.48828,-4.12598 c 0.96028,0.26041 1.7985,0.39062 2.51465,0.39062 0.97656,0 1.7578,-0.16276 2.34375,-0.48828 0.58593,-0.32552 1.06607,-0.78125 1.44043,-1.36718 0.27668,-0.43946 0.72427,-1.52996 1.34277,-3.27149 0.0814,-0.24414 0.21158,-0.60221 0.39063,-1.07422 l -9.83887,-25.97656 4.73633,0 5.39551,15.01465 c 0.69985,1.9043 1.32648,3.90625 1.87988,6.00586 0.50454,-2.01822 1.10676,-3.98762 1.80664,-5.90821 l 5.54199,-15.1123 4.39453,0 -9.86328,26.36719 c -1.05795,2.8483 -1.87989,4.80956 -2.46582,5.88379 -0.78126,1.44856 -1.67644,2.51057 -2.68555,3.18603 -1.00912,0.67545 -2.21354,1.01317 -3.61328,1.01318 -0.84636,-10e-6 -1.79037,-0.17904 -2.83203,-0.5371 z"
         id="path17525" />
      <path
         inkscape:connector-curvature="0"
         d="m 844.44824,405.13317 4.34571,-0.6836 c 0.24413,1.74155 0.92365,3.07618 2.03857,4.00391 1.1149,0.92774 2.67333,1.3916 4.67529,1.3916 2.01822,0 3.51561,-0.41097 4.49219,-1.23291 0.97654,-0.82194 1.46483,-1.78629 1.46484,-2.89307 -10e-6,-0.99283 -0.43133,-1.77408 -1.29394,-2.34375 -0.60223,-0.39061 -2.09963,-0.88703 -4.49219,-1.48925 -3.22266,-0.81379 -5.45655,-1.51773 -6.70166,-2.11182 -1.24512,-0.59406 -2.18913,-1.416 -2.83203,-2.46582 -0.64291,-1.04979 -0.96436,-2.20946 -0.96436,-3.479 0,-1.15558 0.26449,-2.22573 0.79346,-3.21045 0.52897,-0.98468 1.24918,-1.80255 2.16065,-2.45362 0.68358,-0.50453 1.61539,-0.93178 2.79541,-1.28174 1.18,-0.3499 2.44546,-0.52487 3.79638,-0.5249 2.03449,3e-5 3.82079,0.293 5.35889,0.87891 1.53807,0.58596 2.67332,1.37942 3.40576,2.38037 0.7324,1.001 1.23696,2.3397 1.51367,4.01611 l -4.29687,0.58594 c -0.19533,-1.33462 -0.76092,-2.37628 -1.69678,-3.125 -0.93589,-0.74868 -2.25831,-1.12302 -3.96728,-1.12305 -2.01824,3e-5 -3.45867,0.33368 -4.32129,1.00098 -0.86264,0.66734 -1.29396,1.44859 -1.29395,2.34375 -10e-6,0.56968 0.17903,1.08238 0.53711,1.53809 0.35807,0.47202 0.91959,0.86264 1.68457,1.17187 0.43944,0.16278 1.73339,0.53713 3.88184,1.12305 3.1087,0.83009 5.27749,1.50961 6.50634,2.03857 1.22883,0.52899 2.19318,1.29803 2.89307,2.30713 0.69985,1.00913 1.04978,2.26238 1.04981,3.75977 -3e-5,1.46485 -0.42727,2.84424 -1.28174,4.13818 -0.85452,1.29395 -2.08743,2.29492 -3.69873,3.00293 -1.61135,0.70801 -3.43426,1.06201 -5.46875,1.06201 -3.36915,0 -5.9367,-0.69987 -7.70264,-2.09961 -1.76595,-1.39973 -2.89307,-3.47493 -3.38135,-6.22558 z"
         id="path17527" />
      <path
         inkscape:connector-curvature="0"
         d="m 880.80078,408.94176 0.63477,3.88184 c -1.23699,0.26041 -2.34376,0.39062 -3.32032,0.39062 -1.59506,0 -2.83203,-0.25228 -3.71093,-0.75684 -0.87891,-0.50455 -1.4974,-1.1678 -1.85547,-1.98974 -0.35808,-0.82194 -0.53712,-2.55127 -0.53711,-5.18799 l 0,-14.91699 -3.22266,0 0,-3.41797 3.22266,0 0,-6.4209 4.37012,-2.63672 0,9.05762 4.41894,0 0,3.41797 -4.41894,0 0,15.16113 c -10e-6,1.25326 0.0773,2.05893 0.23193,2.41699 0.15461,0.35808 0.40689,0.64291 0.75684,0.8545 0.34992,0.21159 0.85041,0.31738 1.50146,0.31738 0.48827,0 1.13117,-0.057 1.92871,-0.1709 z"
         id="path17529" />
      <path
         inkscape:connector-curvature="0"
         d="m 902.82227,404.52281 4.54101,0.56153 c -0.71617,2.653 -2.04267,4.71192 -3.97949,6.17676 -1.93687,1.46484 -4.41083,2.19726 -7.42188,2.19726 -3.79232,0 -6.79932,-1.1678 -9.02099,-3.50342 -2.22168,-2.3356 -3.33252,-5.61115 -3.33252,-9.82666 0,-4.36196 1.12304,-7.74737 3.36914,-10.15625 2.24609,-2.40883 5.15949,-3.61325 8.74023,-3.61328 3.46678,3e-5 6.29881,1.18004 8.4961,3.54004 2.19724,2.36005 3.29587,5.68036 3.2959,9.96094 -3e-5,0.26043 -0.008,0.65105 -0.0244,1.17187 l -19.33594,0 c 0.16276,2.84832 0.96842,5.02931 2.417,6.54297 1.44855,1.51368 3.25519,2.27051 5.41992,2.27051 1.61131,0 2.98663,-0.42317 4.12597,-1.26953 1.13931,-0.84635 2.04263,-2.19726 2.70997,-4.05274 z m -14.42872,-7.10449 14.47754,0 c -0.19533,-2.18097 -0.74871,-3.81671 -1.66015,-4.90722 -1.39976,-1.69269 -3.21454,-2.53904 -5.44434,-2.53907 -2.01824,3e-5 -3.71502,0.67548 -5.09033,2.02637 -1.37533,1.35093 -2.13624,3.15757 -2.28272,5.41992 z"
         id="path17531" />
      <path
         inkscape:connector-curvature="0"
         d="m 912.90527,412.87242 0,-25.92773 3.93067,0 0,3.63769 c 0.81379,-1.2695 1.89615,-2.29082 3.24707,-3.06396 1.3509,-0.77309 2.88898,-1.15964 4.61426,-1.15967 1.92055,3e-5 3.49526,0.39879 4.72412,1.19629 1.22882,0.79755 2.09552,1.91246 2.60009,3.34473 2.05076,-3.02732 4.72003,-4.54099 8.00782,-4.54102 2.57158,3e-5 4.54912,0.7121 5.93261,2.13623 1.38343,1.42418 2.07516,3.61737 2.0752,6.57959 l 0,17.79785 -4.37012,0 0,-16.333 c -3e-5,-1.7578 -0.14245,-3.02326 -0.42724,-3.79639 -0.28487,-0.77309 -0.80163,-1.39565 -1.5503,-1.86768 -0.74873,-0.47198 -1.62763,-0.70798 -2.63672,-0.708 -1.82294,2e-5 -3.33661,0.6063 -4.54101,1.81884 -1.20445,1.21259 -1.80666,3.1535 -1.80664,5.82276 l 0,15.06347 -4.39453,0 0,-16.8457 c -2e-5,-1.95311 -0.35809,-3.41795 -1.07422,-4.39453 -0.71616,-0.97654 -1.88804,-1.46482 -3.51563,-1.46484 -1.23699,2e-5 -2.38038,0.32554 -3.43017,0.97656 -1.04982,0.65106 -1.81072,1.60321 -2.28272,2.85644 -0.47201,1.25328 -0.70801,3.05992 -0.70801,5.41993 l 0,13.45214 z"
         id="path17533" />
    </g>
  </g>
</svg>
