<?xml version="1.0" encoding="UTF-8" standalone="no"?>
<!-- Created with Inkscape (http://www.inkscape.org/) -->

<svg
   xmlns:dc="http://purl.org/dc/elements/1.1/"
   xmlns:cc="http://creativecommons.org/ns#"
   xmlns:rdf="http://www.w3.org/1999/02/22-rdf-syntax-ns#"
   xmlns:svg="http://www.w3.org/2000/svg"
   xmlns="http://www.w3.org/2000/svg"
   xmlns:sodipodi="http://sodipodi.sourceforge.net/DTD/sodipodi-0.dtd"
   xmlns:inkscape="http://www.inkscape.org/namespaces/inkscape"
   width="9.9996862"
   height="10.15625"
   id="svg2"
   version="1.1"
   inkscape:version="0.48.1 "
   sodipodi:docname="broken heart.svg">
  <defs
     id="defs4" />
  <sodipodi:namedview
     id="base"
     pagecolor="#ffffff"
     bordercolor="#666666"
     borderopacity="1.0"
     inkscape:pageopacity="0.0"
     inkscape:pageshadow="2"
     inkscape:zoom="51.900029"
     inkscape:cx="4.9996553"
     inkscape:cy="5.1642927"
     inkscape:document-units="px"
     inkscape:current-layer="layer1"
     showgrid="false"
     showguides="true"
     inkscape:guide-bbox="true"
     inkscape:window-width="1280"
     inkscape:window-height="738"
     inkscape:window-x="-8"
     inkscape:window-y="-8"
     inkscape:window-maximized="1"
     fit-margin-top="0"
     fit-margin-left="0"
     fit-margin-right="0"
     fit-margin-bottom="0" />
  <metadata
     id="metadata7">
    <rdf:RDF>
      <cc:Work
         rdf:about="">
        <dc:format>image/svg+xml</dc:format>
        <dc:type
           rdf:resource="http://purl.org/dc/dcmitype/StillImage" />
        <dc:title />
      </cc:Work>
    </rdf:RDF>
  </metadata>
  <g
     inkscape:label="Layer 1"
     inkscape:groupmode="layer"
     id="layer1"
     transform="translate(-254.4317,-723.09375)">
    <path
       style="fill:none;stroke:#800000;stroke-width:0.81999999999999995;stroke-linecap:butt;stroke-linejoin:miter;stroke-miterlimit:4;stroke-opacity:1;stroke-dasharray:none"
       d="m 256.82376,723.49605 c -1.66194,9.2e-4 -2.73565,2.02611 -1.33841,3.915 2.19198,2.8589 1.93713,2.65708 3.92581,5.26466 0.33494,-0.2491 3.82203,-4.99132 3.96574,-5.17918 2.06387,-2.79011 -1.26235,-5.87602 -3.9143,-2.29847 -0.87386,-1.21873 -1.82654,-1.70247 -2.63884,-1.70201 z"
       id="path3041"
       inkscape:connector-curvature="0"
       sodipodi:nodetypes="sccccs" />
    <path
       style="opacity:0.5;fill:#ffffff;fill-opacity:1;stroke:none"
       d="M 4.4182267,8.1322792 C 4.0973813,7.7011515 3.5590188,6.9712433 3.2218658,6.5102609 2.8847126,6.0492785 2.3361506,5.3122847 2.0028389,4.8724969 1.6695273,4.4327091 1.3591426,4.0173945 1.3130952,3.9495752 1.1113787,3.6524854 0.97414221,3.3517455 0.89405379,3.0312885 0.84790147,2.8466196 0.84139531,2.7834368 0.84159244,2.5218238 0.84186287,2.16295 0.87776329,1.999941 1.0219396,1.7029418 1.2241038,1.2864894 1.5750077,0.98980768 2.0054373,0.8714158 c 0.195096,-0.0536621 0.6140834,-0.0489491 0.828516,0.00932 C 3.2608785,0.99674592 3.6572709,1.2366294 4.0630135,1.6245219 4.2815116,1.8334075 4.4538414,2.0365595 4.763846,2.4507027 4.8922833,2.6222855 5.0033218,2.7694108 5.0105981,2.7776477 5.0178742,2.7858847 5.1488708,2.6341507 5.3017014,2.440461 5.7562501,1.8643892 6.0052652,1.6106308 6.3657149,1.3561803 6.9520486,0.94227254 7.5588645,0.81290224 8.084432,0.98975785 8.4853249,1.1246599 8.8067255,1.4205405 8.9984465,1.8311976 9.2963134,2.4692136 9.193815,3.2521425 8.7164754,3.9850195 8.4348291,4.4174412 5.2687506,8.6242769 5.0224434,8.8933578 5.0069686,8.9102634 4.850955,8.7137467 4.4182267,8.1322792 l 0,0 z"
       id="path3761"
       inkscape:connector-curvature="0"
       transform="translate(254.4317,723.09375)" />
  </g>
</svg>
