<?xml version="1.0" encoding="UTF-8" standalone="no"?>
<!-- Created with Inkscape (http://www.inkscape.org/) -->

<svg
   xmlns:dc="http://purl.org/dc/elements/1.1/"
   xmlns:cc="http://creativecommons.org/ns#"
   xmlns:rdf="http://www.w3.org/1999/02/22-rdf-syntax-ns#"
   xmlns:svg="http://www.w3.org/2000/svg"
   xmlns="http://www.w3.org/2000/svg"
   xmlns:sodipodi="http://sodipodi.sourceforge.net/DTD/sodipodi-0.dtd"
   xmlns:inkscape="http://www.inkscape.org/namespaces/inkscape"
   width="400"
   height="400"
   id="svg2"
   version="1.1"
   inkscape:version="0.48.1 r9760"
   sodipodi:docname="tuxshuttle.svg">
  <defs
     id="defs4" />
  <sodipodi:namedview
     id="base"
     pagecolor="#ffffff"
     bordercolor="#666666"
     borderopacity="1.0"
     inkscape:pageopacity="0.0"
     inkscape:pageshadow="2"
     inkscape:zoom="0.49222597"
     inkscape:cx="-26.931248"
     inkscape:cy="496.52863"
     inkscape:document-units="px"
     inkscape:current-layer="layer4"
     showgrid="false"
     showguides="true"
     inkscape:guide-bbox="true"
     fit-margin-top="0"
     fit-margin-left="0"
     fit-margin-right="0"
     fit-margin-bottom="0"
     inkscape:window-width="1366"
     inkscape:window-height="717"
     inkscape:window-x="0"
     inkscape:window-y="26"
     inkscape:window-maximized="1">
    <sodipodi:guide
       orientation="0,1"
       position="57.112851,711.66159"
       id="guide4134" />
  </sodipodi:namedview>
  <metadata
     id="metadata7">
    <rdf:RDF>
      <cc:Work
         rdf:about="">
        <dc:format>image/svg+xml</dc:format>
        <dc:type
           rdf:resource="http://purl.org/dc/dcmitype/StillImage" />
        <dc:title />
      </cc:Work>
    </rdf:RDF>
  </metadata>
  <g
     inkscape:label="Layer 1"
     inkscape:groupmode="layer"
     id="layer1"
     style="display:inline"
     transform="translate(-62.750799,-291.3457)">
    <path
       style="fill:#000000;stroke:#ff0000;stroke-width:1.28873944"
       d=""
       id="path3043"
       inkscape:connector-curvature="0" />
    <path
       style="fill:#000000;stroke:#000000;stroke-width:1.28873944"
       d=""
       id="path3079"
       inkscape:connector-curvature="0" />
    <path
       style="fill:#000000;stroke:#000000;stroke-width:1.28873944"
       d=""
       id="path3083"
       inkscape:connector-curvature="0" />
    <path
       style="fill:#000000;stroke:#000000;stroke-width:1.28873944"
       d=""
       id="path3085"
       inkscape:connector-curvature="0" />
    <path
       style="fill:#000000;stroke:#000000;stroke-width:1.28873944"
       d=""
       id="path3087"
       inkscape:connector-curvature="0" />
    <path
       style="fill:#000000;stroke:#000000;stroke-width:1.28873944"
       d=""
       id="path3089"
       inkscape:connector-curvature="0" />
    <path
       style="fill:#000000;stroke:#000000;stroke-width:1.28873944"
       d=""
       id="path3091"
       inkscape:connector-curvature="0" />
    <path
       style="fill:#000000;stroke:#000000;stroke-width:1.28873944"
       d=""
       id="path3093"
       inkscape:connector-curvature="0" />
    <path
       style="fill:#000000;stroke:#000000;stroke-width:1.28873944"
       d=""
       id="path3095"
       inkscape:connector-curvature="0" />
    <path
       style="fill:#000000;stroke:#000000;stroke-width:1.28873944"
       d=""
       id="path3097"
       inkscape:connector-curvature="0" />
    <path
       style="fill:#000000;stroke:#000000;stroke-width:1.28873944"
       d=""
       id="path3102"
       inkscape:connector-curvature="0" />
    <path
       style="fill:#000000;stroke:#000000;stroke-width:1.28873944"
       d=""
       id="path3106"
       inkscape:connector-curvature="0" />
    <path
       style="fill:#000000;stroke:#000000;stroke-width:1.28873944"
       d=""
       id="path3108"
       inkscape:connector-curvature="0" />
    <path
       style="fill:#000000;stroke:none"
       d=""
       id="path3473"
       inkscape:connector-curvature="0" />
    <path
       style="fill:#000000;stroke:none"
       d=""
       id="path3475"
       inkscape:connector-curvature="0" />
    <path
       style="fill:#000000;stroke:none"
       d=""
       id="path3477"
       inkscape:connector-curvature="0" />
    <path
       style="fill:#000000;stroke:none"
       d=""
       id="path3481"
       inkscape:connector-curvature="0" />
    <path
       style="fill:#000000;stroke:#000000;stroke-width:0.62407446"
       d=""
       id="path4307"
       inkscape:connector-curvature="0" />
    <path
       style="fill:#000000;stroke:#000000;stroke-width:0.62407446"
       d=""
       id="path4311"
       inkscape:connector-curvature="0" />
    <path
       style="fill:#000000;stroke:#000000;stroke-width:0.62407446"
       d=""
       id="path4313"
       inkscape:connector-curvature="0" />
    <path
       style="fill:#000000;stroke:#000000;stroke-width:0.62407446"
       d=""
       id="path4315"
       inkscape:connector-curvature="0" />
    <path
       style="fill:#000000;stroke:#000000;stroke-width:0.62407446"
       d=""
       id="path4319"
       inkscape:connector-curvature="0" />
    <path
       style="fill:#000000;stroke:#000000;stroke-width:0.62407446"
       d=""
       id="path4321"
       inkscape:connector-curvature="0" />
    <path
       style="fill:#000000;stroke:#000000;stroke-width:0.62407446"
       d=""
       id="path4323"
       inkscape:connector-curvature="0" />
    <path
       style="fill:#000000;stroke:#000000;stroke-width:0.62407446"
       d=""
       id="path4325"
       inkscape:connector-curvature="0" />
    <path
       style="fill:#000000;stroke:#000000;stroke-width:0.62407446"
       d=""
       id="path4327"
       inkscape:connector-curvature="0" />
    <path
       style="fill:#000000;stroke:#000000;stroke-width:0.62407446"
       d=""
       id="path4329"
       inkscape:connector-curvature="0" />
    <path
       style="fill:#000000;stroke:#000000;stroke-width:0.62407446"
       d=""
       id="path4331"
       inkscape:connector-curvature="0" />
    <path
       style="fill:#000000;stroke:#000000;stroke-width:0.62407446"
       d=""
       id="path4333"
       inkscape:connector-curvature="0" />
    <path
       style="fill:#ffffff;stroke:#000000;stroke-width:0.62407446"
       d=""
       id="path4335"
       inkscape:connector-curvature="0" />
    <path
       style="fill:#ffffff;stroke:#000000;stroke-width:0.05516091"
       d=""
       id="path5458"
       inkscape:connector-curvature="0" />
    <g
       inkscape:groupmode="layer"
       id="layer4"
       inkscape:label="Layer">
      <rect
         style="fill:#1a1a1a;enable-background:new"
         id="rect4173"
         width="400"
         height="400"
         x="62.750797"
         y="291.3457" />
    </g>
    <g
       id="g6262"
       transform="translate(1.0173213e-5,-184.96869)">
      <g
         id="g6498"
         transform="matrix(0.68554148,0,0,0.68554148,24.856433,270.43999)">
        <path
           sodipodi:type="arc"
           style="opacity:0.43000004;fill:#ff0000;stroke:#ffffff"
           id="path4194-2"
           sodipodi:cx="128.22957"
           sodipodi:cy="663.1629"
           sodipodi:rx="53.482685"
           sodipodi:ry="29.641006"
           d="m 181.71225,663.1629 c 0,16.37028 -23.94501,29.64101 -53.48268,29.64101 -29.537673,0 -53.482687,-13.27073 -53.482687,-29.64101 0,-16.37027 23.945014,-29.641 53.482687,-29.641 29.53767,0 53.48268,13.27073 53.48268,29.641 z"
           transform="matrix(0.5344726,0,0,0.44415882,68.464511,306.73576)" />
        <path
           sodipodi:type="arc"
           style="opacity:0.43000004;fill:#ff6600;stroke:#ffffff"
           id="path4192-3"
           sodipodi:cx="108.89848"
           sodipodi:cy="157.33266"
           sodipodi:rx="61.215122"
           sodipodi:ry="27.707899"
           d="m 170.11361,157.33266 c 0,15.30265 -27.40695,27.7079 -61.21513,27.7079 -33.808175,0 -61.215119,-12.40525 -61.215119,-27.7079 0,-15.30265 27.406944,-27.7079 61.215119,-27.7079 33.80818,0 61.21513,12.40525 61.21513,27.7079 z"
           transform="matrix(0.37350057,0,0,0.31246556,97.914427,552.05267)" />
        <path
           sodipodi:type="arc"
           style="opacity:0.91660001;fill:#ffff00;stroke:#ffffff"
           id="path4196-7"
           sodipodi:cx="-148.20503"
           sodipodi:cy="654.14172"
           sodipodi:rx="20.619831"
           sodipodi:ry="9.0211763"
           d="m -127.5852,654.14172 c 0,4.98226 -9.23181,9.02118 -20.61983,9.02118 -11.38802,0 -20.61983,-4.03892 -20.61983,-9.02118 0,-4.98225 9.23181,-9.02117 20.61983,-9.02117 11.38802,0 20.61983,4.03892 20.61983,9.02117 z"
           transform="matrix(0.5344726,0,0,0.44415882,224.13238,310.7426)" />
        <g
           transform="matrix(1.1077439,0,0,0.74006466,470.66902,231.39396)"
           id="g4230">
          <path
             d="m 181.71225,663.1629 c 0,16.37028 -23.94501,29.64101 -53.48268,29.64101 -29.537673,0 -53.482687,-13.27073 -53.482687,-29.64101 0,-16.37027 23.945014,-29.641 53.482687,-29.641 29.53767,0 53.48268,13.27073 53.48268,29.641 z"
             sodipodi:ry="29.641006"
             sodipodi:rx="53.482685"
             sodipodi:cy="663.1629"
             sodipodi:cx="128.22957"
             id="path4194"
             style="opacity:0.43000004;fill:#ff0000;stroke:#ffffff"
             sodipodi:type="arc"
             transform="translate(-442.58055,-102.51075)" />
          <path
             d="m 170.11361,157.33266 c 0,15.30265 -27.40695,27.7079 -61.21513,27.7079 -33.808175,0 -61.215119,-12.40525 -61.215119,-27.7079 0,-15.30265 27.406944,-27.7079 61.215119,-27.7079 33.80818,0 61.21513,12.40525 61.21513,27.7079 z"
             sodipodi:ry="27.707899"
             sodipodi:rx="61.215122"
             sodipodi:cy="157.33266"
             sodipodi:cx="108.89848"
             id="path4192"
             style="opacity:0.43000004;fill:#ff6600;stroke:#ffffff"
             sodipodi:type="arc"
             transform="matrix(0.6988208,0,0,0.70349961,-384.44967,449.80725)" />
          <path
             d="m -127.5852,654.14172 c 0,4.98226 -9.23181,9.02118 -20.61983,9.02118 -11.38802,0 -20.61983,-4.03892 -20.61983,-9.02118 0,-4.98225 9.23181,-9.02117 20.61983,-9.02117 11.38802,0 20.61983,4.03892 20.61983,9.02117 z"
             sodipodi:ry="9.0211763"
             sodipodi:rx="20.619831"
             sodipodi:cy="654.14172"
             sodipodi:cx="-148.20503"
             id="path4196"
             style="opacity:0.91660001;fill:#ffff00;stroke:#ffffff"
             sodipodi:type="arc"
             transform="translate(-148.29546,-93.489576)" />
        </g>
        <g
           id="g4093"
           transform="translate(132.74016,244.86051)">
          <path
             inkscape:transform-center-x="0.723983"
             inkscape:transform-center-y="-12.248751"
             sodipodi:nodetypes="ccccc"
             inkscape:connector-curvature="0"
             id="path3343"
             d="M 19.603152,341.95398 11.414868,386.38523 68.32776,377.9594 68.022835,359.73643 z"
             style="fill:#000000;stroke:#000000;stroke-width:1px;stroke-linecap:butt;stroke-linejoin:miter;stroke-opacity:1" />
          <path
             inkscape:connector-curvature="0"
             id="path3345"
             d="M 54.12706,393.81634 15.46488,361.59785 3.8662196,436.34474 50.26084,419.59113 z"
             style="fill:#000000;stroke:#ffffff;stroke-width:1px;stroke-linecap:butt;stroke-linejoin:miter;stroke-opacity:1" />
          <path
             sodipodi:nodetypes="ccccccccccccc"
             inkscape:connector-curvature="0"
             id="path2996"
             d="m -16.07254,259.39958 c 21.0758,-32.08895 52.70993,14.66131 71.04411,30.19144 23.9537,21.85902 46.17276,46.02379 71.24794,66.40452 23.74294,6.16444 48.90355,0.62673 73.18867,4.31812 69.00827,2.73213 135.43655,0.41312 204.46803,2.5053 16.47927,17.00091 40.99548,30.85834 63.07409,37.44343 21.0919,3.10053 49.59869,35.67513 12.96237,39.78995 -51.50292,7.99666 -104.11977,4.20704 -156.15086,5.93282 C 242.84667,444.21799 161.71056,445.06687 80.93205,441.04895 68.78744,437.63327 56.64282,434.2176 44.49821,430.80192 50.94191,405.45671 57.3856,380.1115 63.8293,354.76629 48.36443,349.18175 32.89955,343.59722 17.43468,338.01268 6.26561,311.80831 -4.90347,285.60395 -16.07254,259.39958 z"
             style="fill:none;stroke:#000000;stroke-width:1px;stroke-linecap:butt;stroke-linejoin:miter;stroke-opacity:1" />
          <path
             sodipodi:nodetypes="ccccc"
             style="fill:none;stroke:#000000;stroke-width:1px;stroke-linecap:butt;stroke-linejoin:miter;stroke-opacity:1"
             d="m 62.54056,352.18882 c 20.19025,2.1479 39.09176,0.42957 59.28201,2.57747 -0.42958,8.16202 -0.85916,29.21143 -1.28874,37.37345 82.9089,3.86622 168.39529,0 251.30419,3.86622 0.42958,-9.02118 -0.42958,-19.33109 0,-28.35227"
             id="path2998"
             inkscape:connector-curvature="0" />
          <path
             style="fill:none;stroke:#000000;stroke-width:1px;stroke-linecap:butt;stroke-linejoin:miter;stroke-opacity:1"
             d="m -12.20633,261.97706 c 13.28689,-5.82054 18.63714,5.27559 23.31698,15.22375 10.27003,18.5523 20.54005,37.10461 30.81008,55.65691 -9.02118,-0.42958 -18.04235,-0.85916 -27.06353,-1.28874"
             id="path3000"
             inkscape:connector-curvature="0" />
          <path
             inkscape:connector-curvature="0"
             id="path3023"
             d="m 377.60065,442.78843 42.5284,-18.04236 61.8595,-1.28873 1.28874,-15.46488"
             style="fill:none;stroke:#000000;stroke-width:1px;stroke-linecap:butt;stroke-linejoin:miter;stroke-opacity:1" />
          <path
             sodipodi:nodetypes="ccc"
             inkscape:connector-curvature="0"
             id="path3069"
             d="M 403.37544,437.63347 83.76806,435.05599 46.39462,426.03481"
             style="fill:none;stroke:#000000;stroke-width:1px;stroke-linecap:butt;stroke-linejoin:miter;stroke-opacity:1" />
          <path
             inkscape:connector-curvature="0"
             id="path3081"
             d="m 379.81372,443.61128 c 0.35441,-0.3882 9.51835,-4.47723 20.36433,-9.08673 l 19.71995,-8.38092 31.38725,-0.93233 31.38724,-0.93232 1.08675,-6.94924 1.08675,-6.94923 4.66472,3.8584 c 2.5656,2.12212 5.65404,5.94323 6.86321,8.49135 1.97163,4.15492 1.99893,4.93751 0.26456,7.5845 -2.51786,3.84274 -9.18735,6.93925 -18.49517,8.58695 -4.1104,0.72763 -10.66309,1.89114 -14.56152,2.58557 -7.57703,1.34971 -84.84991,3.30902 -83.76807,2.124 z"
             style="fill:#000000;stroke:#000000;stroke-width:1.28873944" />
          <path
             inkscape:connector-curvature="0"
             id="path3104"
             d="m 230.31995,443.88712 c -35.79474,-0.61656 -83.92915,-1.72144 -106.96537,-2.45528 L 81.47055,440.09758 64.14568,435.1608 c -9.52869,-2.71524 -17.57137,-5.67628 -17.87265,-6.5801 -0.36297,-1.08891 0.26452,-1.39898 1.86,-0.91907 1.32428,0.39832 9.65693,2.4362 18.51701,4.52861 l 16.10925,3.80437 96.65545,0.77918 c 154.41078,1.24476 203.7428,2.15041 200.92808,3.68868 -1.35421,0.7401 -2.83169,1.90342 -3.28327,2.58517 -1.17417,1.7726 -69.78113,2.16509 -146.7396,0.83948 l 0,0 z"
             style="fill:#000000;stroke:#000000;stroke-width:1.28873944" />
          <path
             inkscape:connector-curvature="0"
             id="path3110"
             d="m 387.51607,442.67032 c -1.94193,-0.46176 2.18943,-2.75628 14.44209,-8.021 19.20582,-8.25234 19.8801,-8.36018 58.02503,-9.2801 11.84251,-0.2856 22.13631,-0.89286 22.87513,-1.34947 0.73881,-0.45662 1.3433,-2.79152 1.3433,-5.18868 0,-2.39716 0.61647,-4.73948 1.36994,-5.20515 3.10452,-1.9187 12.25969,10.50188 10.89959,14.78718 -2.20958,6.96176 -23.01136,12.38067 -52.44059,13.66089 -24.22974,1.05403 -53.29971,1.36078 -56.51449,0.59633 z"
             style="fill:#000000;stroke:#000000;stroke-width:1.28873944" />
          <path
             inkscape:connector-curvature="0"
             d="m 367.29098,439.25054 c 2.92908,0.0342 5.8585,0.0245 8.78773,0.022 2.74101,-0.003 5.48203,-0.005 8.22305,-0.006 2.58233,-7e-4 5.16465,-6.9e-4 7.74698,-7e-4 2.57523,0 5.15046,3e-5 7.72569,4e-5 2.57726,1e-5 5.15452,2e-5 7.73178,2e-5 2.5128,-0.11579 5.0707,0.24725 7.55384,-0.1999 0.29051,-0.1485 1.15586,-0.60548 0.87152,-0.44549 -6.15897,3.46541 -4.20949,4.14161 -7.9629,2.65277 -2.82655,-1.04333 -5.86238,-1.15855 -8.83925,-1.30963 -3.32301,-0.12953 -6.64917,-0.12293 -9.97407,-0.11744 -2.65917,0.008 -5.31835,0.0143 -7.97754,0.0177 -2.571,0.003 -5.142,0.003 -7.713,0.003 -2.59566,-0.0823 -5.13394,-0.0358 -7.68969,0.41632 -2.14491,0.9597 -4.3631,1.57183 -6.68427,1.89489 -2.6166,0.2878 -5.25297,0.2689 -7.88141,0.27609 -2.85109,0.39389 -5.6896,0.83821 -8.55948,1.07587 -2.61235,0.18485 -5.23241,0.19832 -7.84999,0.21015 -1.71816,0.003 -0.85925,0.002 -2.57675,0.002 0,0 6.14811,-4.46722 6.14811,-4.46722 l 0,0 c 1.71602,-0.001 0.85796,2.6e-4 2.57418,-0.005 2.60391,-0.0181 5.21072,-0.0427 7.80752,-0.25626 2.87213,-0.26765 5.7118,-0.77162 8.585,-1.01723 2.61576,-0.0217 5.24348,-0.0275 7.83966,-0.38675 2.29959,-0.40126 4.45161,-1.19452 6.67025,-1.89222 2.57841,-0.39593 5.16115,-0.34609 7.7652,-0.31758 2.57074,-3e-4 5.14148,-7.2e-4 7.71222,-0.003 2.65495,-0.003 5.30991,-0.009 7.96487,-0.007 3.32114,0.008 6.64338,0.0262 9.96178,0.17539 3.05672,0.16927 6.16079,0.33844 9.04813,1.45451 6.18574,2.30495 -0.20911,4.84868 -5.33924,6.60514 -2.5251,0.23617 -5.06955,0.049 -7.60285,0.10841 -2.57728,0 -5.15455,0 -7.73182,10e-6 -2.57527,2e-5 -5.15054,4e-5 -7.72582,5e-5 -2.58168,-2e-5 -5.16335,-10e-6 -7.74503,-7.1e-4 -2.7358,-9.3e-4 -5.47159,-0.003 -8.20738,-0.006 -2.94945,-0.003 -5.89908,-0.0119 -8.84839,0.022 0,0 6.19137,-4.4983 6.19137,-4.4983 z"
             id="path3112"
             style="fill:#000000;stroke:#000000" />
          <path
             inkscape:connector-curvature="0"
             id="path3115"
             d="M 23.3414,330.89181 15.47309,330.4391 1.29585,297.05534 c -11.04499,-26.00811 -13.76778,-33.54088 -12.32393,-34.09493 4.29692,-1.64888 10.28615,-0.6342 12.91764,2.18848 2.17085,2.32857 27.40579,46.66335 35.80207,62.89995 l 1.96108,3.79232 -4.2215,-0.24832 c -2.32183,-0.13657 -7.76224,-0.45203 -12.08981,-0.70103 z"
             style="fill:#000000;stroke:#000000;stroke-width:1.28873944" />
          <path
             inkscape:connector-curvature="0"
             id="path3316"
             d="m 114.22601,353.24888 c -0.29534,-0.27547 -13.2955,-0.82598 -28.88924,-1.22336 L 56.9845,351.30301 37.74464,344.14956 c -10.58191,-3.93439 -19.36384,-7.15345 -19.51539,-7.15345 -0.15155,0 -0.64159,-0.9539 -1.08898,-2.11978 -0.73308,-1.91037 0.52642,-2.05139 12.74951,-1.42756 7.45963,0.38072 13.56295,0.44546 13.56295,0.14388 0,-2.16285 -37.36772,-67.61155 -40.28005,-70.54957 -3.40427,-3.43431 -4.21725,-3.66173 -10.69872,-2.99278 -3.85798,0.39818 -7.0145,0.29443 -7.0145,-0.23055 0,-1.33892 6.52392,-7.27567 9.90301,-9.01171 4.51474,-2.3195 8.48078,-1.71386 17.15203,2.61921 6.48693,3.24156 13.77595,9.56622 35.96836,31.20964 38.38765,37.43802 53.38564,51.77151 63.91743,61.08549 8.06523,7.13264 8.66839,7.98065 5.69194,8.00269 -1.83109,0.0136 -3.57089,-0.20073 -3.86622,-0.47619 z"
             style="fill:#ffffff;stroke:none" />
          <path
             inkscape:connector-curvature="0"
             id="path3318"
             d="m 114.22601,353.24492 c -0.29534,-0.27764 -13.00553,-0.78313 -28.24487,-1.12332 l -27.7079,-0.61851 -18.04235,-6.50599 c -23.62781,-8.52008 -22.24126,-7.90738 -23.12886,-10.22041 -0.68361,-1.78148 0.82711,-1.93836 12.78775,-1.32792 7.45963,0.38072 13.56295,0.41854 13.56295,0.084 0,-1.98938 -37.3639,-67.22356 -40.3106,-70.37885 -3.34926,-3.58636 -4.03876,-3.78788 -10.6321,-3.10739 -3.87781,0.40023 -7.05057,0.29816 -7.05057,-0.22682 0,-1.33892 6.52392,-7.27567 9.90301,-9.01171 4.51474,-2.3195 8.48078,-1.71386 17.15203,2.61921 6.48693,3.24156 13.77595,9.56622 35.96836,31.20964 38.38765,37.43802 53.38564,51.77151 63.91743,61.08549 8.06523,7.13264 8.66839,7.98065 5.69194,8.00269 -1.83109,0.0136 -3.57089,-0.20251 -3.86622,-0.48015 z"
             style="fill:#ffffff;stroke:none" />
          <path
             inkscape:connector-curvature="0"
             d="m 380.18573,362.8942 5.15386,42.51318 65.7116,-9.29975"
             style="opacity:0.80680009;fill:none;stroke:#000000;stroke-width:1.0152142px;stroke-linecap:butt;stroke-linejoin:miter;stroke-opacity:1"
             id="path3349" />
          <path
             sodipodi:nodetypes="cc"
             inkscape:connector-curvature="0"
             id="path3351"
             d="m 140.4726,355.23489 0,36.00397"
             style="fill:none;stroke:#000000;stroke-width:1.07891464px;stroke-linecap:butt;stroke-linejoin:miter;stroke-opacity:1" />
          <path
             inkscape:connector-curvature="0"
             id="path3353"
             d="m 184.28974,360.30911 1.28874,33.50723"
             style="fill:none;stroke:#000000;stroke-width:1px;stroke-linecap:butt;stroke-linejoin:miter;stroke-opacity:1" />
          <path
             inkscape:connector-curvature="0"
             id="path3355"
             d="m 257.74789,359.02037 0,36.08471"
             style="fill:none;stroke:#000000;stroke-width:1px;stroke-linecap:butt;stroke-linejoin:miter;stroke-opacity:1" />
          <path
             inkscape:connector-curvature="0"
             id="path3357"
             d="m 320.89612,364.17533 1.28874,29.64101"
             style="fill:none;stroke:#000000;stroke-width:1px;stroke-linecap:butt;stroke-linejoin:miter;stroke-opacity:1" />
          <path
             inkscape:connector-curvature="0"
             id="path3361"
             d="m 369.86822,396.39382 1.28873,-33.50723"
             style="fill:none;stroke:#000000;stroke-width:1px;stroke-linecap:butt;stroke-linejoin:miter;stroke-opacity:1" />
          <path
             inkscape:connector-curvature="0"
             id="path3467"
             d="m 18.966692,329.92434 c -3.50546,-0.55672 -4.18651,-1.96471 -21.59617,-44.64696 -5.60926,-13.7519 -7.90178,-20.83944 -7.02447,-21.71676 1.75165,-1.75165 8.57576,-0.13457 10.86851,2.57547 1.96708,2.32509 17.96192,29.70886 26.11546,44.71065 2.69668,4.96165 6.322722,11.48589 8.057862,14.49832 l 3.15481,5.47714 -8.177082,-0.19309 c -4.49739,-0.10621 -9.62691,-0.42335 -11.39892,-0.70477 z"
             style="fill:#ffffff;stroke:none" />
          <path
             inkscape:connector-curvature="0"
             id="path3469"
             d="m 112.12033,352.57668 -94.077978,-92.78924 -11.59865,-5.15496 -14.17614,2.57748 -7.73243,7.73244"
             style="fill:none;stroke:#000000;stroke-width:1px;stroke-linecap:butt;stroke-linejoin:miter;stroke-opacity:1" />
          <path
             inkscape:connector-curvature="0"
             id="path3471"
             d="m 115.62214,353.08214 c -1.06321,-0.40364 -23.213388,-21.77397 -49.222618,-47.48962 -53.57986,-52.97506 -54.07583,-53.34871 -67.4083,-50.78393 -4.34658,0.83616 -9.00213,2.66615 -10.6321,4.17924 -4.67432,4.33914 -3.32477,0.58261 1.45505,-4.05017 2.96897,-2.87764 6.03529,-4.44616 9.63594,-4.92911 9.54672,-1.28049 17.1352,3.78808 42.558892,28.42633 42.715348,41.39572 53.648538,51.87033 66.512226,63.72248 11.51392,10.60852 13.23252,13.25259 7.10091,10.92478 z"
             style="fill:#000000;stroke:none" />
          <path
             inkscape:connector-curvature="0"
             id="path3589"
             d="m 384.90625,402.72782 c -0.0343,-0.91813 -1.08089,-9.93336 -2.32567,-20.03386 l -2.26323,-18.36454 11.51283,0 c 11.19398,0 11.64208,0.11676 16.17961,4.21584 7.47021,6.74836 20.61315,15.63664 31.62319,21.38604 5.61153,2.93033 9.59484,5.32787 8.8518,5.32787 -1.51645,0 -52.81398,7.26851 -59.3277,8.40633 -2.93146,0.51208 -4.20714,0.23068 -4.25083,-0.93768 z"
             style="opacity:0.45;fill:none;stroke:none" />
          <path
             inkscape:connector-curvature="0"
             id="path3591"
             d="m 384.90625,402.72782 c -0.0343,-0.91813 -1.08089,-9.93336 -2.32567,-20.03386 l -2.26323,-18.36454 11.51283,0 c 11.19398,0 11.64208,0.11676 16.17961,4.21584 7.47021,6.74836 20.61315,15.63664 31.62319,21.38604 5.61153,2.93033 9.59484,5.32787 8.8518,5.32787 -1.51645,0 -52.81398,7.26851 -59.3277,8.40633 -2.93146,0.51208 -4.20714,0.23068 -4.25083,-0.93768 z"
             style="opacity:0.45;fill:none;stroke:none" />
          <path
             inkscape:connector-curvature="0"
             id="path3593"
             d="m 384.90625,402.72782 c -0.0343,-0.91813 -1.08089,-9.93336 -2.32567,-20.03386 l -2.26323,-18.36454 11.51283,0 c 11.19398,0 11.64208,0.11676 16.17961,4.21584 7.47021,6.74836 20.61315,15.63664 31.62319,21.38604 5.61153,2.93033 9.59484,5.32787 8.8518,5.32787 -1.51645,0 -52.81398,7.26851 -59.3277,8.40633 -2.93146,0.51208 -4.20714,0.23068 -4.25083,-0.93768 z"
             style="opacity:0.45;fill:none;stroke:none" />
          <path
             inkscape:connector-curvature="0"
             id="path3595"
             d="m 384.90625,402.72782 c -0.0343,-0.91813 -1.08089,-9.93336 -2.32567,-20.03386 l -2.26323,-18.36454 11.51283,0 c 11.19398,0 11.64208,0.11676 16.17961,4.21584 7.47021,6.74836 20.61315,15.63664 31.62319,21.38604 5.61153,2.93033 9.59484,5.32787 8.8518,5.32787 -1.51645,0 -52.81398,7.26851 -59.3277,8.40633 -2.93146,0.51208 -4.20714,0.23068 -4.25083,-0.93768 z"
             style="opacity:0.45;fill:none;stroke:none" />
          <path
             inkscape:connector-curvature="0"
             id="path3601"
             d="m 138.81945,434.02019 -58.637638,-0.74321 -15.8495,-4.37034 -15.849488,-4.37034 0.79811,-4.00646 c 0.43896,-2.20356 4.236618,-17.74366 8.439238,-34.53357 4.20262,-16.7899 7.64113,-30.90853 7.64113,-31.37473 0,-0.85143 32.42971,0.14574 47.223708,1.45206 l 7.91716,0.6991 -0.69619,18.59886 -0.6962,18.59887 5.02206,0.005 c 24.01899,0.0215 202.8285,2.6412 223.27344,3.27119 l 26.22918,0.80823 -0.45439,-16.86298 c -0.442,-16.40244 -0.38069,-16.86297 2.24497,-16.86246 2.53626,5e-4 2.84213,1.2905 5.06151,21.34703 2.25489,20.37764 2.48333,21.31878 5.03304,20.73557 1.46902,-0.33601 16.58932,-2.49553 33.60069,-4.79892 17.01136,-2.30339 31.09888,-4.60269 31.3056,-5.10955 0.64346,-1.57766 26.56209,9.02529 28.94296,11.84016 1.28836,1.52319 2.2553,4.77559 2.2553,7.58585 l 0,4.91946 -6.76588,0.68296 c -3.72124,0.37563 -17.6035,1.00241 -30.84946,1.39286 -22.72427,0.66983 -24.65184,0.92657 -34.1516,4.5487 -5.53741,2.11132 -12.96768,4.48689 -16.51171,5.27903 -7.50155,1.67668 -161.68363,2.44486 -254.52604,1.26812 z m -29.64101,-8.25244 c 0,-2.57016 0.52972,-2.92091 3.70705,-2.45457 6.52441,0.95758 10.17345,-7.46911 5.88542,-13.59112 -1.5613,-2.22907 -3.27603,-2.86424 -7.73243,-2.86424 l -5.72626,0 0,10.95429 c 0,8.87798 0.36641,10.95428 1.93311,10.95428 1.16446,0 1.93311,-1.19234 1.93311,-2.99864 z m 199.75461,-10.53312 0,-12.24302 -23.19731,0 -23.19731,0 0,12.24302 0,12.24303 23.19731,0 23.19731,0 0,-12.24303 z m -209.113978,6.40666 c 5.941638,-4.16169 4.829738,-16.77666 -1.74266,-19.77125 -8.41143,-3.83251 -15.96149,0.96518 -15.96149,10.14274 0,9.6029 9.98653,15.03414 17.70415,9.62851 z m 35.785678,-0.61523 c 2.98928,-3.30312 1.56676,-4.79134 -2.49963,-2.61507 -3.26464,1.74718 -7.17306,1.0918 -7.17306,-1.2028 0,-0.73106 2.60969,-1.32919 5.79932,-1.32919 6.33971,0 7.1661,-1.34137 3.79314,-6.15694 -2.38241,-3.40138 -8.42758,-3.84502 -11.43352,-0.83907 -1.11384,1.11384 -2.02516,3.97208 -2.02516,6.35164 0,2.37957 0.91132,5.23781 2.02516,6.35164 2.81658,2.81659 8.71763,2.52947 11.51375,-0.56021 z m 7.08092,-1.81981 c 0,-6.07343 1.13708,-8.48221 4.0041,-8.48221 2.06836,0 2.4396,0.98056 2.4396,6.4437 0,4.86857 0.47253,6.4437 1.9331,6.4437 1.47867,0 1.93311,-1.62919 1.93311,-6.93027 0,-8.20419 -1.35905,-9.69639 -8.73841,-9.59455 l -5.43772,0.075 0,8.22488 c 0,6.45185 0.41672,8.22489 1.93311,8.22489 1.3413,0 1.93311,-1.34863 1.93311,-4.40519 z m 37.11569,2.8587 c 2.02575,-2.02574 1.9855,-8.09939 -0.0644,-9.72642 -0.88601,-0.70322 -3.8157,-1.98898 -6.51044,-2.85724 -2.69473,-0.86827 -4.67907,-2.2487 -4.40964,-3.06762 0.76093,-2.31284 5.48233,-2.48199 7.32443,-0.26241 2.10108,2.53165 5.20657,2.58646 5.20657,0.0919 0,-3.34311 -5.94586,-6.20928 -10.93821,-5.27271 -3.40652,0.63907 -4.70641,1.64423 -5.32773,4.11979 -0.98346,3.9184 1.56715,6.92566 7.60846,8.97063 2.28079,0.77205 4.14689,2.22188 4.14689,3.22185 0,2.6217 -6.9009,3.16106 -7.87764,0.6157 -0.84463,-2.20106 -5.65412,-2.82259 -5.65412,-0.73068 0,0.70881 1.15986,2.4486 2.57748,3.86622 2.91748,2.91748 11.40332,3.54606 13.91838,1.03099 z m 17.58266,-1.31774 c 4.31072,-6.15442 0.86576,-13.88939 -6.18595,-13.88939 -2.29888,0 -4.87568,0.69592 -5.72625,1.54649 -2.21973,2.21973 -1.90834,10.79495 0.47867,13.18196 3.00595,3.00595 9.0511,2.56232 11.43353,-0.83906 l 0,0 z m 17.47106,-5.51258 c 0,-6.44574 -0.42936,-8.37681 -1.8625,-8.37681 -1.30764,0 -1.97952,1.82367 -2.2553,6.12152 -0.32926,5.13142 -0.80967,6.12151 -2.97027,6.12151 -2.1606,0 -2.64101,-0.99009 -2.97027,-6.12151 -0.27578,-4.29785 -0.94767,-6.12152 -2.2553,-6.12152 -1.35222,0 -1.8625,1.61209 -1.8625,5.88406 0,8.82849 1.5815,10.86956 8.42215,10.86956 l 5.75399,0 0,-8.37681 z m 6.46342,3.54403 c 0.0222,-5.44231 0.90418,-7.2259 4.16868,-8.43036 4.03949,-1.49039 2.37795,-3.49048 -2.89967,-3.49048 l -5.15496,0 0,8.37681 c 0,6.58689 0.41306,8.37681 1.93311,8.37681 1.37115,0 1.93885,-1.40491 1.95284,-4.83278 z m 18.63146,2.75109 c 1.91644,-1.91643 2.26432,-1.91643 4.38194,0 2.92696,2.64885 8.40599,2.67694 11.02641,0.0565 3.85911,-3.85911 1.78389,-5.89936 -2.97656,-2.9264 -2.57149,1.60591 -6.59693,0.7201 -6.59693,-1.45168 0,-0.73106 2.6097,-1.32919 5.79933,-1.32919 4.86857,0 5.79933,-0.3989 5.79933,-2.48542 0,-5.94155 -8.387,-8.67545 -13.21377,-4.30729 -2.33388,2.11214 -2.52754,2.11214 -3.70955,0 -1.59924,-2.8577 -9.2066,-2.97312 -11.5289,-0.17493 -0.93736,1.12945 -1.70429,3.97492 -1.70429,6.32327 0,2.34835 0.76693,5.19382 1.70429,6.32327 2.20329,2.65479 8.35148,2.63908 11.0187,-0.0281 l 0,0 z"
             style="opacity:0.45;fill:none;stroke:none" />
          <path
             inkscape:connector-curvature="0"
             id="path3603"
             d="m 138.81945,434.02019 -58.637638,-0.74321 -15.8495,-4.37034 -15.849488,-4.37034 0.79811,-4.00646 c 0.43896,-2.20356 4.236618,-17.74366 8.439238,-34.53357 4.20262,-16.7899 7.64113,-30.90853 7.64113,-31.37473 0,-0.85143 32.42971,0.14574 47.223708,1.45206 l 7.91716,0.6991 -0.69619,18.59886 -0.6962,18.59887 5.02206,0.005 c 24.01899,0.0215 202.8285,2.6412 223.27344,3.27119 l 26.22918,0.80823 -0.45439,-16.86298 c -0.442,-16.40244 -0.38069,-16.86297 2.24497,-16.86246 2.53626,5e-4 2.84213,1.2905 5.06151,21.34703 2.25489,20.37764 2.48333,21.31878 5.03304,20.73557 1.46902,-0.33601 16.58932,-2.49553 33.60069,-4.79892 17.01136,-2.30339 31.09888,-4.60269 31.3056,-5.10955 0.64346,-1.57766 26.56209,9.02529 28.94296,11.84016 1.28836,1.52319 2.2553,4.77559 2.2553,7.58585 l 0,4.91946 -6.76588,0.68296 c -3.72124,0.37563 -17.6035,1.00241 -30.84946,1.39286 -22.72427,0.66983 -24.65184,0.92657 -34.1516,4.5487 -5.53741,2.11132 -12.96768,4.48689 -16.51171,5.27903 -7.50155,1.67668 -161.68363,2.44486 -254.52604,1.26812 z m -29.64101,-8.25244 c 0,-2.57016 0.52972,-2.92091 3.70705,-2.45457 6.52441,0.95758 10.17345,-7.46911 5.88542,-13.59112 -1.5613,-2.22907 -3.27603,-2.86424 -7.73243,-2.86424 l -5.72626,0 0,10.95429 c 0,8.87798 0.36641,10.95428 1.93311,10.95428 1.16446,0 1.93311,-1.19234 1.93311,-2.99864 z m 199.75461,-10.53312 0,-12.24302 -23.19731,0 -23.19731,0 0,12.24302 0,12.24303 23.19731,0 23.19731,0 0,-12.24303 z m -209.113978,6.40666 c 5.941638,-4.16169 4.829738,-16.77666 -1.74266,-19.77125 -8.41143,-3.83251 -15.96149,0.96518 -15.96149,10.14274 0,9.6029 9.98653,15.03414 17.70415,9.62851 z m 35.785678,-0.61523 c 2.98928,-3.30312 1.56676,-4.79134 -2.49963,-2.61507 -3.26464,1.74718 -7.17306,1.0918 -7.17306,-1.2028 0,-0.73106 2.60969,-1.32919 5.79932,-1.32919 6.33971,0 7.1661,-1.34137 3.79314,-6.15694 -2.38241,-3.40138 -8.42758,-3.84502 -11.43352,-0.83907 -1.11384,1.11384 -2.02516,3.97208 -2.02516,6.35164 0,2.37957 0.91132,5.23781 2.02516,6.35164 2.81658,2.81659 8.71763,2.52947 11.51375,-0.56021 z m 7.08092,-1.81981 c 0,-6.07343 1.13708,-8.48221 4.0041,-8.48221 2.06836,0 2.4396,0.98056 2.4396,6.4437 0,4.86857 0.47253,6.4437 1.9331,6.4437 1.47867,0 1.93311,-1.62919 1.93311,-6.93027 0,-8.20419 -1.35905,-9.69639 -8.73841,-9.59455 l -5.43772,0.075 0,8.22488 c 0,6.45185 0.41672,8.22489 1.93311,8.22489 1.3413,0 1.93311,-1.34863 1.93311,-4.40519 z m 37.11569,2.8587 c 2.02575,-2.02574 1.9855,-8.09939 -0.0644,-9.72642 -0.88601,-0.70322 -3.8157,-1.98898 -6.51044,-2.85724 -2.69473,-0.86827 -4.67907,-2.2487 -4.40964,-3.06762 0.76093,-2.31284 5.48233,-2.48199 7.32443,-0.26241 2.10108,2.53165 5.20657,2.58646 5.20657,0.0919 0,-3.34311 -5.94586,-6.20928 -10.93821,-5.27271 -3.40652,0.63907 -4.70641,1.64423 -5.32773,4.11979 -0.98346,3.9184 1.56715,6.92566 7.60846,8.97063 2.28079,0.77205 4.14689,2.22188 4.14689,3.22185 0,2.6217 -6.9009,3.16106 -7.87764,0.6157 -0.84463,-2.20106 -5.65412,-2.82259 -5.65412,-0.73068 0,0.70881 1.15986,2.4486 2.57748,3.86622 2.91748,2.91748 11.40332,3.54606 13.91838,1.03099 z m 17.58266,-1.31774 c 4.31072,-6.15442 0.86576,-13.88939 -6.18595,-13.88939 -2.29888,0 -4.87568,0.69592 -5.72625,1.54649 -2.21973,2.21973 -1.90834,10.79495 0.47867,13.18196 3.00595,3.00595 9.0511,2.56232 11.43353,-0.83906 l 0,0 z m 17.47106,-5.51258 c 0,-6.44574 -0.42936,-8.37681 -1.8625,-8.37681 -1.30764,0 -1.97952,1.82367 -2.2553,6.12152 -0.32926,5.13142 -0.80967,6.12151 -2.97027,6.12151 -2.1606,0 -2.64101,-0.99009 -2.97027,-6.12151 -0.27578,-4.29785 -0.94767,-6.12152 -2.2553,-6.12152 -1.35222,0 -1.8625,1.61209 -1.8625,5.88406 0,8.82849 1.5815,10.86956 8.42215,10.86956 l 5.75399,0 0,-8.37681 z m 6.46342,3.54403 c 0.0222,-5.44231 0.90418,-7.2259 4.16868,-8.43036 4.03949,-1.49039 2.37795,-3.49048 -2.89967,-3.49048 l -5.15496,0 0,8.37681 c 0,6.58689 0.41306,8.37681 1.93311,8.37681 1.37115,0 1.93885,-1.40491 1.95284,-4.83278 z m 18.63146,2.75109 c 1.91644,-1.91643 2.26432,-1.91643 4.38194,0 2.92696,2.64885 8.40599,2.67694 11.02641,0.0565 3.85911,-3.85911 1.78389,-5.89936 -2.97656,-2.9264 -2.57149,1.60591 -6.59693,0.7201 -6.59693,-1.45168 0,-0.73106 2.6097,-1.32919 5.79933,-1.32919 4.86857,0 5.79933,-0.3989 5.79933,-2.48542 0,-5.94155 -8.387,-8.67545 -13.21377,-4.30729 -2.33388,2.11214 -2.52754,2.11214 -3.70955,0 -1.59924,-2.8577 -9.2066,-2.97312 -11.5289,-0.17493 -0.93736,1.12945 -1.70429,3.97492 -1.70429,6.32327 0,2.34835 0.76693,5.19382 1.70429,6.32327 2.20329,2.65479 8.35148,2.63908 11.0187,-0.0281 l 0,0 z"
             style="opacity:0.45;fill:none;stroke:none" />
          <path
             inkscape:connector-curvature="0"
             id="path3605"
             d="m 138.81945,434.02019 -58.637638,-0.74321 -15.8495,-4.37034 -15.849488,-4.37034 0.79811,-4.00646 c 0.43896,-2.20356 4.236618,-17.74366 8.439238,-34.53357 4.20262,-16.7899 7.64113,-30.90853 7.64113,-31.37473 0,-0.85143 32.42971,0.14574 47.223708,1.45206 l 7.91716,0.6991 -0.69619,18.59886 -0.6962,18.59887 5.02206,0.005 c 24.01899,0.0215 202.8285,2.6412 223.27344,3.27119 l 26.22918,0.80823 -0.45439,-16.86298 c -0.442,-16.40244 -0.38069,-16.86297 2.24497,-16.86246 2.53626,5e-4 2.84213,1.2905 5.06151,21.34703 2.25489,20.37764 2.48333,21.31878 5.03304,20.73557 1.46902,-0.33601 16.58932,-2.49553 33.60069,-4.79892 17.01136,-2.30339 31.09888,-4.60269 31.3056,-5.10955 0.64346,-1.57766 26.56209,9.02529 28.94296,11.84016 1.28836,1.52319 2.2553,4.77559 2.2553,7.58585 l 0,4.91946 -6.76588,0.68296 c -3.72124,0.37563 -17.6035,1.00241 -30.84946,1.39286 -22.72427,0.66983 -24.65184,0.92657 -34.1516,4.5487 -5.53741,2.11132 -12.96768,4.48689 -16.51171,5.27903 -7.50155,1.67668 -161.68363,2.44486 -254.52604,1.26812 z m -29.64101,-8.25244 c 0,-2.57016 0.52972,-2.92091 3.70705,-2.45457 6.52441,0.95758 10.17345,-7.46911 5.88542,-13.59112 -1.5613,-2.22907 -3.27603,-2.86424 -7.73243,-2.86424 l -5.72626,0 0,10.95429 c 0,8.87798 0.36641,10.95428 1.93311,10.95428 1.16446,0 1.93311,-1.19234 1.93311,-2.99864 z m 199.75461,-10.53312 0,-12.24302 -23.19731,0 -23.19731,0 0,12.24302 0,12.24303 23.19731,0 23.19731,0 0,-12.24303 z m -209.113978,6.40666 c 5.941638,-4.16169 4.829738,-16.77666 -1.74266,-19.77125 -8.41143,-3.83251 -15.96149,0.96518 -15.96149,10.14274 0,9.6029 9.98653,15.03414 17.70415,9.62851 z m 35.785678,-0.61523 c 2.98928,-3.30312 1.56676,-4.79134 -2.49963,-2.61507 -3.26464,1.74718 -7.17306,1.0918 -7.17306,-1.2028 0,-0.73106 2.60969,-1.32919 5.79932,-1.32919 6.33971,0 7.1661,-1.34137 3.79314,-6.15694 -2.38241,-3.40138 -8.42758,-3.84502 -11.43352,-0.83907 -1.11384,1.11384 -2.02516,3.97208 -2.02516,6.35164 0,2.37957 0.91132,5.23781 2.02516,6.35164 2.81658,2.81659 8.71763,2.52947 11.51375,-0.56021 z m 7.08092,-1.81981 c 0,-6.07343 1.13708,-8.48221 4.0041,-8.48221 2.06836,0 2.4396,0.98056 2.4396,6.4437 0,4.86857 0.47253,6.4437 1.9331,6.4437 1.47867,0 1.93311,-1.62919 1.93311,-6.93027 0,-8.20419 -1.35905,-9.69639 -8.73841,-9.59455 l -5.43772,0.075 0,8.22488 c 0,6.45185 0.41672,8.22489 1.93311,8.22489 1.3413,0 1.93311,-1.34863 1.93311,-4.40519 z m 37.11569,2.8587 c 2.02575,-2.02574 1.9855,-8.09939 -0.0644,-9.72642 -0.88601,-0.70322 -3.8157,-1.98898 -6.51044,-2.85724 -2.69473,-0.86827 -4.67907,-2.2487 -4.40964,-3.06762 0.76093,-2.31284 5.48233,-2.48199 7.32443,-0.26241 2.10108,2.53165 5.20657,2.58646 5.20657,0.0919 0,-3.34311 -5.94586,-6.20928 -10.93821,-5.27271 -3.40652,0.63907 -4.70641,1.64423 -5.32773,4.11979 -0.98346,3.9184 1.56715,6.92566 7.60846,8.97063 2.28079,0.77205 4.14689,2.22188 4.14689,3.22185 0,2.6217 -6.9009,3.16106 -7.87764,0.6157 -0.84463,-2.20106 -5.65412,-2.82259 -5.65412,-0.73068 0,0.70881 1.15986,2.4486 2.57748,3.86622 2.91748,2.91748 11.40332,3.54606 13.91838,1.03099 z m 17.58266,-1.31774 c 4.31072,-6.15442 0.86576,-13.88939 -6.18595,-13.88939 -2.29888,0 -4.87568,0.69592 -5.72625,1.54649 -2.21973,2.21973 -1.90834,10.79495 0.47867,13.18196 3.00595,3.00595 9.0511,2.56232 11.43353,-0.83906 l 0,0 z m 17.47106,-5.51258 c 0,-6.44574 -0.42936,-8.37681 -1.8625,-8.37681 -1.30764,0 -1.97952,1.82367 -2.2553,6.12152 -0.32926,5.13142 -0.80967,6.12151 -2.97027,6.12151 -2.1606,0 -2.64101,-0.99009 -2.97027,-6.12151 -0.27578,-4.29785 -0.94767,-6.12152 -2.2553,-6.12152 -1.35222,0 -1.8625,1.61209 -1.8625,5.88406 0,8.82849 1.5815,10.86956 8.42215,10.86956 l 5.75399,0 0,-8.37681 z m 6.46342,3.54403 c 0.0222,-5.44231 0.90418,-7.2259 4.16868,-8.43036 4.03949,-1.49039 2.37795,-3.49048 -2.89967,-3.49048 l -5.15496,0 0,8.37681 c 0,6.58689 0.41306,8.37681 1.93311,8.37681 1.37115,0 1.93885,-1.40491 1.95284,-4.83278 z m 18.63146,2.75109 c 1.91644,-1.91643 2.26432,-1.91643 4.38194,0 2.92696,2.64885 8.40599,2.67694 11.02641,0.0565 3.85911,-3.85911 1.78389,-5.89936 -2.97656,-2.9264 -2.57149,1.60591 -6.59693,0.7201 -6.59693,-1.45168 0,-0.73106 2.6097,-1.32919 5.79933,-1.32919 4.86857,0 5.79933,-0.3989 5.79933,-2.48542 0,-5.94155 -8.387,-8.67545 -13.21377,-4.30729 -2.33388,2.11214 -2.52754,2.11214 -3.70955,0 -1.59924,-2.8577 -9.2066,-2.97312 -11.5289,-0.17493 -0.93736,1.12945 -1.70429,3.97492 -1.70429,6.32327 0,2.34835 0.76693,5.19382 1.70429,6.32327 2.20329,2.65479 8.35148,2.63908 11.0187,-0.0281 l 0,0 z"
             style="opacity:0.45;fill:none;stroke:none" />
          <path
             inkscape:connector-curvature="0"
             id="path4079"
             d="M 218.07693,435.25003 85.336765,434.09146 71.160631,430.80674 c -22.377918,-5.18513 -23.841679,-5.65633 -23.841679,-7.67479 0,-1.03589 0.84362,-1.88343 1.874712,-1.88343 1.969885,0 2.009403,-0.15824 5.183438,-20.75585 2.956052,-19.18303 4.239986,-22.18242 10.117151,-23.63456 l 4.928062,-1.21763 -0.861979,-7.80355 c -0.474087,-4.29194 -1.561939,-9.25337 -2.417448,-11.02538 l -1.555472,-3.22185 13.596523,0.31848 c 7.478088,0.17516 20.166339,0.67016 28.196111,1.10001 l 14.59959,0.78154 -0.90898,18.35165 -0.90899,18.35165 8.86234,0.83403 c 4.87428,0.45871 36.6991,1.13155 70.72182,1.49518 34.02273,0.36364 87.28988,0.95267 118.37148,1.30895 l 56.51199,0.64778 -0.45182,-16.76239 -0.45182,-16.76239 3.26495,5.3e-4 c 3.26259,5.2e-4 3.26669,0.0157 5.64252,20.94254 1.30764,11.51811 2.56758,21.2803 2.79984,21.69375 0.23226,0.41345 15.96087,-1.47734 34.95245,-4.20176 l 34.53018,-4.9535 9.66586,3.37591 c 5.31623,1.85675 11.55065,4.31437 13.85428,5.46138 3.98022,1.98182 4.1884,2.44503 4.1884,9.31916 l 0,7.2337 -31.35903,0.85517 -31.35904,0.85518 -10.84717,4.81691 c -11.32211,5.0278 -12.21692,5.1632 -47.57627,7.19897 -5.31605,0.30606 -69.39862,0.0351 -142.4057,-0.6021 l 0,0 z"
             style="fill:#ffffff;stroke:#ffffff;stroke-width:1.28873944" />
          <path
             inkscape:connector-curvature="0"
             id="path4081"
             d="m 323.10003,387.41911 c -0.005,-3.72124 -0.37887,-10.68043 -0.83073,-15.46487 l -0.82157,-8.699 24.02804,0 24.02804,0 0,15.46488 0,15.46487 -23.19731,0 -23.19731,0 -0.009,-6.76588 z"
             style="fill:#ffffff;stroke:#ffffff;stroke-width:1.28873944" />
          <path
             inkscape:connector-curvature="0"
             id="path4083"
             d="m 258.67222,378.07575 0,-14.82051 30.14749,0 c 26.30173,0 30.24729,0.26005 30.92975,2.03852 0.43024,1.12118 0.78225,7.7904 0.78225,14.8205 l 0,12.78199 -30.92975,0 -30.92974,0 0,-14.8205 z"
             style="fill:#ffffff;stroke:#ffffff;stroke-width:1.28873944" />
          <path
             inkscape:connector-curvature="0"
             id="path4085"
             d="m 186.49365,385.486 c -0.005,-4.07564 -0.3732,-11.26408 -0.81813,-15.97431 l -0.80896,-8.56405 27.55947,0.55214 c 15.1577,0.30367 31.18405,0.86904 35.61409,1.25638 l 8.05462,0.70424 0,14.71792 0,14.71793 -34.79597,0 -34.79596,0 -0.009,-7.41025 z"
             style="fill:#ffffff;stroke:#ffffff;stroke-width:1.28873944" />
          <path
             inkscape:connector-curvature="0"
             id="path4087"
             d="m 153.96214,391.93549 -12.56521,-0.42131 0,-15.99857 0,-15.99857 20.29765,0.77334 c 12.49268,0.47597 20.66172,1.31858 21.24446,2.19129 0.52075,0.77987 0.9557,7.94219 0.96656,15.91626 l 0.0197,14.49832 -8.69899,-0.26972 c -4.78445,-0.14834 -14.35334,-0.45931 -21.2642,-0.69104 z"
             style="fill:#ffffff;stroke:#ffffff;stroke-width:1.28873944" />
          <path
             inkscape:connector-curvature="0"
             id="path4089"
             d="m 122.06584,377.59247 c 0,-17.71712 0.82849,-22.39842 3.69774,-20.89366 1.15587,0.60618 4.5663,1.51044 7.57873,2.00946 l 5.47714,0.90731 0,15.99597 0,15.99596 -8.37681,0 -8.3768,0 0,-14.01504 z"
             style="fill:#ffffff;stroke:#ffffff;stroke-width:1.28873944" />
          <path
             inkscape:connector-curvature="0"
             id="path4091"
             d="m 386.25742,403.4426 c 0,-1.00546 -3.3477,-28.26502 -4.43692,-36.12874 l -0.59811,-4.31818 10.70165,0.45197 c 10.58266,0.44694 10.77903,0.51743 17.66021,6.33956 9.59872,8.12144 18.04999,13.77314 30.15586,20.16644 5.67045,2.99465 9.65376,5.46176 8.8518,5.48245 -1.76119,0.0455 -53.7728,7.42973 -58.79046,8.3467 -1.94921,0.35622 -3.54403,0.20313 -3.54403,-0.3402 z"
             style="opacity:0.38999999;fill:#ffffff;stroke:#ffffff;stroke-width:1.28873944" />
        </g>
        <g
           id="g3456"
           transform="matrix(0.05205003,0,0,0.0477254,382.94818,642.27149)">
          <flowRoot
             style="font-size:40px;font-style:normal;font-weight:normal;line-height:125%;letter-spacing:0px;word-spacing:0px;fill:#000000;fill-opacity:1;stroke:none;font-family:Sans"
             id="flowRoot3402"
             xml:space="preserve"><flowRegion
               id="flowRegion3404"><rect
                 y="520.43604"
                 x="213.6225"
                 height="70.251694"
                 width="549.11017"
                 id="rect3406" /></flowRegion><flowPara
               id="flowPara3408" /></flowRoot>          <g
             id="g3424">
            <rect
               style="fill:#ffffff;stroke:#000000;stroke-width:1.04001355"
               id="rect3388"
               width="868.82709"
               height="480.7291"
               x="81.721359"
               y="143.3708" />
            <path
               inkscape:connector-curvature="0"
               style="fill:#40aa54;fill-opacity:1;stroke:#20552a;stroke-width:7.99999952;stroke-miterlimit:4;stroke-opacity:1;stroke-dasharray:none"
               id="path2830"
               d="m 253.48079,155.7262 c -59.20089,0.53774 -114.80979,36.72219 -137.3125,95.34375 -29.391292,76.56693 8.83932,162.45246 85.40625,191.84375 l 34.03125,-88.6875 c -20.0678,-7.71358 -34.3125,-27.15324 -34.3125,-49.9375 0,-29.54723 23.95277,-53.5 53.5,-53.5 29.54723,0 53.5,23.95277 53.5,53.5 0,22.78426 -14.2447,42.22392 -34.3125,49.9375 l 34.03125,88.6875 c 39.29085,-15.08234 70.3239,-46.1154 85.40625,-85.40625 29.39129,-76.56693 -8.83932,-162.48371 -85.40625,-191.875 -17.94537,-6.88859 -36.40853,-10.07087 -54.53125,-9.90625 z" />
            <path
               style="fill:#40aa54;fill-opacity:1;stroke:#40aa54;stroke-width:1px;stroke-linecap:butt;stroke-linejoin:miter;stroke-opacity:1"
               d="M 950.54844,143.37081 81.721359,622.2293"
               id="path3410"
               inkscape:connector-curvature="0" />
            <path
               style="fill:#40aa54;fill-opacity:1;stroke:#5c8364;stroke-width:1.43370807;stroke-opacity:1"
               d="m 86.152193,622.14231 c 1.13694,-0.98415 860.114217,-474.13364 862.256117,-474.95557 1.906,-0.73143 2.1504,26.23276 2.1504,237.32374 l 0,238.14893 -432.50198,0 c -237.87605,0 -432.233097,-0.23269 -431.904537,-0.5171 z"
               id="path3412"
               inkscape:connector-curvature="0" />
          </g>
        </g>
        <g
           id="flowRoot3363"
           style="font-size:30px;font-style:normal;font-weight:normal;line-height:125%;letter-spacing:0px;word-spacing:0px;fill:#000000;fill-opacity:1;stroke:none;font-family:Sans"
           transform="translate(45.10589,373.73446)">
          <path
             id="path6478"
             d="m 161.2627,284.70197 c -1e-5,-3.56444 0.95702,-6.35496 2.87109,-8.37158 1.91406,-2.01658 4.38476,-3.02488 7.41211,-3.0249 1.98241,2e-5 3.76951,0.47365 5.36133,1.42089 1.59177,0.94729 2.80515,2.26809 3.64013,3.96241 0.83494,1.69435 1.25242,3.61573 1.25244,5.76416 -2e-5,2.17774 -0.43947,4.12598 -1.31835,5.84472 -0.87893,1.71876 -2.12405,3.02002 -3.73536,3.90381 -1.61134,0.88379 -3.34962,1.32568 -5.21484,1.32569 -2.02149,-1e-5 -3.82813,-0.48829 -5.41992,-1.46485 -1.5918,-0.97656 -2.79786,-2.30957 -3.61817,-3.99902 -0.82031,-1.68945 -1.23047,-3.47656 -1.23046,-5.36133 z m 2.92968,0.0439 c 0,2.58789 0.6958,4.62647 2.08741,6.11572 1.39159,1.48926 3.13719,2.23389 5.23681,2.23388 2.13866,1e-5 3.89891,-0.75195 5.28076,-2.25585 1.38182,-1.50391 2.07274,-3.63769 2.07276,-6.40137 -2e-5,-1.74804 -0.29543,-3.27391 -0.88623,-4.57764 -0.59084,-1.30369 -1.4551,-2.31443 -2.59278,-3.03223 -1.13771,-0.71775 -2.41456,-1.07664 -3.83056,-1.07666 -2.01173,2e-5 -3.74269,0.69094 -5.19287,2.07276 -1.4502,1.38185 -2.1753,3.68898 -2.1753,6.92139 z"
             inkscape:connector-curvature="0" />
          <path
             id="path6480"
             d="m 185.11035,301.12287 0,-21.51856 2.40235,0 0,2.02149 c 0.5664,-0.791 1.20604,-1.38426 1.91894,-1.77979 0.71288,-0.39549 1.57714,-0.59324 2.59277,-0.59326 1.32812,2e-5 2.49999,0.34181 3.51563,1.02539 1.01561,0.68361 1.78221,1.64796 2.2998,2.89307 0.51757,1.24513 0.77636,2.60987 0.77637,4.09424 -1e-5,1.5918 -0.28566,3.0249 -0.85693,4.29931 -0.57131,1.27442 -1.40138,2.25098 -2.49024,2.92969 -1.08888,0.67871 -2.23389,1.01807 -3.43506,1.01807 -0.87891,0 -1.66748,-0.18555 -2.36572,-0.55664 -0.69825,-0.3711 -1.27198,-0.83985 -1.72119,-1.40625 l 0,7.57324 z m 2.3877,-13.65235 c -1e-5,2.00196 0.40527,3.48145 1.21582,4.43848 0.81054,0.95703 1.79198,1.43555 2.94433,1.43555 1.17187,0 2.17529,-0.49561 3.01026,-1.48682 0.83495,-0.9912 1.25243,-2.52685 1.25244,-4.60693 -10e-6,-1.98241 -0.40773,-3.46679 -1.22315,-4.45313 -0.81544,-0.98631 -1.78956,-1.47948 -2.92236,-1.47949 -1.12305,1e-5 -2.11671,0.52492 -2.98096,1.57471 -0.86426,1.04981 -1.29639,2.57569 -1.29638,4.57763 z"
             inkscape:connector-curvature="0" />
          <path
             id="path6482"
             d="m 212.45898,290.15119 2.72461,0.33691 c -0.4297,1.5918 -1.2256,2.82715 -2.38769,3.70606 -1.16212,0.8789 -2.6465,1.31836 -4.45313,1.31836 -2.27539,0 -4.07959,-0.70069 -5.41259,-2.10205 -1.33301,-1.40137 -1.99952,-3.3667 -1.99952,-5.896 0,-2.61718 0.67383,-4.64843 2.02149,-6.09375 1.34765,-1.4453 3.0957,-2.16795 5.24414,-2.16797 2.08007,2e-5 3.77928,0.70802 5.09766,2.12402 1.31834,1.41603 1.97752,3.40822 1.97753,5.97657 -1e-5,0.15625 -0.005,0.39063 -0.0146,0.70312 l -11.60157,0 c 0.0977,1.70899 0.58105,3.01758 1.4502,3.92578 0.86913,0.90821 1.95312,1.36231 3.25195,1.36231 0.96679,0 1.79198,-0.25391 2.47559,-0.76172 0.68358,-0.50781 1.22557,-1.31836 1.62597,-2.43164 z m -8.65722,-4.2627 8.68652,0 c -0.1172,-1.30858 -0.44923,-2.29002 -0.99609,-2.94433 -0.83986,-1.01561 -1.92872,-1.52343 -3.2666,-1.52344 -1.21095,10e-6 -2.22901,0.40529 -3.0542,1.21582 -0.8252,0.81056 -1.28175,1.89454 -1.36963,3.25195 z"
             inkscape:connector-curvature="0" />
          <path
             id="path6484"
             d="m 218.50879,295.16095 0,-15.55664 2.37305,0 0,2.21192 c 1.14257,-1.70897 2.79296,-2.56346 4.95117,-2.56348 0.93749,2e-5 1.7993,0.16847 2.58545,0.50537 0.78612,0.33693 1.3745,0.77883 1.76513,1.32569 0.39061,0.54688 0.66405,1.1963 0.82032,1.94824 0.0976,0.48829 0.14647,1.34278 0.14648,2.56347 l 0,9.56543 -2.63672,0 0,-9.46289 c -1e-5,-1.0742 -0.10255,-1.87743 -0.30762,-2.40966 -0.20508,-0.53222 -0.56885,-0.95702 -1.0913,-1.27442 -0.52247,-0.31737 -1.13527,-0.47606 -1.83838,-0.47607 -1.12306,10e-6 -2.09229,0.35646 -2.90772,1.06933 -0.81543,0.71291 -1.22315,2.06544 -1.22314,4.05762 l 0,8.49609 z"
             inkscape:connector-curvature="0" />
          <path
             id="path6486"
             d="m 242.89844,288.26154 2.68066,-0.23437 c 0.12695,1.07422 0.42236,1.95557 0.88623,2.64404 0.46386,0.68848 1.18408,1.24512 2.16065,1.66992 0.97655,0.42481 2.07518,0.63721 3.29589,0.63721 1.08398,0 2.04101,-0.16113 2.8711,-0.4834 0.83006,-0.32226 1.44774,-0.76416 1.85303,-1.32568 0.40525,-0.56152 0.60789,-1.17432 0.60791,-1.83838 -2e-5,-0.67383 -0.19533,-1.2622 -0.58594,-1.76514 -0.39064,-0.50292 -1.03517,-0.92528 -1.9336,-1.26709 -0.57618,-0.2246 -1.85059,-0.57372 -3.82324,-1.04736 -1.97266,-0.47363 -3.3545,-0.9204 -4.14551,-1.34034 -1.02539,-0.53709 -1.78955,-1.2036 -2.29248,-1.99951 -0.50293,-0.79588 -0.75439,-1.68699 -0.75439,-2.67334 0,-1.08396 0.30761,-2.09715 0.92285,-3.03955 0.61523,-0.94236 1.51367,-1.65769 2.69531,-2.14599 1.18164,-0.48826 2.49511,-0.7324 3.94043,-0.73243 1.59179,3e-5 2.9956,0.25637 4.21143,0.76905 1.2158,0.51271 2.15086,1.26711 2.80518,2.26318 0.65427,0.99611 1.00584,2.12404 1.05468,3.38379 l -2.72461,0.20508 c -0.1465,-1.35741 -0.6421,-2.3828 -1.48681,-3.07617 -0.84474,-0.69334 -2.0923,-1.04002 -3.74268,-1.04004 -1.71876,2e-5 -2.9712,0.31496 -3.75732,0.94482 -0.78614,0.6299 -1.17921,1.38918 -1.1792,2.27783 -1e-5,0.7715 0.27831,1.40627 0.83496,1.9043 0.54687,0.49806 1.97509,1.00831 4.28467,1.53076 2.30955,0.52247 3.89403,0.97902 4.75341,1.36963 1.24999,0.57618 2.17284,1.30616 2.76856,2.18994 0.59568,0.8838 0.89354,1.90186 0.89355,3.0542 -10e-6,1.14258 -0.32716,2.21924 -0.98144,3.22998 -0.65431,1.01075 -1.59426,1.79688 -2.81983,2.3584 -1.22559,0.56152 -2.60499,0.84228 -4.13818,0.84229 -1.94337,-1e-5 -3.57178,-0.28321 -4.88525,-0.84961 -1.31348,-0.56641 -2.34376,-1.41846 -3.09082,-2.55616 -0.74708,-1.13769 -1.14014,-2.42431 -1.1792,-3.85986 z"
             inkscape:connector-curvature="0" />
          <path
             id="path6488"
             d="m 262.58594,287.38263 c 0,-2.88084 0.80078,-5.01463 2.40234,-6.40136 1.33789,-1.15233 2.96874,-1.7285 4.89258,-1.72852 2.13866,2e-5 3.88671,0.7007 5.24414,2.10205 1.35741,1.40138 2.03612,3.33741 2.03613,5.80811 -1e-5,2.00196 -0.30031,3.57666 -0.90088,4.72412 -0.6006,1.14746 -1.47462,2.03857 -2.62207,2.67334 -1.14747,0.63476 -2.39991,0.95215 -3.75732,0.95215 -2.17774,0 -3.93799,-0.69825 -5.28076,-2.09473 -1.34278,-1.39648 -2.01416,-3.4082 -2.01416,-6.03516 z m 2.70996,0 c -1e-5,1.9922 0.43456,3.4839 1.30371,4.4751 0.86913,0.99121 1.96288,1.48682 3.28125,1.48682 1.30858,0 2.39745,-0.49805 3.2666,-1.49414 0.86913,-0.99609 1.3037,-2.51465 1.30371,-4.55567 -10e-6,-1.92381 -0.43702,-3.38133 -1.31103,-4.37256 -0.87404,-0.99119 -1.96046,-1.4868 -3.25928,-1.48681 -1.31837,1e-5 -2.41212,0.49318 -3.28125,1.47949 -0.86915,0.98634 -1.30372,2.4756 -1.30371,4.46777 z"
             inkscape:connector-curvature="0" />
          <path
             id="path6490"
             d="m 290.46191,295.16095 0,-2.28515 c -1.21094,1.75781 -2.85645,2.63672 -4.93652,2.63672 -0.91797,0 -1.77491,-0.17578 -2.5708,-0.52735 -0.7959,-0.35156 -1.38672,-0.79345 -1.77246,-1.32568 -0.38575,-0.53223 -0.65674,-1.18408 -0.81299,-1.95557 -0.10742,-0.51757 -0.16113,-1.33788 -0.16113,-2.46093 l 0,-9.63868 2.63672,0 0,8.62793 c -1e-5,1.37696 0.0537,2.3047 0.16113,2.78321 0.16601,0.69336 0.51757,1.23779 1.05469,1.6333 0.5371,0.39551 1.20116,0.59326 1.99218,0.59326 0.79101,0 1.5332,-0.20264 2.22657,-0.60791 0.69335,-0.40527 1.18407,-0.95703 1.47216,-1.65527 0.28808,-0.69824 0.43212,-1.71142 0.43213,-3.03956 l 0,-8.33496 2.63672,0 0,15.55664 z"
             inkscape:connector-curvature="0" />
          <path
             id="path6492"
             d="m 296.93652,295.16095 0,-15.55664 2.37305,0 0,2.3584 c 0.60546,-1.1035 1.16455,-1.83104 1.67725,-2.18262 0.51269,-0.35154 1.07665,-0.52732 1.69189,-0.52734 0.88866,2e-5 1.79198,0.28322 2.70996,0.84961 l -0.9082,2.44629 c -0.64454,-0.38085 -1.28907,-0.57128 -1.9336,-0.57129 -0.57617,1e-5 -1.09375,0.17335 -1.55273,0.52002 -0.45899,0.34669 -0.78614,0.82765 -0.98144,1.44287 -0.29298,0.93751 -0.43946,1.9629 -0.43946,3.07617 l 0,8.14453 z"
             inkscape:connector-curvature="0" />
          <path
             id="path6494"
             d="m 317.13672,289.46271 2.59277,0.33692 c -0.28322,1.78711 -1.00831,3.18603 -2.17529,4.19677 -1.167,1.01075 -2.60011,1.51612 -4.29932,1.51612 -2.12891,0 -3.84033,-0.6958 -5.13427,-2.08741 -1.29395,-1.39159 -1.94092,-3.38622 -1.94092,-5.98388 0,-1.67968 0.27832,-3.14941 0.83496,-4.40918 0.55664,-1.25975 1.4038,-2.20458 2.5415,-2.83447 1.13769,-0.62987 2.37548,-0.94481 3.71338,-0.94483 1.68944,2e-5 3.07128,0.42726 4.14551,1.28174 1.0742,0.85451 1.76268,2.06788 2.06543,3.64014 l -2.56348,0.3955 c -0.24415,-1.04491 -0.67628,-1.83104 -1.29638,-2.35839 -0.62013,-0.52733 -1.36964,-0.79101 -2.24854,-0.79102 -1.32813,10e-6 -2.40723,0.47609 -3.2373,1.42822 -0.83009,0.95216 -1.24513,2.45851 -1.24512,4.51905 -1e-5,2.08985 0.40038,3.6084 1.20117,4.55566 0.80078,0.94727 1.8457,1.4209 3.13477,1.4209 1.03514,0 1.8994,-0.31738 2.59277,-0.95215 0.69335,-0.63476 1.1328,-1.61132 1.31836,-2.92969 z"
             inkscape:connector-curvature="0" />
          <path
             id="path6496"
             d="m 332.63477,290.15119 2.7246,0.33691 c -0.4297,1.5918 -1.2256,2.82715 -2.38769,3.70606 -1.16212,0.8789 -2.6465,1.31836 -4.45313,1.31836 -2.27539,0 -4.07959,-0.70069 -5.41259,-2.10205 -1.33301,-1.40137 -1.99952,-3.3667 -1.99951,-5.896 -10e-6,-2.61718 0.67382,-4.64843 2.02148,-6.09375 1.34765,-1.4453 3.0957,-2.16795 5.24414,-2.16797 2.08007,2e-5 3.77929,0.70802 5.09766,2.12402 1.31834,1.41603 1.97752,3.40822 1.97754,5.97657 -2e-5,0.15625 -0.005,0.39063 -0.0147,0.70312 l -11.60157,0 c 0.0977,1.70899 0.58105,3.01758 1.4502,3.92578 0.86913,0.90821 1.95312,1.36231 3.25195,1.36231 0.96679,0 1.79198,-0.25391 2.47559,-0.76172 0.68358,-0.50781 1.22557,-1.31836 1.62598,-2.43164 z m -8.65723,-4.2627 8.68652,0 c -0.1172,-1.30858 -0.44923,-2.29002 -0.99609,-2.94433 -0.83986,-1.01561 -1.92872,-1.52343 -3.2666,-1.52344 -1.21095,10e-6 -2.22901,0.40529 -3.0542,1.21582 -0.8252,0.81056 -1.28174,1.89454 -1.36963,3.25195 z"
             inkscape:connector-curvature="0" />
        </g>
        <path
           sodipodi:type="arc"
           style="fill:#000000;stroke:#ffffff"
           id="path4299"
           sodipodi:cx="541.91492"
           sodipodi:cy="630.30005"
           sodipodi:rx="12.243025"
           sodipodi:ry="10.954285"
           d="m 529.67189,630.30005 c 0,-6.04989 5.48139,-10.95429 12.24303,-10.95429 6.76163,0 12.24302,4.9044 12.24302,10.95429 l -12.24302,0 z"
           transform="matrix(1.3040329,-0.18974189,0.58071422,2.7726143,-537.4692,-997.62592)"
           inkscape:transform-center-x="53.569457"
           inkscape:transform-center-y="-184.07047"
           sodipodi:start="3.1415927"
           sodipodi:end="6.2831853" />
        <path
           style="fill:#000000;stroke:#000000;stroke-width:0.62407446"
           d="m 251.117,596.72688 c -2.06466,-2.61166 -1.46087,-2.68971 1.42521,-0.18424 1.87657,1.6291 2.16646,2.1139 1.24815,2.08739 -0.65786,-0.019 -1.86087,-0.87541 -2.67336,-1.90315 z"
           id="path4309"
           inkscape:connector-curvature="0" />
        <path
           style="fill:#000000;stroke:#000000;stroke-width:0.62407446"
           d="m 238.463,588.22924 c -5.61421,-5.39619 -24.43542,-23.75806 -41.82491,-40.80416 -28.19057,-27.63388 -44.72498,-43.20487 -45.03715,-42.41291 -0.0587,0.14894 -0.90912,-0.4728 -1.88979,-1.38165 -3.23471,-2.99783 -7.74452,-4.81787 -11.93802,-4.81787 -4.50487,0 -10.04855,1.32199 -14.33969,3.41956 -1.70377,0.83282 -3.24835,1.35943 -3.43241,1.17023 -0.51897,-0.53347 5.23675,-5.51994 7.89618,-6.84085 1.66333,-0.82616 3.69191,-1.17719 6.74697,-1.1675 10.01885,0.0318 14.51287,3.64433 63.64346,51.16025 10.64714,10.29723 26.59985,25.56948 35.45045,33.93835 8.8506,8.36885 16.37278,15.74073 16.71595,16.38195 0.50901,0.9511 0.40223,1.16585 -0.57972,1.16585 -0.70493,0 -5.43315,-4.06524 -11.41132,-9.81125 z"
           id="path4317"
           inkscape:connector-curvature="0" />
        <path
           style="fill:none;stroke:#ffffff;stroke-width:1px;stroke-linecap:butt;stroke-linejoin:miter;stroke-opacity:1"
           d="m 535.45589,619.87858 c -2.08025,0.62407 -4.16049,1.24815 -6.24074,1.87222 -0.62407,1.04012 -1.24815,2.08025 -1.87222,3.12037 1.04012,3.12037 2.08025,6.24075 3.12037,9.36112 1.45617,0.8321 2.91235,1.6642 4.36852,2.4963 2.08025,-0.20803 4.16049,-0.41605 6.24074,-0.62408 0.69328,2.86612 0.91067,5.81585 1.24815,8.73705"
           id="path5438"
           inkscape:connector-curvature="0" />
        <path
           style="fill:#ffffff;stroke:#ffffff;stroke-width:0.62407446"
           d="m 542.57425,641.87456 c -0.94855,-6.90863 -0.64831,-6.5119 -4.81455,-6.36156 -4.97234,0.17944 -6.58084,-1.04166 -8.36498,-6.35024 -1.66825,-4.96376 -1.21394,-6.35681 2.4253,-7.43683 1.42364,-0.42249 2.90436,-1.02525 3.2905,-1.33946 0.99893,-0.81284 6.93729,5.7774 9.36903,10.39751 1.07698,2.04615 2.59769,5.6409 3.37938,7.98833 1.53354,4.6053 1.29149,5.37444 -1.69804,5.39555 -0.74422,0.005 -1.76293,0.16682 -2.26381,0.35902 -0.69086,0.26511 -1.01016,-0.37512 -1.32283,-2.65232 z"
           id="path5448"
           inkscape:connector-curvature="0" />
        <path
           style="fill:#ff6600;stroke:#ff6600;stroke-width:1px;stroke-linecap:butt;stroke-linejoin:miter;stroke-opacity:1"
           d="m 537.99227,627.04368 2.13476,5.89739 10.5847,-3.96357 z"
           id="path5450"
           inkscape:connector-curvature="0" />
        <path
           sodipodi:type="arc"
           style="fill:#ffffff;stroke:#000000"
           id="path5452"
           sodipodi:cx="532.64758"
           sodipodi:cy="627.05542"
           sodipodi:rx="2.8083351"
           sodipodi:ry="4.6805587"
           d="m 535.45592,627.05542 c 0,2.585 -1.25734,4.68056 -2.80834,4.68056 -1.551,0 -2.80833,-2.09556 -2.80833,-4.68056 0,-2.585 1.25733,-4.68056 2.80833,-4.68056 1.551,0 2.80834,2.09556 2.80834,4.68056 z"
           transform="matrix(1,0,0,0.64159061,0,222.67566)" />
        <path
           sodipodi:type="arc"
           style="fill:#ffffff;stroke:#000000"
           id="path5456"
           sodipodi:cx="540.4942"
           sodipodi:cy="628.97461"
           sodipodi:rx="0.19306318"
           sodipodi:ry="0.13790227"
           d="m 540.68726,628.97461 c 0,0.0762 -0.0864,0.1379 -0.19306,0.1379 -0.10662,0 -0.19306,-0.0617 -0.19306,-0.1379 0,-0.0762 0.0864,-0.1379 0.19306,-0.1379 0.10663,0 0.19306,0.0617 0.19306,0.1379 z"
           transform="translate(-0.05516091,-0.22064364)" />
        <path
           sodipodi:type="arc"
           style="fill:#000000;stroke:none"
           id="path5476"
           sodipodi:cx="533.48877"
           sodipodi:cy="627.09912"
           sodipodi:rx="0.91015506"
           sodipodi:ry="0.68951142"
           d="m 534.39892,627.09912 c 0,0.38081 -0.40749,0.68951 -0.91015,0.68951 -0.50267,0 -0.91016,-0.3087 -0.91016,-0.68951 0,-0.38081 0.40749,-0.68951 0.91016,-0.68951 0.50266,0 0.91015,0.3087 0.91015,0.68951 z"
           transform="matrix(1.8907554,0,0,2.7406704,-474.58843,-1093.6217)" />
        <path
           style="fill:none;stroke:#ffffff;stroke-width:0.30000001;stroke-linecap:butt;stroke-linejoin:miter;stroke-miterlimit:4;stroke-opacity:1;stroke-dasharray:none"
           d="m 522.09802,637.49697 1.76515,7.11576 0.38613,0.77225 0.77225,0.60677 1.10322,0.33097 2.5374,-0.38613 2.20644,-2.86837 -2.20644,-5.79189 -0.2758,-3.69578"
           id="path5478"
           inkscape:connector-curvature="0" />
        <path
           style="fill:#ff6600;stroke:#ff6600;stroke-width:0.2;stroke-linecap:butt;stroke-linejoin:miter;stroke-miterlimit:4;stroke-opacity:1;stroke-dasharray:none"
           d="m 540.00274,633.56362 10.69842,-4.05648 -7.13228,6.01786 -3.38783,-1.82765 z"
           id="path6252"
           inkscape:connector-curvature="0" />
        <path
           style="fill:none;stroke:#000000;stroke-width:0.30000001;stroke-linecap:butt;stroke-linejoin:miter;stroke-miterlimit:4;stroke-opacity:1;stroke-dasharray:none"
           d="m 539.73528,633.42989 10.83215,-4.01191"
           id="path6254"
           inkscape:connector-curvature="0" />
        <path
           style="fill:#ff6600;stroke:#000000;stroke-width:0.30000001;stroke-miterlimit:4;stroke-dasharray:none"
           id="path6256"
           d="m 522.8421,616.28674 c 0.20285,0.0209 0.40345,0.0577 0.60488,0.0887 0.23102,0.0231 0.45466,0.0908 0.66873,0.17837 0.24405,0.11837 0.4616,0.28247 0.685,0.43461 0.0427,0.0289 0.0845,0.0592 0.12817,0.0867 0.14264,0.09 0.28652,0.17496 0.42128,0.27739 0.10586,0.0805 0.18027,0.14997 0.27931,0.23802 0.22308,0.2152 0.41248,0.46003 0.59563,0.70901 0.11136,0.14951 0.0549,0.0737 0.16923,0.22747 0,0 -0.21601,0.12814 -0.21601,0.12814 l 0,0 c -0.11531,-0.15328 -0.0588,-0.0774 -0.16965,-0.2275 -0.18103,-0.24802 -0.36912,-0.49156 -0.58927,-0.70671 -0.10397,-0.0926 -0.16586,-0.1516 -0.27774,-0.23559 -0.13536,-0.10162 -0.28093,-0.18519 -0.42351,-0.27546 -0.0437,-0.0276 -0.0857,-0.0577 -0.12861,-0.0865 -0.22307,-0.15058 -0.44064,-0.31284 -0.68488,-0.42829 -0.21417,-0.0854 -0.43667,-0.15027 -0.66704,-0.17248 -0.20352,-0.0327 -0.40657,-0.0699 -0.61247,-0.0847 0,0 0.21695,-0.15117 0.21695,-0.15117 z"
           inkscape:connector-curvature="0" />
        <path
           style="fill:#ff6600;stroke:#000000;stroke-width:0.30000001;stroke-miterlimit:4;stroke-dasharray:none"
           id="path6258"
           d="m 526.20172,618.71466 c 0.002,-0.42276 -0.0186,-0.84498 -0.0153,-1.26788 -9e-4,-0.68751 0.0946,-1.36782 0.20347,-2.04489 0.0408,-0.24887 0.0802,-0.50082 0.22063,-0.71662 0.13029,-0.20024 0.31651,-0.33611 0.5049,-0.47586 0.35633,-0.24337 0.73376,-0.45562 1.12753,-0.63191 0,0 -0.19947,0.15817 -0.19947,0.15817 l 0,0 c -0.083,0.0372 -0.14046,0.062 -0.22322,0.10299 -0.0479,0.0237 -0.0934,0.0524 -0.14265,0.0732 -0.0161,0.007 0.0574,-0.0394 0.0423,-0.0308 -0.14402,0.0817 -0.24107,0.14838 -0.3806,0.23954 -0.18798,0.1369 -0.37447,0.26973 -0.50764,0.46528 -0.14565,0.21387 -0.19098,0.46455 -0.23433,0.71453 -0.11416,0.67454 -0.20807,1.35421 -0.20241,2.04009 0.004,0.41901 0.0218,0.83734 0.0387,1.25595 0,0 -0.23193,0.11817 -0.23193,0.11817 z"
           inkscape:connector-curvature="0" />
        <path
           style="fill:#000000;stroke:#000000;stroke-width:0.30000001;stroke-miterlimit:4;stroke-dasharray:none"
           id="path6260"
           d="m 526.60646,618.77964 c 0.0223,-0.40031 0.15033,-0.77788 0.28595,-1.15169 0.2518,-0.61807 0.59384,-1.19289 0.94207,-1.76022 0.21367,-0.33902 0.45031,-0.66193 0.69675,-0.97753 0,0 0.22056,-0.0944 0.22056,-0.0944 l 0,0 c -0.25135,0.31407 -0.49276,0.63586 -0.70504,0.97813 -0.34949,0.56505 -0.69328,1.13761 -0.94292,1.75534 -0.13161,0.36711 -0.25657,0.73977 -0.26188,1.13403 0,0 -0.23549,0.11632 -0.23549,0.11632 z"
           inkscape:connector-curvature="0" />
      </g>
    </g>
  </g>
</svg>
