<?xml version="1.0" encoding="UTF-8" standalone="no"?>
<!-- Created with Inkscape (http://www.inkscape.org/) -->

<svg
   xmlns:dc="http://purl.org/dc/elements/1.1/"
   xmlns:cc="http://creativecommons.org/ns#"
   xmlns:rdf="http://www.w3.org/1999/02/22-rdf-syntax-ns#"
   xmlns:svg="http://www.w3.org/2000/svg"
   xmlns="http://www.w3.org/2000/svg"
   xmlns:sodipodi="http://sodipodi.sourceforge.net/DTD/sodipodi-0.dtd"
   xmlns:inkscape="http://www.inkscape.org/namespaces/inkscape"
   width="350"
   height="100"
   id="svg2"
   version="1.1"
   inkscape:version="0.48.1 r9760"
   sodipodi:docname="correct.svg">
  <defs
     id="defs4">
    <filter
       id="filter3761"
       inkscape:label="Glow"
       inkscape:menu="Shadows and Glows"
       inkscape:menu-tooltip="Glow of object's own color at the edges"
       color-interpolation-filters="sRGB">
      <feGaussianBlur
         id="feGaussianBlur3763"
         stdDeviation="5"
         result="result91" />
      <feComposite
         id="feComposite3765"
         in2="result91"
         in="SourceGraphic"
         operator="over" />
    </filter>
  </defs>
  <sodipodi:namedview
     id="base"
     pagecolor="#ffffff"
     bordercolor="#666666"
     borderopacity="1.0"
     inkscape:pageopacity="0.0"
     inkscape:pageshadow="2"
     inkscape:zoom="0.35"
     inkscape:cx="-628.69234"
     inkscape:cy="-172.05499"
     inkscape:document-units="px"
     inkscape:current-layer="layer1"
     showgrid="false"
     inkscape:window-width="1920"
     inkscape:window-height="1028"
     inkscape:window-x="0"
     inkscape:window-y="26"
     inkscape:window-maximized="1"
     fit-margin-top="0"
     fit-margin-left="0"
     fit-margin-right="0"
     fit-margin-bottom="0" />
  <metadata
     id="metadata7">
    <rdf:RDF>
      <cc:Work
         rdf:about="">
        <dc:format>image/svg+xml</dc:format>
        <dc:type
           rdf:resource="http://purl.org/dc/dcmitype/StillImage" />
        <dc:title />
      </cc:Work>
    </rdf:RDF>
  </metadata>
  <g
     inkscape:label="Layer 1"
     inkscape:groupmode="layer"
     id="layer1"
     transform="translate(-203.69235,-260.30719)">
    <g
       id="g3784"
       transform="matrix(1.0841082,0,0,1.0841082,-44.680647,-36.544868)">
      <g
         id="flowRoot2985"
         style="font-size:40px;font-style:normal;font-weight:normal;line-height:125%;letter-spacing:0px;word-spacing:0px;fill:#00ff00;fill-opacity:1;stroke:none;filter:url(#filter3761);font-family:Sans"
         transform="matrix(1.9589772,0,0,1.9589772,-279.35569,-77.510257)">
        <path
           id="path3768"
           d="M 294.95312,207.16513 L 298.74219,208.12216 C 297.94789,211.23414 296.51886,213.60719 294.45508,215.2413 C 292.39126,216.87541 289.86847,217.69247 286.88672,217.69247 C 283.80077,217.69247 281.29101,217.06422 279.35742,215.8077 C 277.42382,214.5512 275.95247,212.73154 274.94336,210.34872 C 273.93424,207.96592 273.42969,205.40733 273.42969,202.67294 C 273.42969,199.69119 273.99935,197.09028 275.13867,194.8702 C 276.27799,192.65018 277.89908,190.96398 280.00195,189.81161 C 282.10481,188.6593 284.41926,188.08312 286.94531,188.0831 C 289.80988,188.08312 292.21873,188.81229 294.17187,190.2706 C 296.12498,191.72895 297.48565,193.77973 298.25391,196.42294 L 294.52344,197.30185 C 293.85935,195.21853 292.89581,193.70161 291.63281,192.75106 C 290.36977,191.80057 288.78123,191.32531 286.86719,191.32528 C 284.66665,191.32531 282.82746,191.85265 281.34961,192.90731 C 279.87174,193.96202 278.83333,195.37804 278.23437,197.15536 C 277.63541,198.93272 277.33593,200.7654 277.33594,202.65341 C 277.33593,205.08832 277.69075,207.21396 278.40039,209.03036 C 279.11002,210.84677 280.21353,212.20419 281.71094,213.10263 C 283.20832,214.00107 284.82941,214.45029 286.57422,214.45028 C 288.6966,214.45029 290.49347,213.83831 291.96484,212.61435 C 293.43618,211.39039 294.43227,209.57399 294.95312,207.16513 z"
           inkscape:connector-curvature="0" />
        <path
           id="path3770"
           d="M 301.67187,206.8331 C 301.67187,202.99196 302.73958,200.14691 304.875,198.29794 C 306.65885,196.7615 308.83332,195.99327 311.39844,195.99325 C 314.24999,195.99327 316.58071,196.92752 318.39062,198.79599 C 320.2005,200.66449 321.10545,203.24587 321.10547,206.54013 C 321.10545,209.20941 320.70506,211.30901 319.9043,212.83895 C 319.1035,214.36891 317.93813,215.55706 316.4082,216.40341 C 314.87824,217.24976 313.20832,217.67294 311.39844,217.67294 C 308.49478,217.67294 306.14778,216.74195 304.35742,214.87997 C 302.56706,213.018 301.67187,210.33571 301.67187,206.8331 z M 305.28516,206.8331 C 305.28515,209.48935 305.86458,211.47828 307.02344,212.79989 C 308.18228,214.12151 309.64062,214.78232 311.39844,214.78231 C 313.14322,214.78232 314.59504,214.11825 315.75391,212.79013 C 316.91274,211.46201 317.49217,209.43727 317.49219,206.71591 C 317.49217,204.15082 316.90949,202.20746 315.74414,200.88583 C 314.57876,199.56423 313.1302,198.90343 311.39844,198.90341 C 309.64062,198.90343 308.18228,199.56098 307.02344,200.87606 C 305.86458,202.19118 305.28515,204.17686 305.28516,206.8331 z"
           inkscape:connector-curvature="0" />
        <path
           id="path3772"
           d="M 325.20703,217.20419 L 325.20703,196.462 L 328.37109,196.462 L 328.37109,199.60653 C 329.17838,198.1352 329.92382,197.16515 330.60742,196.69638 C 331.29101,196.22765 332.04296,195.99327 332.86328,195.99325 C 334.04817,195.99327 335.25259,196.37088 336.47656,197.12606 L 335.26562,200.38778 C 334.40624,199.87999 333.54686,199.62608 332.6875,199.62606 C 331.91926,199.62608 331.22916,199.8572 330.61719,200.31942 C 330.0052,200.78168 329.569,201.42295 329.30859,202.24325 C 328.91796,203.49327 328.72265,204.86045 328.72266,206.34481 L 328.72266,217.20419 z"
           inkscape:connector-curvature="0" />
        <path
           id="path3774"
           d="M 338.56641,217.20419 L 338.56641,196.462 L 341.73047,196.462 L 341.73047,199.60653 C 342.53775,198.1352 343.2832,197.16515 343.9668,196.69638 C 344.65038,196.22765 345.40233,195.99327 346.22266,195.99325 C 347.40754,195.99327 348.61197,196.37088 349.83594,197.12606 L 348.625,200.38778 C 347.76561,199.87999 346.90624,199.62608 346.04687,199.62606 C 345.27864,199.62608 344.58853,199.8572 343.97656,200.31942 C 343.36458,200.78168 342.92838,201.42295 342.66797,202.24325 C 342.27734,203.49327 342.08203,204.86045 342.08203,206.34481 L 342.08203,217.20419 z"
           inkscape:connector-curvature="0" />
        <path
           id="path3776"
           d="M 366.16406,210.5245 L 369.79687,210.97372 C 369.22394,213.09612 368.16274,214.74325 366.61328,215.91513 C 365.06379,217.087 363.08462,217.67294 360.67578,217.67294 C 357.64192,217.67294 355.23632,216.73869 353.45898,214.8702 C 351.68164,213.00172 350.79297,210.38128 350.79297,207.00888 C 350.79297,203.51931 351.6914,200.81098 353.48828,198.88388 C 355.28515,196.95681 357.61588,195.99327 360.48047,195.99325 C 363.25389,195.99327 365.51952,196.93728 367.27734,198.82528 C 369.03514,200.71332 369.91404,203.36957 369.91406,206.79403 C 369.91404,207.00238 369.90706,207.31488 369.89456,207.73153 L 354.42581,207.73153 C 354.55601,210.01019 355.20054,211.75498 356.3594,212.96591 C 357.51825,214.17685 358.96356,214.78232 360.69534,214.78231 C 361.98439,214.78232 363.08465,214.44378 363.99612,213.76669 C 364.90757,213.08961 365.63022,212.00888 366.16409,210.5245 z M 354.62109,204.84091 L 366.20312,204.84091 C 366.04686,203.09613 365.60415,201.78754 364.875,200.91513 C 363.75519,199.56098 362.30337,198.88389 360.51953,198.88388 C 358.90494,198.88389 357.54752,199.42426 356.44727,200.50497 C 355.347,201.58572 354.73828,203.03103 354.62109,204.84091 z"
           inkscape:connector-curvature="0" />
        <path
           id="path3778"
           d="M 387.76562,209.60653 L 391.22266,210.05575 C 390.84503,212.43857 389.87824,214.3038 388.32227,215.65145 C 386.76626,216.99911 384.85546,217.67294 382.58984,217.67294 C 379.75129,217.67294 377.4694,216.74521 375.74414,214.88974 C 374.01888,213.03427 373.15625,210.37477 373.15625,206.91122 C 373.15625,204.67165 373.52734,202.71202 374.26953,201.03231 C 375.01172,199.35264 376.14127,198.09288 377.6582,197.25302 C 379.17512,196.41319 380.82551,195.99327 382.60937,195.99325 C 384.86197,195.99327 386.70441,196.56293 388.13672,197.70224 C 389.56899,198.84158 390.48696,200.45941 390.89062,202.55575 L 387.47266,203.0831 C 387.14712,201.68988 386.57095,200.64171 385.74414,199.93856 C 384.9173,199.23546 383.91796,198.88389 382.74609,198.88388 C 380.97525,198.88389 379.53645,199.51866 378.42969,200.78817 C 377.32291,202.05772 376.76953,204.06618 376.76953,206.81356 C 376.76953,209.60003 377.30338,211.62477 378.37109,212.88778 C 379.43879,214.15081 380.83202,214.78232 382.55078,214.78231 C 383.93098,214.78232 385.08332,214.35914 386.00781,213.51278 C 386.93228,212.66643 387.51821,211.36435 387.76562,209.60653 z"
           inkscape:connector-curvature="0" />
        <path
           id="path3780"
           d="M 401.90625,214.05966 L 402.41406,217.16513 C 401.42447,217.37346 400.53905,217.47763 399.75781,217.47763 C 398.48176,217.47763 397.49218,217.2758 396.78906,216.87216 C 396.08593,216.46851 395.59114,215.93791 395.30469,215.28036 C 395.01823,214.62281 394.875,213.23935 394.875,211.12997 L 394.875,199.19638 L 392.29687,199.19638 L 392.29687,196.462 L 394.875,196.462 L 394.875,191.32528 L 398.37109,189.21591 L 398.37109,196.462 L 401.90625,196.462 L 401.90625,199.19638 L 398.37109,199.19638 L 398.37109,211.32528 C 398.37109,212.32789 398.43289,212.97242 398.55664,213.25888 C 398.68033,213.54534 398.88215,213.7732 399.16211,213.94247 C 399.44205,214.11174 399.84244,214.19638 400.36328,214.19638 C 400.7539,214.19638 401.26822,214.15078 401.90625,214.05966 z"
           inkscape:connector-curvature="0" />
        <path
           id="path3782"
           d="M 407.19922,210.09481 L 406.125,194.91903 L 406.125,188.57138 L 410.48047,188.57138 L 410.48047,194.91903 L 409.46484,210.09481 z M 406.28125,217.20419 L 406.28125,213.20028 L 410.32422,213.20028 L 410.32422,217.20419 z"
           inkscape:connector-curvature="0" />
      </g>
    </g>
  </g>
</svg>
