<?xml version="1.0" encoding="UTF-8" standalone="no"?>
<!-- Created with Inkscape (http://www.inkscape.org/) -->

<svg
   xmlns:dc="http://purl.org/dc/elements/1.1/"
   xmlns:cc="http://creativecommons.org/ns#"
   xmlns:rdf="http://www.w3.org/1999/02/22-rdf-syntax-ns#"
   xmlns:svg="http://www.w3.org/2000/svg"
   xmlns="http://www.w3.org/2000/svg"
   xmlns:sodipodi="http://sodipodi.sourceforge.net/DTD/sodipodi-0.dtd"
   xmlns:inkscape="http://www.inkscape.org/namespaces/inkscape"
   width="350"
   height="100"
   id="svg2"
   version="1.1"
   inkscape:version="0.48.1 r9760"
   sodipodi:docname="greatjob.svg">
  <defs
     id="defs4">
    <filter
       id="filter2993"
       inkscape:label="Glow"
       inkscape:menu="Shadows and Glows"
       inkscape:menu-tooltip="Glow of object's own color at the edges"
       color-interpolation-filters="sRGB">
      <feGaussianBlur
         id="feGaussianBlur2995"
         stdDeviation="5"
         result="result91" />
      <feComposite
         id="feComposite2997"
         in2="result91"
         in="SourceGraphic"
         operator="over" />
    </filter>
  </defs>
  <sodipodi:namedview
     id="base"
     pagecolor="#ffffff"
     bordercolor="#666666"
     borderopacity="1.0"
     inkscape:pageopacity="0.0"
     inkscape:pageshadow="2"
     inkscape:zoom="1.4"
     inkscape:cx="224.67174"
     inkscape:cy="41.640252"
     inkscape:document-units="px"
     inkscape:current-layer="layer1"
     showgrid="false"
     inkscape:window-width="1920"
     inkscape:window-height="1028"
     inkscape:window-x="0"
     inkscape:window-y="26"
     inkscape:window-maximized="1"
     fit-margin-top="0"
     fit-margin-left="0"
     fit-margin-right="0"
     fit-margin-bottom="0" />
  <metadata
     id="metadata7">
    <rdf:RDF>
      <cc:Work
         rdf:about="">
        <dc:format>image/svg+xml</dc:format>
        <dc:type
           rdf:resource="http://purl.org/dc/dcmitype/StillImage" />
        <dc:title />
      </cc:Work>
    </rdf:RDF>
  </metadata>
  <g
     inkscape:label="Layer 1"
     inkscape:groupmode="layer"
     id="layer1"
     transform="translate(-158.74469,-174.05842)">
    <g
       transform="matrix(1.783894,0,0,1.783894,-178.40013,-204.15477)"
       style="font-size:40px;font-style:normal;font-weight:normal;line-height:125%;letter-spacing:0px;word-spacing:0px;fill:#00ff00;fill-opacity:1;stroke:none;filter:url(#filter2993);font-family:Sans"
       id="flowRoot2985">
      <path
         d="M 210.76562,243.12997 L 210.76562,239.7706 L 222.89453,239.7511 L 222.89453,250.3761 C 221.03253,251.86048 219.11195,252.97702 217.13281,253.72571 C 215.15362,254.47441 213.12238,254.84876 211.03906,254.84876 C 208.22655,254.84876 205.67121,254.24655 203.37305,253.04212 C 201.07486,251.8377 199.33984,250.09616 198.16797,247.81751 C 196.99609,245.53887 196.41015,242.9933 196.41016,240.18079 C 196.41015,237.39435 196.99284,234.79344 198.1582,232.37806 C 199.32356,229.96272 200.99999,228.1691 203.1875,226.9972 C 205.37499,225.82535 207.89452,225.23941 210.74609,225.23939 C 212.81639,225.23941 214.68813,225.5747 216.36133,226.24524 C 218.03448,226.91585 219.34633,227.85009 220.29687,229.04798 C 221.24737,230.24592 221.97002,231.80842 222.46484,233.73548 L 219.04687,234.67298 C 218.61716,233.21467 218.08331,232.06883 217.44531,231.23548 C 216.80727,230.40217 215.89581,229.73485 214.71094,229.23353 C 213.52602,228.73225 212.21092,228.4816 210.76562,228.48157 C 209.03384,228.4816 207.53645,228.74527 206.27344,229.27259 C 205.01041,229.79996 203.99153,230.49332 203.2168,231.35267 C 202.44205,232.21206 201.83984,233.15607 201.41016,234.1847 C 200.68098,235.95555 200.3164,237.87612 200.31641,239.94642 C 200.3164,242.49851 200.75585,244.63393 201.63477,246.35267 C 202.51366,248.07142 203.79296,249.34746 205.47266,250.18079 C 207.15233,251.01413 208.93618,251.43079 210.82422,251.43079 C 212.46483,251.43079 214.06639,251.11504 215.62891,250.48353 C 217.19138,249.85202 218.37628,249.17819 219.18359,248.46204 L 219.18359,243.13001 z"
         id="path3000"
         inkscape:connector-curvature="0" />
      <path
         d="M 227.97266,254.36044 L 227.97266,233.61825 L 231.13672,233.61825 L 231.13672,236.76278 C 231.944,235.29145 232.68945,234.3214 233.37305,233.85263 C 234.05663,233.3839 234.80858,233.14952 235.62891,233.1495 C 236.81379,233.14952 238.01822,233.52713 239.24219,234.28231 L 238.03125,237.54403 C 237.17186,237.03624 236.31249,236.78233 235.45312,236.78231 C 234.68489,236.78233 233.99478,237.01345 233.38281,237.47567 C 232.77083,237.93793 232.33463,238.5792 232.07422,239.3995 C 231.68359,240.64952 231.48828,242.0167 231.48828,243.50106 L 231.48828,254.36044 z"
         id="path3002"
         inkscape:connector-curvature="0" />
      <path
         d="M 255.57031,247.68075 L 259.20312,248.12997 C 258.63019,250.25237 257.56899,251.8995 256.01953,253.07138 C 254.47004,254.24325 252.49087,254.82919 250.08203,254.82919 C 247.04817,254.82919 244.64257,253.89494 242.86523,252.02645 C 241.08789,250.15797 240.19922,247.53753 240.19922,244.16513 C 240.19922,240.67556 241.09765,237.96723 242.89453,236.04013 C 244.6914,234.11306 247.02213,233.14952 249.88672,233.1495 C 252.66014,233.14952 254.92577,234.09353 256.68359,235.98153 C 258.44139,237.86957 259.32029,240.52582 259.32031,243.95028 C 259.32029,244.15863 259.31331,244.47113 259.30081,244.88778 L 243.83206,244.88778 C 243.96226,247.16644 244.60679,248.91123 245.76565,250.12216 C 246.9245,251.3331 248.36981,251.93857 250.10159,251.93856 C 251.39064,251.93857 252.4909,251.60003 253.40237,250.92294 C 254.31382,250.24586 255.03647,249.16513 255.57034,247.68075 z M 244.02734,241.99716 L 255.60937,241.99716 C 255.45311,240.25238 255.0104,238.94379 254.28125,238.07138 C 253.16144,236.71723 251.70962,236.04014 249.92578,236.04013 C 248.31119,236.04014 246.95377,236.58051 245.85352,237.66122 C 244.75325,238.74197 244.14453,240.18728 244.02734,241.99716 z"
         id="path3004"
         inkscape:connector-curvature="0" />
      <path
         d="M 277.17187,251.80185 C 275.86978,252.90862 274.61652,253.68987 273.41211,254.1456 C 272.20767,254.60132 270.91535,254.82919 269.53516,254.82919 C 267.2565,254.82919 265.5052,254.27255 264.28125,253.15927 C 263.05729,252.04599 262.44531,250.62346 262.44531,248.89169 C 262.44531,247.87607 262.67643,246.94834 263.13867,246.10849 C 263.60091,245.26865 264.20638,244.59482 264.95508,244.087 C 265.70377,243.5792 266.54687,243.19509 267.48437,242.93466 C 268.17447,242.75238 269.21614,242.5766 270.60937,242.40731 C 273.4479,242.06878 275.53775,241.66514 276.87891,241.19638 C 276.89191,240.71462 276.89841,240.40863 276.89841,240.27841 C 276.89839,238.84613 276.56636,237.83702 275.90231,237.25106 C 275.00386,236.45681 273.66923,236.05968 271.89841,236.05966 C 270.24475,236.05968 269.02405,236.34939 268.2363,236.9288 C 267.44853,237.50824 266.86585,238.53363 266.48825,240.00497 L 263.05075,239.53622 C 263.36325,238.06488 263.87757,236.87673 264.59372,235.97177 C 265.30986,235.06684 266.34502,234.37022 267.69919,233.88192 C 269.05335,233.39366 270.62236,233.14952 272.40622,233.1495 C 274.17704,233.14952 275.61584,233.35786 276.72263,233.7745 C 277.82938,234.19119 278.64318,234.71528 279.16403,235.34677 C 279.68485,235.9783 280.04943,236.77582 280.25778,237.73935 C 280.37495,238.33832 280.43354,239.41905 280.43356,240.98153 L 280.43356,245.66903 C 280.43354,248.93727 280.50846,251.00432 280.65817,251.8702 C 280.80789,252.73609 281.10412,253.56617 281.54684,254.36044 L 277.87497,254.36044 C 277.51037,253.63127 277.276,252.77841 277.17184,251.80185 z M 276.87891,243.95028 C 275.60285,244.47113 273.68879,244.91383 271.13672,245.27841 C 269.6914,245.48675 268.66926,245.72112 268.07031,245.98153 C 267.47135,246.24196 267.00911,246.62282 266.68359,247.12411 C 266.35807,247.62542 266.19531,248.18206 266.19531,248.79403 C 266.19531,249.73154 266.55012,250.51279 267.25977,251.13778 C 267.96939,251.76279 269.0078,252.07529 270.375,252.07528 C 271.72916,252.07529 272.93358,251.77906 273.98828,251.18661 C 275.04295,250.59417 275.81769,249.78362 276.3125,248.75497 C 276.69009,247.96071 276.87889,246.78883 276.87891,245.23935 z"
         id="path3006"
         inkscape:connector-curvature="0" />
      <path
         d="M 293.57812,251.21591 L 294.08594,254.32138 C 293.09634,254.52971 292.21093,254.63388 291.42969,254.63388 C 290.15364,254.63388 289.16406,254.43205 288.46094,254.02841 C 287.75781,253.62476 287.26302,253.09416 286.97656,252.43661 C 286.6901,251.77906 286.54687,250.3956 286.54687,248.28622 L 286.54687,236.35263 L 283.96875,236.35263 L 283.96875,233.61825 L 286.54687,233.61825 L 286.54687,228.48153 L 290.04297,226.37216 L 290.04297,233.61825 L 293.57812,233.61825 L 293.57812,236.35263 L 290.04297,236.35263 L 290.04297,248.48153 C 290.04296,249.48414 290.10477,250.12867 290.22852,250.41513 C 290.35221,250.70159 290.55403,250.92945 290.83398,251.09872 C 291.11392,251.26799 291.51431,251.35263 292.03516,251.35263 C 292.42577,251.35263 292.94009,251.30703 293.57812,251.21591 z"
         id="path3008"
         inkscape:connector-curvature="0" />
      <path
         d="M 306.60547,246.23544 L 310.02344,245.76669 C 310.11454,247.9542 310.52473,249.45159 311.25391,250.25888 C 311.98307,251.06617 312.99218,251.46982 314.28125,251.46981 C 315.23176,251.46982 316.05207,251.25172 316.74219,250.81552 C 317.43228,250.37932 317.90754,249.78688 318.16797,249.03817 C 318.42837,248.28948 318.55858,247.09482 318.55859,245.45419 L 318.55859,225.72763 L 322.34766,225.72763 L 322.34766,245.23935 C 322.34764,247.63519 322.05793,249.49065 321.47852,250.80575 C 320.89907,252.12086 319.98111,253.12346 318.72461,253.81356 C 317.46809,254.50367 315.99348,254.84872 314.30078,254.84872 C 311.78775,254.84872 309.86393,254.12606 308.5293,252.68075 C 307.19466,251.23544 306.55338,249.08701 306.60547,246.23544 z"
         id="path3010"
         inkscape:connector-curvature="0" />
      <path
         d="M 326.78125,243.98935 C 326.78125,240.14821 327.84896,237.30316 329.98437,235.45419 C 331.76822,233.91775 333.9427,233.14952 336.50781,233.1495 C 339.35936,233.14952 341.69009,234.08377 343.5,235.95224 C 345.30988,237.82074 346.21482,240.40212 346.21484,243.69638 C 346.21482,246.36566 345.81443,248.46526 345.01367,249.9952 C 344.21287,251.52516 343.04751,252.71331 341.51758,253.55966 C 339.98762,254.40601 338.3177,254.82919 336.50781,254.82919 C 333.60416,254.82919 331.25716,253.8982 329.4668,252.03622 C 327.67643,250.17425 326.78125,247.49196 326.78125,243.98935 z M 330.39453,243.98935 C 330.39453,246.6456 330.97395,248.63453 332.13281,249.95614 C 333.29166,251.27776 334.74999,251.93857 336.50781,251.93856 C 338.25259,251.93857 339.70441,251.2745 340.86328,249.94638 C 342.02212,248.61826 342.60155,246.59352 342.60156,243.87216 C 342.60155,241.30707 342.01886,239.36371 340.85352,238.04208 C 339.68814,236.72048 338.23957,236.05968 336.50781,236.05966 C 334.74999,236.05968 333.29166,236.71723 332.13281,238.03231 C 330.97395,239.34743 330.39453,241.33311 330.39453,243.98935 z"
         id="path3012"
         inkscape:connector-curvature="0" />
      <path
         d="M 353.59766,254.36044 L 350.33594,254.36044 L 350.33594,225.72763 L 353.85156,225.72763 L 353.85156,235.94247 C 355.33593,234.08051 357.23046,233.14952 359.53516,233.1495 C 360.81118,233.14952 362.01887,233.40668 363.1582,233.92099 C 364.29751,234.43533 365.23501,235.15798 365.9707,236.08895 C 366.70636,237.01996 367.28253,238.14301 367.69922,239.4581 C 368.11587,240.77321 368.3242,242.17946 368.32422,243.67685 C 368.3242,247.23154 367.44529,249.97893 365.6875,251.91903 C 363.92967,253.85914 361.8203,254.82919 359.35937,254.82919 C 356.91145,254.82919 354.99088,253.80705 353.59766,251.76278 z M 353.55856,243.8331 C 353.55856,246.32008 353.8971,248.11696 354.57419,249.22372 C 355.68095,251.03362 357.17835,251.93857 359.06638,251.93856 C 360.60282,251.93857 361.93095,251.27125 363.05075,249.93661 C 364.17053,248.60198 364.73042,246.61305 364.73044,243.96981 C 364.73042,241.26149 364.19331,239.2628 363.11911,237.97372 C 362.04488,236.68468 360.74605,236.04014 359.22263,236.04013 C 357.68616,236.04014 356.35803,236.70746 355.23825,238.04208 C 354.11845,239.37673 353.55856,241.30707 353.55856,243.8331 z"
         id="path3014"
         inkscape:connector-curvature="0" />
      <path
         d="M 374.49609,247.25106 L 373.42187,232.07528 L 373.42187,225.72763 L 377.77734,225.72763 L 377.77734,232.07528 L 376.76172,247.25106 z M 373.57812,254.36044 L 373.57812,250.35653 L 377.62109,250.35653 L 377.62109,254.36044 z"
         id="path3016"
         inkscape:connector-curvature="0" />
    </g>
  </g>
</svg>
