<?xml version="1.0" encoding="UTF-8" standalone="no"?>
<!-- Created with Inkscape (http://www.inkscape.org/) -->

<svg
   xmlns:dc="http://purl.org/dc/elements/1.1/"
   xmlns:cc="http://creativecommons.org/ns#"
   xmlns:rdf="http://www.w3.org/1999/02/22-rdf-syntax-ns#"
   xmlns:svg="http://www.w3.org/2000/svg"
   xmlns="http://www.w3.org/2000/svg"
   xmlns:sodipodi="http://sodipodi.sourceforge.net/DTD/sodipodi-0.dtd"
   xmlns:inkscape="http://www.inkscape.org/namespaces/inkscape"
   width="350"
   height="100"
   id="svg2"
   version="1.1"
   inkscape:version="0.48.1 r9760"
   sodipodi:docname="incorrect.svg">
  <defs
     id="defs4">
    <filter
       id="filter3761"
       inkscape:label="Glow"
       inkscape:menu="Shadows and Glows"
       inkscape:menu-tooltip="Glow of object's own color at the edges"
       color-interpolation-filters="sRGB">
      <feGaussianBlur
         id="feGaussianBlur3763"
         stdDeviation="5"
         result="result91" />
      <feComposite
         id="feComposite3765"
         in2="result91"
         in="SourceGraphic"
         operator="over" />
    </filter>
  </defs>
  <sodipodi:namedview
     id="base"
     pagecolor="#ffffff"
     bordercolor="#666666"
     borderopacity="1.0"
     inkscape:pageopacity="0.0"
     inkscape:pageshadow="2"
     inkscape:zoom="0.35"
     inkscape:cx="-761.59703"
     inkscape:cy="-190.34548"
     inkscape:document-units="px"
     inkscape:current-layer="layer1"
     showgrid="false"
     inkscape:window-width="1920"
     inkscape:window-height="1028"
     inkscape:window-x="0"
     inkscape:window-y="26"
     inkscape:window-maximized="1"
     fit-margin-top="0"
     fit-margin-left="0"
     fit-margin-right="0"
     fit-margin-bottom="0" />
  <metadata
     id="metadata7">
    <rdf:RDF>
      <cc:Work
         rdf:about="">
        <dc:format>image/svg+xml</dc:format>
        <dc:type
           rdf:resource="http://purl.org/dc/dcmitype/StillImage" />
        <dc:title />
      </cc:Work>
    </rdf:RDF>
  </metadata>
  <g
     inkscape:label="Layer 1"
     inkscape:groupmode="layer"
     id="layer1"
     transform="translate(-132.90469,-305.78835)">
    <g
       transform="matrix(1.9589772,0,0,1.9589772,-379.73075,-42.12333)"
       style="font-size:40px;font-style:normal;font-weight:normal;line-height:125%;letter-spacing:0px;word-spacing:0px;fill:#ff0000;fill-opacity:1;stroke:none;filter:url(#filter3761);font-family:Sans"
       id="flowRoot2985">
      <path
         d="M 275.16797,217.20419 L 275.16797,188.57138 L 278.95703,188.57138 L 278.95703,217.20419 z"
         id="path3804"
         inkscape:connector-curvature="0" />
      <path
         d="M 285.16797,217.20419 L 285.16797,196.462 L 288.33203,196.462 L 288.33203,199.41122 C 289.85546,197.13259 292.05598,195.99327 294.93359,195.99325 C 296.18358,195.99327 297.33267,196.21788 298.38086,196.66708 C 299.42902,197.11632 300.21352,197.70551 300.73437,198.43466 C 301.25519,199.16384 301.61977,200.02973 301.82812,201.03231 C 301.95831,201.68337 302.02342,202.82269 302.02344,204.45028 L 302.02344,217.20419 L 298.50781,217.20419 L 298.50781,204.587 C 298.5078,203.15472 298.37108,202.08376 298.09766,201.37411 C 297.8242,200.66449 297.33918,200.09809 296.64258,199.67489 C 295.94595,199.25173 295.12889,199.04014 294.19141,199.04013 C 292.694,199.04014 291.40168,199.5154 290.31445,200.46591 C 289.22721,201.41644 288.68359,203.21983 288.68359,205.87606 L 288.68359,217.20419 z"
         id="path3806"
         inkscape:connector-curvature="0" />
      <path
         d="M 320.96875,209.60653 L 324.42578,210.05575 C 324.04816,212.43857 323.08136,214.3038 321.52539,215.65145 C 319.96939,216.99911 318.05858,217.67294 315.79297,217.67294 C 312.95442,217.67294 310.67252,216.74521 308.94727,214.88974 C 307.222,213.03427 306.35937,210.37477 306.35937,206.91122 C 306.35937,204.67165 306.73047,202.71202 307.47266,201.03231 C 308.21484,199.35264 309.3444,198.09288 310.86133,197.25302 C 312.37825,196.41319 314.02864,195.99327 315.8125,195.99325 C 318.06509,195.99327 319.90754,196.56293 321.33984,197.70224 C 322.77212,198.84158 323.69009,200.45941 324.09375,202.55575 L 320.67578,203.0831 C 320.35024,201.68988 319.77407,200.64171 318.94727,199.93856 C 318.12043,199.23546 317.12108,198.88389 315.94922,198.88388 C 314.17838,198.88389 312.73958,199.51866 311.63281,200.78817 C 310.52604,202.05772 309.97265,204.06618 309.97266,206.81356 C 309.97265,209.60003 310.5065,211.62477 311.57422,212.88778 C 312.64192,214.15081 314.03515,214.78232 315.75391,214.78231 C 317.1341,214.78232 318.28644,214.35914 319.21094,213.51278 C 320.1354,212.66643 320.72134,211.36435 320.96875,209.60653 z"
         id="path3808"
         inkscape:connector-curvature="0" />
      <path
         d="M 326.125,206.8331 C 326.125,202.99196 327.19271,200.14691 329.32812,198.29794 C 331.11197,196.7615 333.28645,195.99327 335.85156,195.99325 C 338.70311,195.99327 341.03384,196.92752 342.84375,198.79599 C 344.65363,200.66449 345.55857,203.24587 345.55859,206.54013 C 345.55857,209.20941 345.15818,211.30901 344.35742,212.83895 C 343.55662,214.36891 342.39126,215.55706 340.86133,216.40341 C 339.33137,217.24976 337.66145,217.67294 335.85156,217.67294 C 332.94791,217.67294 330.60091,216.74195 328.81055,214.87997 C 327.02018,213.018 326.125,210.33571 326.125,206.8331 z M 329.73828,206.8331 C 329.73828,209.48935 330.3177,211.47828 331.47656,212.79989 C 332.63541,214.12151 334.09374,214.78232 335.85156,214.78231 C 337.59634,214.78232 339.04816,214.11825 340.20703,212.79013 C 341.36587,211.46201 341.9453,209.43727 341.94531,206.71591 C 341.9453,204.15082 341.36261,202.20746 340.19727,200.88583 C 339.03189,199.56423 337.58332,198.90343 335.85156,198.90341 C 334.09374,198.90343 332.63541,199.56098 331.47656,200.87606 C 330.3177,202.19118 329.73828,204.17686 329.73828,206.8331 z"
         id="path3810"
         inkscape:connector-curvature="0" />
      <path
         d="M 349.66016,217.20419 L 349.66016,196.462 L 352.82422,196.462 L 352.82422,199.60653 C 353.6315,198.1352 354.37695,197.16515 355.06055,196.69638 C 355.74413,196.22765 356.49608,195.99327 357.31641,195.99325 C 358.50129,195.99327 359.70572,196.37088 360.92969,197.12606 L 359.71875,200.38778 C 358.85936,199.87999 357.99999,199.62608 357.14062,199.62606 C 356.37239,199.62608 355.68228,199.8572 355.07031,200.31942 C 354.45833,200.78168 354.02213,201.42295 353.76172,202.24325 C 353.37109,203.49327 353.17578,204.86045 353.17578,206.34481 L 353.17578,217.20419 z"
         id="path3812"
         inkscape:connector-curvature="0" />
      <path
         d="M 363.01953,217.20419 L 363.01953,196.462 L 366.18359,196.462 L 366.18359,199.60653 C 366.99088,198.1352 367.73632,197.16515 368.41992,196.69638 C 369.10351,196.22765 369.85546,195.99327 370.67578,195.99325 C 371.86067,195.99327 373.06509,196.37088 374.28906,197.12606 L 373.07812,200.38778 C 372.21874,199.87999 371.35936,199.62608 370.5,199.62606 C 369.73176,199.62608 369.04166,199.8572 368.42969,200.31942 C 367.8177,200.78168 367.3815,201.42295 367.12109,202.24325 C 366.73046,203.49327 366.53515,204.86045 366.53516,206.34481 L 366.53516,217.20419 z"
         id="path3814"
         inkscape:connector-curvature="0" />
      <path
         d="M 390.61719,210.5245 L 394.25,210.97372 C 393.67706,213.09612 392.61587,214.74325 391.06641,215.91513 C 389.51691,217.087 387.53775,217.67294 385.12891,217.67294 C 382.09504,217.67294 379.68945,216.73869 377.91211,214.8702 C 376.13476,213.00172 375.24609,210.38128 375.24609,207.00888 C 375.24609,203.51931 376.14453,200.81098 377.94141,198.88388 C 379.73828,196.95681 382.069,195.99327 384.93359,195.99325 C 387.70702,195.99327 389.97264,196.93728 391.73047,198.82528 C 393.48826,200.71332 394.36717,203.36957 394.36719,206.79403 C 394.36717,207.00238 394.36019,207.31488 394.34769,207.73153 L 378.87894,207.73153 C 379.00914,210.01019 379.65367,211.75498 380.81253,212.96591 C 381.97138,214.17685 383.41669,214.78232 385.14847,214.78231 C 386.43752,214.78232 387.53778,214.44378 388.44925,213.76669 C 389.36069,213.08961 390.08335,212.00888 390.61722,210.5245 z M 379.07422,204.84091 L 390.65625,204.84091 C 390.49998,203.09613 390.05728,201.78754 389.32812,200.91513 C 388.20832,199.56098 386.7565,198.88389 384.97266,198.88388 C 383.35806,198.88389 382.00064,199.42426 380.90039,200.50497 C 379.80012,201.58572 379.1914,203.03103 379.07422,204.84091 z"
         id="path3816"
         inkscape:connector-curvature="0" />
      <path
         d="M 412.21875,209.60653 L 415.67578,210.05575 C 415.29816,212.43857 414.33136,214.3038 412.77539,215.65145 C 411.21939,216.99911 409.30858,217.67294 407.04297,217.67294 C 404.20442,217.67294 401.92252,216.74521 400.19727,214.88974 C 398.472,213.03427 397.60937,210.37477 397.60937,206.91122 C 397.60937,204.67165 397.98047,202.71202 398.72266,201.03231 C 399.46484,199.35264 400.5944,198.09288 402.11133,197.25302 C 403.62825,196.41319 405.27864,195.99327 407.0625,195.99325 C 409.31509,195.99327 411.15754,196.56293 412.58984,197.70224 C 414.02212,198.84158 414.94009,200.45941 415.34375,202.55575 L 411.92578,203.0831 C 411.60024,201.68988 411.02407,200.64171 410.19727,199.93856 C 409.37043,199.23546 408.37108,198.88389 407.19922,198.88388 C 405.42838,198.88389 403.98958,199.51866 402.88281,200.78817 C 401.77604,202.05772 401.22265,204.06618 401.22266,206.81356 C 401.22265,209.60003 401.7565,211.62477 402.82422,212.88778 C 403.89192,214.15081 405.28515,214.78232 407.00391,214.78231 C 408.3841,214.78232 409.53644,214.35914 410.46094,213.51278 C 411.3854,212.66643 411.97134,211.36435 412.21875,209.60653 z"
         id="path3818"
         inkscape:connector-curvature="0" />
      <path
         d="M 426.35937,214.05966 L 426.86719,217.16513 C 425.87759,217.37346 424.99218,217.47763 424.21094,217.47763 C 422.93489,217.47763 421.94531,217.2758 421.24219,216.87216 C 420.53906,216.46851 420.04427,215.93791 419.75781,215.28036 C 419.47135,214.62281 419.32812,213.23935 419.32812,211.12997 L 419.32812,199.19638 L 416.75,199.19638 L 416.75,196.462 L 419.32812,196.462 L 419.32812,191.32528 L 422.82422,189.21591 L 422.82422,196.462 L 426.35937,196.462 L 426.35937,199.19638 L 422.82422,199.19638 L 422.82422,211.32528 C 422.82421,212.32789 422.88602,212.97242 423.00977,213.25888 C 423.13346,213.54534 423.33528,213.7732 423.61523,213.94247 C 423.89517,214.11174 424.29556,214.19638 424.81641,214.19638 C 425.20702,214.19638 425.72134,214.15078 426.35937,214.05966 z"
         id="path3820"
         inkscape:connector-curvature="0" />
    </g>
  </g>
</svg>
