<?xml version="1.0" encoding="UTF-8" standalone="no"?>
<!-- Created with Inkscape (http://www.inkscape.org/) -->

<svg
   xmlns:dc="http://purl.org/dc/elements/1.1/"
   xmlns:cc="http://creativecommons.org/ns#"
   xmlns:rdf="http://www.w3.org/1999/02/22-rdf-syntax-ns#"
   xmlns:svg="http://www.w3.org/2000/svg"
   xmlns="http://www.w3.org/2000/svg"
   xmlns:sodipodi="http://sodipodi.sourceforge.net/DTD/sodipodi-0.dtd"
   xmlns:inkscape="http://www.inkscape.org/namespaces/inkscape"
   width="350"
   height="100"
   id="svg2"
   version="1.1"
   inkscape:version="0.48.1 r9760"
   sodipodi:docname="ouch.svg">
  <defs
     id="defs4">
    <filter
       id="filter3024"
       inkscape:label="Glow"
       inkscape:menu="Shadows and Glows"
       inkscape:menu-tooltip="Glow of object's own color at the edges"
       color-interpolation-filters="sRGB">
      <feGaussianBlur
         id="feGaussianBlur3026"
         stdDeviation="5"
         result="result91" />
      <feComposite
         id="feComposite3028"
         in2="result91"
         in="SourceGraphic"
         operator="over" />
    </filter>
  </defs>
  <sodipodi:namedview
     id="base"
     pagecolor="#ffffff"
     bordercolor="#666666"
     borderopacity="1.0"
     inkscape:pageopacity="0.0"
     inkscape:pageshadow="2"
     inkscape:zoom="1.4"
     inkscape:cx="78.386452"
     inkscape:cy="-57.762859"
     inkscape:document-units="px"
     inkscape:current-layer="svg2"
     showgrid="false"
     inkscape:window-width="1920"
     inkscape:window-height="1028"
     inkscape:window-x="0"
     inkscape:window-y="26"
     inkscape:window-maximized="1"
     fit-margin-top="0"
     fit-margin-left="0"
     fit-margin-right="0"
     fit-margin-bottom="0" />
  <metadata
     id="metadata7">
    <rdf:RDF>
      <cc:Work
         rdf:about="">
        <dc:format>image/svg+xml</dc:format>
        <dc:type
           rdf:resource="http://purl.org/dc/dcmitype/StillImage" />
        <dc:title />
      </cc:Work>
    </rdf:RDF>
  </metadata>
  <g
     inkscape:label="Layer 1"
     inkscape:groupmode="layer"
     id="layer1"
     transform="translate(-39.132812,-274.68572)" />
  <g
     style="font-size:80px;font-style:normal;font-weight:normal;line-height:125%;letter-spacing:0px;word-spacing:0px;fill:#ffff00;fill-opacity:1;stroke:none;filter:url(#filter3024);font-family:Sans"
     id="flowRoot3001"
     transform="translate(-12.539063,-289.13103)">
    <path
       d="M 63.867187,339.89275 C 63.867184,330.38758 66.419264,322.94618 71.523437,317.56853 C 76.627588,312.19099 83.216123,309.50219 91.289062,309.50213 C 96.575484,309.50219 101.3411,310.76521 105.58594,313.29119 C 109.83068,315.81728 113.06635,319.33942 115.29297,323.8576 C 117.51947,328.37587 118.63275,333.49956 118.63281,339.22869 C 118.63275,345.03601 117.46088,350.23131 115.11719,354.81463 C 112.77338,359.39797 109.45308,362.86802 105.15625,365.22478 C 100.85933,367.58156 96.223922,368.75994 91.25,368.75994 C 85.859349,368.75994 81.041646,367.45786 76.796875,364.85369 C 72.552071,362.24953 69.335928,358.69485 67.148437,354.18963 C 64.960933,349.68444 63.867184,344.91882 63.867187,339.89275 z M 71.679687,340.00994 C 71.679676,346.911 73.535143,352.3472 77.246094,356.31853 C 80.95701,360.2899 85.611954,362.27557 91.210937,362.27557 C 96.914026,362.27557 101.60803,360.27036 105.29297,356.25994 C 108.97782,352.24954 110.82026,346.55944 110.82031,339.18963 C 110.82026,334.5282 110.0325,330.4592 108.45703,326.9826 C 106.88146,323.50608 104.57678,320.81077 101.54297,318.89666 C 98.509076,316.98265 95.104132,316.02562 91.328125,316.02557 C 85.963516,316.02562 81.347635,317.86806 77.480469,321.55291 C 73.613268,325.23785 71.679676,331.39019 71.679687,340.00994 z"
       style="fill:#ffff00"
       id="path3010"
       inkscape:connector-curvature="0" />
    <path
       d="M 154.64844,367.78338 L 154.64844,361.68963 C 151.41924,366.37713 147.03123,368.72088 141.48437,368.72088 C 139.03644,368.72088 136.75129,368.25213 134.62891,367.31463 C 132.5065,366.37713 130.93098,365.19875 129.90234,363.77947 C 128.87369,362.36021 128.15104,360.62193 127.73438,358.56463 C 127.44791,357.18443 127.30468,354.99693 127.30469,352.00213 L 127.30469,326.299 L 134.33594,326.299 L 134.33594,349.30682 C 134.33593,352.97871 134.47915,355.45266 134.76562,356.72869 C 135.20832,358.57766 136.14582,360.02948 137.57812,361.08416 C 139.0104,362.13885 140.78123,362.6662 142.89062,362.66619 C 144.99998,362.6662 146.97914,362.12583 148.82812,361.0451 C 150.67705,359.96438 151.98565,358.49302 152.75391,356.63103 C 153.5221,354.76907 153.90622,352.06725 153.90625,348.52557 L 153.90625,326.299 L 160.9375,326.299 L 160.9375,367.78338 z"
       style="fill:#ffff00"
       id="path3012"
       inkscape:connector-curvature="0" />
    <path
       d="M 199.0625,352.58807 L 205.97656,353.4865 C 205.22132,358.25214 203.28772,361.9826 200.17578,364.67791 C 197.06377,367.37322 193.24216,368.72088 188.71094,368.72088 C 183.03384,368.72088 178.47004,366.86541 175.01953,363.15447 C 171.56901,359.44354 169.84375,354.12454 169.84375,347.19744 C 169.84375,342.7183 170.58593,338.79903 172.07031,335.43963 C 173.55468,332.08029 175.81379,329.56076 178.84766,327.88103 C 181.8815,326.20139 185.18227,325.36155 188.75,325.3615 C 193.25518,325.36155 196.94007,326.50087 199.80469,328.77947 C 202.66923,331.05815 204.50517,334.29383 205.3125,338.4865 L 198.47656,339.54119 C 197.82549,336.75476 196.67315,334.65841 195.01953,333.25213 C 193.36586,331.84591 191.36716,331.14279 189.02344,331.14275 C 185.48175,331.14279 182.60415,332.41232 180.39062,334.95135 C 178.17707,337.49044 177.0703,341.50736 177.07031,347.00213 C 177.0703,352.57506 178.13801,356.62454 180.27344,359.15057 C 182.40884,361.67661 185.19529,362.93963 188.63281,362.93963 C 191.3932,362.93963 193.69789,362.09328 195.54687,360.40057 C 197.3958,358.70787 198.56768,356.1037 199.0625,352.58807 z"
       style="fill:#ffff00"
       id="path3014"
       inkscape:connector-curvature="0" />
    <path
       d="M 211.99219,367.78338 L 211.99219,310.51775 L 219.02344,310.51775 L 219.02344,331.06463 C 222.30467,327.26259 226.44529,325.36155 231.44531,325.3615 C 234.5182,325.36155 237.18747,325.96701 239.45312,327.17791 C 241.71871,328.38889 243.33981,330.06206 244.31641,332.19744 C 245.29293,334.33289 245.78121,337.43185 245.78125,341.49432 L 245.78125,367.78338 L 238.75,367.78338 L 238.75,341.49432 C 238.74997,337.97872 237.98825,335.42013 236.46484,333.81853 C 234.94138,332.21701 232.78643,331.41623 230,331.41619 C 227.91665,331.41623 225.95701,331.95659 224.12109,333.03728 C 222.28514,334.11805 220.97655,335.58289 220.19531,337.43182 C 219.41405,339.2808 219.02343,341.83288 219.02344,345.08807 L 219.02344,367.78338 z"
       style="fill:#ffff00"
       id="path3016"
       inkscape:connector-curvature="0" />
    <path
       d="M 260.27344,353.56463 L 258.125,323.21307 L 258.125,310.51775 L 266.83594,310.51775 L 266.83594,323.21307 L 264.80469,353.56463 z M 258.4375,367.78338 L 258.4375,359.77557 L 266.52344,359.77557 L 266.52344,367.78338 z"
       style="fill:#ffff00"
       id="path3018"
       inkscape:connector-curvature="0" />
    <path
       d="M 282.46094,353.56463 L 280.3125,323.21307 L 280.3125,310.51775 L 289.02344,310.51775 L 289.02344,323.21307 L 286.99219,353.56463 z M 280.625,367.78338 L 280.625,359.77557 L 288.71094,359.77557 L 288.71094,367.78338 z"
       style="fill:#ffff00"
       id="path3020"
       inkscape:connector-curvature="0" />
    <path
       d="M 304.64844,353.56463 L 302.5,323.21307 L 302.5,310.51775 L 311.21094,310.51775 L 311.21094,323.21307 L 309.17969,353.56463 z M 302.8125,367.78338 L 302.8125,359.77557 L 310.89844,359.77557 L 310.89844,367.78338 z"
       style="fill:#ffff00"
       id="path3022"
       inkscape:connector-curvature="0" />
  </g>
</svg>
